<svg width="222" height="147" viewBox="0 0 222 147" fill="none" xmlns="http://www.w3.org/2000/svg">
<path d="M185.05 136.65H199.756V136.749H185.05V136.65Z" fill="#E7E8E5"/>
<path d="M143.202 137.829H147.062V137.729H143.202V137.829Z" fill="#E7E8E5"/>
<path d="M176.084 132.956H184.605V133.055H176.084V132.956Z" fill="#E7E8E5"/>
<path d="M23.2918 133.624H42.4695V133.724H23.2918V133.624Z" fill="#E7E8E5"/>
<path d="M46.4227 133.624H49.2346V133.724H46.4227V133.624Z" fill="#E7E8E5"/>
<path d="M58.373 135.403H99.9651V135.304H58.373V135.403Z" fill="#E7E8E5"/>
<path d="M19.4982 0.0994034C18.1619 0.0994034 17.0748 1.07314 17.0748 2.27042V110.237C17.0748 111.434 18.1619 112.408 19.4982 112.408H105.234C106.57 112.408 107.657 111.434 107.657 110.237V2.27042C107.657 1.07314 106.57 0.0994034 105.234 0.0994034H19.4982ZM105.234 112.507H19.4982C18.1009 112.507 16.9638 111.489 16.9638 110.237V2.27042C16.9638 1.01825 18.1009 -3.8147e-05 19.4982 -3.8147e-05H105.234C106.631 -3.8147e-05 107.768 1.01825 107.768 2.27042V110.237C107.768 111.489 106.631 112.507 105.234 112.507Z" fill="#E7E8E5"/>
<path d="M115.534 0.0994034C114.198 0.0994034 113.111 1.07314 113.111 2.27042V110.237C113.111 111.434 114.198 112.408 115.534 112.408H201.27C202.606 112.408 203.693 111.434 203.693 110.237V2.27042C203.693 1.07314 202.606 0.0994034 201.27 0.0994034H115.534ZM201.27 112.507H115.534C114.137 112.507 113 111.489 113 110.237V2.27042C113 1.01825 114.137 -3.8147e-05 115.534 -3.8147e-05H201.27C202.667 -3.8147e-05 203.804 1.01825 203.804 2.27042V110.237C203.804 111.489 202.667 112.507 201.27 112.507Z" fill="#E7E8E5"/>
<path d="M6.10352e-05 130.347H222V130.247H6.10352e-05V130.347Z" fill="#E7E8E5"/>
<path d="M117.266 21.4429H130.135V5.96629H117.266V21.4429Z" fill="#EDEDEB"/>
<path d="M116.2 21.7611H129.07V6.28468H116.2V21.7611Z" fill="#F3F2F1"/>
<path d="M128.282 24.5299H132.363V7.25311H128.282V24.5299Z" fill="#DADBD8"/>
<path d="M125.01 7.25326L115.748 18.9763V24.5299H128.282V7.25326H125.01Z" fill="#E7E8E5"/>
<path d="M131.575 21.7612C131.575 22.3813 131.014 22.8837 130.323 22.8837C129.631 22.8837 129.069 22.3813 129.069 21.7612C129.069 21.141 129.631 20.6387 130.323 20.6387C131.014 20.6387 131.575 21.141 131.575 21.7612Z" fill="#FAFAF9"/>
<path d="M129.07 18.6045H131.576V11.3082H129.07V18.6045Z" fill="#EDEDEB"/>
<path d="M129.07 12.3368H131.576V11.308H129.07V12.3368Z" fill="#F4F4F2"/>
<path d="M112.285 20.2539V17.4405C112.672 17.4405 112.672 16.9019 112.285 16.9019C111.088 16.9019 109.891 16.8944 108.693 16.8884V20.7925C109.89 20.7925 111.088 20.7925 112.285 20.7925C112.672 20.7925 112.672 20.2539 112.285 20.2539Z" fill="#E7E8E5"/>
<path d="M109.495 20.2496H112.285V17.4406H109.495V20.2496Z" fill="#F3F2F1"/>
<path d="M110.08 20.5233H100.407C99.7423 20.5233 99.2028 19.7727 99.2028 18.8471C99.2028 17.9215 99.7423 17.1713 100.407 17.1713H110.08V20.5233Z" fill="#FAFAF9"/>
<path d="M110.08 16.902C106.913 16.902 103.741 16.8506 100.575 16.902C98.4058 16.937 98.2891 20.6617 100.417 20.7925C101.9 20.8836 103.425 20.7925 104.911 20.7925C106.634 20.7925 108.357 20.7925 110.08 20.7925C110.467 20.7925 110.468 20.2539 110.08 20.2539C107.079 20.2539 104.077 20.2539 101.076 20.2539C100.381 20.2539 99.8839 20.2468 99.6153 19.5125C99.3831 18.8773 99.4563 17.5809 100.407 17.4405C100.51 17.4254 100.63 17.4405 100.733 17.4405C102.369 17.4405 104.006 17.4405 105.643 17.4405C107.122 17.4405 108.601 17.4405 110.08 17.4405C110.467 17.4405 110.468 16.902 110.08 16.902Z" fill="#E2E2E0"/>
<path d="M112.317 16.4548V13.9549C112.661 13.9549 112.662 13.4763 112.317 13.4763C111.254 13.4763 110.19 13.4696 109.125 13.464V16.9333C110.19 16.9333 111.253 16.9333 112.317 16.9333C112.661 16.9333 112.662 16.4548 112.317 16.4548Z" fill="#E7E8E5"/>
<path d="M109.838 16.4512H112.317V13.9548H109.838V16.4512Z" fill="#F3F2F1"/>
<path d="M110.358 16.6943H101.762C101.171 16.6943 100.692 16.0277 100.692 15.2051C100.692 14.3821 101.171 13.7154 101.762 13.7154H110.358V16.6943Z" fill="#FAFAF9"/>
<path d="M110.358 13.4764C107.544 13.4764 104.724 13.4307 101.911 13.4764C99.9829 13.5074 99.8795 16.8173 101.77 16.9334C103.088 17.0146 104.444 16.9334 105.764 16.9334C107.296 16.9334 108.827 16.9334 110.358 16.9334C110.702 16.9334 110.702 16.4549 110.358 16.4549C107.691 16.4549 105.023 16.4549 102.355 16.4549C101.738 16.4549 101.297 16.4489 101.058 15.7962C100.851 15.2314 100.917 14.0794 101.762 13.9549C101.853 13.9414 101.96 13.9549 102.051 13.9549C103.506 13.9549 104.96 13.9549 106.414 13.9549C107.729 13.9549 109.043 13.9549 110.358 13.9549C110.702 13.9549 110.702 13.4764 110.358 13.4764Z" fill="#E2E2E0"/>
<path d="M112.285 24.077V21.264C112.672 21.264 112.672 20.7254 112.285 20.7254C111.088 20.7254 109.891 20.7178 108.693 20.7115V24.616C109.89 24.616 111.088 24.616 112.285 24.616C112.672 24.616 112.672 24.077 112.285 24.077Z" fill="#E7E8E5"/>
<path d="M109.495 24.0734H112.285V21.2639H109.495V24.0734Z" fill="#F3F2F1"/>
<path d="M110.08 24.3466H100.407C99.7423 24.3466 99.2028 23.596 99.2028 22.6704C99.2028 21.7448 99.7423 20.9946 100.407 20.9946H110.08V24.3466Z" fill="#FAFAF9"/>
<path d="M110.08 20.7253C106.913 20.7253 103.741 20.674 100.575 20.7253C98.4058 20.7603 98.2891 24.485 100.417 24.6159C101.9 24.707 103.425 24.6159 104.911 24.6159C106.634 24.6159 108.357 24.6159 110.08 24.6159C110.467 24.6159 110.468 24.0769 110.08 24.0769C107.079 24.0769 104.077 24.0769 101.076 24.0769C100.381 24.0769 99.8839 24.0702 99.6153 23.3359C99.3831 22.7006 99.4563 21.4043 100.407 21.2639C100.51 21.2488 100.63 21.2639 100.733 21.2639C102.369 21.2639 104.006 21.2639 105.643 21.2639C107.122 21.2639 108.601 21.2639 110.08 21.2639C110.467 21.2639 110.468 20.7253 110.08 20.7253Z" fill="#E2E2E0"/>
<path d="M165.052 24.3888V27.191H56.9473V24.3888H165.052Z" fill="#F3F2F1"/>
<path d="M159.227 34.0044V27.191H163.03L159.227 34.0044Z" fill="#DADBD8"/>
<path d="M161.128 34.0044L164.931 27.191H163.03L159.227 34.0044H161.128Z" fill="#F3F2F1"/>
<path d="M62.6514 34.0044V27.191H58.8485L62.6514 34.0044Z" fill="#DADBD8"/>
<path d="M60.7497 34.0044L56.9473 27.191H58.8485L62.6514 34.0044H60.7497Z" fill="#F3F2F1"/>
<path d="M152.983 17.0174V16.7592C152.983 12.6662 149.279 9.34802 144.71 9.34802C140.141 9.34802 136.438 12.6662 136.438 16.7592V17.0174V24.4286H144.71H152.983V17.0174Z" fill="#EDEDEB"/>
<path d="M138.247 16.7593C138.247 19.9569 141.141 22.5492 144.71 22.5492C148.28 22.5492 151.173 19.9569 151.173 16.7593C151.173 13.5616 148.28 10.9694 144.71 10.9694C141.141 10.9694 138.247 13.5616 138.247 16.7593Z" fill="#FAFAF9"/>
<path d="M144.71 11.8833C141.313 11.8833 138.534 14.2329 138.273 17.2162C138.26 17.065 138.247 16.9135 138.247 16.7592C138.247 13.5615 141.141 10.9692 144.71 10.9692C148.28 10.9692 151.173 13.5615 151.173 16.7592C151.173 16.9135 151.161 17.065 151.148 17.2162C150.887 14.2329 148.107 11.8833 144.71 11.8833Z" fill="#E2E2E0"/>
<path d="M140.628 16.756C140.822 16.756 142.909 16.756 144.026 16.756C144.026 15.7536 144.026 13.8813 144.026 13.7118C144.026 13.3733 144.333 13.0993 144.71 13.0993C145.088 13.0993 145.394 13.3733 145.394 13.7118C145.394 13.941 145.394 17.1394 145.394 17.3685C145.394 17.707 145.088 17.9811 144.71 17.9811C144.46 17.9811 140.879 17.9811 140.628 17.9811C140.251 17.9811 139.945 17.707 139.945 17.3685C139.945 17.03 140.251 16.756 140.628 16.756Z" fill="#DADBD8"/>
<path d="M140.628 17.3717C140.251 17.3717 139.945 17.0972 139.945 16.7591C139.945 16.4206 140.251 16.1466 140.628 16.1466C140.884 16.1466 144.454 16.1466 144.71 16.1466C145.088 16.1466 145.394 16.4206 145.394 16.7591C145.394 17.0972 145.088 17.3717 144.71 17.3717C144.46 17.3717 140.879 17.3717 140.628 17.3717Z" fill="#F3F2F1"/>
<path d="M144.026 13.1021C144.026 12.764 144.333 12.4895 144.71 12.4895C145.088 12.4895 145.394 12.764 145.394 13.1021C145.394 13.3316 145.394 16.53 145.394 16.7591C145.394 17.0972 145.088 17.3717 144.71 17.3717C144.333 17.3717 144.026 17.0972 144.026 16.7591C144.026 16.5348 144.026 13.3264 144.026 13.1021Z" fill="#E7E8E5"/>
<path d="M93.6679 24.4556H81.4766L82.829 10.6045H95.0203L93.6679 24.4556Z" fill="#E7E8E5"/>
<path d="M93.6679 24.4556H94.2495L95.6024 10.6045H95.0203L93.6679 24.4556Z" fill="#DADBD8"/>
<path d="M92.5624 23.0431H82.857L83.9341 12.0166H93.6395L92.5624 23.0431Z" fill="#DADBD8"/>
<path d="M91.8524 22.1354H83.7449L84.6445 12.9243H92.7519L91.8524 22.1354Z" fill="#FAFAF9"/>
<path d="M88.1264 19.4293C89.6679 19.4293 90.9178 18.3096 90.9178 16.9286C90.9178 15.5475 89.6679 14.4282 88.1264 14.4282C86.5848 14.4282 86.5848 19.4293 88.1264 19.4293Z" fill="#E2E2E0"/>
<path d="M83.0936 24.4556L83.9306 15.8821H71.7947L70.9573 24.4556H83.0936Z" fill="#EDEDEB"/>
<path d="M83.0936 24.4556L83.9305 15.8821H84.5846L83.7472 24.4556H83.0936Z" fill="#DADBD8"/>
<path d="M81.9414 23.5813L82.6079 16.7564H72.9469L72.28 23.5813H81.9414Z" fill="#FAFAF9"/>
<path d="M81.2008 23.0197L81.758 17.318H73.687L73.1302 23.0197H81.2008Z" fill="#E7E8E5"/>
<path d="M77.4539 21.4429C78.4498 21.4429 79.2574 20.7193 79.2574 19.8267C79.2574 18.9342 78.4498 18.211 77.4539 18.211C76.4576 18.211 76.4576 21.4429 77.4539 21.4429Z" fill="#F3F2F1"/>
<path d="M34.8441 113.501C34.8081 113.474 34.7886 113.433 34.7865 113.391C34.7461 112.61 34.222 104.947 28.984 99.6985C24.5525 95.2575 29.0978 98.4265 31.0701 99.8549C31.2283 99.9694 31.4458 99.8016 31.3422 99.6444C29.9522 97.5387 26.4636 91.9739 27.6732 90.8904C28.8165 89.8661 31.1777 94.9496 32.2318 97.4145C32.3081 97.5927 32.6059 97.5291 32.5839 97.339C32.28 94.7296 31.8376 89.2726 33.4785 89.4644C35.1034 89.6541 34.6495 96.864 34.3287 100.393C34.3108 100.588 34.6218 100.641 34.6851 100.453C35.418 98.2821 36.8135 95.0733 38.4514 95.9237C40.8758 97.1819 34.883 101.6 35.2576 106.395C35.6246 111.095 35.7221 114.179 34.8441 113.501Z" fill="#F3F2F1"/>
<path d="M37.3404 114.858C37.3293 114.845 37.3701 114.781 37.4197 114.75C43.4537 111.01 41.9682 102.774 40.1348 97.6675C39.7271 96.5311 39.3022 95.3517 39.2391 94.1377C40.5223 95.5148 41.2932 97.3254 42.1505 98.963C42.2633 99.179 42.5444 99.103 42.5033 98.8688C42.0446 96.2339 41.864 87.9576 44.5335 88.1052C45.7403 88.1716 44.3978 95.3704 44.3464 96.8397C44.3381 97.076 44.6645 97.1651 44.7329 96.9452C45.5227 94.3911 50.9719 89.1135 51.9612 90.1692C52.3812 90.6175 49.8353 93.0979 48.9668 94.263C47.3396 96.4464 46.2247 98.8859 45.1871 101.325C45.0956 101.541 45.3913 101.766 45.5192 101.586C46.4849 100.221 50.0884 96.94 51.3076 98.5653C52.192 99.7442 49.8322 101.451 48.6698 102.463C46.6074 104.259 44.6409 106.237 43.6414 108.624C42.9607 110.249 38.0697 115.73 37.3404 114.858Z" fill="#F3F2F1"/>
<path d="M38.0786 114.07C38.1204 114.034 38.141 113.984 38.1405 113.932C38.1318 112.982 38.205 103.648 44.1784 96.9654C49.2319 91.312 43.9467 95.4281 41.6571 97.2781C41.4734 97.4265 41.197 97.2359 41.3113 97.0394C42.8439 94.4006 46.67 87.4381 45.1222 86.1943C43.6586 85.0181 41.1658 91.3291 40.0672 94.3839C39.9878 94.6051 39.6213 94.5454 39.6343 94.3131C39.811 91.127 39.947 84.4759 37.9688 84.8057C36.0098 85.1319 37.0915 93.8585 37.7404 98.1237C37.7763 98.36 37.4029 98.4427 37.3121 98.218C36.2625 95.6254 34.3323 91.8124 32.4063 92.9412C29.5553 94.6118 37.1561 99.6225 37.0541 105.467C36.954 111.194 37.0626 114.944 38.0786 114.07Z" fill="white"/>
<path d="M42.1142 128.371C43.9245 122.323 45.117 113.805 45.117 111.707H31.6123C31.6123 113.805 32.8049 122.323 34.6152 128.371C34.9481 129.482 36.0758 130.253 37.3604 130.253H39.369C40.6535 130.253 41.7813 129.482 42.1142 128.371Z" fill="white"/>
<path d="M189.88 129.864H177.724C176.247 129.864 175.029 128.828 174.95 127.507L173.463 102.533H194.141L192.654 127.507C192.576 128.828 191.357 129.864 189.88 129.864Z" fill="#E2E2E0"/>
<path d="M181 109.085H186.604V104.065H181V109.085Z" fill="#FAFAF9"/>
<path d="M181 115.34H186.604V110.321H181V115.34Z" fill="#FAFAF9"/>
<path d="M181 121.596H186.604V116.576H181V121.596Z" fill="#FAFAF9"/>
<path d="M181 127.851H186.604V122.831H181V127.851Z" fill="#FAFAF9"/>
<path d="M194.772 102.533H172.831C172.525 102.533 172.277 102.311 172.277 102.037V101.21C172.277 100.935 172.525 100.713 172.831 100.713H194.772C195.078 100.713 195.327 100.935 195.327 101.21V102.037C195.327 102.311 195.078 102.533 194.772 102.533Z" fill="#F3F2F1"/>
<path d="M191.303 122.831H188.046V127.851H190.891C190.967 127.723 191.02 127.583 191.03 127.429L191.303 122.831Z" fill="#FAFAF9"/>
<path d="M179.558 122.831H176.301L176.575 127.429C176.584 127.583 176.637 127.723 176.713 127.851H179.558V122.831Z" fill="#FAFAF9"/>
<path d="M179.558 116.576H175.929L176.227 121.596H179.558V116.576Z" fill="#FAFAF9"/>
<path d="M179.558 110.321H175.556L175.855 115.34H179.558V110.321Z" fill="#FAFAF9"/>
<path d="M179.558 104.065H175.183L175.482 109.085H179.558V104.065Z" fill="#FAFAF9"/>
<path d="M188.046 116.576V121.596H191.377L191.676 116.576H188.046Z" fill="#FAFAF9"/>
<path d="M188.046 110.321V115.34H191.749L192.048 110.321H188.046Z" fill="#FAFAF9"/>
<path d="M188.046 104.065V109.085H192.122L192.421 104.065H188.046Z" fill="#FAFAF9"/>
<path d="M194.946 142.177C194.946 144.665 156.403 146.681 108.859 146.681C61.3145 146.681 22.772 144.665 22.772 142.177C22.772 139.69 61.3145 137.673 108.859 137.673C156.403 137.673 194.946 139.69 194.946 142.177Z" fill="#F3F2F1"/>
<path d="M176.049 74.1905C172.906 74.1905 169.194 69.0454 165.918 64.5061C163.77 61.5292 161.683 58.6398 159.462 56.5491H166.809V53.367H157.8C159.411 51.7226 160.936 49.6097 162.502 47.4403C164.963 44.0298 168.025 39.7856 170.367 39.7856H177.258V36.6035H170.367C166.092 36.6035 162.899 41.0283 159.519 45.7124C157.058 49.1228 153.996 53.367 151.655 53.367H144.245H85.9627H77.4028H73.0023C70.6611 53.367 67.5984 49.1228 65.1378 45.7124C61.7572 41.0283 58.5648 36.6035 54.29 36.6035H47.3991V39.7856H54.29C56.6312 39.7856 59.6939 44.0298 62.1545 47.4403C63.7201 49.6097 65.2457 51.7226 66.8569 53.367H34.9328V56.5491H70.7451C68.5242 58.6398 66.4378 61.5292 64.2897 64.5061C61.0139 69.0454 57.3012 74.1905 54.159 74.1905H41.0964V77.3727H54.159C59.2348 77.3727 63.1389 71.9622 67.2725 66.2336C70.5479 61.6943 74.2607 56.5491 77.4028 56.5491H85.9627H144.245H152.805C155.947 56.5491 159.66 61.6943 162.935 66.2336C167.069 71.9622 170.973 77.3727 176.049 77.3727H189.111V74.1905H176.049Z" fill="#FFCC00"/>
<path d="M163.8 64.6906C161.068 60.9118 158.593 57.6521 155.976 56.0351L156.165 55.7897C158.833 57.4377 161.328 60.722 164.08 64.5283L163.8 64.6906Z" fill="#6C7A7F"/>
<path d="M171.277 73.7458C170.069 72.7319 168.794 71.3469 167.264 69.3867L167.538 69.2157C169.054 71.1584 170.314 72.5287 171.505 73.5283L171.277 73.7458Z" fill="#6C7A7F"/>
<path d="M166.376 68.2228C165.902 67.5907 165.428 66.9428 164.956 66.29H165.353C165.785 66.8863 166.218 67.4778 166.652 68.0565L166.376 68.2228Z" fill="#6C7A7F"/>
<path d="M73.7536 55.0204H53.0925V54.7221H71.4159C71.0891 54.6003 70.7588 54.4408 70.4218 54.2427L70.6043 53.9933C71.4381 54.4838 72.2227 54.7221 73.0023 54.7221H73.7536V55.0204Z" fill="#6C7A7F"/>
<path d="M154.638 55.3689C154.019 55.1378 153.402 55.0205 152.805 55.0205H148.662L148.691 54.7221H151.654C152.434 54.7221 153.219 54.4839 154.052 53.9934L154.235 54.2428C153.898 54.4409 153.567 54.6004 153.241 54.7221H161.563V55.0205H154.543C154.617 55.0451 154.691 55.0658 154.766 55.0932L154.638 55.3689Z" fill="#6C7A7F"/>
<path d="M164.145 55.0204H164.3V54.7221H164.145V55.0204Z" fill="#6C7A7F"/>
<path d="M155.743 53.1294L155.51 52.9166C157.131 51.4906 158.743 49.3407 160.127 47.4369L160.406 47.5996C159.013 49.5165 157.388 51.6823 155.743 53.1294Z" fill="#6C7A7F"/>
<path d="M161.455 46.1487L161.175 45.9864C163.894 42.2239 166.975 37.9586 170.366 37.9586H170.367H172.668V38.257H170.367C170.366 38.257 170.367 38.257 170.366 38.257C167.157 38.257 164.127 42.4498 161.455 46.1487Z" fill="#6C7A7F"/>
<path d="M68.9131 53.1294C67.2681 51.6823 65.644 49.5165 64.2507 47.5996L64.53 47.4369C65.9135 49.3407 67.5252 51.4906 69.1462 52.9166L68.9131 53.1294Z" fill="#6C7A7F"/>
<path d="M63.2015 46.1487C60.5291 42.4494 57.5001 38.257 54.29 38.257H51.9883V37.9586H54.29C57.6813 37.9586 60.7626 42.2235 63.4813 45.9864L63.2015 46.1487Z" fill="#6C7A7F"/>
<path d="M66.4072 64.6906L66.1275 64.5283C68.8794 60.7224 71.3742 57.4381 74.0418 55.7897L74.2309 56.0351C71.6135 57.6529 69.1391 60.9118 66.4072 64.6906Z" fill="#6C7A7F"/>
<path d="M75.5696 55.3689L75.4417 55.0932C75.7405 54.9819 76.0389 54.8987 76.3359 54.8375V54.7221H77.4028H78.3419L78.313 55.0205H77.4028C76.8052 55.0205 76.1885 55.1378 75.5696 55.3689Z" fill="#6C7A7F"/>
<path d="M56.1015 75.4816V75.1566C56.5624 74.9748 57.0312 74.7282 57.5125 74.4159L57.7083 74.6574C57.1609 75.0126 56.6272 75.2867 56.1015 75.4816Z" fill="#6C7A7F"/>
<path d="M63.832 68.2228L63.5554 68.0565C64.1308 67.2892 64.7044 66.4992 65.2776 65.7057L65.5574 65.8676C64.9828 66.6627 64.4083 67.4543 63.832 68.2228Z" fill="#6C7A7F"/>
<path d="M58.9302 73.7458L58.7029 73.5283C59.8933 72.5287 61.1542 71.1584 62.6705 69.2157L62.9431 69.3867C61.4135 71.3469 60.1384 72.7319 58.9302 73.7458Z" fill="#6C7A7F"/>
<path d="M54.3122 68.0955H51.0559C50.29 68.0955 49.5752 68.4396 49.152 69.012L48.6756 69.6568C48.2876 70.1818 47.6318 70.4972 46.9289 70.4972H38.5306C37.7774 70.4972 37.1665 71.0446 37.1665 71.7192V83.4677H56.1015V70.4972L55.935 69.3692C55.8271 68.6401 55.1331 68.0955 54.3122 68.0955Z" fill="#406FBF"/>
<path d="M56.1015 83.4677L54.6812 78.8341V71.9813H38.5868V73.0418H37.1665V71.7192C37.1665 71.0446 37.7774 70.4972 38.5306 70.4972H46.9289C47.6318 70.4972 48.2876 70.1818 48.6756 69.6568L49.152 69.012C49.5752 68.4396 50.29 68.0955 51.0559 68.0955H54.3122C55.1331 68.0955 55.8271 68.6401 55.935 69.3692L56.1015 70.4972V77.1042V83.4677Z" fill="#5D87CD"/>
<path d="M38.5868 81.8418H54.6811V71.9812H38.5868V81.8418Z" fill="#17282F"/>
<path d="M54.6812 78.834L53.3931 74.6308C53.1059 73.692 52.1535 73.0417 51.067 73.0417H38.5868V71.9812H54.6812V78.834Z" fill="#E4E7E5"/>
<path d="M56.1015 83.4677H37.1665L34.3894 74.4057C34.1789 73.7196 34.7555 73.0418 35.5501 73.0418H51.067C52.1535 73.0418 53.1058 73.6921 53.3931 74.6308L56.1015 83.4677Z" fill="#406FBF"/>
<path d="M56.1015 83.4677H37.1665L34.3894 74.4057C34.3597 74.309 34.3457 74.2128 34.3457 74.1185C34.3453 73.5422 34.8672 73.0418 35.5501 73.0418H51.067C52.1534 73.0418 53.1058 73.6921 53.3931 74.6308L56.1015 83.4677Z" fill="#A4C3E9"/>
<path d="M33.3883 24.9059H36.901C37.7274 24.9059 38.4987 25.277 38.9552 25.8943L39.469 26.59C39.8877 27.1564 40.5955 27.4969 41.3538 27.4969H50.4139C51.2268 27.4969 51.8857 28.0872 51.8857 28.8151V40.4132C51.8857 41.0079 51.3472 41.49 50.6834 41.49H32.6597C31.996 41.49 31.4578 41.0079 31.4578 40.4132V27.4969L31.6378 26.2802C31.7541 25.4934 32.5026 24.9059 33.3883 24.9059Z" fill="#406FBF"/>
<path d="M50.6834 41.49H49.3554V37.9721H48.2121H48.7094V37.0441H48.2121V35.9511H48.7094V35.0231H48.2121V33.93H48.7094V33.002H48.2121V31.9094H48.7094V30.9814H48.2121V29.8883H48.7094V28.9603H48.2121V27.4969H46.3974V28.0323H45.9663V28.9603H46.3974V30.053H45.9663V30.9814H46.3974V32.074H45.9663V33.002H46.3974V34.0951H45.9663V35.0231H46.3974V36.1158H45.9663V37.0441H46.3974V37.9721H45.3625V41.49H32.6597C31.996 41.49 31.4578 41.0079 31.4578 40.4132V27.4969L31.6378 26.2802C31.7541 25.4934 32.5026 24.9059 33.3883 24.9059H36.901C37.7274 24.9059 38.4987 25.277 38.9552 25.8943L39.469 26.59C39.8877 27.1564 40.5955 27.4969 41.3538 27.4969H50.4139C51.2268 27.4969 51.8857 28.0872 51.8857 28.8151V36.6034V39.7856V40.4132C51.8857 41.0079 51.3472 41.49 50.6834 41.49ZM48.7134 40.9976H46.0667V38.6428H46.3974V38.7677H48.2121V38.6428H48.7134V40.9976Z" fill="white"/>
<path d="M46.3975 38.7676H48.2121V27.4967H46.3975V38.7676Z" fill="#17282F"/>
<path d="M48.2121 38.7676H46.3975V38.6427H48.2121V38.7676ZM48.2121 37.972H46.3975V37.044H47.3587V36.1157H46.3975V35.023H47.3587V34.095H46.3975V33.0019H47.3587V32.0739H46.3975V30.9813H47.3587V30.0529H46.3975V28.9602H47.3587V28.0322H46.3975V27.4968H48.2121V28.9602H47.3165V29.8882H48.2121V30.9813H47.3165V31.9093H48.2121V33.0019H47.3165V33.9299H48.2121V35.023H47.3165V35.951H48.2121V37.044H47.3165V37.972H48.2121Z" fill="#849193"/>
<path d="M45.9663 28.9602H47.3587V28.0323H45.9663V28.9602Z" fill="#17282F"/>
<path d="M45.9663 30.9813H47.3587V30.0531H45.9663V30.9813Z" fill="#17282F"/>
<path d="M45.9663 33.002H47.3587V32.0737H45.9663V33.002Z" fill="#17282F"/>
<path d="M45.9663 35.0231H47.3587V34.095H45.9663V35.0231Z" fill="#17282F"/>
<path d="M45.9663 37.0441H47.3587V36.1158H45.9663V37.0441Z" fill="#17282F"/>
<path d="M45.9663 28.9602H47.3587V28.0323H45.9663V28.9602Z" fill="#B1BABA"/>
<path d="M45.9663 30.9813H47.3587V30.0531H45.9663V30.9813Z" fill="#B1BABA"/>
<path d="M45.9663 33.002H47.3587V32.0737H45.9663V33.002Z" fill="#B1BABA"/>
<path d="M45.9663 35.0231H47.3587V34.095H45.9663V35.0231Z" fill="#B1BABA"/>
<path d="M45.9663 37.0441H47.3587V36.1158H45.9663V37.0441Z" fill="#B1BABA"/>
<path d="M47.3165 29.8883H48.7092V28.9601H47.3165V29.8883Z" fill="#17282F"/>
<path d="M47.3165 31.9093H48.7092V30.9814H47.3165V31.9093Z" fill="#17282F"/>
<path d="M47.3165 33.9299H48.7092V33.0019H47.3165V33.9299Z" fill="#17282F"/>
<path d="M47.3165 35.951H48.7092V35.023H47.3165V35.951Z" fill="#17282F"/>
<path d="M47.3165 37.972H48.7092V37.044H47.3165V37.972Z" fill="#17282F"/>
<path d="M48.7093 29.8883H47.3165V28.9603H48.7093V29.8883Z" fill="#CCD1CF"/>
<path d="M48.7093 31.9093H47.3165V30.9813H48.7093V31.9093Z" fill="#CCD1CF"/>
<path d="M48.7093 33.9299H47.3165V33.0019H48.7093V33.9299Z" fill="#CCD1CF"/>
<path d="M48.7093 35.951H47.3165V35.0231H48.7093V35.951Z" fill="#CCD1CF"/>
<path d="M48.7093 37.972H47.3165V37.0441H48.7093V37.972Z" fill="#CCD1CF"/>
<path d="M48.7134 40.9975H46.0667V38.6427H48.7134V40.9975ZM45.3625 37.972V41.6681H49.3554V37.972H45.3625Z" fill="#17282F"/>
<path d="M49.3554 41.6681H45.3625V37.972H49.3554V41.4899V41.6681ZM46.0667 40.9975H48.7134V38.6427H48.2121H46.3975H46.0667V40.9975Z" fill="#B1BABA"/>
<path d="M46.4854 46.219H27.9767V49.9151L32.0961 53.606H50.6048V49.9095L46.4854 46.219Z" fill="#406FBF"/>
<path d="M27.9767 49.915V46.219H46.4854L50.6048 49.9095H43.2318L39.1123 46.219H34.9582L39.0775 49.9095H32.0961L27.9767 46.219V49.915Z" fill="#A3C3FB"/>
<path d="M32.0961 57.2992H50.6048V53.6028H32.0961V57.2992Z" fill="#406FBF"/>
<path d="M50.6048 57.2961H44.2395V53.6061H50.6048V56.5491V57.2961ZM37.972 57.2961H32.0961V53.6061H37.972V57.2961Z" fill="#A3C3FB"/>
<path d="M32.0961 60.9924H50.6048V57.296H32.0961V60.9924Z" fill="#406FBF"/>
<path d="M50.6048 60.9924H43.2318V58.3517H44.2395V57.296H50.6048V60.9924ZM39.0774 60.9924H32.0961V57.296H37.972V58.3517H39.0774V60.9924Z" fill="#A3C3FB"/>
<path d="M32.0961 53.606H50.6048V49.9095H32.0961V53.606Z" fill="#A3C3FB"/>
<path d="M39.0775 60.9924H43.2318V49.9094L39.1123 46.2189H34.9582L39.0775 49.9094V60.9924Z" fill="#406FBF"/>
<path d="M39.0775 60.9924H43.2318V58.3516H39.0775V60.9924Z" fill="#3563B7"/>
<path d="M43.2318 52.5503H39.0775V49.9095L34.9582 46.219H39.1123L43.2318 49.9095V52.5503Z" fill="#3563B7"/>
<path d="M43.2318 57.2992H39.0775V53.6027H43.2318V53.6059V57.2992Z" fill="#3563B7"/>
<path d="M43.2318 57.2993H39.0775V53.6029H43.2318V57.2993ZM37.972 52.5504V58.3518H44.2395V52.5504H37.972Z" fill="#17282F"/>
<path d="M44.2395 58.3518H37.972V52.5504H44.2395V53.606V58.3518ZM39.0775 57.2993H43.2318V53.6029H39.0775V57.2993Z" fill="#849193"/>
<path d="M27.9767 46.219V49.9151L32.0961 53.606V49.9095L27.9767 46.219Z" fill="#17282F"/>
<path d="M32.0961 53.6028L27.9767 49.9123V49.9151V46.219L32.0961 49.9095V53.6028Z" fill="#A3C3FB"/>
<path d="M27.9767 49.9123V53.6083L32.0961 57.2992V53.6027L27.9767 49.9123Z" fill="#17282F"/>
<path d="M32.0961 57.2961L27.9767 53.6061V53.6084V49.9124L32.0961 53.6029V53.6061V57.2961Z" fill="#A3C3FB"/>
<path d="M27.9767 53.6059V57.3019L32.0961 60.9924V57.296L27.9767 53.6059Z" fill="#17282F"/>
<path d="M32.0961 60.9924L27.9767 57.3019V53.6059L32.0961 57.296V60.9924Z" fill="#A3C3FB"/>
<path d="M172.483 87.5542H192.669V63.2195H172.483V87.5542Z" fill="#406FBF"/>
<path d="M192.669 87.5542H172.483V66.2899H173.801V70.7354H191.35V68.7497V67.8186V64.4009H182.65V63.2196H192.669V87.5542ZM180.731 84.8621C180.731 85.0097 180.837 85.1573 181.049 85.1573C184.108 85.1573 187.166 85.1573 190.225 85.1573C190.436 85.1573 190.543 85.0097 190.543 84.8621C190.543 84.7141 190.437 84.5666 190.225 84.5666C187.166 84.5666 184.108 84.5666 181.049 84.5666C180.837 84.5666 180.731 84.7141 180.731 84.8621ZM180.731 83.2539C180.731 83.4015 180.837 83.5491 181.049 83.5491C183.961 83.5491 186.873 83.5491 189.785 83.5491C189.997 83.5491 190.103 83.4015 190.103 83.2539C190.103 83.1064 189.998 82.9588 189.785 82.9588C186.873 82.9588 183.961 82.9588 181.049 82.9588C180.837 82.9588 180.731 83.1064 180.731 83.2539ZM180.731 81.6462C180.731 81.7937 180.837 81.9413 181.049 81.9413C183.961 81.9413 186.873 81.9413 189.785 81.9413C189.997 81.9413 190.103 81.7937 190.103 81.6462C190.103 81.4982 189.998 81.3506 189.785 81.3506C186.873 81.3506 183.961 81.3506 181.049 81.3506C180.837 81.3506 180.731 81.4982 180.731 81.6462ZM180.731 80.038C180.731 80.1856 180.837 80.3331 181.049 80.3331C184.401 80.3331 187.752 80.3331 191.104 80.3331C191.316 80.3331 191.422 80.1856 191.422 80.038C191.422 79.8904 191.316 79.7428 191.104 79.7428C187.752 79.7428 184.401 79.7428 181.049 79.7428C180.837 79.7428 180.731 79.8904 180.731 80.038ZM173.801 72.2195V78.5539H191.35V74.8213V74.1427V72.2195H173.801Z" fill="#B8D2EF"/>
<path d="M191.35 70.7354H173.801V66.2899H182.65V64.4009H191.35V67.8185L189.713 66.0306L187.691 68.2382L185.671 65.6372L183.525 67.5592L181.421 66.4987L179.506 69.3463L177.592 66.4983L175.419 67.5978L173.801 66.7792V67.4574L175.419 68.276L177.358 67.2951L179.506 70.4911L181.655 67.2947L183.638 68.2935L185.58 66.554L187.648 69.2171L189.713 66.9621L191.35 68.7497V70.7354Z" fill="#E7F1FA"/>
<path d="M191.35 78.554H173.801V72.2195H191.35V74.1427L189.701 74.9772L187.528 73.8782L185.614 76.7258L183.699 73.8786L181.595 74.9386L179.449 73.0166L177.429 75.618L175.407 73.4104L173.801 75.1634V76.0946L175.407 74.3416L177.473 76.5961L179.54 73.9339L181.482 75.6733L183.465 74.6745L185.614 77.871L187.762 74.6749L189.701 75.6558L191.35 74.8213V78.554Z" fill="#E7F1FA"/>
<path d="M191.35 67.8186L189.713 66.0306L187.691 68.2383L185.671 65.6373L183.525 67.5593L181.421 66.4988L179.506 69.3464L177.592 66.4984L175.419 67.5978L173.801 66.7792V67.4574L175.419 68.276L177.358 67.2951L179.506 70.4912L181.655 67.2947L183.638 68.2935L185.58 66.5541L187.648 69.2172L189.713 66.9622L191.35 68.7498V67.8186Z" fill="#406FBF"/>
<path d="M179.506 70.4912L177.358 67.2951L175.419 68.276L173.801 67.4574V66.7792L175.419 67.5978L177.592 66.4984L179.506 69.3464L181.421 66.4988L183.525 67.5593L185.671 65.6373L187.691 68.2383L189.713 66.0306L191.35 67.8186V68.7498L189.713 66.9622L187.648 69.2172L185.58 66.5541L183.638 68.2935L181.655 67.2947L179.506 70.4912Z" fill="#90B4E3"/>
<path d="M191.35 74.1427L189.701 74.9772L187.528 73.8782L185.614 76.7258L183.699 73.8786L181.595 74.9386L179.449 73.0166L177.429 75.618L175.407 73.4104L173.801 75.1634V76.0945L175.407 74.3416L177.473 76.5961L179.54 73.9339L181.482 75.6733L183.465 74.6745L185.614 77.871L187.762 74.6749L189.701 75.6558L191.35 74.8213V74.1427Z" fill="#406FBF"/>
<path d="M185.614 77.871L183.465 74.6745L181.482 75.6733L179.54 73.9339L177.473 76.5961L175.407 74.3416L173.801 76.0945V75.1634L175.407 73.4104L177.429 75.618L179.449 73.0166L181.595 74.9386L183.699 73.8786L185.614 76.7258L187.528 73.8782L189.701 74.9772L191.35 74.1427V74.8213L189.701 75.6558L187.762 74.6749L185.614 77.871Z" fill="#90B4E3"/>
<path d="M181.049 80.3331C184.401 80.3331 187.752 80.3331 191.104 80.3331C191.528 80.3331 191.529 79.7428 191.104 79.7428C187.752 79.7428 184.401 79.7428 181.049 79.7428C180.625 79.7428 180.624 80.3331 181.049 80.3331Z" fill="#17282F"/>
<path d="M181.049 81.9414C183.961 81.9414 186.873 81.9414 189.785 81.9414C190.209 81.9414 190.21 81.3507 189.785 81.3507C186.873 81.3507 183.961 81.3507 181.049 81.3507C180.625 81.3507 180.624 81.9414 181.049 81.9414Z" fill="#17282F"/>
<path d="M181.049 83.5491C183.961 83.5491 186.873 83.5491 189.785 83.5491C190.209 83.5491 190.21 82.9588 189.785 82.9588C186.873 82.9588 183.961 82.9588 181.049 82.9588C180.625 82.9588 180.624 83.5491 181.049 83.5491Z" fill="#17282F"/>
<path d="M181.049 85.1572C184.108 85.1572 187.166 85.1572 190.225 85.1572C190.649 85.1572 190.649 84.5665 190.225 84.5665C187.166 84.5665 184.108 84.5665 181.049 84.5665C180.625 84.5665 180.624 85.1572 181.049 85.1572Z" fill="#17282F"/>
<path d="M191.104 80.3331C187.752 80.3331 184.401 80.3331 181.049 80.3331C180.837 80.3331 180.731 80.1856 180.731 80.038C180.731 79.8904 180.837 79.7428 181.049 79.7428C184.401 79.7428 187.752 79.7428 191.104 79.7428C191.316 79.7428 191.422 79.8904 191.422 80.038C191.422 80.1856 191.316 80.3331 191.104 80.3331Z" fill="#6C7A7F"/>
<path d="M189.785 81.9414C186.873 81.9414 183.961 81.9414 181.049 81.9414C180.837 81.9414 180.731 81.7938 180.731 81.6463C180.731 81.4983 180.837 81.3507 181.049 81.3507C183.961 81.3507 186.873 81.3507 189.785 81.3507C189.998 81.3507 190.103 81.4983 190.103 81.6463C190.103 81.7938 189.997 81.9414 189.785 81.9414Z" fill="#6C7A7F"/>
<path d="M189.785 83.5491C186.873 83.5491 183.961 83.5491 181.049 83.5491C180.837 83.5491 180.731 83.4015 180.731 83.2539C180.731 83.1064 180.837 82.9588 181.049 82.9588C183.961 82.9588 186.873 82.9588 189.785 82.9588C189.998 82.9588 190.103 83.1064 190.103 83.2539C190.103 83.4015 189.997 83.5491 189.785 83.5491Z" fill="#6C7A7F"/>
<path d="M190.225 85.1572C187.166 85.1572 184.108 85.1572 181.049 85.1572C180.837 85.1572 180.731 85.0097 180.731 84.8621C180.731 84.7141 180.837 84.5665 181.049 84.5665C184.108 84.5665 187.166 84.5665 190.225 84.5665C190.437 84.5665 190.543 84.7141 190.543 84.8621C190.543 85.0097 190.436 85.1572 190.225 85.1572Z" fill="#6C7A7F"/>
<path d="M173.286 47.9104H191.637V25.7881H173.286V47.9104Z" fill="#406FBF"/>
<path d="M191.637 47.9104H182.65V46.0453C184.921 46.0453 187.192 46.0453 189.462 46.0453C189.655 46.0453 189.752 45.9112 189.752 45.7768C189.752 45.6427 189.655 45.5083 189.462 45.5083C187.192 45.5083 184.921 45.5083 182.65 45.5083V44.5839C184.787 44.5839 186.925 44.5839 189.063 44.5839C189.255 44.5839 189.352 44.4494 189.352 44.315C189.352 44.1809 189.256 44.0465 189.063 44.0465C186.416 44.0465 183.768 44.0465 181.121 44.0465C181.002 44.0465 180.92 44.0974 180.874 44.1678H173.286V25.7881H191.637V47.9104ZM180.831 42.8532C180.831 42.9876 180.928 43.1217 181.121 43.1217C183.768 43.1217 186.416 43.1217 189.063 43.1217C189.255 43.1217 189.352 42.9876 189.352 42.8532C189.352 42.7191 189.256 42.5851 189.063 42.5851C186.416 42.5851 183.768 42.5851 181.121 42.5851C180.928 42.5851 180.831 42.7191 180.831 42.8532ZM180.831 41.3914C180.831 41.5258 180.928 41.6599 181.121 41.6599C184.168 41.6599 187.214 41.6599 190.261 41.6599C190.454 41.6599 190.551 41.5258 190.551 41.3914C190.551 41.2573 190.455 41.1229 190.261 41.1229C187.214 41.1229 184.168 41.1229 181.121 41.1229C180.928 41.1229 180.831 41.2573 180.831 41.3914ZM180.831 39.93C180.831 40.064 180.928 40.1985 181.121 40.1985C183.368 40.1985 185.616 40.1985 187.864 40.1985C188.057 40.1985 188.153 40.064 188.153 39.93C188.153 39.7955 188.057 39.6615 187.864 39.6615C185.616 39.6615 183.368 39.6615 181.121 39.6615C180.928 39.6615 180.831 39.7955 180.831 39.93ZM180.831 38.4678C180.831 38.6022 180.928 38.7363 181.121 38.7363C183.902 38.7363 186.682 38.7363 189.462 38.7363C189.655 38.7363 189.752 38.6022 189.752 38.4678C189.752 38.3337 189.655 38.1993 189.462 38.1993C186.682 38.1993 183.902 38.1993 181.121 38.1993C180.928 38.1993 180.831 38.3337 180.831 38.4678ZM174.485 38.111H178.982V34.0828H174.485V38.111ZM180.831 37.0064C180.831 37.1404 180.928 37.2749 181.121 37.2749C183.768 37.2749 186.416 37.2749 189.063 37.2749C189.255 37.2749 189.352 37.1404 189.352 37.0064C189.352 36.8719 189.256 36.7375 189.063 36.7375C186.416 36.7375 183.768 36.7375 181.121 36.7375C180.928 36.7375 180.831 36.8719 180.831 37.0064ZM180.831 35.5442C180.831 35.6786 180.928 35.8127 181.121 35.8127C183.768 35.8127 186.416 35.8127 189.063 35.8127C189.255 35.8127 189.352 35.6786 189.352 35.5442C189.352 35.4101 189.256 35.2761 189.063 35.2761C186.416 35.2761 183.768 35.2761 181.121 35.2761C180.928 35.2761 180.831 35.4101 180.831 35.5442ZM180.831 34.0824C180.831 34.2168 180.928 34.3509 181.121 34.3509C184.168 34.3509 187.214 34.3509 190.261 34.3509C190.454 34.3509 190.551 34.2168 190.551 34.0824C190.551 33.9484 190.455 33.8139 190.261 33.8139C187.214 33.8139 184.168 33.8139 181.121 33.8139C180.928 33.8139 180.831 33.9484 180.831 34.0824ZM174.485 26.8621V32.6206H190.438V26.8621H174.485Z" fill="#A4C3E9"/>
<path d="M174.485 32.6205H190.438V26.8617H174.485V32.6205Z" fill="#E1ECF9"/>
<path d="M181.121 34.3508C184.168 34.3508 187.214 34.3508 190.261 34.3508C190.647 34.3508 190.648 33.8138 190.261 33.8138C187.214 33.8138 184.168 33.8138 181.121 33.8138C180.735 33.8138 180.735 34.3508 181.121 34.3508Z" fill="#17282F"/>
<path d="M181.121 35.8126C183.768 35.8126 186.415 35.8126 189.063 35.8126C189.448 35.8126 189.449 35.276 189.063 35.276C186.415 35.276 183.768 35.276 181.121 35.276C180.735 35.276 180.735 35.8126 181.121 35.8126Z" fill="#17282F"/>
<path d="M181.121 37.2749C183.768 37.2749 186.415 37.2749 189.063 37.2749C189.448 37.2749 189.449 36.7375 189.063 36.7375C186.415 36.7375 183.768 36.7375 181.121 36.7375C180.735 36.7375 180.735 37.2749 181.121 37.2749Z" fill="#17282F"/>
<path d="M181.121 38.7362C183.902 38.7362 186.682 38.7362 189.462 38.7362C189.848 38.7362 189.848 38.1992 189.462 38.1992C186.682 38.1992 183.902 38.1992 181.121 38.1992C180.735 38.1992 180.735 38.7362 181.121 38.7362Z" fill="#17282F"/>
<path d="M181.121 40.1985C183.368 40.1985 185.616 40.1985 187.864 40.1985C188.25 40.1985 188.25 39.6615 187.864 39.6615C185.616 39.6615 183.368 39.6615 181.121 39.6615C180.735 39.6615 180.735 40.1985 181.121 40.1985Z" fill="#17282F"/>
<path d="M181.121 41.6598C184.168 41.6598 187.214 41.6598 190.261 41.6598C190.647 41.6598 190.648 41.1228 190.261 41.1228C187.214 41.1228 184.168 41.1228 181.121 41.1228C180.735 41.1228 180.735 41.6598 181.121 41.6598Z" fill="#17282F"/>
<path d="M181.121 43.1216C183.768 43.1216 186.415 43.1216 189.063 43.1216C189.448 43.1216 189.449 42.585 189.063 42.585C186.415 42.585 183.768 42.585 181.121 42.585C180.735 42.585 180.735 43.1216 181.121 43.1216Z" fill="#17282F"/>
<path d="M181.121 44.5837C183.768 44.5837 186.415 44.5837 189.063 44.5837C189.448 44.5837 189.449 44.0464 189.063 44.0464C186.415 44.0464 183.768 44.0464 181.121 44.0464C180.735 44.0464 180.735 44.5837 181.121 44.5837Z" fill="#17282F"/>
<path d="M181.121 46.0453C183.902 46.0453 186.682 46.0453 189.462 46.0453C189.848 46.0453 189.848 45.5083 189.462 45.5083C186.682 45.5083 183.902 45.5083 181.121 45.5083C180.735 45.5083 180.735 46.0453 181.121 46.0453Z" fill="#17282F"/>
<path d="M190.261 34.3508C187.214 34.3508 184.168 34.3508 181.121 34.3508C180.928 34.3508 180.831 34.2168 180.831 34.0823C180.831 33.9483 180.928 33.8138 181.121 33.8138C184.168 33.8138 187.214 33.8138 190.261 33.8138C190.455 33.8138 190.551 33.9483 190.551 34.0823C190.551 34.2168 190.454 34.3508 190.261 34.3508Z" fill="#6C7A7F"/>
<path d="M189.063 35.8126C186.416 35.8126 183.768 35.8126 181.121 35.8126C180.928 35.8126 180.831 35.6786 180.831 35.5441C180.831 35.4101 180.928 35.276 181.121 35.276C183.768 35.276 186.416 35.276 189.063 35.276C189.256 35.276 189.352 35.4101 189.352 35.5441C189.352 35.6786 189.255 35.8126 189.063 35.8126Z" fill="#6C7A7F"/>
<path d="M189.063 37.2749C186.416 37.2749 183.768 37.2749 181.121 37.2749C180.928 37.2749 180.831 37.1405 180.831 37.0064C180.831 36.872 180.928 36.7375 181.121 36.7375C183.768 36.7375 186.416 36.7375 189.063 36.7375C189.256 36.7375 189.352 36.872 189.352 37.0064C189.352 37.1405 189.255 37.2749 189.063 37.2749Z" fill="#6C7A7F"/>
<path d="M189.462 38.7362C186.682 38.7362 183.902 38.7362 181.121 38.7362C180.928 38.7362 180.831 38.6022 180.831 38.4677C180.831 38.3337 180.928 38.1992 181.121 38.1992C183.902 38.1992 186.682 38.1992 189.462 38.1992C189.655 38.1992 189.752 38.3337 189.752 38.4677C189.752 38.6022 189.655 38.7362 189.462 38.7362Z" fill="#6C7A7F"/>
<path d="M187.864 40.1985C185.616 40.1985 183.368 40.1985 181.121 40.1985C180.928 40.1985 180.831 40.064 180.831 39.93C180.831 39.7955 180.928 39.6615 181.121 39.6615C183.368 39.6615 185.616 39.6615 187.864 39.6615C188.057 39.6615 188.153 39.7955 188.153 39.93C188.153 40.064 188.057 40.1985 187.864 40.1985Z" fill="#6C7A7F"/>
<path d="M190.261 41.6598C187.214 41.6598 184.168 41.6598 181.121 41.6598C180.928 41.6598 180.831 41.5257 180.831 41.3913C180.831 41.2572 180.928 41.1228 181.121 41.1228C184.168 41.1228 187.214 41.1228 190.261 41.1228C190.455 41.1228 190.551 41.2572 190.551 41.3913C190.551 41.5257 190.454 41.6598 190.261 41.6598Z" fill="#6C7A7F"/>
<path d="M189.063 43.1216C186.416 43.1216 183.768 43.1216 181.121 43.1216C180.928 43.1216 180.831 42.9875 180.831 42.8531C180.831 42.719 180.928 42.585 181.121 42.585C183.768 42.585 186.416 42.585 189.063 42.585C189.256 42.585 189.352 42.719 189.352 42.8531C189.352 42.9875 189.255 43.1216 189.063 43.1216Z" fill="#6C7A7F"/>
<path d="M189.063 44.5837C186.925 44.5837 184.787 44.5837 182.65 44.5837V44.1677H180.874C180.92 44.0973 181.002 44.0464 181.121 44.0464C183.768 44.0464 186.415 44.0464 189.063 44.0464C189.256 44.0464 189.352 44.1808 189.352 44.3148C189.352 44.4493 189.255 44.5837 189.063 44.5837Z" fill="#6C7A7F"/>
<path d="M189.462 46.0453C187.192 46.0453 184.921 46.0453 182.65 46.0453V45.5083C184.921 45.5083 187.192 45.5083 189.462 45.5083C189.655 45.5083 189.752 45.6427 189.752 45.7768C189.752 45.9112 189.655 46.0453 189.462 46.0453Z" fill="#6C7A7F"/>
<path d="M174.485 38.111H178.982V34.0827H174.485V38.111Z" fill="#406FBF"/>
<path d="M174.485 38.111H178.982V34.0827H174.485V38.111Z" fill="#6D97D6"/>
<path d="M179.418 32.0986H178.201V29.9177H179.418V32.0986Z" fill="#406FBF"/>
<path d="M181.852 32.0986H180.635V28.827H181.852V32.0986Z" fill="#406FBF"/>
<path d="M184.287 32.0986H183.07V29.3723H184.287V32.0986Z" fill="#406FBF"/>
<path d="M186.722 32.0986H185.504V27.7363H186.722V32.0986Z" fill="#406FBF"/>
<path d="M164.299 66.2899H182.65V44.1677H164.299V66.2899Z" fill="#406FBF"/>
<path d="M182.65 66.2899H164.299V44.1677H182.65V44.5837V45.5081V46.0451V47.9103V66.2899ZM166.392 63.6408C166.89 64.0875 167.579 64.3639 168.34 64.3639C169.862 64.3639 171.096 63.2585 171.096 61.895H170.071C170.071 62.7518 169.296 63.4459 168.34 63.4459C167.862 63.4459 167.429 63.2724 167.116 62.9916C166.803 62.7112 166.609 62.3234 166.609 61.895C166.609 61.0386 167.384 60.3441 168.34 60.3441C168.818 60.3441 169.251 60.5175 169.564 60.7983C169.878 61.0792 170.071 61.4666 170.071 61.895H171.096C171.096 61.2132 170.787 60.5963 170.289 60.1492C169.79 59.7025 169.101 59.4264 168.34 59.4264C166.818 59.4264 165.584 60.5314 165.584 61.895C165.584 62.4168 165.765 62.9009 166.074 63.2999C166.168 63.422 166.275 63.5358 166.392 63.6408ZM171.845 63.813C171.845 63.9475 171.941 64.0815 172.134 64.0815C174.782 64.0815 177.429 64.0815 180.076 64.0815C180.269 64.0815 180.366 63.9475 180.366 63.813C180.366 63.6786 180.269 63.5445 180.076 63.5445C177.429 63.5445 174.782 63.5445 172.134 63.5445C171.942 63.5445 171.845 63.6786 171.845 63.813ZM171.845 62.3512C171.845 62.4853 171.941 62.6197 172.134 62.6197C174.782 62.6197 177.429 62.6197 180.076 62.6197C180.269 62.6197 180.366 62.4853 180.366 62.3512C180.366 62.2172 180.269 62.0827 180.076 62.0827C177.429 62.0827 174.782 62.0827 172.134 62.0827C171.942 62.0827 171.845 62.2172 171.845 62.3512ZM171.845 60.8894C171.845 61.0235 171.941 61.1579 172.134 61.1579C175.181 61.1579 178.228 61.1579 181.275 61.1579C181.468 61.1579 181.564 61.0235 181.564 60.8894C181.564 60.755 181.468 60.6209 181.275 60.6209C178.228 60.6209 175.181 60.6209 172.134 60.6209C171.942 60.6209 171.845 60.755 171.845 60.8894ZM171.845 59.4276C171.845 59.5621 171.941 59.6961 172.134 59.6961C174.382 59.6961 176.63 59.6961 178.877 59.6961C179.07 59.6961 179.167 59.5621 179.167 59.4276C179.167 59.2936 179.07 59.1591 178.877 59.1591C176.63 59.1591 174.382 59.1591 172.134 59.1591C171.942 59.1591 171.845 59.2936 171.845 59.4276ZM171.845 57.9646C171.845 58.0987 171.941 58.2331 172.134 58.2331C174.915 58.2331 177.695 58.2331 180.476 58.2331C180.669 58.2331 180.765 58.0987 180.765 57.9646C180.765 57.8302 180.669 57.6961 180.476 57.6961C177.695 57.6961 174.915 57.6961 172.134 57.6961C171.942 57.6961 171.845 57.8302 171.845 57.9646ZM169.564 56.1377C169.251 56.4185 168.818 56.5919 168.34 56.5919V57.5096C169.101 57.5096 169.79 57.2331 170.289 56.7865C170.787 56.3398 171.096 55.7224 171.096 55.0407C171.096 53.6775 169.862 52.5721 168.34 52.5721V53.4901C169.296 53.4901 170.071 54.1843 170.071 55.0407C170.071 55.469 169.878 55.8569 169.564 56.1377H169.564ZM165.584 55.0407C165.584 56.4042 166.818 57.5096 168.34 57.5096V56.5919C167.384 56.5919 166.609 55.8974 166.609 55.0407H165.584ZM171.845 56.5028C171.845 56.6369 171.941 56.7713 172.134 56.7713C174.782 56.7713 177.429 56.7713 180.076 56.7713C180.269 56.7713 180.366 56.6369 180.366 56.5028C180.366 56.3684 180.269 56.2343 180.076 56.2343C177.429 56.2343 174.782 56.2343 172.134 56.2343C171.942 56.2343 171.845 56.3684 171.845 56.5028ZM171.845 55.041C171.845 55.1751 171.941 55.3095 172.134 55.3095C174.782 55.3095 177.429 55.3095 180.076 55.3095C180.269 55.3095 180.366 55.1751 180.366 55.041C180.366 54.9066 180.269 54.7725 180.076 54.7725C177.429 54.7725 174.782 54.7725 172.134 54.7725C171.942 54.7725 171.845 54.9066 171.845 55.041ZM166.392 53.2952C165.893 53.7419 165.584 54.3593 165.584 55.0407H166.609C166.609 54.6127 166.803 54.2248 167.116 53.9444C167.429 53.6636 167.862 53.4901 168.34 53.4901V52.5721C167.579 52.5721 166.89 52.8485 166.392 53.2952ZM171.845 53.5792C171.845 53.7137 171.941 53.8477 172.134 53.8477C175.181 53.8477 178.228 53.8477 181.275 53.8477C181.468 53.8477 181.564 53.7137 181.564 53.5792C181.564 53.4448 181.468 53.3108 181.275 53.3108C178.228 53.3108 175.181 53.3108 172.134 53.3108C171.942 53.3108 171.845 53.4448 171.845 53.5792ZM171.845 52.1174C171.845 52.2515 171.941 52.3859 172.134 52.3859C174.382 52.3859 176.63 52.3859 178.877 52.3859C179.07 52.3859 179.167 52.2515 179.167 52.1174C179.167 51.983 179.07 51.849 178.877 51.849C176.63 51.849 174.382 51.849 172.134 51.849C171.942 51.849 171.845 51.983 171.845 52.1174ZM171.845 50.6557C171.845 50.7897 171.941 50.9241 172.134 50.9241C174.915 50.9241 177.695 50.9241 180.476 50.9241C180.669 50.9241 180.765 50.7897 180.765 50.6557C180.765 50.5212 180.669 50.3872 180.476 50.3872C177.695 50.3872 174.915 50.3872 172.134 50.3872C171.942 50.3872 171.845 50.5212 171.845 50.6557ZM168.34 50.6557C169.862 50.6557 171.096 49.5503 171.096 48.1871C171.096 46.8236 169.862 45.7182 168.34 45.7182C166.818 45.7182 165.584 46.8236 165.584 48.1871C165.584 48.8685 165.893 49.4858 166.392 49.9325C166.89 50.3792 167.579 50.6557 168.34 50.6557V49.738C167.862 49.738 167.429 49.5642 167.116 49.2834C166.803 49.0029 166.609 48.6151 166.609 48.1871C166.609 47.3303 167.384 46.6358 168.34 46.6358C168.818 46.6358 169.251 46.8096 169.564 47.0901H169.564C169.878 47.3709 170.071 47.7587 170.071 48.1871C170.071 49.0435 169.296 49.738 168.34 49.738V50.6557ZM171.845 49.1939C171.845 49.3279 171.941 49.4623 172.134 49.4623C174.782 49.4623 177.429 49.4623 180.076 49.4623C180.269 49.4623 180.366 49.3279 180.366 49.1939C180.366 49.0594 180.269 48.9254 180.076 48.9254C177.429 48.9254 174.782 48.9254 172.134 48.9254C171.942 48.9254 171.845 49.0594 171.845 49.1939ZM171.845 47.7321C171.845 47.8661 171.941 48.0006 172.134 48.0006C174.782 48.0006 177.429 48.0006 180.076 48.0006C180.269 48.0006 180.366 47.8661 180.366 47.7321C180.366 47.5976 180.269 47.4636 180.076 47.4636C177.429 47.4636 174.782 47.4636 172.134 47.4636C171.942 47.4636 171.845 47.5976 171.845 47.7321ZM171.845 46.2703C171.845 46.4043 171.941 46.5388 172.134 46.5388C175.181 46.5388 178.228 46.5388 181.275 46.5388C181.468 46.5388 181.564 46.4043 181.564 46.2703C181.564 46.1358 181.468 46.0018 181.275 46.0018C178.228 46.0018 175.181 46.0018 172.134 46.0018C171.942 46.0018 171.845 46.1358 171.845 46.2703Z" fill="#CFE0F5"/>
<path d="M172.134 46.5388C175.181 46.5388 178.228 46.5388 181.275 46.5388C181.661 46.5388 181.661 46.0018 181.275 46.0018C178.228 46.0018 175.181 46.0018 172.134 46.0018C171.748 46.0018 171.748 46.5388 172.134 46.5388Z" fill="#17282F"/>
<path d="M172.134 48.0006C174.782 48.0006 177.429 48.0006 180.076 48.0006C180.462 48.0006 180.462 47.4636 180.076 47.4636C177.429 47.4636 174.782 47.4636 172.134 47.4636C171.748 47.4636 171.748 48.0006 172.134 48.0006Z" fill="#17282F"/>
<path d="M172.134 49.4624C174.782 49.4624 177.429 49.4624 180.076 49.4624C180.462 49.4624 180.462 48.9254 180.076 48.9254C177.429 48.9254 174.782 48.9254 172.134 48.9254C171.748 48.9254 171.748 49.4624 172.134 49.4624Z" fill="#17282F"/>
<path d="M172.134 50.9243C174.914 50.9243 177.695 50.9243 180.476 50.9243C180.861 50.9243 180.862 50.3873 180.476 50.3873C177.695 50.3873 174.914 50.3873 172.134 50.3873C171.748 50.3873 171.748 50.9243 172.134 50.9243Z" fill="#17282F"/>
<path d="M172.134 52.386C174.382 52.386 176.63 52.386 178.877 52.386C179.263 52.386 179.263 51.849 178.877 51.849C176.63 51.849 174.382 51.849 172.134 51.849C171.748 51.849 171.748 52.386 172.134 52.386Z" fill="#17282F"/>
<path d="M172.134 53.8479C175.181 53.8479 178.228 53.8479 181.275 53.8479C181.661 53.8479 181.661 53.3109 181.275 53.3109C178.228 53.3109 175.181 53.3109 172.134 53.3109C171.748 53.3109 171.748 53.8479 172.134 53.8479Z" fill="#17282F"/>
<path d="M172.134 55.3096C174.782 55.3096 177.429 55.3096 180.076 55.3096C180.462 55.3096 180.462 54.7726 180.076 54.7726C177.429 54.7726 174.782 54.7726 172.134 54.7726C171.748 54.7726 171.748 55.3096 172.134 55.3096Z" fill="#17282F"/>
<path d="M172.134 56.7715C174.782 56.7715 177.429 56.7715 180.076 56.7715C180.462 56.7715 180.462 56.2345 180.076 56.2345C177.429 56.2345 174.782 56.2345 172.134 56.2345C171.748 56.2345 171.748 56.7715 172.134 56.7715Z" fill="#17282F"/>
<path d="M172.134 59.6962C174.382 59.6962 176.63 59.6962 178.877 59.6962C179.263 59.6962 179.263 59.1592 178.877 59.1592C176.63 59.1592 174.382 59.1592 172.134 59.1592C171.748 59.1592 171.748 59.6962 172.134 59.6962Z" fill="#17282F"/>
<path d="M172.134 61.1581C175.181 61.1581 178.228 61.1581 181.275 61.1581C181.661 61.1581 181.661 60.6211 181.275 60.6211C178.228 60.6211 175.181 60.6211 172.134 60.6211C171.748 60.6211 171.748 61.1581 172.134 61.1581Z" fill="#17282F"/>
<path d="M172.134 62.6198C174.782 62.6198 177.429 62.6198 180.076 62.6198C180.462 62.6198 180.462 62.0828 180.076 62.0828C177.429 62.0828 174.782 62.0828 172.134 62.0828C171.748 62.0828 171.748 62.6198 172.134 62.6198Z" fill="#17282F"/>
<path d="M172.134 64.0817C174.782 64.0817 177.429 64.0817 180.076 64.0817C180.462 64.0817 180.462 63.5447 180.076 63.5447C177.429 63.5447 174.782 63.5447 172.134 63.5447C171.748 63.5447 171.748 64.0817 172.134 64.0817Z" fill="#17282F"/>
<path d="M172.134 58.2332C174.914 58.2332 177.695 58.2332 180.476 58.2332C180.861 58.2332 180.862 57.6962 180.476 57.6962C177.695 57.6962 174.914 57.6962 172.134 57.6962C171.748 57.6962 171.748 58.2332 172.134 58.2332Z" fill="#17282F"/>
<path d="M181.275 46.5388C178.228 46.5388 175.181 46.5388 172.134 46.5388C171.941 46.5388 171.845 46.4044 171.845 46.2703C171.845 46.1359 171.942 46.0018 172.134 46.0018C175.181 46.0018 178.228 46.0018 181.275 46.0018C181.468 46.0018 181.564 46.1359 181.564 46.2703C181.564 46.4044 181.468 46.5388 181.275 46.5388Z" fill="#6C7A7F"/>
<path d="M180.076 48.0006C177.429 48.0006 174.782 48.0006 172.134 48.0006C171.941 48.0006 171.845 47.8662 171.845 47.7321C171.845 47.5977 171.942 47.4636 172.134 47.4636C174.782 47.4636 177.429 47.4636 180.076 47.4636C180.269 47.4636 180.366 47.5977 180.366 47.7321C180.366 47.8662 180.269 48.0006 180.076 48.0006Z" fill="#6C7A7F"/>
<path d="M180.076 49.4624C177.429 49.4624 174.782 49.4624 172.134 49.4624C171.941 49.4624 171.845 49.328 171.845 49.1939C171.845 49.0595 171.942 48.9254 172.134 48.9254C174.782 48.9254 177.429 48.9254 180.076 48.9254C180.269 48.9254 180.366 49.0595 180.366 49.1939C180.366 49.328 180.269 49.4624 180.076 49.4624Z" fill="#6C7A7F"/>
<path d="M180.476 50.9243C177.695 50.9243 174.915 50.9243 172.134 50.9243C171.941 50.9243 171.845 50.7899 171.845 50.6558C171.845 50.5214 171.942 50.3873 172.134 50.3873C174.915 50.3873 177.695 50.3873 180.476 50.3873C180.669 50.3873 180.765 50.5214 180.765 50.6558C180.765 50.7899 180.669 50.9243 180.476 50.9243Z" fill="#6C7A7F"/>
<path d="M178.877 52.386C176.63 52.386 174.382 52.386 172.134 52.386C171.941 52.386 171.845 52.2515 171.845 52.1175C171.845 51.983 171.942 51.849 172.134 51.849C174.382 51.849 176.63 51.849 178.877 51.849C179.07 51.849 179.167 51.983 179.167 52.1175C179.167 52.2515 179.07 52.386 178.877 52.386Z" fill="#6C7A7F"/>
<path d="M181.275 53.8479C178.228 53.8479 175.181 53.8479 172.134 53.8479C171.941 53.8479 171.845 53.7139 171.845 53.5794C171.845 53.445 171.942 53.3109 172.134 53.3109C175.181 53.3109 178.228 53.3109 181.275 53.3109C181.468 53.3109 181.564 53.445 181.564 53.5794C181.564 53.7139 181.468 53.8479 181.275 53.8479Z" fill="#6C7A7F"/>
<path d="M180.076 55.3096C177.429 55.3096 174.782 55.3096 172.134 55.3096C171.941 55.3096 171.845 55.1751 171.845 55.0411C171.845 54.9066 171.942 54.7726 172.134 54.7726C174.782 54.7726 177.429 54.7726 180.076 54.7726C180.269 54.7726 180.366 54.9066 180.366 55.0411C180.366 55.1751 180.269 55.3096 180.076 55.3096Z" fill="#6C7A7F"/>
<path d="M180.076 56.7715C177.429 56.7715 174.782 56.7715 172.134 56.7715C171.941 56.7715 171.845 56.637 171.845 56.503C171.845 56.3685 171.942 56.2345 172.134 56.2345C174.782 56.2345 177.429 56.2345 180.076 56.2345C180.269 56.2345 180.366 56.3685 180.366 56.503C180.366 56.637 180.269 56.7715 180.076 56.7715Z" fill="#6C7A7F"/>
<path d="M178.877 59.6962C176.63 59.6962 174.382 59.6962 172.134 59.6962C171.941 59.6962 171.845 59.5621 171.845 59.4277C171.845 59.2936 171.942 59.1592 172.134 59.1592C174.382 59.1592 176.63 59.1592 178.877 59.1592C179.07 59.1592 179.167 59.2936 179.167 59.4277C179.167 59.5621 179.07 59.6962 178.877 59.6962Z" fill="#6C7A7F"/>
<path d="M181.275 61.1581C178.228 61.1581 175.181 61.1581 172.134 61.1581C171.941 61.1581 171.845 61.0236 171.845 60.8896C171.845 60.7551 171.942 60.6211 172.134 60.6211C175.181 60.6211 178.228 60.6211 181.275 60.6211C181.468 60.6211 181.564 60.7551 181.564 60.8896C181.564 61.0236 181.468 61.1581 181.275 61.1581Z" fill="#6C7A7F"/>
<path d="M180.076 62.6198C177.429 62.6198 174.782 62.6198 172.134 62.6198C171.941 62.6198 171.845 62.4853 171.845 62.3513C171.845 62.2172 171.942 62.0828 172.134 62.0828C174.782 62.0828 177.429 62.0828 180.076 62.0828C180.269 62.0828 180.366 62.2172 180.366 62.3513C180.366 62.4853 180.269 62.6198 180.076 62.6198Z" fill="#6C7A7F"/>
<path d="M180.076 64.0817C177.429 64.0817 174.782 64.0817 172.134 64.0817C171.941 64.0817 171.845 63.9476 171.845 63.8132C171.845 63.6787 171.942 63.5447 172.134 63.5447C174.782 63.5447 177.429 63.5447 180.076 63.5447C180.269 63.5447 180.366 63.6787 180.366 63.8132C180.366 63.9476 180.269 64.0817 180.076 64.0817Z" fill="#6C7A7F"/>
<path d="M180.476 58.2332C177.695 58.2332 174.915 58.2332 172.134 58.2332C171.941 58.2332 171.845 58.0987 171.845 57.9647C171.845 57.8302 171.942 57.6962 172.134 57.6962C174.915 57.6962 177.695 57.6962 180.476 57.6962C180.669 57.6962 180.765 57.8302 180.765 57.9647C180.765 58.0987 180.669 58.2332 180.476 58.2332Z" fill="#6C7A7F"/>
<path d="M167.116 53.9445L166.392 53.2954C165.893 53.7421 165.584 54.3594 165.584 55.0408H166.609C166.609 54.6128 166.803 54.2249 167.116 53.9445Z" fill="#406FBF"/>
<path d="M168.34 56.592C167.384 56.592 166.609 55.8975 166.609 55.0407H165.584C165.584 56.4043 166.818 57.5096 168.34 57.5096V56.592Z" fill="#406FBF"/>
<path d="M168.34 57.5096C166.818 57.5096 165.584 56.4043 165.584 55.0407H166.609C166.609 55.8975 167.384 56.592 168.34 56.592V57.5096Z" fill="#6D97D6"/>
<path d="M167.116 53.9445C167.429 53.6636 167.862 53.4902 168.34 53.4902V52.5722C167.579 52.5722 166.89 52.8486 166.392 53.2953L167.116 53.9445Z" fill="#406FBF"/>
<path d="M167.116 53.9445L166.392 53.2953C166.89 52.8486 167.579 52.5722 168.34 52.5722V53.4902C167.862 53.4902 167.429 53.6636 167.116 53.9445Z" fill="#254583"/>
<path d="M170.071 55.0407C170.071 55.8975 169.296 56.592 168.34 56.592V57.5096C169.862 57.5096 171.096 56.4043 171.096 55.0407C171.096 53.6776 169.862 52.5722 168.34 52.5722V53.4902C169.296 53.4902 170.071 54.1843 170.071 55.0407Z" fill="#406FBF"/>
<path d="M170.289 56.7866C170.787 56.3399 171.096 55.7226 171.096 55.0408C171.096 55.7226 170.787 56.3399 170.289 56.7866ZM169.564 56.1379H169.564C169.878 55.857 170.071 55.4692 170.071 55.0408C170.071 55.4696 169.878 55.857 169.564 56.1379Z" fill="#A0AFC8"/>
<path d="M170.288 56.7866L169.564 56.1379C169.878 55.857 170.071 55.4696 170.071 55.0408H171.096C171.096 55.7226 170.787 56.3399 170.288 56.7866Z" fill="#3563B7"/>
<path d="M167.116 49.2835L166.392 49.9326C166.89 50.3793 167.579 50.6558 168.34 50.6558V49.7381C167.862 49.7381 167.429 49.5643 167.116 49.2835Z" fill="#406FBF"/>
<path d="M170.071 48.1872C170.071 49.0436 169.296 49.7381 168.34 49.7381V50.6558C169.862 50.6558 171.096 49.5504 171.096 48.1872H170.071Z" fill="#406FBF"/>
<path d="M168.34 50.6558V49.7381C169.296 49.7381 170.071 49.0436 170.071 48.1872H171.096C171.096 49.5504 169.862 50.6558 168.34 50.6558Z" fill="#6D97D6"/>
<path d="M167.116 49.2833C166.803 49.0029 166.609 48.6151 166.609 48.1871H165.584C165.584 48.8685 165.893 49.4858 166.392 49.9325L167.116 49.2833Z" fill="#406FBF"/>
<path d="M166.392 49.9325C165.893 49.4858 165.584 48.8685 165.584 48.1871H166.609C166.609 48.6151 166.803 49.0029 167.116 49.2833L166.392 49.9325Z" fill="#254583"/>
<path d="M168.34 46.636C169.296 46.636 170.071 47.3305 170.071 48.1873H171.096C171.096 46.8237 169.862 45.7183 168.34 45.7183C166.818 45.7183 165.584 46.8237 165.584 48.1873H166.609C166.609 47.3305 167.384 46.636 168.34 46.636Z" fill="#406FBF"/>
<path d="M169.564 47.0901C169.251 46.8097 168.818 46.6358 168.34 46.6358C168.818 46.6358 169.251 46.8097 169.564 47.0901H169.564Z" fill="#A0AFC8"/>
<path d="M169.564 47.0901C169.251 46.8097 168.818 46.6358 168.34 46.6358V45.7182C169.101 45.7182 169.79 45.9946 170.289 46.4413L169.564 47.0901Z" fill="#3563B7"/>
<path d="M169.564 60.7985L170.289 60.1493C170.787 60.5964 171.096 61.2134 171.096 61.8951H170.071C170.071 61.4667 169.878 61.0793 169.564 60.7985Z" fill="#406FBF"/>
<path d="M168.34 63.446C169.296 63.446 170.071 62.7519 170.071 61.8951H171.096C171.096 63.2586 169.862 64.364 168.34 64.364V63.446Z" fill="#406FBF"/>
<path d="M168.34 64.364V63.446C169.296 63.446 170.071 62.7519 170.071 61.8951H171.096C171.096 63.2586 169.862 64.364 168.34 64.364Z" fill="#6D97D6"/>
<path d="M169.564 60.7983C169.251 60.5175 168.818 60.3441 168.34 60.3441V59.4264C169.101 59.4264 169.79 59.7025 170.289 60.1492L169.564 60.7983Z" fill="#406FBF"/>
<path d="M169.564 60.7983C169.251 60.5175 168.818 60.3441 168.34 60.3441V59.4264C169.101 59.4264 169.79 59.7025 170.289 60.1492L169.564 60.7983Z" fill="#254583"/>
<path d="M166.609 61.8951C166.609 62.7519 167.384 63.446 168.34 63.446V64.364C166.818 64.364 165.584 63.2586 165.584 61.8951C165.584 60.5315 166.818 59.4265 168.34 59.4265V60.3442C167.384 60.3442 166.609 61.0387 166.609 61.8951Z" fill="#406FBF"/>
<path d="M166.392 63.6409C166.275 63.5359 166.168 63.4221 166.074 63.3C166.168 63.4221 166.275 63.5359 166.392 63.6409ZM167.116 62.9917C166.803 62.7113 166.609 62.3235 166.609 61.8951C166.609 62.3235 166.803 62.7113 167.116 62.9917Z" fill="#A0AFC8"/>
<path d="M166.392 63.6409C166.275 63.5359 166.168 63.4221 166.074 63.3C165.765 62.901 165.584 62.4169 165.584 61.8951H166.609C166.609 62.3235 166.803 62.7113 167.116 62.9917L166.392 63.6409Z" fill="#3563B7"/>
<path d="M127.264 90.911H116.524V88.2177H127.264C127.913 88.2177 128.44 88.6895 128.44 89.271V89.8577C128.44 90.4397 127.913 90.911 127.264 90.911Z" fill="#17282F"/>
<path d="M118.382 90.911H95.5283C94.9235 90.911 94.4338 90.4723 94.4338 89.9305V89.1982C94.4338 88.6569 94.9235 88.2177 95.5283 88.2177H118.382C118.986 88.2177 119.476 88.6569 119.476 89.1982V89.9305C119.476 90.4723 118.986 90.911 118.382 90.911Z" fill="#040606"/>
<path d="M118.382 90.911H104.918L104.704 88.2177H118.382C118.986 88.2177 119.476 88.6569 119.476 89.1982V89.9305C119.476 90.4723 118.986 90.911 118.382 90.911Z" fill="#707576"/>
<path d="M113.361 88.2178H119.151L115.443 75.8106H113.361V88.2178Z" fill="#17282F"/>
<path d="M118.307 88.2178H106.489L105.312 75.8106H114.6L118.307 88.2178Z" fill="#040606"/>
<path d="M118.307 88.2178H106.489L105.969 82.7369H116.67L118.307 88.2178Z" fill="#3E3F42"/>
<path d="M148.077 40.1479H142.705L138.546 82.7369H143.918C145.043 82.7369 146.035 81.9203 146.133 80.9124L149.936 41.9725C150.034 40.9646 149.202 40.1479 148.077 40.1479Z" fill="#17282F"/>
<path d="M142.679 82.7369H77.6426C76.5179 82.7369 75.6859 81.9203 75.7844 80.9124L79.5873 41.9725C79.6854 40.9646 80.6769 40.1479 81.8015 40.1479H146.838C147.963 40.1479 148.795 40.9646 148.696 41.9725L144.894 80.9124C144.795 81.9203 143.804 82.7369 142.679 82.7369Z" fill="#17282F"/>
<path d="M142.679 82.7369H104.269L104.014 79.5118L103.792 79.2803L103.725 77.7664H140.943C141.919 77.7664 142.779 77.0576 142.864 76.1837L146.024 43.8289C146.11 42.9546 145.388 42.2458 144.412 42.2458H95.2872C94.7401 41.3635 94.0062 40.6177 93.06 40.1479H146.838C147.902 40.1479 148.703 40.8779 148.704 41.8086C148.704 41.8627 148.702 41.9172 148.696 41.9725L144.893 80.9124C144.795 81.9203 143.804 82.7369 142.679 82.7369ZM84.9033 82.7369H77.6426C76.5797 82.7369 75.7778 82.007 75.7765 81.0763C75.7765 81.0222 75.7791 80.9677 75.7844 80.9124L76.4944 73.6404C77.144 74.1364 77.9552 74.5942 78.8516 75.0127L78.7375 76.1837C78.6518 77.0576 79.3737 77.7664 80.3497 77.7664H84.9122C85.4459 79.7819 85.4681 79.8658 85.469 79.8694C85.3247 80.3822 85.1009 81.3169 84.9033 82.7369ZM77.5613 62.7141L79.5873 41.9725C79.6854 40.9646 80.6769 40.1479 81.8015 40.1479H88.3132C87.3689 40.6042 86.5981 41.3305 86.1621 42.2458H83.8182C82.8427 42.2458 81.9822 42.9546 81.897 43.8289L80.6658 56.4369C80.3488 56.8331 80.1223 57.2818 80.0051 57.7547C79.9549 57.816 79.9105 57.8828 79.8728 57.9548C79.3196 59.0153 78.4325 60.7686 77.5613 62.7141Z" fill="white"/>
<path d="M140.943 77.7664H103.725L103.589 74.6618C107.848 74.6618 112.107 74.6618 116.366 74.6618C116.621 74.6618 116.748 74.4844 116.748 74.307C116.748 74.1296 116.621 73.9522 116.366 73.9522C112.097 73.9522 107.827 73.9522 103.557 73.9522L103.506 72.7891C103.557 72.8122 103.613 72.8229 103.67 72.8229C103.81 72.8229 103.954 72.7585 104.037 72.6503C104.775 71.692 105.513 70.7334 106.252 69.7744C106.826 70.0787 107.4 70.3834 107.975 70.6873C108.035 70.7195 108.102 70.7346 108.168 70.7346C108.272 70.7346 108.375 70.6972 108.454 70.632C109.109 70.0926 109.764 69.5537 110.418 69.0143C110.958 69.8098 111.498 70.605 112.038 71.4005C112.113 71.5107 112.254 71.5759 112.393 71.5759C112.491 71.5759 112.588 71.5437 112.66 71.4725C113.347 70.7947 114.034 70.1169 114.721 69.4391C115.256 70.093 115.791 70.747 116.326 71.4005C116.414 71.5091 116.537 71.554 116.658 71.554C116.945 71.554 117.221 71.3022 117.009 71.0429C116.37 70.2625 115.732 69.4824 115.094 68.702C115.009 68.5974 114.868 68.5262 114.729 68.5262C114.638 68.5262 114.547 68.5572 114.472 68.6304C113.796 69.2975 113.12 69.9653 112.443 70.6324C111.911 69.8492 111.379 69.0652 110.848 68.282C110.77 68.1674 110.641 68.1094 110.509 68.1094C110.409 68.1094 110.308 68.1428 110.226 68.21C109.526 68.7868 108.84 69.383 108.124 69.9435C107.91 69.8389 107.703 69.7191 107.494 69.6085C107.108 69.4041 106.722 69.1996 106.336 68.9952C106.274 68.9622 106.209 68.9475 106.145 68.9475C106.008 68.9475 105.877 69.0155 105.794 69.1225C105.111 70.0095 104.428 70.8969 103.745 71.7839C103.643 71.6061 103.541 71.4283 103.439 71.2501L103.342 69.0537C103.417 69.1459 103.493 69.2382 103.57 69.3317L103.39 66.3997C103.732 66.6993 104.085 66.992 104.45 67.28C105.33 67.9741 106.448 68.3361 107.582 68.3361C108.165 68.3361 108.753 68.2402 109.315 68.0445L118.452 65.2701C118.597 65.2263 118.688 65.105 118.687 64.9753C118.687 64.9439 118.682 64.9121 118.67 64.8803L118.396 64.1245H137.504L138.369 55.2567H103.393L103.256 56.6648C102.401 55.5216 101.334 54.3931 100.255 54.0912C99.6148 53.7845 98.8955 53.5976 98.1363 53.5598C96.8225 53.495 95.6019 53.462 94.468 53.4564C96.0007 52.7114 97.1226 51.3045 97.2798 49.6911C97.2927 49.5606 97.2989 49.431 97.2985 49.3033C97.2976 48.4911 97.0396 47.7433 96.5885 47.1223C96.5885 46.9048 96.581 46.682 96.5659 46.4561C97.3522 46.4179 97.7798 45.9887 97.7798 45.9887L96.2884 44.6824C96.2453 44.5098 96.1978 44.338 96.1454 44.1673C96.2471 44.083 96.2875 43.9124 96.2391 43.7326C96.196 43.579 96.0966 43.4577 95.9838 43.4028L96.1094 43.3491C96.1094 43.3491 96.5352 44.5866 96.9561 44.9748C97.0072 45.0372 97.0529 45.0738 97.0902 45.0738C97.0942 45.0738 97.0982 45.0734 97.1022 45.0726C97.1311 45.0838 97.1599 45.0901 97.1879 45.0901C97.2034 45.0901 97.2185 45.0882 97.2336 45.0846C97.7194 44.9652 96.7062 42.6041 96.7062 42.6041L95.736 43.087C95.6033 42.7962 95.4541 42.5146 95.2872 42.2457H144.412C145.388 42.2457 146.11 42.9545 146.024 43.8288L142.864 76.1836C142.779 77.0575 141.919 77.7664 140.943 77.7664ZM124.319 73.5787C124.32 73.8607 124.563 74.0818 124.885 74.0818H131.98C132.321 74.0818 132.621 73.8344 132.651 73.5289C132.653 73.5122 132.653 73.4955 132.653 73.4792C132.653 73.1968 132.41 72.9756 132.088 72.9756H124.993C124.652 72.9756 124.351 73.2231 124.322 73.5289C124.32 73.5456 124.319 73.5624 124.319 73.5787ZM124.656 70.1268C124.657 70.4089 124.9 70.6304 125.222 70.6304H131.768C132.109 70.6304 132.41 70.3826 132.439 70.0771C132.441 70.0604 132.442 70.0441 132.442 70.0278C132.442 69.7454 132.198 69.5242 131.876 69.5242H125.33C124.989 69.5242 124.689 69.7716 124.659 70.0771C124.657 70.0938 124.656 70.1105 124.656 70.1268ZM124.989 66.7267C124.989 67.0087 125.232 67.2303 125.554 67.2303H134.021C134.361 67.2303 134.662 66.9825 134.692 66.677C134.693 66.6603 134.694 66.644 134.694 66.6277C134.694 66.3453 134.451 66.1241 134.129 66.1241H125.662C125.322 66.1241 125.021 66.3715 124.991 66.677C124.989 66.6937 124.989 66.7104 124.989 66.7267ZM120.448 53.6927C120.448 53.8721 120.652 54.0212 120.841 54.0212C127.2 54.0212 133.559 54.0212 139.918 54.0212C140.17 54.0212 140.296 53.8458 140.296 53.6704C140.296 53.4954 140.17 53.32 139.918 53.32C139.223 53.32 138.528 53.32 137.833 53.32L138.54 46.075H136.42L135.713 53.32C135.006 53.32 134.3 53.32 133.593 53.32L134.023 48.9234H131.903L131.474 53.32C130.767 53.32 130.06 53.32 129.354 53.32L129.876 47.9736H127.756L127.234 53.32C126.527 53.32 125.821 53.32 125.115 53.32L125.451 49.8725H123.332L122.995 53.32C122.419 53.32 121.843 53.32 121.266 53.32C121.503 50.9051 121.738 48.4899 121.974 46.075C121.975 46.0627 121.976 46.0508 121.976 46.0388C121.976 45.8383 121.801 45.7385 121.616 45.7385C121.42 45.7385 121.213 45.8511 121.191 46.075C120.944 48.6068 120.697 51.1386 120.45 53.6708C120.449 53.6779 120.448 53.6855 120.448 53.6927ZM102.192 52.7531C102.991 53.5367 104.151 54.0212 105.486 54.0212L105.643 52.4119C104.805 52.4119 104.075 52.1072 103.574 51.6147C103.072 51.1223 102.799 50.4425 102.872 49.6911C103.019 48.1887 104.497 46.9708 106.174 46.9708C107.76 46.9708 108.955 48.0591 108.957 49.4473C108.957 49.5276 108.953 49.6092 108.945 49.6911C108.799 51.1935 107.32 52.4119 105.643 52.4119L105.486 54.0212C108.155 54.0212 110.509 52.0829 110.742 49.6911C110.755 49.5606 110.761 49.431 110.761 49.3033C110.759 48.0384 110.135 46.9302 109.129 46.2134C108.44 45.7234 107.573 45.4163 106.603 45.3678C106.594 45.3674 106.583 45.367 106.574 45.3666C106.568 45.3662 106.563 45.3658 106.557 45.3658C106.55 45.3654 106.543 45.365 106.536 45.365C106.534 45.3646 106.531 45.3646 106.529 45.3646C106.52 45.3642 106.511 45.3638 106.503 45.3638C106.488 45.3634 106.474 45.363 106.46 45.3626C106.456 45.3626 106.453 45.3622 106.45 45.3622C106.427 45.3618 106.404 45.3614 106.382 45.3614C106.365 45.361 106.348 45.361 106.332 45.361C103.662 45.361 101.309 47.2997 101.076 49.6911C100.959 50.8868 101.394 51.9695 102.192 52.7531ZM84.9122 77.7664H80.3497C79.3737 77.7664 78.6518 77.0575 78.7375 76.1836L78.8516 75.0126C80.6769 75.8642 82.8534 76.5512 84.7235 77.054C84.7928 77.3149 84.8554 77.5516 84.9122 77.7664ZM83.384 71.9951L81.2758 70.8349L80.1672 70.2247L81.0139 68.4379L81.9303 66.5036C82.5026 68.6654 82.9817 70.4761 83.384 71.9951ZM80.6658 56.4369L81.897 43.8288C81.9822 42.9545 82.8427 42.2457 83.8182 42.2457H86.1621C86.0799 42.4183 86.0098 42.5981 85.9525 42.7839C85.7527 43.4311 85.7283 44.1112 85.881 44.7703C86.3961 47.1335 86.642 48.4724 87.6233 49.6004C87.6193 49.6307 87.6162 49.6609 87.6131 49.6911C87.5362 50.4779 87.6983 51.2154 88.0455 51.8514L87.6472 53.8386C84.9872 54.1994 83.2077 54.7702 82.0182 55.3585C81.4748 55.6274 81.0152 55.9997 80.6658 56.4369ZM92.8958 52.3375C92.8776 52.2675 92.8611 52.1978 92.8469 52.129C92.8469 52.129 92.8474 52.129 92.8474 52.1294C92.7817 51.8124 92.7586 51.5133 92.8132 51.2746C93.7811 51.1652 94.6722 50.8518 95.3418 50.3152C94.983 51.3132 94.0315 52.0996 92.8958 52.3375Z" fill="#F1F1F0"/>
<path d="M125.08 53.6709H122.96L123.332 49.8726H125.451L125.08 53.6709Z" fill="#406FBF"/>
<path d="M125.115 53.3199C124.408 53.3199 123.701 53.3199 122.995 53.3199L123.332 49.8725H125.451L125.115 53.3199Z" fill="#3563B7"/>
<path d="M129.319 53.6709H127.2L127.756 47.9737H129.876L129.319 53.6709Z" fill="#406FBF"/>
<path d="M133.559 53.6709H131.439L131.903 48.9235H134.023L133.559 53.6709Z" fill="#406FBF"/>
<path d="M137.798 53.6709H135.679L136.42 46.0751H138.54L137.798 53.6709Z" fill="#406FBF"/>
<path d="M137.833 53.3199C137.126 53.3199 136.419 53.3199 135.713 53.3199L136.42 46.075H138.54L137.833 53.3199Z" fill="#2251AA"/>
<path d="M139.918 53.32C133.701 53.32 127.484 53.32 121.266 53.32C121.503 50.9051 121.738 48.4899 121.974 46.075C122.018 45.6252 121.234 45.6279 121.191 46.075C120.944 48.6068 120.697 51.1386 120.45 53.6708C120.431 53.8597 120.644 54.0212 120.841 54.0212C127.2 54.0212 133.559 54.0212 139.918 54.0212C140.422 54.0212 140.422 53.32 139.918 53.32Z" fill="#406FBF"/>
<path d="M139.918 54.0212C133.559 54.0212 127.2 54.0212 120.841 54.0212C120.652 54.0212 120.448 53.8721 120.448 53.6927C120.448 53.6855 120.449 53.678 120.45 53.6708C120.697 51.1386 120.944 48.6068 121.191 46.075C121.213 45.8511 121.42 45.7385 121.616 45.7385C121.801 45.7385 121.976 45.8384 121.976 46.0388C121.976 46.0508 121.975 46.0627 121.974 46.075C121.738 48.4899 121.503 50.9051 121.267 53.32C127.484 53.32 133.701 53.32 139.918 53.32C140.17 53.32 140.296 53.4954 140.296 53.6704C140.296 53.8458 140.17 54.0212 139.918 54.0212Z" fill="#90B4E3"/>
<path d="M90.1115 51.6147L88.7297 52.7532C89.528 53.5368 90.6891 54.0212 92.0238 54.0212L92.1809 52.4119C91.3422 52.4119 90.6127 52.1072 90.1115 51.6147Z" fill="#406FBF"/>
<path d="M95.483 49.6911C95.3365 51.1935 93.858 52.4119 92.181 52.4119L92.0238 54.0212C94.6931 54.0212 97.0463 52.0829 97.2799 49.6911H95.483Z" fill="#406FBF"/>
<path d="M93.2918 53.4604C93.1466 53.1219 92.9952 52.7234 92.8958 52.3376C94.0315 52.0997 94.983 51.3133 95.3418 50.3153C95.5691 50.1331 95.7707 49.9255 95.9412 49.6912H97.2798C97.1227 51.3045 96.0007 52.7115 94.468 53.4565C94.3517 53.4557 94.2362 53.4557 94.1217 53.4557C93.8397 53.4557 93.5631 53.4573 93.2918 53.4604Z" fill="#3B69BB"/>
<path d="M90.1115 51.6148C89.6098 51.1223 89.3367 50.4425 89.41 49.6911H87.6131C87.4963 50.8868 87.9319 51.9696 88.7298 52.7532L90.1115 51.6148Z" fill="#406FBF"/>
<path d="M92.7124 46.9708C94.3894 46.9708 95.63 48.1888 95.483 49.6912H97.2799C97.5134 47.2998 95.5389 45.3611 92.8696 45.3611C90.1998 45.3611 87.8466 47.2998 87.6131 49.6912H89.41C89.5565 48.1888 91.035 46.9708 92.7124 46.9708Z" fill="#406FBF"/>
<path d="M97.2798 49.6912H95.9412C96.2475 49.2707 96.454 48.7648 96.5272 48.1693C96.5676 47.8396 96.589 47.4879 96.5885 47.1224C97.0396 47.7433 97.2976 48.4911 97.2985 49.3033C97.2989 49.431 97.2927 49.5607 97.2798 49.6912Z" fill="#5D87CD"/>
<path d="M87.7041 49.6912H87.6131C87.6162 49.6609 87.6193 49.6307 87.6233 49.6005C87.6495 49.6311 87.6766 49.6613 87.7041 49.6912Z" fill="#5D87CD"/>
<path d="M103.574 51.6147L102.192 52.7532C102.991 53.5368 104.151 54.0212 105.486 54.0212L105.643 52.4119C104.805 52.4119 104.075 52.1072 103.574 51.6147Z" fill="#406FBF"/>
<path d="M105.486 54.0212C104.151 54.0212 102.991 53.5368 102.192 52.7532L103.574 51.6147C104.075 52.1072 104.805 52.4119 105.643 52.4119L105.486 54.0212Z" fill="#254583"/>
<path d="M108.945 49.6911C108.799 51.1935 107.32 52.4119 105.643 52.4119L105.486 54.0212C108.155 54.0212 110.509 52.0829 110.742 49.6911H108.945Z" fill="#406FBF"/>
<path d="M105.486 54.0212L105.643 52.4119C107.32 52.4119 108.799 51.1935 108.945 49.6911H110.742C110.509 52.0829 108.155 54.0212 105.486 54.0212Z" fill="#3B69BB"/>
<path d="M103.574 51.6148C103.072 51.1223 102.799 50.4425 102.872 49.6911H101.076C100.959 50.8868 101.394 51.9696 102.192 52.7532L103.574 51.6148Z" fill="#406FBF"/>
<path d="M106.174 46.9708C107.851 46.9708 109.092 48.1888 108.945 49.6912H110.742C110.976 47.2998 109.001 45.3611 106.332 45.3611C103.662 45.3611 101.309 47.2998 101.076 49.6912H102.872C103.019 48.1888 104.498 46.9708 106.174 46.9708Z" fill="#406FBF"/>
<path d="M110.742 49.6912H108.945C108.953 49.6092 108.957 49.5277 108.957 49.4473C108.955 48.0591 107.76 46.9708 106.174 46.9708C107.013 46.9708 107.743 47.2751 108.244 47.7676L109.625 46.6295C109.473 46.4792 109.306 46.3404 109.129 46.2135C110.135 46.9303 110.759 48.0384 110.761 49.3033C110.761 49.431 110.755 49.5607 110.742 49.6912Z" fill="#5D87CD"/>
<path d="M102.872 49.6912H101.076C101.309 47.2998 103.662 45.3611 106.332 45.3611C106.348 45.3611 106.365 45.3611 106.382 45.3615C106.365 45.3611 106.349 45.3611 106.332 45.3611L106.174 46.9708C104.498 46.9708 103.019 48.1888 102.872 49.6912ZM106.603 45.3678C106.593 45.3674 106.584 45.367 106.574 45.3666C106.583 45.367 106.594 45.3674 106.603 45.3678ZM106.557 45.3658C106.55 45.3654 106.543 45.3651 106.536 45.3651C106.543 45.3651 106.55 45.3654 106.557 45.3658ZM106.529 45.3647C106.52 45.3643 106.511 45.3639 106.503 45.3639C106.511 45.3639 106.52 45.3643 106.529 45.3647ZM106.46 45.3627C106.456 45.3627 106.453 45.3623 106.45 45.3623C106.453 45.3623 106.456 45.3627 106.46 45.3627Z" fill="#5D87CD"/>
<path d="M109.129 46.2135C108.44 45.7235 107.573 45.4164 106.603 45.3678C107.573 45.4164 108.44 45.7235 109.129 46.2135Z" fill="#FBFBFA"/>
<path d="M106.574 45.3666C106.568 45.3661 106.563 45.3657 106.557 45.3657C106.563 45.3657 106.568 45.3661 106.574 45.3666Z" fill="#FBFBFA"/>
<path d="M106.45 45.3622C106.427 45.3618 106.404 45.3613 106.382 45.3613C106.404 45.3613 106.427 45.3618 106.45 45.3622Z" fill="#FBFBFA"/>
<path d="M108.244 47.7676C107.743 47.2751 107.013 46.9708 106.174 46.9708L106.332 45.3611C106.349 45.3611 106.365 45.3611 106.382 45.3615C106.404 45.3615 106.427 45.3619 106.45 45.3623C106.453 45.3623 106.456 45.3627 106.46 45.3627C106.474 45.3631 106.488 45.3635 106.503 45.3639C106.511 45.3639 106.52 45.3643 106.529 45.3647C106.531 45.3647 106.534 45.3647 106.536 45.3651C106.543 45.3651 106.55 45.3655 106.557 45.3659C106.563 45.3659 106.568 45.3663 106.574 45.3666C106.584 45.367 106.593 45.3674 106.603 45.3678C107.573 45.4164 108.44 45.7234 109.129 46.2135C109.306 46.3404 109.473 46.4792 109.625 46.6296L108.244 47.7676Z" fill="#B4D0EF"/>
<path d="M121.866 67.2669H123.296L123.422 65.9841H121.992L121.866 67.2669ZM123.799 67.7585H121.267L121.489 65.4925H124.02L123.799 67.7585Z" fill="#406FBF"/>
<path d="M121.529 70.7188H122.959L123.084 69.436H121.655L121.529 70.7188ZM123.462 71.2104H120.93L121.152 68.9444H123.683L123.462 71.2104Z" fill="#406FBF"/>
<path d="M121.192 74.1702H122.622L122.747 72.8874H121.318L121.192 74.1702ZM123.125 74.6619H120.593L120.814 72.3958H123.346L123.125 74.6619Z" fill="#406FBF"/>
<path d="M125.554 67.2303C125.213 67.2303 124.961 66.9825 124.991 66.6771C125.021 66.3716 125.322 66.1242 125.662 66.1242H134.129C134.469 66.1242 134.721 66.3716 134.692 66.6771C134.662 66.9825 134.361 67.2303 134.021 67.2303H125.554Z" fill="#406FBF"/>
<path d="M134.021 67.2303H125.554C125.232 67.2303 124.989 67.0088 124.989 66.7268C124.989 66.7105 124.989 66.6938 124.991 66.6771C125.021 66.3716 125.322 66.1242 125.662 66.1242H134.129C134.451 66.1242 134.694 66.3453 134.694 66.6277C134.694 66.644 134.694 66.6603 134.692 66.6771C134.662 66.9825 134.361 67.2303 134.021 67.2303Z" fill="#B8D2EF"/>
<path d="M124.885 74.0818C124.544 74.0818 124.292 73.8344 124.322 73.5289C124.351 73.223 124.652 72.9756 124.993 72.9756H132.088C132.429 72.9756 132.681 73.223 132.651 73.5289C132.621 73.8344 132.321 74.0818 131.98 74.0818H124.885Z" fill="#406FBF"/>
<path d="M131.98 74.0818H124.885C124.563 74.0818 124.32 73.8606 124.319 73.5786C124.319 73.5623 124.32 73.5456 124.322 73.5289C124.351 73.223 124.652 72.9756 124.993 72.9756H132.088C132.41 72.9756 132.653 73.1968 132.653 73.4792C132.653 73.4955 132.653 73.5122 132.651 73.5289C132.621 73.8344 132.321 74.0818 131.98 74.0818Z" fill="#7DA6DD"/>
<path d="M125.222 70.6304C124.881 70.6304 124.629 70.3826 124.659 70.0771C124.689 69.7716 124.989 69.5242 125.33 69.5242H131.876C132.217 69.5242 132.47 69.7716 132.439 70.0771C132.41 70.3826 132.109 70.6304 131.768 70.6304H125.222Z" fill="#406FBF"/>
<path d="M131.768 70.6304H125.222C124.9 70.6304 124.657 70.4088 124.656 70.1268C124.656 70.1105 124.657 70.0938 124.659 70.0771C124.689 69.7716 124.989 69.5242 125.33 69.5242H131.876C132.198 69.5242 132.442 69.7453 132.442 70.0278C132.442 70.0441 132.441 70.0604 132.439 70.0771C132.41 70.3826 132.109 70.6304 131.768 70.6304Z" fill="#5D87CD"/>
<path d="M117.009 71.0429C116.37 70.2624 115.732 69.4824 115.094 68.702C114.952 68.5286 114.659 68.4462 114.472 68.6304C113.796 69.2975 113.12 69.9653 112.443 70.6324C111.911 69.8492 111.379 69.0652 110.848 68.282C110.711 68.0807 110.415 68.054 110.226 68.21C109.526 68.7867 108.84 69.383 108.124 69.9434C107.91 69.8388 107.703 69.7191 107.494 69.6085C107.108 69.4041 106.722 69.1996 106.336 68.9952C106.142 68.8921 105.916 68.9649 105.794 69.1224C105.111 70.0095 104.428 70.8969 103.745 71.7839C103.235 70.8969 102.725 70.0095 102.216 69.1224C102.115 68.9478 101.854 68.908 101.674 68.9952C101.348 69.1523 101.023 69.3094 100.697 69.4665C100.497 69.5628 99.8257 69.8631 99.6366 69.9959C99.4834 69.8706 98.9017 69.6022 98.7859 69.5409C98.4444 69.3591 98.103 69.1769 97.7611 68.9952C97.3224 68.7613 96.9237 69.3742 97.3615 69.6077C97.9298 69.91 98.9426 70.7485 99.6113 70.7473C100.218 70.7461 101.079 70.1714 101.717 69.801C102.262 70.7513 102.808 71.7008 103.354 72.6502C103.499 72.904 103.879 72.8559 104.037 72.6502C104.775 71.692 105.513 70.7334 106.252 69.7744C106.826 70.0787 107.4 70.3834 107.975 70.6873C108.131 70.7704 108.325 70.7386 108.454 70.632C109.109 70.0926 109.764 69.5536 110.418 69.0143C110.958 69.8098 111.498 70.6049 112.038 71.4005C112.165 71.5878 112.485 71.6455 112.66 71.4725C113.347 70.7947 114.034 70.1169 114.721 69.4391C115.256 70.093 115.791 70.7469 116.326 71.4005C116.624 71.7652 117.311 71.412 117.009 71.0429Z" fill="#406FBF"/>
<path d="M116.366 73.9522C110.078 73.9522 103.791 73.9522 97.5032 73.9522C97.7416 71.5104 97.98 69.0677 98.2189 66.6254C98.2633 66.1707 97.4712 66.1731 97.4268 66.6254C97.1769 69.1858 96.9269 71.7466 96.6769 74.3071C96.6578 74.4988 96.8732 74.6619 97.0725 74.6619C103.504 74.6619 109.935 74.6619 116.366 74.6619C116.875 74.6619 116.876 73.9522 116.366 73.9522Z" fill="#406FBF"/>
<path d="M116.366 74.6619C112.107 74.6619 107.848 74.6619 103.589 74.6619L103.557 73.9522C107.827 73.9522 112.097 73.9522 116.366 73.9522C116.621 73.9522 116.748 74.1297 116.748 74.3071C116.748 74.4845 116.621 74.6619 116.366 74.6619Z" fill="#90B4E3"/>
<path d="M136.906 63.5382H103.239L103.99 55.8434H137.658L136.906 63.5382Z" fill="#406FBF"/>
<path d="M136.309 62.9519H117.97L117.885 62.718C117.838 62.5887 117.704 62.504 117.556 62.504C117.54 62.504 117.523 62.5048 117.506 62.5072L114.088 62.9519H106.97C106.469 62.078 105.794 60.6548 104.549 58.6067C104.502 58.5287 104.452 58.4472 104.399 58.3617L104.588 56.4297H136.946L136.309 62.9519Z" fill="#E6EFFA"/>
<path d="M103.951 62.9519H136.309L136.946 56.4297H104.588L103.951 62.9519ZM137.504 64.1245H102.527L103.393 55.2567H138.369L137.504 64.1245Z" fill="#17282F"/>
<path d="M69.6009 139.357H160.902V93.6247H69.6009V139.357Z" fill="#406FBF"/>
<path d="M62.861 139.357H71.3756V93.6247H62.861V139.357Z" fill="#406FBF"/>
<path d="M62.861 139.357H69.6009V97.6716H62.861V139.357Z" fill="#6D97D6"/>
<path d="M61.0734 97.6715H154.563V93.6245H61.0734V97.6715Z" fill="#406FBF"/>
<path d="M62.861 97.6715H69.6009V94.4978H62.861V97.6715Z" fill="#A4C3E9"/>
<path d="M59.2867 139.357H62.8609V93.6247H59.2867V139.357Z" fill="#406FBF"/>
<path d="M62.8609 139.357H59.2867V94.4977H62.8609V97.6715V139.357Z" fill="#90B4E3"/>
<path d="M157.056 139.357H165.571V93.6247H157.056V139.357Z" fill="#406FBF"/>
<path d="M165.571 139.357H160.902V94.4977H165.571V112.408V112.507V130.247V130.347V139.357Z" fill="#6D97D6"/>
<path d="M159.993 94.4977H167.716V90.9872H159.993V94.4977Z" fill="#406FBF"/>
<path d="M167.716 94.4977H160.902V93.6246H159.993V90.9874H167.716V94.4977Z" fill="#6D97D6"/>
<path d="M112.474 139.357H151.044V99.8549H112.474V139.357Z" fill="#406FBF"/>
<path d="M151.044 139.357H153.481V99.8549H151.044V139.357Z" fill="#406FBF"/>
<path d="M114.911 121.969H148.607V112.831H114.911V121.969Z" fill="#406FBF"/>
<path d="M114.911 111.145H148.607V102.007H114.911V111.145Z" fill="#406FBF"/>
<path d="M114.911 132.792H148.607V123.655H114.911V132.792Z" fill="#406FBF"/>
<path d="M153.481 139.357H157.056V93.6247H153.481V139.357Z" fill="#406FBF"/>
<path d="M160.902 139.357H157.056V94.4977H160.902V139.357Z" fill="#78A0DA"/>
<path d="M159.993 94.4977H160.902V93.6245H159.993V94.4977Z" fill="#78A0DA"/>
<path d="M153.481 139.357V99.8548H151.044V139.357V99.8548H112.474V139.357H108.63L108.591 139.018L108.514 138.365L109.167 138.274L109.039 136.746L108.557 136.815L105.453 97.6715H153.481V139.357ZM105.22 139.357H81.0055L81.1409 138.878L81.8069 138.957L82.1656 137.459L81.7984 137.417L90.9431 107.055L93.6208 99.6822L94.3765 97.6715H94.9364L97.4232 105.21L97.9711 106.872C98.3534 108.031 98.5523 109.241 98.5008 110.453C98.4662 111.272 98.5097 112.232 98.6154 113.295C99.3737 120.942 103.335 133.9 104.437 137.405L103.958 137.474L104.564 138.912L105.056 138.844L105.22 139.357ZM77.8389 139.357H71.3755V97.6715H83.998C83.8977 99.1384 83.7942 100.554 83.6997 101.808C83.6086 103.012 83.5256 104.068 83.4603 104.877C83.3778 105.904 83.1051 106.91 82.67 107.858C82.3668 108.519 81.9876 109.423 81.596 110.552C80.9735 112.347 80.3204 114.709 79.8955 117.557C79.0301 123.364 78.0569 133.722 77.7616 136.952L77.2621 136.895L77.1897 138.405L77.9325 138.493L77.8739 139.035L77.8389 139.357Z" fill="#4D79C6"/>
<path d="M69.6009 139.357H71.3755V97.6716H69.6009V139.357Z" fill="white"/>
<path d="M153.481 97.6715H105.453L105.202 94.4977H153.481V97.6715ZM94.9364 97.6715H94.3765L94.6745 96.8784L94.9364 97.6715ZM83.998 97.6715H71.3756H69.6009V94.4977H84.2041C84.1397 95.5554 84.0695 96.6262 83.998 97.6715Z" fill="#ACC8EB"/>
<path d="M151.044 139.357H112.474V99.8548H151.044V139.357ZM114.911 132.792H148.607V123.654H114.911V132.792ZM114.911 121.969H148.607V112.831H114.911V121.969ZM114.911 111.145H148.607V102.008H114.911V111.145Z" fill="#9BBDE7"/>
<path d="M151.044 139.357H153.481V99.8549H151.044V139.357Z" fill="#6993D4"/>
<path d="M148.607 121.969H114.911V112.831H148.607V121.969ZM130.687 118.393C130.903 118.393 131.641 118.393 131.856 118.393C132.469 118.393 132.965 117.949 132.965 117.4C132.965 116.851 132.469 116.407 131.856 116.407C131.641 116.407 130.902 116.407 130.686 116.407C130.474 116.407 130.275 116.46 130.106 116.554C129.789 116.728 129.578 117.042 129.578 117.4C129.578 117.758 129.789 118.071 130.106 118.246C130.275 118.339 130.474 118.393 130.686 118.393C130.686 118.393 130.686 118.393 130.687 118.393Z" fill="#BED6F1"/>
<path d="M148.607 111.145H114.911V102.008H148.607V111.145ZM130.687 107.57C130.903 107.57 131.641 107.57 131.856 107.57C132.469 107.57 132.965 107.125 132.965 106.576C132.965 106.028 132.469 105.583 131.856 105.583C131.641 105.583 130.902 105.583 130.686 105.583C130.474 105.583 130.275 105.637 130.106 105.73C129.789 105.905 129.578 106.218 129.578 106.576C129.578 106.934 129.789 107.248 130.106 107.423C130.275 107.516 130.474 107.57 130.686 107.57C130.686 107.57 130.686 107.57 130.687 107.57Z" fill="#BED6F1"/>
<path d="M148.607 132.792H114.911V123.655H148.607V132.792ZM130.687 129.217C130.903 129.217 131.641 129.217 131.856 129.217C132.469 129.217 132.965 128.772 132.965 128.223C132.965 127.675 132.469 127.23 131.856 127.23C131.641 127.23 130.902 127.23 130.686 127.23C130.474 127.23 130.275 127.284 130.106 127.377C129.789 127.552 129.578 127.865 129.578 128.223C129.578 128.673 129.911 129.053 130.368 129.175C130.369 129.175 130.369 129.175 130.37 129.176C130.37 129.176 130.371 129.176 130.371 129.176C130.471 129.202 130.577 129.217 130.686 129.217C130.686 129.217 130.686 129.217 130.687 129.217Z" fill="#BED6F1"/>
<path d="M153.481 139.357H157.056V94.4978H153.481V139.357Z" fill="#9ABDE7"/>
<path d="M56.3492 94.4977H159.993V90.9872H56.3492V94.4977Z" fill="#406FBF"/>
<path d="M159.993 94.4977H105.202L104.924 90.9874H159.993V93.6246V94.4977ZM84.204 94.4977H62.8609H59.2867H56.3492V90.9874H84.395C84.343 92.0999 84.2773 93.2901 84.204 94.4977Z" fill="#A4C3E9"/>
<path d="M131.856 105.583C131.641 105.583 130.902 105.583 130.686 105.583C130.074 105.583 129.578 106.028 129.578 106.576C129.578 107.125 130.074 107.57 130.686 107.57C130.902 107.57 131.641 107.57 131.856 107.57C132.469 107.57 132.965 107.125 132.965 106.576C132.965 106.028 132.469 105.583 131.856 105.583Z" fill="#406FBF"/>
<path d="M131.856 116.407C131.641 116.407 130.902 116.407 130.686 116.407C130.074 116.407 129.578 116.851 129.578 117.4C129.578 117.949 130.074 118.393 130.686 118.393C130.902 118.393 131.641 118.393 131.856 118.393C132.469 118.393 132.965 117.949 132.965 117.4C132.965 116.851 132.469 116.407 131.856 116.407Z" fill="#406FBF"/>
<path d="M131.856 127.23C131.641 127.23 130.902 127.23 130.686 127.23C130.074 127.23 129.578 127.675 129.578 128.223C129.578 128.772 130.074 129.217 130.686 129.217C130.902 129.217 131.641 129.217 131.856 129.217C132.469 129.217 132.965 128.772 132.965 128.223C132.965 127.675 132.469 127.23 131.856 127.23Z" fill="#406FBF"/>
<path d="M130.106 107.423C129.789 107.248 129.578 106.934 129.578 106.576C129.578 106.218 129.789 105.905 130.106 105.73C129.789 105.905 129.578 106.218 129.578 106.576C129.578 106.934 129.789 107.248 130.106 107.423Z" fill="#CFDFF4"/>
<path d="M130.687 107.57C130.474 107.57 130.275 107.516 130.106 107.423C129.789 107.248 129.578 106.934 129.578 106.576C129.578 106.218 129.789 105.905 130.106 105.73C130.275 105.637 130.474 105.583 130.687 105.583C131.299 105.583 131.795 106.028 131.795 106.576C131.795 107.125 131.299 107.57 130.687 107.57Z" fill="#6B95D5"/>
<path d="M130.106 118.246C129.789 118.071 129.578 117.758 129.578 117.4C129.578 117.042 129.789 116.728 130.106 116.553C129.789 116.728 129.578 117.042 129.578 117.4C129.578 117.758 129.789 118.071 130.106 118.246Z" fill="#CFDFF4"/>
<path d="M130.687 118.393C130.474 118.393 130.275 118.339 130.106 118.246C129.789 118.071 129.578 117.758 129.578 117.4C129.578 117.042 129.789 116.728 130.106 116.554C130.275 116.46 130.474 116.407 130.687 116.407C131.299 116.407 131.795 116.851 131.795 117.4C131.795 117.949 131.299 118.393 130.687 118.393Z" fill="#6B95D5"/>
<path d="M130.371 129.176C130.371 129.176 130.37 129.176 130.37 129.176C130.37 129.176 130.371 129.176 130.371 129.176ZM130.368 129.175C129.911 129.053 129.578 128.673 129.578 128.223C129.578 127.865 129.789 127.552 130.106 127.377C129.789 127.552 129.578 127.865 129.578 128.223C129.578 128.673 129.911 129.053 130.368 129.175Z" fill="#CFDFF4"/>
<path d="M130.687 129.217C130.577 129.217 130.471 129.202 130.371 129.176C130.371 129.176 130.37 129.176 130.37 129.176C130.369 129.175 130.369 129.175 130.368 129.175C129.911 129.053 129.578 128.673 129.578 128.223C129.578 127.865 129.789 127.552 130.106 127.377C130.275 127.284 130.474 127.23 130.687 127.23C131.299 127.23 131.795 127.675 131.795 128.223C131.795 128.772 131.299 129.217 130.687 129.217Z" fill="#6B95D5"/>
<path d="M92.9468 50.9779C92.3133 51.781 93.7119 54.3367 93.7119 54.3367L87.4106 55.0197L88.6436 48.8662C88.6436 48.8662 93.6959 50.0301 92.9468 50.9779Z" fill="#E96759"/>
<path d="M92.8474 52.1294C92.8474 52.129 92.8469 52.129 92.8469 52.129C92.7808 51.812 92.7581 51.5133 92.8127 51.2746H92.8132C92.7586 51.5133 92.7816 51.8124 92.8474 52.1294Z" fill="#B9BBB9"/>
<path d="M92.8469 52.1292C92.4455 51.9124 92.0801 51.6256 91.756 51.3141C91.8421 51.3173 91.9278 51.3185 92.0135 51.3185C92.2835 51.3185 92.5508 51.3042 92.8127 51.2747C92.7581 51.5134 92.7808 51.8121 92.8469 52.1292Z" fill="#B25348"/>
<path d="M108.128 135.055L108.799 140.799L105.842 141.296L104.065 135.752L108.128 135.055Z" fill="#E96759"/>
<path d="M108.734 139.817L105.258 140.44C105.126 140.464 105.031 140.565 105.028 140.685L104.966 143.331C104.959 143.566 105.165 143.762 105.427 143.769L105.528 143.761C106.776 143.517 107.877 143.255 109.437 142.978C111.279 142.647 110.856 142.929 113.026 142.568C114.334 142.349 114.276 140.978 113.708 141.012C111.113 141.181 110.698 140.544 109.54 139.907C109.292 139.789 109.005 139.757 108.734 139.817Z" fill="#17282F"/>
<path d="M105.238 139.414L105.22 139.357L105.238 139.414Z" fill="#BABCBA"/>
<path d="M105.22 139.357L105.056 138.844L105.22 139.357ZM108.591 139.018L108.514 138.365L108.591 139.018Z" fill="#3D6ABC"/>
<path d="M105.239 139.414L105.22 139.357L105.056 138.844L108.514 138.365L108.591 139.018L105.239 139.414Z" fill="#B25348"/>
<path d="M82.5501 133.891L80.5375 141.011L77.6985 140.653L78.4525 133.687L82.5501 133.891Z" fill="#E96759"/>
<path d="M80.9131 140.116L77.3766 139.893C77.243 139.885 77.1209 139.961 77.0831 140.075L76.2409 142.612C76.1645 142.837 76.3057 143.075 76.5561 143.143L76.6551 143.16C77.9316 143.221 79.07 143.23 80.6569 143.332C82.5301 143.45 82.0391 143.621 84.2391 143.788C85.5644 143.888 85.9134 142.552 85.3562 142.45C82.8041 141.997 82.5914 141.283 81.663 140.395C81.4596 140.223 81.1928 140.124 80.9131 140.116Z" fill="#17282F"/>
<path d="M80.9762 139.461L81.0048 139.357L80.9762 139.461Z" fill="#BABCBA"/>
<path d="M81.0055 139.357L81.1409 138.878L81.0055 139.357ZM77.874 139.035L77.9326 138.493L77.874 139.035Z" fill="#3D6ABC"/>
<path d="M80.9762 139.461L77.874 139.035L77.9326 138.494L81.1409 138.878L81.0055 139.357L80.9757 139.461" fill="#B25348"/>
<path d="M85.6209 79.3865C85.6209 79.3865 84.6418 81.9314 84.4998 88.1271C84.4149 91.8295 84.0109 97.6902 83.6997 101.808C83.6086 103.012 83.5256 104.068 83.4603 104.877C83.3778 105.904 83.1051 106.91 82.67 107.858C82.3668 108.519 81.9876 109.423 81.596 110.552C80.9735 112.347 80.3204 114.709 79.8955 117.557C78.8609 124.498 77.6724 137.942 77.6724 137.942L81.5059 138.388L90.9431 107.055L101.001 79.3618L85.6209 79.3865Z" fill="#17282F"/>
<path d="M93.6208 99.6821L94.3512 97.6714H94.3765L93.6208 99.6821Z" fill="#3D6ABC"/>
<path d="M94.3765 97.6715H94.3512L94.6576 96.8274L94.6744 96.8784L94.3765 97.6715Z" fill="#869FCD"/>
<path d="M92.7501 102C93.1515 97.2574 92.3004 93.2149 91.606 90.8502C92.8438 92.3478 93.7474 94.067 94.345 95.8788L94.6576 96.8275L94.3512 97.6715L93.6208 99.6822L92.7501 102Z" fill="#111D23"/>
<path d="M104.014 79.5118L108.628 137.707L104.723 138.302C104.723 138.302 99.4985 122.198 98.6154 113.295C98.5097 112.232 98.4662 111.272 98.5009 110.453C98.5524 109.241 98.3535 108.031 97.9712 106.872L97.4233 105.21L94.345 95.8787C93.6985 93.9197 92.6951 92.0689 91.2978 90.4898C89.6972 88.6807 87.717 85.1748 88.5388 79.3427L102.992 78.4462L104.014 79.5118Z" fill="#17282F"/>
<path d="M89.568 75.838C89.568 75.838 91.812 75.4263 92.5641 75.4896C93.1932 75.5429 94.9666 76.196 94.9666 76.196C95.716 76.4164 95.9252 77.2768 95.3462 77.7565C95.3462 77.7565 94.1137 79.1721 93.4978 79.2887C92.2684 79.5214 88.7426 77.8316 88.7426 77.8316L89.568 75.838Z" fill="#E96759"/>
<path d="M89.4579 74.8751L88.2115 78.4761L89.4072 78.5652L90.5039 75.4188L89.4579 74.8751Z" fill="#17282F"/>
<path d="M82.0791 57.7237C81.5072 57.0216 80.2835 57.1676 79.8728 57.9548C78.4742 60.6353 74.9431 67.7434 74.9293 71.1937C74.912 75.4963 89.0268 78.0428 89.0268 78.0428L89.8797 75.5703L80.1672 70.2247L82.9609 64.3278C82.9609 64.3278 83.6557 59.6588 82.0791 57.7237Z" fill="#406FBF"/>
<path d="M84.7235 77.054C80.5766 75.939 74.9271 73.9211 74.9294 71.2C74.9294 71.1976 74.9294 71.1956 74.9294 71.1936C74.9431 67.7434 78.4742 60.6353 79.8728 57.9547C79.9106 57.8827 79.955 57.8159 80.0052 57.7547C79.8857 58.2372 79.88 58.7439 80.0083 59.2447L81.0139 68.4379L80.1672 70.2247L81.2759 70.8349L81.862 76.194C82.7047 76.4772 83.547 76.7294 84.3457 76.9501L84.5149 76.2656C84.5904 76.5504 84.6596 76.8125 84.7235 77.054Z" fill="#A3C3FB"/>
<path d="M81.0139 68.438L81.9299 66.5036H81.9303L81.0139 68.438Z" fill="#838687"/>
<path d="M81.0139 68.438L80.0082 59.2448C80.01 59.2527 80.0122 59.2603 80.0145 59.2682C80.7466 62.0347 81.3811 64.4305 81.9299 66.5036L81.0139 68.438Z" fill="#A3C3FB"/>
<path d="M83.384 71.9956L81.2759 70.8349L83.384 71.9952V71.9956Z" fill="#838687"/>
<path d="M84.3457 76.9502C83.5469 76.7294 82.7047 76.4772 81.862 76.194L81.2759 70.8349L83.384 71.9956C83.8622 73.8011 84.2307 75.1933 84.5149 76.2656L84.3457 76.9502Z" fill="#A3C3FB"/>
<path d="M103.8 79.4816C103.8 79.4816 96.8514 81.5186 85.469 79.8694C85.469 79.8694 85.469 79.8694 80.0145 59.2683C79.6065 57.7281 80.4714 56.1235 82.0183 55.3586C84.3613 54.1999 88.9944 53.1076 98.1364 53.5599C100.391 53.6717 102.298 55.1032 102.815 57.0726L103.8 79.4816Z" fill="#A3C3FB"/>
<path d="M85.5485 54.4293L86.2433 52.9683C86.2433 52.9683 88.9797 51.7301 93.6284 52.3132L94.7322 53.4584C94.7322 53.4584 89.5307 53.5717 85.5485 54.4293Z" fill="#17282F"/>
<path d="M96.2391 43.7326C96.3017 43.9645 96.2156 44.1813 96.042 44.2167C95.8684 44.2521 95.6624 44.0846 95.6086 43.8575C95.5549 43.6304 95.6322 43.4084 95.8066 43.3754C95.9816 43.3424 96.1738 43.5011 96.2391 43.7326Z" fill="#17282F"/>
<path d="M96.0047 44.4342L97.7798 45.9887C97.7798 45.9887 97.2106 46.5607 96.1769 46.4425L96.0047 44.4342Z" fill="#D8413B"/>
<path d="M85.881 44.7703C86.5604 47.8876 86.7717 49.2221 88.8194 50.6426C91.8284 51.9918 96.1303 51.3971 96.5273 48.1692C96.886 45.2647 95.7174 40.6653 92.0162 39.7688C89.3775 39.1308 86.6629 40.4808 85.9525 42.7839C85.7527 43.431 85.7283 44.1112 85.881 44.7703Z" fill="#E96759"/>
<path d="M94.9315 43.0006C94.9795 43.0006 95.0239 42.9803 95.0509 42.9461C95.2379 42.6788 95.5611 42.5106 95.9185 42.4935C95.9962 42.495 96.0593 42.4413 96.0606 42.3725C96.0597 42.3033 95.9967 42.2468 95.9185 42.2441C95.4643 42.2564 95.0514 42.4656 94.813 42.8029C94.7699 42.8602 94.7877 42.9386 94.8529 42.9779L94.8534 42.9783L94.9315 43.0006Z" fill="#17282F"/>
<path d="M103.57 69.3317C103.493 69.2382 103.417 69.1459 103.342 69.0536L103.219 66.2486C103.275 66.2991 103.332 66.3496 103.39 66.3997L103.57 69.3317Z" fill="#838687"/>
<path d="M103.342 69.0537C97.5369 61.9329 97.1937 57.9035 97.1777 57.6577C97.374 58.5701 97.909 59.3876 98.2389 59.9719C99.7014 62.561 101.283 64.5211 103.219 66.2487L103.342 69.0537Z" fill="#A3C3FB"/>
<path d="M104.549 58.6067C106.217 61.3513 106.863 62.9738 107.435 63.6552C107.511 63.7458 107.635 63.7916 107.76 63.7753L117.506 62.5072C117.673 62.4853 117.834 62.5744 117.885 62.718L118.67 64.8803C118.729 65.0418 118.632 65.2156 118.452 65.2701L109.315 68.0445C107.661 68.6205 105.782 68.3309 104.45 67.28C101.933 65.2952 99.9998 63.0887 98.2389 59.9718C97.5369 58.7292 95.9079 56.4321 98.5835 54.411C100.803 52.7344 103.443 56.7853 104.549 58.6067Z" fill="#406FBF"/>
<path d="M107.582 68.3361C106.448 68.3361 105.33 67.9741 104.45 67.28C104.023 66.9439 103.614 66.601 103.219 66.2486C101.283 64.5211 99.7014 62.5609 98.2389 59.9718C97.909 59.3875 97.374 58.5701 97.1777 57.6576C97.1302 57.4368 97.1027 57.2109 97.1027 56.981C97.1022 56.1405 97.4703 55.2519 98.5834 54.411C98.9502 54.1338 99.3289 54.0132 99.7099 54.0132C101.634 54.0132 103.626 57.0864 104.549 58.6067C106.217 61.3513 106.863 62.9738 107.435 63.6551C107.5 63.7339 107.602 63.7784 107.71 63.7784C107.727 63.7784 107.744 63.7772 107.76 63.7753L117.506 62.5072C117.523 62.5048 117.54 62.504 117.556 62.504C117.704 62.504 117.838 62.5887 117.885 62.718L118.67 64.8803C118.682 64.9121 118.687 64.9439 118.687 64.9753C118.688 65.105 118.597 65.2263 118.452 65.2701L109.315 68.0445C108.753 68.2402 108.165 68.3361 107.582 68.3361Z" fill="#A3C3FB"/>
<path d="M117.787 62.7137L119.797 60.5992C120.015 60.3697 120.304 60.2022 120.628 60.1179L125.354 58.8868C125.514 58.845 125.685 58.9111 125.76 59.0443C125.851 59.2058 125.77 59.4027 125.582 59.4715L123.629 60.1879C123.489 60.2392 123.402 60.3653 123.415 60.5001L123.511 61.5586C123.57 62.2077 123.169 62.8199 122.507 63.0896L121.086 63.6691C121.031 63.6886 120.977 63.7081 120.921 63.7272L118.483 64.4619C118.289 64.52 118.081 64.4158 118.035 64.2372L117.713 62.9842C117.689 62.8887 117.716 62.7885 117.787 62.7137Z" fill="#E96759"/>
<path d="M117.203 62.4949L118.407 65.2176C118.481 65.3854 118.699 65.4614 118.881 65.3823L119.281 65.2076C119.443 65.1364 119.517 64.9658 119.451 64.815L118.302 62.2045C118.243 62.0697 118.088 61.9897 117.928 62.0116L117.472 62.074C117.252 62.1043 117.121 62.3095 117.203 62.4949Z" fill="#17282F"/>
<path d="M103.958 137.474L104.564 138.912L109.167 138.274L109.039 136.746L103.958 137.474Z" fill="#406FBF"/>
<path d="M104.564 138.912L103.958 137.474L109.039 136.746L109.167 138.274L108.514 138.365L105.056 138.844L104.564 138.912Z" fill="#3563B7"/>
<path d="M77.2621 136.895L77.1897 138.405L81.8069 138.957L82.1656 137.459L77.2621 136.895Z" fill="#406FBF"/>
<path d="M81.8069 138.957L81.1409 138.878L77.9325 138.494L77.1897 138.405L77.2621 136.895L82.1656 137.459L81.8069 138.957Z" fill="#3563B7"/>
<path d="M88.2622 50.7368C88.2622 50.7368 88.7786 50.0805 90.3326 50.8398C90.3326 50.8398 92.5384 48.6275 92.6067 46.5555C92.6067 46.5555 94.2367 46.2854 94.0999 45.3419C93.9636 44.3988 93.1879 43.1649 93.3518 42.3097C93.5161 41.4549 95.1003 39.2099 93.7536 38.2131C92.4074 37.2167 92.2489 38.404 91.4865 38.5321C90.7246 38.6602 86.1204 38.8078 85.5316 41.7274C85.5316 41.7274 83.2108 43.8968 85.2244 46.6864C87.2379 49.4755 88.2622 50.7368 88.2622 50.7368Z" fill="#17282F"/>
<path d="M92.6778 44.6093L96.7062 42.6041C96.7062 42.6041 97.7194 44.9653 97.2337 45.0846C96.7479 45.2035 96.1095 43.3491 96.1095 43.3491L93.2408 44.5751L92.6778 44.6093Z" fill="#406FBF"/>
<path d="M97.0902 45.0739C97.0529 45.0739 97.0072 45.0373 96.9561 44.9748C97.0054 45.0202 97.0543 45.0536 97.1022 45.0727C97.0982 45.0735 97.0942 45.0739 97.0902 45.0739Z" fill="#FCFDFC"/>
<path d="M97.1023 45.0726C97.0543 45.0535 97.0055 45.0201 96.9562 44.9748C96.6654 44.6168 96.2103 43.412 96.2103 43.412L96.5157 43.2493C96.5157 43.2493 97.3478 44.9183 97.1191 45.0655C97.1138 45.0691 97.108 45.0714 97.1023 45.0726Z" fill="#B8D2EF"/>
<path d="M93.2257 44.6817C93.8388 45.0484 94.2615 45.6129 94.4001 46.2497C94.5763 47.0957 93.6879 47.4414 92.823 47.1419C92.0389 46.871 91.0119 46.1041 91.2281 45.2839C91.4448 44.4629 92.4704 44.2406 93.2257 44.6817Z" fill="#E96759"/>
</svg>
