<svg width="644" height="596" viewBox="0 0 644 596" fill="none" xmlns="http://www.w3.org/2000/svg">
<g filter="url(#filter0_d_67_539)">
<path d="M601.105 587.708C601.105 587.708 679.03 448.626 614.283 298.052C556.837 164.45 489.857 173.584 440.717 227.801C419.787 250.891 359.444 230.646 308.085 94.7013C238.045 -90.6871 -18.5878 4.27879 26.628 308.215C47.2145 446.598 -25.669 450.028 18.4667 588L601.105 587.708Z" fill="#EBF3FA"/>
<path d="M264.491 470.172C264.491 470.172 255.614 452.424 263.945 441.149C263.945 441.149 270.03 434.835 274.99 435.349C274.99 435.349 267.96 455.55 270.235 457.562C272.51 459.571 277.12 434.08 277.12 434.08C277.12 434.08 290.968 431.779 295.421 435.449C295.421 435.449 283.585 452.05 286.077 453.038C288.57 454.026 301.357 437.731 301.357 437.731C301.357 437.731 314.244 441.493 313.556 454.965C312.87 468.437 308.428 472.599 306.476 472.24C304.525 471.881 293.11 464.413 292.859 467.154C292.611 469.895 299.483 478.85 304.296 479.268C304.296 479.268 295.21 496.443 289.173 491.486C283.133 486.53 282.618 478.673 278.853 475.728C275.089 472.78 271.877 472.787 273.431 475.795C274.985 478.798 281.797 481.717 283.949 488.246C286.101 494.771 288.033 499.173 281.787 497.56C275.538 495.948 265.383 488.117 264.938 479.143C264.491 470.172 264.491 470.172 264.491 470.172" fill="#FFD05A"/>
<path d="M307.223 455.327C307.223 455.327 272.223 453.015 264.492 470.172C264.492 470.172 262.782 478.946 257.522 486.936L256.702 490.769C256.702 490.769 262.767 479.808 264.938 479.142C264.938 479.142 261.543 457.887 307.223 455.327" fill="#FFD05A"/>
<path d="M257.522 486.937C257.522 486.937 250.008 496.458 249.486 513.474L250.85 513.681C250.85 513.681 253.25 496.092 257.587 489.212C261.925 482.331 257.522 486.937 257.522 486.937" fill="#FFD05A"/>
<path d="M233.454 447.852C233.454 447.852 247.576 434.298 240.984 415.903C240.984 415.903 235.713 404.609 230.065 401.705C230.065 401.705 233.076 429.134 230.065 429.778C227.052 430.425 227.993 398.802 227.993 398.802C227.993 398.802 213.117 386.539 207.281 387.504C207.281 387.504 216.508 414.29 213.495 413.642C210.482 412.999 200.126 385.892 200.126 385.892C200.126 385.892 184.874 381.053 182.427 396.541C179.979 412.03 183.933 419.776 186.193 420.745C188.451 421.71 202.951 421.388 202.574 424.618C202.198 427.843 192.405 433.007 186.947 430.103C186.947 430.103 192.971 455.594 200.879 454.303C208.788 453.012 211.235 444.622 216.13 443.979C221.026 443.331 224.604 445.592 222.157 447.852C219.709 450.108 211.423 448.592 207.469 454.351C203.515 460.114 200.314 463.662 207.659 466.244C215.002 468.826 228.181 467.213 230.818 457.532C233.454 447.852 233.454 447.852 233.454 447.852Z" fill="#FFD05A"/>
<path d="M189.394 401.384C189.394 401.384 228.934 423.327 233.454 447.852C233.454 447.852 233.266 458.823 237.218 471.408V476.246C237.218 476.246 233.076 459.789 230.818 457.532C230.818 457.532 239.668 436.233 189.394 401.384" fill="#FFD05A"/>
<path d="M237.218 471.407C237.218 471.407 243.317 487.277 239.84 506.593L238.271 505.872C238.271 505.872 239.795 484.595 236.605 473.893C233.415 463.192 237.218 471.407 237.218 471.407" fill="#FFD05A"/>
<path d="M255.92 429.16C255.92 429.16 237.304 411.294 245.992 387.046C245.992 387.046 252.942 372.157 260.388 368.329C260.388 368.329 256.417 404.487 260.388 405.338C264.357 406.189 263.118 364.504 263.118 364.504C263.118 364.504 282.725 348.339 290.42 349.615C290.42 349.615 278.257 384.919 282.229 384.068C286.2 383.217 299.85 347.488 299.85 347.488C299.85 347.488 319.955 341.107 323.182 361.526C326.409 381.941 321.196 392.151 318.218 393.427C315.239 394.703 296.129 394.278 296.625 398.532C297.122 402.786 310.027 409.592 317.225 405.764C317.225 405.764 309.282 439.366 298.859 437.665C288.434 435.963 285.207 424.906 278.754 424.056C272.3 423.205 267.584 426.183 270.811 429.16C274.038 432.134 284.959 430.133 290.172 437.728C295.384 445.322 299.604 450.001 289.924 453.404C280.243 456.808 262.87 454.681 259.395 441.919C255.92 429.16 255.92 429.16 255.92 429.16" fill="#FFD05A"/>
<path d="M313.998 367.907C313.998 367.907 261.878 396.83 255.92 429.16C255.92 429.16 256.169 443.62 250.956 460.21V466.591C250.956 466.591 256.417 444.896 259.395 441.918C259.395 441.918 247.729 413.846 313.998 367.907" fill="#FFD05A"/>
<path d="M250.956 460.21C250.956 460.21 242.918 481.129 247.5 506.593L249.568 505.643C249.568 505.643 247.561 477.596 251.765 463.488C255.972 449.383 250.956 460.21 250.956 460.21" fill="#FFD05A"/>
<path d="M255.292 561.818C275.43 561.818 291.756 533.837 291.756 499.325H218.828C218.828 533.837 235.154 561.818 255.292 561.818" fill="#004AEF"/>
<path d="M244.524 561.337C246.006 561.655 247.52 561.818 249.054 561.818C269.192 561.818 285.516 533.837 285.516 499.321H276.457C276.457 531.207 262.525 557.515 244.524 561.337" fill="#004AEF"/>
<path d="M292.259 564.995H218.325C218.325 560.738 220.339 557.286 222.824 557.286H287.761C290.245 557.286 292.259 560.738 292.259 564.995Z" fill="#004AEF"/>
<path d="M292.585 501.241H217.63V499.321H292.585V501.241Z" fill="#004AEF"/>
<path d="M187.409 282.01L187.389 2.71211L417.426 2.66406L417.446 281.962L187.409 282.01" fill="#8EB2DD"/>
<path d="M190.411 7.89091L414.405 7.84286L414.424 276.783L190.43 276.831L190.411 7.89091" fill="#D7E6FA"/>
<path d="M326.67 225.002L248.1 225.017C246.546 225.017 245.284 222.857 245.284 220.19C245.284 217.523 246.544 215.363 248.1 215.363L326.668 215.348C328.224 215.348 329.485 217.508 329.485 220.171C329.485 222.838 328.224 224.999 326.67 225.002" fill="#8EB2DD"/>
<path d="M326.672 253.378L248.103 253.393C246.549 253.393 245.286 251.233 245.286 248.566C245.286 245.899 246.546 243.738 248.103 243.738L326.67 243.724C328.226 243.724 329.487 245.884 329.487 248.551C329.487 251.214 328.227 253.378 326.672 253.378" fill="#8EB2DD"/>
<path d="M388.78 198.613L206.927 198.654V196.157L388.78 196.12V198.613Z" fill="#8EB2DD"/>
<path d="M386.745 202.46V192.273L394.897 197.366L386.745 202.46Z" fill="#8EB2DD"/>
<path d="M215.396 48.4405L215.409 214.142H216.931L216.92 48.4405H215.396Z" fill="#8EB2DD"/>
<path d="M213.05 53.1678H219.266L216.158 40.4872L213.05 53.1678Z" fill="#8EB2DD"/>
<path d="M234.626 230.115H234.157C231.336 230.115 229.049 226.197 229.046 221.359C229.046 216.524 231.334 212.603 234.155 212.603H234.626C237.447 212.603 239.735 216.521 239.735 221.359C239.735 226.194 237.449 230.115 234.626 230.115Z" fill="#2A4E96"/>
<path d="M234.628 255.261H234.159C231.336 255.261 229.048 251.344 229.048 246.505C229.048 241.671 231.336 237.75 234.157 237.75H234.628C237.449 237.75 239.737 241.667 239.737 246.502C239.737 251.34 237.451 255.261 234.628 255.261" fill="#004AEF"/>
<path d="M379.1 56.005L368.656 57.4958L370.028 62.1381L337.247 88.5905L306.623 176.807L270.481 123.706L241.325 147.939L241.241 148.006L222.655 177.676L223.504 179.108L241.958 149.644L270.289 126.103L306.934 179.94L338.119 90.1071L370.559 63.9322L371.915 68.5117L379.1 56.005" fill="#699FF0"/>
<path d="M241.539 155.966H241.191C239.104 155.966 237.412 153.066 237.41 149.489C237.41 145.912 239.102 143.012 241.189 143.012H241.537C243.624 143.012 245.316 145.912 245.316 149.489C245.316 153.066 243.626 155.966 241.539 155.966Z" fill="#2A4E96"/>
<path d="M337.684 97.1541H337.337C335.25 97.1541 333.558 94.254 333.558 90.677C333.555 87.0999 335.248 84.1998 337.335 84.1998H337.682C339.769 84.1998 341.462 87.0999 341.462 90.677C341.464 94.254 339.772 97.1541 337.684 97.1541Z" fill="#2A4E96"/>
<path d="M270.384 133.035H270.036C267.949 133.035 266.257 130.135 266.257 126.558C266.257 122.981 267.949 120.081 270.036 120.081H270.384C272.471 120.081 274.163 122.978 274.163 126.555C274.163 130.135 272.471 133.035 270.384 133.035Z" fill="#2A4E96"/>
<path d="M306.779 183.021H306.431C304.344 183.021 302.652 180.121 302.652 176.544C302.652 172.967 304.344 170.067 306.431 170.067H306.779C308.866 170.063 310.558 172.964 310.558 176.541C310.558 180.118 308.866 183.021 306.779 183.021Z" fill="#004AEF"/>
<path d="M104.044 131.008C104.044 131.008 112.189 147.569 122.561 140.641C122.561 140.641 124.793 131.393 124.824 124.576C124.828 123.736 124.834 122.922 124.842 122.149C124.897 114.473 125.048 110.164 125.048 110.164C125.048 110.164 125.045 110.164 125.038 110.16C124.566 109.824 109.182 99 109.194 99.8989C109.458 120.662 104.044 131.008 104.044 131.008" fill="#FFB27D"/>
<path d="M110.739 104.848C112.222 109.561 117.313 118.783 124.842 122.149C124.897 114.473 125.048 110.164 125.048 110.164C125.048 110.164 125.045 110.164 125.038 110.16C124.612 109.964 110.297 103.461 110.739 104.848" fill="#ED975D"/>
<path d="M128.27 109.368C128.27 109.368 110.969 116.338 108.602 97.8051C106.235 79.2762 102.408 67.6943 113.354 62.4601C124.3 57.2258 127.357 63.4884 129.024 69.3441C130.692 75.1998 132.71 107.075 128.27 109.368" fill="#FFB27D"/>
<path d="M109.194 102.854C108.958 103.113 105.235 105.074 98.185 81.0036C97.0784 77.2268 96.3243 69.0518 98.9042 61.8311C101.484 54.6068 110.631 48.9286 118.231 46.4576C125.831 43.9866 127.655 51.3146 129.445 58.6795C131.324 66.4143 136.749 72.7805 136.749 72.7805C130.196 79.0542 122.303 70.0801 119.568 71.5561C116.833 73.032 115.868 80.4155 115.662 82.7829C115.457 85.154 115.142 87.1183 111.703 85.0061C108.264 82.8902 110.148 93.3549 110.699 95.3599C110.699 95.3599 111.166 100.69 109.194 102.854Z" fill="#A9453D"/>
<path d="M64.626 564.995H54.15C51.9538 564.995 49.5138 561.226 48.9027 554.327C48.2919 547.424 43.7776 543.659 42.8003 538.014C41.8232 532.365 46.8289 524.412 46.8289 524.412L47.6657 522.57L48.5362 520.65L56.8346 523.994C56.8346 523.994 57.0394 527.383 57.1676 531.696C57.2561 534.811 57.3049 538.41 57.2013 541.565C56.9568 549.1 58.432 557.209 62.3353 558.673C66.2417 560.138 64.626 564.995 64.626 564.995" fill="#2C3A64"/>
<path d="M137.555 564.995H109.786C109.52 564.906 109.318 564.807 109.196 564.703C107.342 563.112 107.923 550.946 108.146 547.188C108.188 546.492 108.219 546.085 108.219 546.085C108.219 546.085 117.983 532.698 119.327 542.949C119.37 543.267 119.419 543.581 119.471 543.892V543.896C121.166 553.487 128.743 557.841 133.12 559.054C136.464 559.987 137.332 563.327 137.555 564.995" fill="#2C3A64"/>
<path d="M131.958 290.554C131.958 290.554 130.475 322.263 128.732 360.379C126.363 412.155 123.514 475.758 123.232 487.806C122.745 508.728 120.79 542.194 120.79 542.194C120.79 542.194 116.154 550.143 106.876 546.792C106.876 546.792 98.6081 499.018 96.2464 448.473C96.2097 447.645 96.1733 446.809 96.1366 445.973C93.9397 394.518 90.5234 286.16 90.5234 286.16L131.958 290.554" fill="#2B478B"/>
<path d="M131.958 290.555C131.958 290.555 130.475 322.263 128.732 360.379L96.2464 448.473C96.2097 447.645 96.1733 446.809 96.1366 445.973C93.9397 394.518 90.5234 286.16 90.5234 286.16L131.958 290.555" fill="#233862"/>
<path d="M125.186 294.32C125.186 294.32 98.456 409.155 80.8807 463.125C63.3048 517.092 57.8126 532.154 57.8126 532.154C57.8126 532.154 47.7433 525.252 46.8279 520.543C46.8279 520.543 53.5489 416.357 65.3186 390.959C71.9697 376.607 79.7822 333.538 80.1483 318.479C80.5146 303.42 82.5284 273.609 82.5284 273.609L125.186 294.32Z" fill="#2B478B"/>
<path d="M64.2282 273.453L63.9454 280.841C63.9454 280.841 66.7876 293.961 58.8242 300.69C58.8242 300.69 55.4157 303.046 55.2773 298.5C55.1392 293.95 55.5752 295.663 55.2985 289.256C55.0211 282.853 56.4903 276.801 58.9619 274.763L60.9901 270.753L64.2282 273.453" fill="#FFB27D"/>
<path d="M61.1178 278.832C64.0765 280.46 64.5507 280.09 64.5507 280.09C64.5507 280.09 78.9507 235.16 80.4091 231.047C81.8675 226.934 110.983 180.661 110.983 180.661L103.5 132.843C103.5 132.843 70.3855 206.337 66.8095 216.883C60.9 234.31 57.4377 274.782 57.4377 274.782C57.4377 274.782 58.7941 277.552 61.1178 278.832Z" fill="#004AEF"/>
<path d="M83.3875 293.299C90.7054 300.708 97.6118 306.205 105.631 309.105C115.136 312.653 126.745 311.136 130.638 311.976C131.054 312.057 131.437 311.865 131.776 311.477C132.061 311.17 133.591 291.076 135.05 265.648C135.089 265.064 135.128 264.446 135.156 263.832C135.176 263.421 135.19 263.011 135.195 262.611L135.221 262.253C135.38 259.611 135.534 256.918 135.676 254.196C136.034 247.412 136.345 240.446 136.633 233.499C136.661 232.837 136.689 232.171 136.714 231.506C137.164 220.297 137.497 209.255 137.6 199.434C137.603 199.201 137.606 198.964 137.606 198.731C137.684 190.508 137.603 183.158 137.298 177.321C137.237 176.089 137.164 174.935 137.077 173.848C135.942 159.107 131.779 148.734 127.87 140.948L124.047 133.512C120.379 134.064 117.202 134.289 113.62 130.35C109.739 126.085 107.232 122.071 106.446 122.822C100.44 128.848 93.9347 143.659 90.6745 163.767C88.9212 174.595 87.6154 186.78 86.7989 199.608C86.4885 204.535 86.2481 209.544 86.0829 214.619C85.233 241.848 82.7443 265.112 81.3015 278.636C80.8877 282.527 80.5605 285.62 80.3815 287.762C80.2028 289.707 82.4173 292.315 83.3875 293.299" fill="#004AEF"/>
<path d="M110.983 166.028C110.983 166.028 114.252 227.958 135.156 263.832C135.176 263.421 135.19 263.011 135.195 262.611L135.221 262.253C135.38 259.611 135.534 256.918 135.676 254.196C136.034 247.412 136.345 240.446 136.633 233.499C136.661 232.837 136.689 232.171 136.714 231.506C137.164 220.297 137.497 209.255 137.6 199.434C137.603 199.201 137.606 198.964 137.606 198.731C137.564 192.861 137.463 187.508 137.298 182.807C130.604 173.648 121.916 167.252 110.983 166.028" fill="#004AEF"/>
<path d="M180.675 289.8L219.569 93.8767C219.748 92.9852 219.985 92.1344 219.469 91.8088L218.997 91.5166C218.466 91.1837 218.31 91.7719 218.118 92.6781L176.658 285.786C176.267 287.632 176.775 289.682 177.821 290.481L178.782 291.213C179.532 291.783 180.407 291.132 180.675 289.8" fill="#2A4E96"/>
<path d="M191.121 205.608C191.14 202.741 195.554 196.113 195.848 196.912C196.057 197.485 195.602 200.496 195.356 201.765C197.188 199.664 197.607 192.229 200.702 188.914C201.561 187.993 204.615 202.36 201.719 207.572C198.822 212.784 197.432 212.207 192.608 217.031L189.114 217.431L187.389 208.124C187.389 208.124 189.252 206.955 191.121 205.608" fill="#FFB27D"/>
<path d="M192.927 213.136C193.156 207.487 188.809 204.217 188.809 204.217C188.809 204.217 155.693 210.136 152.844 208.601C149.996 207.062 128.712 154.72 128.712 154.72C128.712 154.72 119.375 136.672 111.73 140.659C105.087 144.122 102.49 153.003 101.606 161.463C100.552 171.547 103.264 181.69 108.358 187.046C119.794 199.068 139.797 232.201 145.189 234.909C157.19 240.938 191.466 221.23 191.466 221.23C191.466 221.23 192.748 217.575 192.927 213.136Z" fill="#004AEF"/>
<path d="M562.274 388.011C562.874 362.657 564.171 340.603 565.723 325.222C568.197 300.705 570.424 286.6 570.45 286.452C570.776 284.295 575.483 275.573 585.952 275.839C596.418 276.109 595.425 287.551 595.425 287.551C595.427 287.935 595.397 288.298 595.351 288.568C595.25 289.156 585.641 348.863 586.057 425.953C586.064 427.037 586.135 428.908 586.09 430.155C586.09 430.159 561.834 431.228 561.827 430.155C560.981 423.415 561.393 404.746 562.274 388.011" fill="#B7D3F3"/>
<path d="M559.222 425.576C559.231 426.649 559.561 427.511 559.965 427.511H559.975C560.377 427.492 560.698 426.634 560.705 425.576H581.492C581.499 426.649 581.829 427.511 582.233 427.511H582.243C582.654 427.492 582.979 426.604 582.975 425.517C582.854 403.452 583.588 382.844 584.7 364.659C587.462 319.301 592.571 288.99 592.645 288.568C592.69 288.298 592.718 287.94 592.718 287.551C592.718 287.551 593.711 276.11 583.245 275.84C572.777 275.57 568.069 284.296 567.743 286.452C567.724 286.567 566.463 294.554 564.786 308.913C564.23 313.671 563.632 319.123 563.017 325.223C561.465 340.604 560.167 362.658 559.565 388.008C558.687 404.746 558.378 418.84 559.222 425.576" fill="#D2E3FC"/>
<path d="M584.512 427.511H503.011C503.011 427.511 504.911 414.349 552.108 416.31C585.512 417.697 584.512 427.511 584.512 427.511Z" fill="#C5DCF8"/>
<path d="M591.145 564.995C581.695 483.012 584.126 432.704 584.136 432.071C584.16 430.806 582.802 429.663 582.073 429.623C581.333 429.6 578.071 429.249 577.696 430.329C577.199 431.742 575.298 493.728 589.381 564.995H591.145" fill="#B7D3F3"/>
<path d="M515.051 564.995C524.5 483.012 522.07 432.704 522.057 432.071C522.033 430.806 523.391 429.663 524.123 429.623C524.861 429.6 528.122 429.249 528.5 430.329C528.994 431.742 530.898 493.728 516.814 564.995H515.051" fill="#B7D3F3"/>
<path d="M499.97 564.995C509.419 483.012 506.989 432.704 506.978 432.071C506.955 430.806 508.312 429.663 509.042 429.623C509.78 429.6 513.043 429.249 513.419 430.329C513.913 431.742 515.817 493.728 501.733 564.995H499.97" fill="#B7D3F3"/>
<path d="M575.963 564.995C566.513 483.012 568.944 432.704 568.954 432.071C568.978 430.806 567.62 429.663 566.891 429.623C566.153 429.6 562.891 429.249 562.514 430.329C562.019 431.742 560.116 493.728 574.199 564.995H575.963" fill="#B7D3F3"/>
<path d="M502.964 431.713H584.462C585.382 431.713 586.133 430.425 586.133 428.85V426.97C586.133 425.395 585.382 424.107 584.462 424.107H502.964C502.046 424.107 501.295 425.395 501.295 426.97V428.85C501.295 430.425 502.046 431.713 502.964 431.713Z" fill="#B7D3F3"/>
<path d="M505.828 305.573L478.735 295.515L477.14 302.181C477.14 302.181 507.032 332.665 509.834 331.171C512.633 329.68 505.828 305.573 505.828 305.573" fill="#FFB27D"/>
<path d="M530.457 515.553C531.135 516.884 531.221 518.375 530.885 519.966C530.885 519.973 530.883 519.981 530.878 519.988C530.259 522.929 528.206 526.214 525.823 529.491C525.519 529.913 525.249 530.297 525.012 530.653C524.949 530.745 524.889 530.838 524.83 530.93C524.783 531.004 524.735 531.078 524.69 531.148C522.467 534.659 523.304 535.465 519.311 542.59C514.759 550.705 511.625 550.853 510.734 550.114C509.979 549.481 511.511 545.175 513.21 540.337C513.292 540.104 513.372 539.867 513.458 539.63C513.682 538.99 513.907 538.336 514.131 537.688C516.123 531.866 515.612 529.132 515.139 520.465C514.757 513.422 508.746 481.118 508.746 481.118L517.47 478.54C517.47 478.54 520.097 504.267 522.991 508.229C524.539 510.337 526.272 510.367 527.759 511.931C527.865 512.039 527.969 512.15 528.07 512.264C528.914 513.226 529.775 514.217 530.457 515.553" fill="#FFB27D"/>
<path d="M530.457 515.553C531.135 516.884 531.221 518.375 530.884 519.966C530.884 519.973 530.882 519.981 530.878 519.988C530.118 522.925 528.119 526.191 525.814 529.461C525.514 529.891 525.249 530.283 525.011 530.653C524.949 530.745 524.888 530.838 524.83 530.93C524.783 531.004 524.735 531.078 524.69 531.148C522.467 534.659 523.304 535.465 519.311 542.59C514.759 550.705 511.625 550.853 510.734 550.114C509.978 549.481 511.511 545.175 513.209 540.337C514.096 539.782 518.212 536.915 521.325 530.09C524.066 524.094 525.894 516.393 527.759 511.931C527.865 512.039 527.968 512.15 528.07 512.264C528.914 513.226 529.775 514.217 530.457 515.553" fill="#1C468A"/>
<path d="M460.111 506.216C459.574 510.829 455.734 510.059 451.445 508.265C447.156 506.468 448.177 508.602 442.073 507.444C435.969 506.286 434.12 502.388 433.934 500.83C433.768 499.45 436.783 498.966 440.019 498.326C440.424 498.248 440.834 498.163 441.242 498.074C444.894 497.29 447.569 493.251 450.886 489.933C454.029 486.792 458.719 473.989 458.719 473.989L467.089 475.129C467.089 475.129 462.697 486.563 460.998 491.531C459.999 494.457 460.051 498.322 460.176 501.307C460.241 502.931 460.303 504.588 460.111 506.216" fill="#FFB27D"/>
<path d="M451.445 508.265C447.156 506.468 448.177 508.602 442.073 507.444C435.969 506.286 434.12 502.388 433.934 500.83C433.768 499.45 436.783 498.966 440.019 498.326L440.049 498.433C440.049 498.433 443.709 502.879 448.79 503.09C452.93 503.26 457.316 501.23 460.176 501.307C460.241 502.931 460.303 504.588 460.111 506.216C459.574 510.829 455.734 510.059 451.445 508.265" fill="#1C468A"/>
<path d="M478.736 295.515C478.736 295.515 476.741 287.14 474.548 286.8C472.353 286.46 465.375 284.577 464.877 286.286C464.378 287.995 464.877 294.15 466.37 296.369C467.866 298.593 477.141 302.181 477.141 302.181L478.736 295.515" fill="#FFB27D"/>
<path d="M492.189 414.486L510.229 497.69C510.229 497.69 513 498.152 515.657 496.839C518.103 495.629 520.904 492.459 520.904 492.459C520.904 492.459 516.428 412.57 508.224 395.953C500.02 379.333 492.189 414.486 492.189 414.486" fill="#163560"/>
<path d="M563.541 380.827C563.541 380.827 511.705 350.787 500.145 357.179C488.584 363.571 453.873 481.924 453.873 481.924C453.873 481.924 454.657 483.711 456.796 485.083C458.783 486.363 463.599 486.282 463.599 486.282C463.599 486.282 494.924 440.265 498.653 426.844C502.383 413.42 503.874 400.64 507.602 401.916C511.332 403.196 555.71 433.233 565.779 415.34C575.848 397.444 573.215 374.191 573.215 374.191L563.541 380.827Z" fill="#1C468A"/>
<path d="M531.864 241.083C531.035 238.153 530.109 232.952 529.658 223.674C529.727 224.596 530.66 236.292 533.284 242.914C544.066 255.047 564.728 295.548 564.318 303.224C564.318 303.224 571.596 282.065 571.723 281.939C571.723 281.939 585.148 252.679 569.237 235.922C561.149 227.403 561.19 216.472 561.527 206.973C561.868 197.477 559.321 156.595 543.122 167.293C543.122 167.293 540.521 165.314 539.358 165.61C539.358 165.61 540.308 165.924 540.793 166.778C538.913 166.586 536.228 166.827 533.988 169.009C528.05 174.791 522.734 226.682 531.864 241.083" fill="#2C3A64"/>
<path d="M533.924 243.52C533.87 243.561 539.128 248.24 543.084 246.387C546.805 244.649 549.235 236.377 549.186 236.359C547.608 235.823 547.155 232.112 547.187 216.165L546.475 216.406L534.498 220.471C534.498 220.471 534.77 226.93 534.778 233.015C534.787 238.127 534.606 242.973 533.924 243.52" fill="#FFB27D"/>
<path d="M534.498 220.471C534.498 220.471 534.77 226.93 534.778 233.015C541.48 232.693 545.024 222.213 546.475 216.406L534.498 220.471Z" fill="#ED975D"/>
<path d="M547.714 214.172C547.714 214.172 551.225 204.657 552.067 196.527C552.669 190.719 550.945 169.194 538.325 172.294C538.325 172.294 534.66 172.915 531.213 176.903C528.474 180.073 524.52 186.92 528.94 205.704L530.088 212.048L547.714 214.172Z" fill="#2C3A64"/>
<path d="M532.259 226.234C532.259 226.234 548.117 226.682 548.128 209.751C548.139 192.824 550.193 181.479 540.068 180.476C529.943 179.474 527.973 185.929 527.168 191.581C526.361 197.23 528.135 225.68 532.259 226.234Z" fill="#FFB27D"/>
<path d="M532.847 180.062C532.847 180.062 537.187 199.922 543.852 202.86C550.515 205.797 553.405 202.737 553.405 202.737C553.405 202.737 550.966 192.52 549.907 180.373C549.907 180.373 536.121 170.607 532.847 180.062Z" fill="#2C3A64"/>
<path d="M533.921 181.675C533.921 181.675 530.679 186.11 529.889 190.419C529.097 194.729 528.743 203.607 527.233 203.303C527.233 203.303 523.963 189.802 527.638 182.167C531.536 174.069 533.921 181.675 533.921 181.675Z" fill="#2C3A64"/>
<path d="M569.237 316.637C570.8 305.395 565.479 283.585 559.926 265.526C554.886 249.161 549.654 235.882 549.186 236.359C535.892 249.879 534.692 238.641 534.692 238.641C534.685 238.641 522.618 241.39 519.199 251.473C514.96 263.987 510.378 298.951 505.828 305.573C506.525 309.235 506.225 311.188 505.485 315.731C505.327 316.703 505.152 317.628 504.958 318.505C504.272 321.701 503.415 324.294 502.674 326.547C504.988 328.955 509.454 333.534 512.745 330.242C517.761 325.208 521.677 309.89 523.881 303.79C523.889 303.764 523.896 303.742 523.904 303.72C528.694 350.173 522.182 360.752 525.478 365.654C528.959 370.825 533.932 363.19 544.871 371.317C552.045 376.651 562.004 384.364 568.706 385.707C572.222 386.413 574.845 385.363 575.701 381.294C578.186 369.471 566.252 338.066 569.237 316.637" fill="#FFD05A"/>
<path d="M535.784 215.969C535.784 215.969 535.489 218.122 532.368 217.789C532.368 217.789 529.745 217.512 529.827 215.148C529.827 215.148 532.368 213.465 535.784 215.969" fill="white"/>
<path d="M575.702 381.294C574.845 385.363 572.222 386.413 568.706 385.707C564.068 382.241 544.025 368.935 544.25 359.916C544.582 346.566 548.102 346.141 545.618 329.665C543.622 316.433 562.138 291.834 565.093 286.485C570.647 304.544 570.8 305.395 569.237 316.637C566.252 338.066 578.186 369.471 575.702 381.294" fill="#FFD05A"/>
<path d="M577.966 333.146C574.411 324.594 570.709 320.07 568.272 317.795C568.833 315.32 553.323 282.731 553.323 277.678C553.323 272.566 549.186 236.359 549.186 236.359C549.186 236.359 562.108 237.724 566.584 248.422C572.179 261.798 583.802 313.271 577.966 333.146Z" fill="#FFD05A"/>
<path d="M568.272 317.795L542.447 329.344L544.871 336.801C544.871 336.801 576.301 336.424 577.966 333.146C579.632 329.869 568.272 317.795 568.272 317.795" fill="#FFB27D"/>
<path d="M523.881 303.79C521.677 309.89 517.761 325.208 512.745 330.242C509.454 333.534 504.988 328.955 502.674 326.547C503.415 324.294 504.272 321.701 504.958 318.505C506.805 319.23 509.057 320.155 510.509 320.906C513.337 322.371 523.881 303.79 523.881 303.79Z" fill="#FFD05A"/>
<path d="M542.447 329.343C542.447 329.343 534.336 325.411 532.404 326.332C530.472 327.25 523.855 334.763 524.785 336.801C525.715 338.843 531.545 335.58 534.23 336.198C536.913 336.816 538.987 339.083 540.919 338.591C542.851 338.103 544.871 336.801 544.871 336.801L542.447 329.343" fill="#FFB27D"/>
<path d="M542.447 329.344C542.447 329.344 538.478 325.852 537.349 323.861C537.209 323.61 536.967 323.665 536.857 323.958C536.555 324.775 536.272 326.355 537.664 327.923C539.667 330.183 542.447 329.344 542.447 329.344Z" fill="#FFB27D"/>
<path d="M504.967 348.901H542.805C542.805 346.045 541.454 343.729 539.788 343.729H504.967V348.901Z" fill="#004AEF"/>
<path d="M505.075 278.273H446.573L460.605 348.901H519.486L505.075 278.273Z" fill="#004AEF"/>
<path d="M445.71 278.273L459.746 348.897H518.625L511.419 313.585L504.213 278.273H445.71Z" fill="#004AEF"/>
<path d="M477.253 312.934C477.615 315.631 479.187 317.821 480.762 317.821C482.336 317.821 483.318 315.631 482.953 312.934C482.591 310.234 481.019 308.048 479.446 308.048C477.87 308.048 476.888 310.234 477.253 312.934Z" fill="#004AEF"/>
<path d="M445.71 278.273L459.746 348.897H498.737C472.908 333.79 466.033 287.717 464.878 278.273H445.71Z" fill="#004AEF"/>
<path d="M615.548 564.995C614.807 564.995 614.175 564.104 614.05 562.89L606.703 491.512L596.133 388.862L593.178 360.157L600.704 359.787L602.012 376.452L611.181 493.554L616.618 562.964C616.702 564.041 616.199 564.995 615.548 564.995" fill="#95C0F4"/>
<path d="M602.012 376.451C597.134 380.139 596.133 388.862 596.133 388.862L593.178 360.157L600.704 359.787L602.012 376.451" fill="#78ACEA"/>
<path d="M428.316 564.995C429.054 564.995 429.688 564.104 429.814 562.89L437.161 491.512L447.73 388.862L450.685 360.157L443.157 359.787L441.851 376.452L432.682 493.554L427.245 562.964C427.161 564.041 427.664 564.995 428.316 564.995" fill="#95C0F4"/>
<path d="M441.851 376.451C446.729 380.139 447.73 388.862 447.73 388.862L450.685 360.157L443.156 359.787L441.851 376.451" fill="#78ACEA"/>
<path d="M620.57 371.424H427.802C425.277 371.424 423.211 367.884 423.211 363.556V356.754C423.211 352.426 425.277 348.886 427.802 348.886H620.57C623.096 348.886 625.161 352.426 625.161 356.754V363.556C625.161 367.884 623.096 371.424 620.57 371.424" fill="#78ACEA"/>
</g>
<defs>
<filter id="filter0_d_67_539" x="0" y="0" width="644" height="596" filterUnits="userSpaceOnUse" color-interpolation-filters="sRGB">
<feFlood flood-opacity="0" result="BackgroundImageFix"/>
<feColorMatrix in="SourceAlpha" type="matrix" values="0 0 0 0 0 0 0 0 0 0 0 0 0 0 0 0 0 0 127 0" result="hardAlpha"/>
<feOffset dy="4"/>
<feGaussianBlur stdDeviation="2"/>
<feComposite in2="hardAlpha" operator="out"/>
<feColorMatrix type="matrix" values="0 0 0 0 0 0 0 0 0 0 0 0 0 0 0 0 0 0 0.25 0"/>
<feBlend mode="normal" in2="BackgroundImageFix" result="effect1_dropShadow_67_539"/>
<feBlend mode="normal" in="SourceGraphic" in2="effect1_dropShadow_67_539" result="shape"/>
</filter>
</defs>
</svg>
