<svg width="691" height="471" viewBox="0 0 691 471" fill="none" xmlns="http://www.w3.org/2000/svg">
<path d="M329.469 390.887H62.6184C60.5266 390.883 58.5216 390.05 57.0425 388.571C55.5634 387.092 54.7308 385.087 54.7271 382.995V7.87925C54.749 5.79949 55.5895 3.81213 57.0667 2.34792C58.5438 0.883715 60.5385 0.0606506 62.6184 0.0571289H329.469C331.559 0.06079 333.563 0.893802 335.04 2.3733C336.517 3.85279 337.346 5.85786 337.346 7.94835V382.995C337.346 385.086 336.517 387.091 335.04 388.57C333.563 390.05 331.559 390.883 329.469 390.887ZM62.6184 0.33353C60.6182 0.337183 58.7011 1.13335 57.2868 2.54765C55.8725 3.96196 55.0763 5.87912 55.0726 7.87925V382.995C55.0763 384.996 55.8725 386.913 57.2868 388.327C58.7011 389.741 60.6182 390.538 62.6184 390.541H329.469C331.468 390.538 333.383 389.741 334.795 388.326C336.208 386.911 337.001 384.994 337.001 382.995V7.87925C337.001 5.88039 336.208 3.9632 334.795 2.5485C333.383 1.1338 331.468 0.337191 329.469 0.33353H62.6184Z" fill="#E6E6E6"/>
<path d="M628.396 390.887H361.532C359.441 390.883 357.437 390.05 355.961 388.57C354.484 387.091 353.654 385.086 353.654 382.995V7.87925C353.672 5.80076 354.51 3.81338 355.985 2.34879C357.46 0.884203 359.453 0.0606895 361.532 0.0571289H628.396C630.474 0.0606895 632.468 0.884203 633.942 2.34879C635.417 3.81338 636.255 5.80076 636.273 7.87925V382.995C636.273 385.086 635.444 387.091 633.967 388.57C632.49 390.05 630.486 390.883 628.396 390.887ZM361.532 0.33353C359.533 0.337191 357.617 1.1338 356.205 2.5485C354.793 3.9632 354 5.88039 354 7.87925V382.995C354 384.994 354.793 386.911 356.205 388.326C357.617 389.741 359.533 390.538 361.532 390.541H628.396C630.397 390.538 632.316 389.742 633.732 388.328C635.149 386.914 635.948 384.997 635.955 382.995V7.87925C635.948 5.87785 635.149 3.96072 633.732 2.5468C632.316 1.13289 630.397 0.337169 628.396 0.33353H361.532Z" fill="#E6E6E6"/>
<path d="M131.291 460.927H74.3385V461.272H131.291V460.927Z" fill="#E0E0E0"/>
<path d="M247.379 458.162H190.261V458.508H247.379V458.162Z" fill="#E0E0E0"/>
<path d="M321.701 458.162H307.881V458.508H321.701V458.162Z" fill="#E0E0E0"/>
<path d="M183.572 469.965H119.655V470.31H183.572V469.965Z" fill="#E0E0E0"/>
<path d="M404.649 460.747H374.798V461.093H404.649V460.747Z" fill="#E0E0E0"/>
<path d="M455.547 460.747H416.948V461.093H455.547V460.747Z" fill="#E0E0E0"/>
<path d="M641.704 466.593H555.412V466.938H641.704V466.593Z" fill="#E0E0E0"/>
<path d="M691 447.369H0V447.714H691V447.369Z" fill="#E0E0E0"/>
<path d="M234.691 318.29H261.543V302.867C261.543 301.103 261.196 299.356 260.521 297.727C259.846 296.097 258.856 294.616 257.609 293.369C256.362 292.121 254.881 291.132 253.251 290.457C251.621 289.782 249.874 289.434 248.11 289.434C244.55 289.438 241.137 290.855 238.621 293.373C236.105 295.892 234.691 299.307 234.691 302.867V318.29Z" fill="#F0F0F0"/>
<path d="M248.277 314.918C254.535 314.918 259.609 309.845 259.609 303.586C259.609 297.327 254.535 292.253 248.277 292.253C242.018 292.253 236.944 297.327 236.944 303.586C236.944 309.845 242.018 314.918 248.277 314.918Z" fill="white"/>
<path d="M248.442 312.679C253.465 312.679 257.536 308.608 257.536 303.586C257.536 298.563 253.465 294.492 248.442 294.492C243.42 294.492 239.349 298.563 239.349 303.586C239.349 308.608 243.42 312.679 248.442 312.679Z" fill="#EBEBEB"/>
<path d="M247.378 303.779C247.361 303.917 247.374 304.056 247.416 304.189C247.457 304.321 247.526 304.443 247.618 304.547C247.71 304.65 247.823 304.733 247.95 304.79C248.076 304.847 248.213 304.877 248.352 304.877C248.491 304.877 248.628 304.847 248.754 304.79C248.881 304.733 248.994 304.65 249.086 304.547C249.178 304.443 249.247 304.321 249.288 304.189C249.33 304.056 249.343 303.917 249.326 303.779C249.343 303.641 249.33 303.502 249.288 303.369C249.247 303.237 249.178 303.115 249.086 303.011C248.994 302.908 248.881 302.825 248.754 302.768C248.628 302.711 248.491 302.682 248.352 302.682C248.213 302.682 248.076 302.711 247.95 302.768C247.823 302.825 247.71 302.908 247.618 303.011C247.526 303.115 247.457 303.237 247.416 303.369C247.374 303.502 247.361 303.641 247.378 303.779Z" fill="#FAFAFA"/>
<path d="M248.47 304.138L252.629 300.227L252.215 299.799L248.456 303.351L241.698 297.38L241.311 297.823L248.47 304.138Z" fill="#FAFAFA"/>
<path d="M136.445 201.781C148.81 189.416 148.81 169.369 136.445 157.004C124.08 144.64 104.033 144.64 91.6688 157.004C79.3042 169.369 79.3042 189.416 91.6688 201.781C104.033 214.145 124.08 214.145 136.445 201.781Z" fill="#F0F0F0"/>
<path d="M114.154 211.752C109.847 211.841 105.565 211.069 101.559 209.482C97.5534 207.895 93.9048 205.525 90.8269 202.51C87.749 199.495 85.3037 195.896 83.6344 191.924C81.965 187.952 81.1052 183.687 81.1052 179.378C81.1052 175.07 81.965 170.805 83.6344 166.833C85.3037 162.861 87.749 159.262 90.8269 156.247C93.9048 153.232 97.5534 150.861 101.559 149.274C105.565 147.688 109.847 146.916 114.154 147.005V148.387C106.059 148.558 98.3532 151.894 92.6886 157.68C87.024 163.465 83.8516 171.24 83.8516 179.337C83.8516 187.434 87.024 195.209 92.6886 200.994C98.3532 206.78 106.059 210.116 114.154 210.287V211.752Z" fill="white"/>
<path d="M114.154 211.752V210.37C122.249 210.199 129.955 206.863 135.62 201.077C141.284 195.291 144.457 187.517 144.457 179.42C144.457 171.323 141.284 163.548 135.62 157.762C129.955 151.977 122.249 148.641 114.154 148.47V147.088C122.624 147.263 130.688 150.751 136.617 156.803C142.545 162.855 145.865 170.989 145.865 179.461C145.865 187.933 142.545 196.068 136.617 202.12C130.688 208.172 122.624 211.66 114.154 211.835V211.752Z" fill="white"/>
<path d="M130.695 179.385H129.313C129.313 168.896 123.993 154.855 113.807 148.318L114.581 147.116C125.14 153.929 130.695 168.509 130.695 179.385Z" fill="white"/>
<path d="M114.54 210.674L113.766 209.472C123.951 202.948 129.272 188.907 129.272 178.418H130.654C130.695 189.294 125.14 203.874 114.54 210.674Z" fill="white"/>
<path d="M99.0343 179.372H97.6523C97.6523 168.495 103.18 153.915 113.808 147.116L114.582 148.318C104.355 154.841 99.0343 168.882 99.0343 179.372Z" fill="white"/>
<path d="M113.766 210.674C103.166 203.861 97.6105 189.294 97.6105 178.404H98.9925C98.9925 188.907 104.313 202.935 114.499 209.472L113.766 210.674Z" fill="white"/>
<path d="M114.858 147.71H113.435V211.033H114.858V147.71Z" fill="white"/>
<path d="M140.95 161.792H87.3562V163.216H140.95V161.792Z" fill="white"/>
<path d="M145.8 179.206H82.5039V180.629H145.8V179.206Z" fill="white"/>
<path d="M140.246 196.591H88.0613V198.015H140.246V196.591Z" fill="white"/>
<path d="M601.086 78.7622V71.0645L380.726 71.0645V78.7622L601.086 78.7622Z" fill="#F5F5F5"/>
<path d="M439.476 78.7622H402.605V96.0372H421.027C421.03 93.9394 421.866 91.9287 423.351 90.4467C424.836 88.9646 426.848 88.1322 428.946 88.1322H439.476V78.7622Z" fill="#E0E0E0"/>
<path d="M422.809 78.7622H395.929V96.0372H404.373C404.373 94.9991 404.578 93.9712 404.975 93.0121C405.372 92.053 405.955 91.1815 406.689 90.4475C407.423 89.7134 408.294 89.1312 409.253 88.7339C410.212 88.3366 411.24 88.1322 412.278 88.1322H422.809V78.7622Z" fill="#F5F5F5"/>
<path d="M542.367 78.7622H579.239V96.0372H560.803C560.803 94.9979 560.598 93.9689 560.2 93.0089C559.802 92.0489 559.218 91.1768 558.483 90.4426C557.747 89.7084 556.874 89.1264 555.914 88.7299C554.953 88.3335 553.923 88.1303 552.884 88.1322H542.367V78.7622Z" fill="#EBEBEB"/>
<path d="M559.033 78.7622H585.969V96.0372H577.525C577.525 93.9406 576.692 91.93 575.209 90.4475C573.727 88.965 571.716 88.1322 569.62 88.1322H559.102L559.033 78.7622Z" fill="#F5F5F5"/>
<path d="M518.915 55.8899L531.09 34.9111H529.225L516.22 55.8899H518.915Z" fill="#E0E0E0"/>
<path d="M466.19 55.8069L454.167 34.8281H456.033L468.899 55.8069H466.19Z" fill="#E0E0E0"/>
<path d="M466.674 55.8071L467.296 57.2168H469.092L468.526 55.8071H466.674Z" fill="#E0E0E0"/>
<path d="M518.457 55.8071L517.849 57.2168H516.039L516.619 55.8071H518.457Z" fill="#E0E0E0"/>
<path d="M471.027 65.4395H463.551V70.0968H471.027V65.4395Z" fill="#E0E0E0"/>
<path d="M521.774 65.4395H514.297V70.0968H521.774V65.4395Z" fill="#E0E0E0"/>
<path d="M524.386 67.4986L508.134 69.2676C497.826 70.3732 487.43 70.3732 477.122 69.2676L460.87 67.4986V57.4239L474.026 55.7102C486.348 54.107 498.825 54.107 511.147 55.7102L524.345 57.4239L524.386 67.4986Z" fill="#EBEBEB"/>
<path d="M470.308 62.7447C470.308 63.3406 470.132 63.923 469.801 64.4185C469.469 64.9139 468.999 65.3001 468.448 65.5281C467.898 65.7561 467.292 65.8158 466.708 65.6996C466.123 65.5833 465.587 65.2964 465.165 64.875C464.744 64.4537 464.457 63.9169 464.341 63.3324C464.224 62.748 464.284 62.1423 464.512 61.5918C464.74 61.0412 465.126 60.5707 465.622 60.2397C466.117 59.9086 466.7 59.7319 467.296 59.7319C468.095 59.7319 468.861 60.0493 469.426 60.6143C469.991 61.1793 470.308 61.9456 470.308 62.7447Z" fill="white"/>
<path d="M467.295 64.5688C468.288 64.5688 469.092 63.7644 469.092 62.7722C469.092 61.78 468.288 60.9756 467.295 60.9756C466.303 60.9756 465.499 61.78 465.499 62.7722C465.499 63.7644 466.303 64.5688 467.295 64.5688Z" fill="#E0E0E0"/>
<path d="M484.335 62.7724C484.335 63.0253 484.235 63.2679 484.056 63.4467C483.877 63.6255 483.634 63.726 483.381 63.726C483.129 63.726 482.886 63.6255 482.707 63.4467C482.528 63.2679 482.428 63.0253 482.428 62.7724C482.428 62.5195 482.528 62.277 482.707 62.0981C482.886 61.9193 483.129 61.8188 483.381 61.8188C483.634 61.8188 483.877 61.9193 484.056 62.0981C484.235 62.277 484.335 62.5195 484.335 62.7724Z" fill="white"/>
<path d="M487.736 62.7724C487.736 62.961 487.68 63.1454 487.575 63.3022C487.47 63.459 487.322 63.5812 487.147 63.6534C486.973 63.7256 486.781 63.7445 486.596 63.7077C486.411 63.6709 486.241 63.5801 486.108 63.4467C485.975 63.3133 485.884 63.1434 485.847 62.9585C485.81 62.7735 485.829 62.5818 485.901 62.4075C485.974 62.2333 486.096 62.0843 486.253 61.9796C486.409 61.8748 486.594 61.8188 486.782 61.8188C487.035 61.8188 487.278 61.9193 487.457 62.0981C487.636 62.277 487.736 62.5195 487.736 62.7724Z" fill="white"/>
<path d="M491.122 62.7724C491.122 62.961 491.066 63.1454 490.961 63.3022C490.856 63.459 490.707 63.5812 490.533 63.6534C490.359 63.7256 490.167 63.7445 489.982 63.7077C489.797 63.6709 489.627 63.5801 489.494 63.4467C489.361 63.3133 489.27 63.1434 489.233 62.9585C489.196 62.7735 489.215 62.5818 489.287 62.4075C489.359 62.2333 489.482 62.0843 489.638 61.9796C489.795 61.8748 489.98 61.8188 490.168 61.8188C490.421 61.8188 490.664 61.9193 490.842 62.0981C491.021 62.277 491.122 62.5195 491.122 62.7724Z" fill="white"/>
<path d="M494.519 62.7724C494.519 62.961 494.464 63.1454 494.359 63.3022C494.254 63.459 494.105 63.5812 493.931 63.6534C493.757 63.7256 493.565 63.7445 493.38 63.7077C493.195 63.6709 493.025 63.5801 492.892 63.4467C492.758 63.3133 492.667 63.1434 492.631 62.9585C492.594 62.7735 492.613 62.5818 492.685 62.4075C492.757 62.2333 492.879 62.0843 493.036 61.9796C493.193 61.8748 493.377 61.8188 493.566 61.8188C493.819 61.8188 494.061 61.9193 494.24 62.0981C494.419 62.277 494.519 62.5195 494.519 62.7724Z" fill="white"/>
<path d="M497.907 62.7724C497.907 62.961 497.851 63.1454 497.746 63.3022C497.641 63.459 497.493 63.5812 497.318 63.6534C497.144 63.7256 496.952 63.7445 496.767 63.7077C496.582 63.6709 496.412 63.5801 496.279 63.4467C496.146 63.3133 496.055 63.1434 496.018 62.9585C495.981 62.7735 496 62.5818 496.072 62.4075C496.145 62.2333 496.267 62.0843 496.424 61.9796C496.58 61.8748 496.765 61.8188 496.953 61.8188C497.206 61.8188 497.449 61.9193 497.628 62.0981C497.806 62.277 497.907 62.5195 497.907 62.7724Z" fill="white"/>
<path d="M501.307 62.7724C501.307 62.961 501.251 63.1454 501.146 63.3022C501.041 63.459 500.892 63.5812 500.718 63.6534C500.544 63.7256 500.352 63.7445 500.167 63.7077C499.982 63.6709 499.812 63.5801 499.679 63.4467C499.546 63.3133 499.455 63.1434 499.418 62.9585C499.381 62.7735 499.4 62.5818 499.472 62.4075C499.544 62.2333 499.667 62.0843 499.823 61.9796C499.98 61.8748 500.165 61.8188 500.353 61.8188C500.606 61.8188 500.849 61.9193 501.027 62.0981C501.206 62.277 501.307 62.5195 501.307 62.7724Z" fill="white"/>
<path d="M504.693 62.7725C504.693 62.9617 504.637 63.1466 504.531 63.3037C504.426 63.4608 504.276 63.583 504.101 63.6548C503.926 63.7265 503.734 63.7446 503.548 63.7067C503.363 63.6687 503.193 63.5765 503.06 63.4418C502.927 63.307 502.838 63.1358 502.803 62.95C502.767 62.7641 502.788 62.5719 502.862 62.3979C502.937 62.2239 503.061 62.076 503.22 61.9729C503.378 61.8698 503.564 61.8162 503.753 61.8189C503.878 61.8189 504.001 61.8437 504.116 61.8918C504.231 61.9399 504.335 62.0103 504.423 62.0991C504.51 62.1878 504.579 62.293 504.626 62.4087C504.672 62.5243 504.695 62.648 504.693 62.7725Z" fill="white"/>
<path d="M184.442 100.984V109.276C189.663 109.69 194.62 111.74 198.608 115.136L204.509 109.235C198.934 104.313 191.867 101.407 184.442 100.984Z" fill="#F5F5F5"/>
<path d="M180.419 159.112C174.511 158.638 168.965 156.076 164.774 151.885C160.583 147.694 158.021 142.148 157.547 136.24H149.255C149.744 144.36 153.19 152.02 158.942 157.772C164.695 163.524 172.354 166.97 180.475 167.459L180.419 159.112Z" fill="#F0F0F0"/>
<path d="M157.547 132.204C158.032 126.298 160.6 120.756 164.791 116.567C168.983 112.377 174.527 109.813 180.433 109.332V101.04C172.33 101.54 164.689 104.983 158.948 110.723C153.206 116.462 149.759 124.101 149.255 132.204H157.547Z" fill="#E0E0E0"/>
<path d="M207.301 112.151L201.4 118.052C204.38 121.552 206.336 125.807 207.051 130.348C207.766 134.889 207.214 139.539 205.454 143.786C203.694 148.033 200.796 151.711 197.079 154.415C193.362 157.12 188.97 158.745 184.388 159.112V167.404C190.614 167.023 196.608 164.901 201.686 161.28C206.765 157.659 210.724 152.683 213.112 146.921C215.501 141.159 216.222 134.842 215.195 128.689C214.168 122.537 211.432 116.797 207.301 112.124V112.151Z" fill="#E0E0E0"/>
<path d="M102.987 446.844L355.492 446.844C370.505 446.844 382.676 434.673 382.676 419.66V321.662C382.676 306.649 370.505 294.478 355.492 294.478H102.987C87.9733 294.478 75.8027 306.649 75.8027 321.662V419.66C75.8027 434.673 87.9733 446.844 102.987 446.844Z" fill="#E0E0E0"/>
<path d="M119.156 447.977L371.661 447.977C386.675 447.977 398.845 435.806 398.845 420.793V322.795C398.845 307.782 386.675 295.612 371.661 295.612H119.156C104.143 295.612 91.9721 307.782 91.9721 322.795V420.793C91.9721 435.806 104.143 447.977 119.156 447.977Z" fill="#F5F5F5"/>
<path d="M382.966 366.798L106.041 366.798V328.945C106.041 326.452 106.532 323.983 107.486 321.679C108.441 319.375 109.839 317.282 111.603 315.518C113.366 313.755 115.459 312.356 117.763 311.402C120.067 310.448 122.536 309.957 125.03 309.957H363.977C369.013 309.957 373.843 311.957 377.404 315.518C380.965 319.079 382.966 323.909 382.966 328.945V366.798Z" fill="#E0E0E0"/>
<path d="M363.977 431.352L125.016 431.352C119.979 431.352 115.15 429.351 111.589 425.79C108.027 422.229 106.027 417.399 106.027 412.363V374.51L382.966 374.51V412.363C382.966 417.399 380.965 422.229 377.404 425.79C373.843 429.351 369.013 431.352 363.977 431.352Z" fill="#E0E0E0"/>
<path d="M218.84 320.985H179.591V367.199H218.84V320.985Z" fill="#E6E6E6"/>
<path d="M228.886 320.985H218.839V367.199H228.886V320.985Z" fill="#F5F5F5"/>
<path d="M198.773 313.854H169.295V367.199H198.773V313.854Z" fill="#E6E6E6"/>
<path d="M207.301 313.854H198.774V367.199H207.301V313.854Z" fill="#F5F5F5"/>
<path d="M190.094 320.985H165.232V367.199H190.094V320.985Z" fill="#EBEBEB"/>
<path d="M195.774 320.985H190.094V367.199H195.774V320.985Z" fill="#F5F5F5"/>
<path d="M169.752 328.807H137.151V367.199H169.752V328.807Z" fill="#E6E6E6"/>
<path d="M178.098 328.807H169.751V367.199H178.098V328.807Z" fill="#F5F5F5"/>
<path d="M153.085 322.878H128.596V367.199H153.085V322.878Z" fill="#E6E6E6"/>
<path d="M160.16 322.878H153.084V367.199H160.16V322.878Z" fill="#F5F5F5"/>
<path d="M145.883 328.807H122.085V367.199H145.883V328.807Z" fill="#E6E6E6"/>
<path d="M150.596 328.807H145.883V367.199H150.596V328.807Z" fill="#F0F0F0"/>
<path d="M340.981 383.396H301.732V429.61H340.981V383.396Z" fill="#E6E6E6"/>
<path d="M351.028 383.396H340.981V429.61H351.028V383.396Z" fill="#F5F5F5"/>
<path d="M320.913 376.265H291.435V429.61H320.913V376.265Z" fill="#E6E6E6"/>
<path d="M329.441 376.265H320.914V429.61H329.441V376.265Z" fill="#F5F5F5"/>
<path d="M207.079 383.396H167.83V429.61H207.079V383.396Z" fill="#E6E6E6"/>
<path d="M217.125 383.396H207.078V429.61H217.125V383.396Z" fill="#F5F5F5"/>
<path d="M187.012 376.265H157.534V429.61H187.012V376.265Z" fill="#E6E6E6"/>
<path d="M195.539 376.265H187.012V429.61H195.539V376.265Z" fill="#F5F5F5"/>
<path d="M312.235 383.396H287.373V429.61H312.235V383.396Z" fill="#EBEBEB"/>
<path d="M317.916 383.396H312.236V429.61H317.916V383.396Z" fill="#F5F5F5"/>
<path d="M291.893 391.205H259.292V429.597H291.893V391.205Z" fill="#E6E6E6"/>
<path d="M300.239 391.205H291.892V429.597H300.239V391.205Z" fill="#F5F5F5"/>
<path d="M275.226 385.29H250.737V429.61H275.226V385.29Z" fill="#E6E6E6"/>
<path d="M282.287 385.29H275.211V429.61H282.287V385.29Z" fill="#F5F5F5"/>
<path d="M268.011 391.205H244.213V429.597H268.011V391.205Z" fill="#E6E6E6"/>
<path d="M272.738 391.205H268.026V429.597H272.738V391.205Z" fill="#F0F0F0"/>
<path d="M613.456 273.969H459.349C459.349 281.681 463.799 288.024 469.451 288.37C486.035 289.379 511.492 292.958 519.576 305.451C534.64 328.752 533.175 410.58 515.14 429.527C509.474 435.47 493.028 447.272 493.028 447.272H579.859C579.859 447.272 564.45 435.235 559.129 429.527C541.163 410.428 540.666 328.641 555.799 305.451C563.566 293.552 587.433 289.71 603.464 288.508C609.047 288.079 613.456 281.681 613.456 273.969Z" fill="#F5F5F5"/>
<path d="M478.448 289.13C494.093 290.844 512.846 295.059 519.577 305.451C521.828 309.205 523.54 313.257 524.662 317.489H550.547C551.708 313.255 553.453 309.204 555.73 305.451C562.474 295.114 581.393 290.857 596.748 289.13H478.448Z" fill="#E6E6E6"/>
<path d="M547.811 274.066L545.724 241.41H576.1L578.187 274.066H547.811Z" fill="#EBEBEB"/>
<path d="M547.811 274.066L545.724 241.41H544.08L546.18 274.066H547.811Z" fill="#E0E0E0"/>
<path d="M550.699 270.736L549.026 244.74H573.211L574.884 270.736H550.699Z" fill="#F0F0F0"/>
<path d="M552.55 268.594L551.154 246.869H571.359L572.755 268.594H552.55Z" fill="#FAFAFA"/>
<path d="M537.958 273.969H507.444L510.83 221.191H541.344L537.958 273.969Z" fill="#E6E6E6"/>
<path d="M537.958 273.969H539.409L542.795 221.191H541.344L537.958 273.969Z" fill="#E0E0E0"/>
<path d="M535.193 268.58H510.898L513.592 226.567H537.888L535.193 268.58Z" fill="#F0F0F0"/>
<path d="M533.411 265.125H513.123L515.376 230.036H535.663L533.411 265.125Z" fill="#FAFAFA"/>
<path d="M523.169 245.818C523.429 246.247 523.795 246.602 524.232 246.848C524.669 247.095 525.162 247.224 525.663 247.224C526.165 247.224 526.658 247.095 527.095 246.848C527.532 246.602 527.898 246.247 528.158 245.818C528.833 244.813 529.194 243.629 529.194 242.418C529.194 241.207 528.833 240.024 528.158 239.019C527.898 238.59 527.532 238.235 527.095 237.988C526.658 237.742 526.165 237.613 525.663 237.613C525.162 237.613 524.669 237.742 524.232 237.988C523.795 238.235 523.429 238.59 523.169 239.019C522.493 240.024 522.133 241.207 522.133 242.418C522.133 243.629 522.493 244.813 523.169 245.818Z" fill="#EBEBEB"/>
<path d="M524.663 251.719C524.472 251.404 524.203 251.144 523.882 250.964C523.561 250.783 523.2 250.688 522.832 250.688C522.463 250.688 522.102 250.783 521.781 250.964C521.46 251.144 521.191 251.404 521 251.719C519.37 253.944 520.53 257.731 522.838 257.731C525.16 257.731 526.293 253.944 524.663 251.719Z" fill="#F0F0F0"/>
<path d="M334.759 470.943C478.146 470.943 594.385 464.156 594.385 455.785C594.385 447.413 478.146 440.627 334.759 440.627C191.372 440.627 75.1331 447.413 75.1331 455.785C75.1331 464.156 191.372 470.943 334.759 470.943Z" fill="#F5F5F5"/>
<path d="M523.71 356.16C510.32 366.484 506.45 389.101 505.767 405.035C505.767 406.495 503.45 406.495 503.504 405.035C504.214 388.163 508.057 365.386 522.572 354.152C523.724 353.255 524.862 355.223 523.71 356.107V356.16Z" fill="#263238"/>
<path d="M492.617 344.551C496.032 344.162 498.911 347.657 500.397 350.215C508.097 363.538 505.124 383.691 503.664 397.952C503.517 399.384 501.241 399.398 501.388 397.952C502.807 384.039 505.405 365.908 499.112 352.679C498.027 350.416 495.724 346.466 492.617 346.827C491.171 346.988 491.185 344.725 492.617 344.551Z" fill="#263238"/>
<path d="M484.315 362.896C498.643 359.361 500.383 391.136 500.852 397.992C500.946 399.451 498.683 399.438 498.589 397.992C498.013 388.712 497.558 375.429 490.849 367.997C489.51 366.498 487.14 364.529 484.918 365.092C483.498 365.44 482.896 363.244 484.315 362.896Z" fill="#263238"/>
<path d="M526.79 378.321C514.94 369.537 511.083 392.596 510.427 399.251C510.28 400.683 508.017 400.697 508.164 399.251C508.901 391.712 510.052 378.04 518.756 374.88C520.293 374.379 521.927 374.252 523.523 374.51C525.118 374.769 526.629 375.405 527.929 376.366C529.093 377.223 527.929 379.192 526.79 378.321Z" fill="#263238"/>
<path d="M479.656 382.486C480.552 381.539 481.656 380.813 482.881 380.367C484.106 379.921 485.418 379.766 486.713 379.915C493.944 381.12 495.939 391.966 497.037 397.684C497.318 399.116 495.135 399.719 494.854 398.286C493.903 393.412 489.351 375.898 481.263 384.079C481.045 384.256 480.77 384.346 480.489 384.332C480.209 384.318 479.944 384.201 479.745 384.003C479.546 383.805 479.427 383.541 479.41 383.261C479.394 382.981 479.481 382.705 479.656 382.486Z" fill="#263238"/>
<path d="M522.331 456.789H488.065C484.983 454.187 482.505 450.943 480.805 447.284C479.105 443.625 478.224 439.64 478.223 435.605C478.223 425.884 483.687 396.773 483.687 396.773H526.71C526.71 396.773 532.173 425.924 532.173 435.605C532.172 439.64 531.291 443.625 529.591 447.284C527.891 450.943 525.414 454.187 522.331 456.789Z" fill="#263238"/>
<path d="M527.794 389.503C517.457 389.503 507.334 385.311 505.204 380.129C503.075 374.947 509.704 370.756 520.041 370.756C523.37 370.764 526.685 371.187 529.91 372.015C532.773 371.14 535.754 370.715 538.747 370.756C549.085 370.756 559.194 374.947 561.337 380.129C563.479 385.311 556.838 389.503 546.5 389.503H527.794Z" fill="#407BFF"/>
<path opacity="0.1" d="M527.794 389.503C517.457 389.503 507.334 385.311 505.204 380.129C503.075 374.947 509.704 370.756 520.041 370.756C523.37 370.764 526.685 371.187 529.91 372.015C532.773 371.14 535.754 370.715 538.747 370.756C549.085 370.756 559.194 374.947 561.337 380.129C563.479 385.311 556.838 389.503 546.5 389.503H527.794Z" fill="black"/>
<path d="M460.347 369.47C451.898 369.47 448.47 366.043 452.701 361.811C456.932 357.58 467.203 354.165 475.666 354.165C477.916 354.09 480.16 354.44 482.28 355.196C485.131 354.536 488.045 354.191 490.971 354.165C499.42 354.165 502.848 357.593 498.617 361.811C494.385 366.029 484.115 369.47 475.666 369.47H460.347Z" fill="#407BFF"/>
<path d="M538.104 361.811C527.459 361.811 514.537 357.499 509.208 352.183C503.879 346.867 508.204 342.556 518.849 342.556C522.529 342.606 526.192 343.055 529.776 343.895C532.443 342.93 535.269 342.476 538.104 342.556C548.736 342.556 561.671 346.867 566.987 352.183C572.303 357.499 567.992 361.811 557.36 361.811H538.104Z" fill="#407BFF"/>
<path opacity="0.2" d="M538.104 361.811C527.459 361.811 514.537 357.499 509.208 352.183C503.879 346.867 508.204 342.556 518.849 342.556C522.529 342.606 526.192 343.055 529.776 343.895C532.443 342.93 535.269 342.476 538.104 342.556C548.736 342.556 561.671 346.867 566.987 352.183C572.303 357.499 567.992 361.811 557.36 361.811H538.104Z" fill="white"/>
<path d="M478.973 349.385C473.617 349.385 470.229 347.229 471.34 344.564C472.452 341.9 477.647 339.757 482.963 339.757C484.501 339.73 486.033 339.947 487.503 340.4C489.165 339.972 490.875 339.756 492.591 339.757C497.947 339.757 501.321 341.913 500.223 344.564C499.125 347.216 493.917 349.385 488.601 349.385H478.973Z" fill="#407BFF"/>
<path opacity="0.3" d="M478.973 349.385C473.617 349.385 470.229 347.229 471.34 344.564C472.452 341.9 477.647 339.757 482.963 339.757C484.501 339.73 486.033 339.947 487.503 340.4C489.165 339.972 490.875 339.756 492.591 339.757C497.947 339.757 501.321 341.913 500.223 344.564C499.125 347.216 493.917 349.385 488.601 349.385H478.973Z" fill="white"/>
<path d="M472.84 387.895C467.484 387.895 462.315 385.74 461.217 383.088C460.119 380.437 463.534 378.268 468.85 378.268C470.567 378.271 472.276 378.492 473.938 378.924C475.407 378.466 476.939 378.245 478.477 378.268C483.833 378.268 489.002 380.424 490.1 383.088C491.198 385.753 487.784 387.895 482.468 387.895H472.84Z" fill="#407BFF"/>
<path opacity="0.2" d="M472.84 387.895C467.484 387.895 462.315 385.74 461.217 383.088C460.119 380.437 463.534 378.268 468.85 378.268C470.567 378.271 472.276 378.492 473.938 378.924C475.407 378.466 476.939 378.245 478.477 378.268C483.833 378.268 489.002 380.424 490.1 383.088C491.198 385.753 487.784 387.895 482.468 387.895H472.84Z" fill="black"/>
<path d="M482.708 402.13C483.284 398.862 483.686 396.773 483.686 396.773H526.709C526.709 396.773 527.111 398.903 527.686 402.13H482.708Z" fill="#407BFF"/>
<path d="M480.834 357.058C480.834 357.058 469.037 360.994 465.301 367.475C465.301 367.475 465.891 358.035 480.834 357.058Z" fill="#FAFAFA"/>
<path d="M486.391 341.618C484.49 342.714 482.814 344.158 481.45 345.876C481.778 344.767 482.418 343.776 483.294 343.021C484.17 342.266 485.245 341.779 486.391 341.618Z" fill="#FAFAFA"/>
<path d="M532.173 345.89C532.173 345.89 544.961 350.577 552.834 359.428C550.744 355.667 547.772 352.47 544.173 350.112C540.574 347.753 536.456 346.305 532.173 345.89Z" fill="#FAFAFA"/>
<path d="M532.173 374.358C537.491 376.572 542.115 380.175 545.563 384.789C545.563 384.789 543.193 375.925 532.173 374.358Z" fill="#E6E6E6"/>
<path d="M474.138 380.852C475.085 381.35 475.889 382.081 476.475 382.976C477.061 383.871 477.409 384.9 477.486 385.967C475.921 384.602 474.763 382.833 474.138 380.852Z" fill="#FAFAFA"/>
<path d="M144.013 202.613C144.45 201.757 145.151 201.064 146.011 200.635C146.871 200.206 147.846 200.064 148.793 200.229C149.742 200.466 150.594 200.991 151.232 201.732C151.87 202.473 152.262 203.394 152.355 204.367C153.012 203.888 153.8 203.621 154.613 203.599C155.425 203.578 156.226 203.803 156.908 204.247C157.589 204.738 158.12 205.408 158.441 206.184C158.763 206.96 158.862 207.81 158.729 208.639C159.106 208.364 159.536 208.171 159.992 208.072C160.448 207.973 160.92 207.97 161.377 208.063C161.835 208.156 162.267 208.344 162.648 208.613C163.029 208.883 163.35 209.229 163.589 209.629C164.03 210.491 164.122 211.49 163.845 212.418C163.568 213.346 162.944 214.131 162.103 214.611C162.695 214.687 163.237 214.979 163.626 215.432C164.014 215.885 164.221 216.466 164.206 217.062C164.191 217.658 163.955 218.228 163.545 218.661C163.134 219.093 162.577 219.358 161.983 219.404C162.582 219.45 163.147 219.701 163.582 220.116C164.016 220.531 164.293 221.084 164.366 221.681C164.432 222.285 164.291 222.895 163.965 223.408C163.639 223.922 163.147 224.309 162.572 224.506C162.857 224.669 163.101 224.894 163.287 225.164C163.473 225.434 163.596 225.743 163.646 226.067C163.696 226.392 163.673 226.723 163.577 227.037C163.481 227.351 163.316 227.639 163.094 227.88C162.842 228.08 162.545 228.214 162.229 228.273C161.914 228.331 161.588 228.311 161.282 228.214C160.975 228.118 160.697 227.948 160.472 227.72C160.246 227.491 160.08 227.211 159.987 226.903C159.941 226.992 159.874 227.068 159.793 227.126C159.712 227.184 159.618 227.223 159.519 227.239C159.42 227.254 159.319 227.246 159.224 227.216C159.128 227.186 159.041 227.134 158.97 227.064C158.906 226.983 158.86 226.889 158.835 226.789C158.81 226.688 158.808 226.584 158.827 226.482C158.846 226.381 158.886 226.285 158.946 226.2C159.005 226.116 159.082 226.045 159.171 225.992C159.024 226.154 158.835 226.273 158.626 226.336C158.417 226.399 158.195 226.404 157.983 226.35C157.771 226.297 157.578 226.186 157.424 226.031C157.27 225.876 157.161 225.682 157.108 225.47C157.51 227.613 154.953 229.648 153.091 228.617C153.188 228.854 153.233 229.109 153.224 229.365C153.215 229.621 153.152 229.872 153.04 230.102C152.927 230.332 152.768 230.535 152.571 230.699C152.375 230.864 152.146 230.984 151.9 231.054C150.899 231.24 149.865 231.039 149.007 230.492C148.15 229.954 147.177 229.628 146.169 229.541C145.295 229.644 144.441 229.879 143.638 230.237C142.286 230.646 140.847 230.672 139.48 230.313C138.114 229.954 136.874 229.223 135.898 228.202C135.535 228.624 135.071 228.948 134.548 229.141C134.026 229.334 133.463 229.392 132.912 229.307C132.362 229.223 131.842 229 131.401 228.659C130.961 228.318 130.614 227.87 130.395 227.358C130.304 227.883 130.046 228.364 129.66 228.73C129.274 229.097 128.781 229.33 128.252 229.394C127.716 229.402 127.191 229.234 126.76 228.914C126.33 228.595 126.016 228.142 125.869 227.626C125.869 228.095 125.869 228.563 125.802 229.045C123.887 229.501 121.986 227.01 122.802 225.122C122.096 225.091 121.424 224.812 120.902 224.334C120.381 223.857 120.044 223.212 119.95 222.511C119.875 221.803 120.046 221.091 120.434 220.494C120.821 219.896 121.402 219.45 122.079 219.23C120.919 218.858 119.905 218.13 119.182 217.149C118.459 216.168 118.064 214.984 118.052 213.766C118.04 212.547 118.412 211.356 119.116 210.361C119.82 209.366 120.819 208.618 121.972 208.223C122.412 208.049 122.889 207.99 123.359 208.054C123.828 208.117 124.272 208.3 124.65 208.585C124.827 208.742 124.969 208.935 125.066 209.151C125.163 209.366 125.213 209.6 125.213 209.837C125.213 210.074 125.163 210.308 125.066 210.523C124.969 210.739 124.827 210.932 124.65 211.089C124.334 209.979 124.385 208.797 124.795 207.719C125.206 206.64 125.953 205.723 126.927 205.103C127.912 204.575 129.052 204.413 130.146 204.646C131.239 204.879 132.214 205.492 132.899 206.376C132.574 205.885 132.402 205.31 132.402 204.722C132.402 204.134 132.574 203.559 132.899 203.068C133.226 202.607 133.692 202.261 134.228 202.08C134.765 201.9 135.345 201.894 135.885 202.064C136.016 201.324 136.421 200.662 137.019 200.208C137.617 199.753 138.364 199.541 139.112 199.613C139.855 199.777 140.512 200.206 140.961 200.82C141.41 201.434 141.619 202.19 141.549 202.948C141.621 202.672 141.769 202.422 141.977 202.226C142.185 202.031 142.444 201.898 142.724 201.844C143.004 201.789 143.293 201.815 143.559 201.918C143.825 202.021 144.057 202.197 144.227 202.425C145.071 202.198 144.013 202.613 144.013 202.613Z" fill="#407BFF"/>
<g opacity="0.4">
<path opacity="0.4" d="M143.479 216.954C143.769 216.737 144.1 216.581 144.453 216.496C144.805 216.411 145.171 216.398 145.528 216.459C145.879 216.518 146.205 216.675 146.471 216.912C146.736 217.149 146.929 217.456 147.028 217.798C147.1 218.153 147.037 218.523 146.851 218.835C146.666 219.147 146.37 219.379 146.023 219.485C145.166 219.699 144.309 218.989 143.439 219.11C143.133 219.179 142.833 219.273 142.542 219.391C141.896 219.451 141.246 219.369 140.635 219.152C140.025 218.934 139.469 218.586 139.007 218.132C138.63 217.877 138.3 217.56 138.029 217.195C137.895 217.001 137.814 216.775 137.796 216.54C137.777 216.305 137.82 216.069 137.922 215.856C138.127 215.612 138.396 215.43 138.699 215.331C139.002 215.232 139.326 215.219 139.636 215.294C140.91 215.446 142.116 215.952 143.118 216.753C143.118 216.552 143.118 216.351 143.01 216.151L143.479 216.954Z" fill="#FAFAFA"/>
<path opacity="0.4" d="M125.281 215.87C125.611 215.616 125.982 215.421 126.379 215.294C126.614 215.219 126.869 215.233 127.094 215.333C127.319 215.434 127.5 215.614 127.601 215.839C127.702 216.065 127.716 216.319 127.642 216.554C127.567 216.79 127.408 216.989 127.196 217.115C126.721 217.433 126.172 217.622 125.602 217.664C125.026 217.744 124.263 217.771 124.009 217.262C123.926 217.067 123.907 216.85 123.955 216.643C124.003 216.436 124.116 216.249 124.277 216.111C124.612 215.845 125 215.653 125.415 215.548L125.281 215.87Z" fill="#FAFAFA"/>
<path opacity="0.4" d="M153.989 206.416C154.567 206.663 155.079 207.043 155.484 207.525C155.889 208.006 156.175 208.576 156.319 209.188C156.399 209.563 156.319 210.031 156.065 210.232C155.811 210.333 155.528 210.333 155.275 210.232L151.94 209.442C152.485 209.61 152.994 209.878 153.44 210.232C153.662 210.414 153.831 210.651 153.932 210.919C154.033 211.186 154.062 211.476 154.016 211.759C153.906 212.076 153.697 212.349 153.42 212.537C153.142 212.725 152.811 212.819 152.476 212.803C151.804 212.748 151.165 212.491 150.642 212.067C150.331 211.89 150.065 211.645 149.863 211.351C149.661 211.056 149.529 210.719 149.477 210.366C149.477 209.643 150.374 209.027 150.923 209.442C149.652 209.096 148.445 208.549 147.348 207.822C146.933 207.576 146.576 207.242 146.303 206.845C146.171 206.649 146.093 206.423 146.076 206.188C146.06 205.952 146.106 205.717 146.209 205.505C147.348 203.43 148.78 206.47 149.477 206.737C150.829 207.246 152.329 205.706 153.989 206.416Z" fill="#FAFAFA"/>
<path opacity="0.4" d="M159.199 215.24C159.261 215.441 159.266 215.654 159.214 215.858C159.162 216.061 159.055 216.246 158.904 216.392C158.823 216.458 158.729 216.505 158.627 216.53C158.526 216.554 158.421 216.557 158.318 216.536C158.216 216.516 158.119 216.473 158.036 216.411C157.952 216.349 157.883 216.269 157.833 216.178C158.605 216.33 159.308 216.724 159.842 217.302C160.297 217.932 160.19 219.016 159.453 219.257C159.221 219.298 158.983 219.292 158.753 219.239C158.523 219.186 158.305 219.088 158.114 218.949C156.91 218.292 155.763 217.535 154.686 216.686C155.008 217.45 154.218 218.32 153.347 218.387C152.51 218.367 151.7 218.086 151.031 217.584C150.16 217.048 149.169 216.245 149.397 215.24C149.556 214.827 149.871 214.492 150.274 214.307C150.676 214.122 151.135 214.101 151.553 214.249C152.376 214.583 153.094 215.133 153.628 215.843C153.173 215.173 153.829 214.156 154.646 214.049C155.046 214.027 155.446 214.104 155.81 214.272C156.174 214.44 156.491 214.694 156.735 215.013C155.811 214.504 155.597 213.178 156.842 213.018C157.632 212.924 158.998 214.571 159.199 215.24Z" fill="#FAFAFA"/>
<path opacity="0.4" d="M133.784 212.268C133.96 212.197 134.149 212.164 134.339 212.173C134.529 212.181 134.715 212.229 134.885 212.315C135.055 212.401 135.204 212.522 135.324 212.669C135.443 212.817 135.53 212.989 135.577 213.173C135.625 213.357 135.634 213.549 135.601 213.736C135.569 213.924 135.498 214.102 135.391 214.26C135.285 214.417 135.146 214.55 134.985 214.65C134.823 214.75 134.642 214.814 134.453 214.838C135.003 214.892 135.512 215.155 135.872 215.575C136.077 215.802 136.183 216.1 136.167 216.405C136.11 216.627 135.98 216.823 135.797 216.961C135.615 217.1 135.392 217.173 135.163 217.168C134.694 217.156 134.235 217.032 133.824 216.807C134.295 216.797 134.76 216.922 135.163 217.168C135.254 217.232 135.331 217.314 135.39 217.408C135.449 217.503 135.489 217.608 135.506 217.718C135.524 217.828 135.519 217.94 135.492 218.048C135.465 218.156 135.417 218.258 135.35 218.347C135.197 218.456 135.018 218.524 134.83 218.546C134.643 218.567 134.453 218.54 134.279 218.467C133.467 218.237 132.723 217.815 132.11 217.235C131.889 217.503 131.607 217.713 131.288 217.848C130.968 217.983 130.621 218.04 130.275 218.012C130.106 217.986 129.944 217.927 129.799 217.836C129.654 217.746 129.528 217.627 129.43 217.487C129.333 217.346 129.265 217.188 129.23 217.02C129.196 216.853 129.196 216.68 129.231 216.512C129.326 216.286 129.481 216.09 129.679 215.946C129.877 215.802 130.111 215.716 130.356 215.695C130.848 215.67 131.341 215.748 131.802 215.923C131.278 215.62 130.872 215.148 130.65 214.584C130.476 214.022 130.851 213.245 131.44 213.325C132.029 213.406 132.431 214.263 132.953 214.584C133.583 214.048 132.378 212.79 133.784 212.268Z" fill="#FAFAFA"/>
<path opacity="0.4" d="M145.647 209.522C145.997 209.811 146.267 210.183 146.434 210.605C146.6 211.026 146.657 211.483 146.598 211.933C146.606 212.433 146.478 212.927 146.229 213.36C145.979 213.794 145.616 214.152 145.179 214.396C144.87 214.495 144.544 214.526 144.222 214.488C143.9 214.451 143.59 214.345 143.312 214.177C143.034 214.01 142.796 213.785 142.612 213.518C142.428 213.251 142.303 212.948 142.246 212.629C142.18 211.974 142.317 211.314 142.638 210.74C142.959 210.165 143.448 209.703 144.041 209.415C144.298 209.303 144.578 209.255 144.857 209.273C145.137 209.292 145.408 209.377 145.647 209.522Z" fill="#FAFAFA"/>
<path opacity="0.4" d="M137.238 208.451L136.93 208.719C137.124 208.476 137.389 208.3 137.687 208.215C137.986 208.129 138.304 208.138 138.597 208.241C138.89 208.344 139.144 208.536 139.324 208.789C139.504 209.043 139.6 209.346 139.6 209.656C139.6 209.967 139.504 210.27 139.324 210.524C139.144 210.777 138.89 210.968 138.597 211.071C138.304 211.174 137.986 211.184 137.687 211.098C137.389 211.012 137.124 210.836 136.93 210.594C136.491 210.815 135.991 210.887 135.507 210.797C135.024 210.708 134.583 210.462 134.252 210.098C134.101 209.914 133.99 209.701 133.926 209.471C133.862 209.242 133.847 209.002 133.881 208.767C133.915 208.531 133.997 208.305 134.124 208.103C134.25 207.901 134.416 207.728 134.613 207.594C134.819 207.475 135.053 207.413 135.291 207.415C135.529 207.416 135.762 207.481 135.966 207.602C136.171 207.723 136.339 207.897 136.455 208.105C136.57 208.313 136.628 208.548 136.622 208.786L136.983 208.384L137.238 208.451Z" fill="#FAFAFA"/>
<path opacity="0.4" d="M127.972 209.951C128.612 210.488 129.105 211.18 129.405 211.96C129.534 212.358 129.508 212.791 129.332 213.171C129.155 213.551 128.842 213.85 128.454 214.008C127.651 214.209 126.887 213.54 126.419 212.857C126.185 212.563 126.02 212.22 125.937 211.854C125.853 211.488 125.853 211.107 125.937 210.741C126.164 210.032 127.195 209.616 127.704 210.165L127.972 209.951Z" fill="#FAFAFA"/>
<path opacity="0.4" d="M141.335 205.077C141.42 204.914 141.537 204.77 141.68 204.655C141.823 204.539 141.988 204.454 142.165 204.405C142.343 204.356 142.528 204.344 142.71 204.37C142.892 204.396 143.066 204.458 143.223 204.555C143.526 204.771 143.748 205.081 143.855 205.438C143.962 205.794 143.947 206.176 143.812 206.523C143.66 206.861 143.422 207.153 143.121 207.37C142.82 207.586 142.467 207.719 142.098 207.755C141.188 207.862 140.103 207.126 140.317 206.228C140.101 206.473 139.828 206.661 139.522 206.775C139.216 206.889 138.887 206.927 138.563 206.885C137.92 206.784 137.305 206.551 136.755 206.202C135.992 205.76 135.175 205.077 135.256 204.206C135.304 203.853 135.473 203.526 135.734 203.282C135.995 203.038 136.332 202.892 136.689 202.867C137.042 202.855 137.394 202.912 137.725 203.036C138.056 203.16 138.359 203.349 138.617 203.591C139.008 203.982 139.419 204.353 139.849 204.702C140.063 204.876 140.321 204.988 140.594 205.029C140.867 205.069 141.146 205.034 141.402 204.93L141.335 205.077Z" fill="#FAFAFA"/>
</g>
<path d="M129.912 246.44H152.904L155.153 223.274H127.663L129.912 246.44Z" fill="#407BFF"/>
<path opacity="0.3" d="M129.912 246.44H152.904L155.153 223.274H127.663L129.912 246.44Z" fill="black"/>
<path d="M125.882 224.466H157.162L157.724 221.386H125.319L125.882 224.466Z" fill="#FAFAFA"/>
<path d="M165.117 260.968H175.186L175.481 453.87C175.481 454.841 175.096 455.772 174.411 456.459C173.726 457.147 172.796 457.535 171.825 457.539C170.863 457.539 169.939 457.159 169.255 456.482C168.57 455.805 168.18 454.886 168.17 453.923L165.117 260.968Z" fill="#263238"/>
<path opacity="0.2" d="M165.117 260.968H175.186L175.481 453.87C175.481 454.841 175.096 455.772 174.411 456.459C173.726 457.147 172.796 457.535 171.825 457.539C170.863 457.539 169.939 457.159 169.255 456.482C168.57 455.805 168.18 454.886 168.17 453.923L165.117 260.968Z" fill="white"/>
<path d="M110.042 260.968H120.125L120.406 453.87C120.407 454.351 120.314 454.828 120.131 455.273C119.948 455.718 119.679 456.122 119.34 456.463C119 456.804 118.597 457.075 118.152 457.259C117.708 457.444 117.231 457.539 116.75 457.539C115.788 457.539 114.864 457.159 114.179 456.482C113.495 455.805 113.105 454.886 113.095 453.923L110.042 260.968Z" fill="#263238"/>
<path opacity="0.2" d="M110.042 260.968H120.125L120.406 453.87C120.407 454.351 120.314 454.828 120.131 455.273C119.948 455.718 119.679 456.122 119.34 456.463C119 456.804 118.597 457.075 118.152 457.259C117.708 457.444 117.231 457.539 116.75 457.539C115.788 457.539 114.864 457.159 114.179 456.482C113.495 455.805 113.105 454.886 113.095 453.923L110.042 260.968Z" fill="white"/>
<path d="M404.643 260.968H414.726L415.007 453.87C415.009 454.351 414.915 454.828 414.732 455.273C414.549 455.718 414.28 456.122 413.941 456.463C413.601 456.804 413.198 457.075 412.753 457.259C412.309 457.444 411.832 457.539 411.351 457.539C410.389 457.539 409.465 457.159 408.78 456.482C408.096 455.805 407.706 454.886 407.696 453.923L404.643 260.968Z" fill="#263238"/>
<path opacity="0.2" d="M404.643 260.968H414.726L415.007 453.87C415.009 454.351 414.915 454.828 414.732 455.273C414.549 455.718 414.28 456.122 413.941 456.463C413.601 456.804 413.198 457.075 412.753 457.259C412.309 457.444 411.832 457.539 411.351 457.539C410.389 457.539 409.465 457.159 408.78 456.482C408.096 455.805 407.706 454.886 407.696 453.923L404.643 260.968Z" fill="white"/>
<path d="M349.583 260.968H359.652L359.947 453.87C359.947 454.841 359.562 455.772 358.877 456.459C358.192 457.147 357.262 457.535 356.291 457.539C355.327 457.539 354.402 457.16 353.716 456.483C353.029 455.807 352.636 454.887 352.622 453.923L349.583 260.968Z" fill="#263238"/>
<path opacity="0.2" d="M349.583 260.968H359.652L359.947 453.87C359.947 454.841 359.562 455.772 358.877 456.459C358.192 457.147 357.262 457.535 356.291 457.539C355.327 457.539 354.402 457.16 353.716 456.483C353.029 455.807 352.636 454.887 352.622 453.923L349.583 260.968Z" fill="white"/>
<path d="M110.444 297.122L413.776 294.846V260.968H110.378L110.444 297.122Z" fill="#407BFF"/>
<path opacity="0.3" d="M165.117 261.223L165.68 296.694L110.444 297.122L110.378 260.968L165.117 261.223Z" fill="black"/>
<path d="M425.586 252.84C425.586 248.274 423.885 244.578 421.796 244.565H105.784C103.695 244.565 101.994 248.274 101.994 252.84C101.994 257.393 103.695 261.089 105.784 261.115H421.796C423.885 261.089 425.586 257.393 425.586 252.84Z" fill="#263238"/>
<path opacity="0.1" d="M425.586 252.84C425.586 248.274 423.885 244.578 421.796 244.565H105.784C103.695 244.565 101.994 248.274 101.994 252.84C101.994 257.393 103.695 261.089 105.784 261.115H421.796C423.885 261.089 425.586 257.393 425.586 252.84Z" fill="white"/>
<path opacity="0.3" d="M183.568 252.84C183.568 248.274 181.868 244.578 179.765 244.565H105.784C103.695 244.565 101.994 248.274 101.994 252.84C101.994 257.393 103.695 261.089 105.784 261.115H179.752C181.868 261.089 183.555 257.393 183.568 252.84Z" fill="black"/>
<path d="M309.424 88.2195C308.455 88.2195 307.525 87.8344 306.839 87.1488C306.154 86.4633 305.769 85.5335 305.769 84.564V75.5523H303.961C302.714 75.5523 301.519 75.0571 300.637 74.1757C299.756 73.2942 299.261 72.0988 299.261 70.8522V28.1772C299.268 26.9376 299.764 25.751 300.642 24.8757C301.52 24.0005 302.708 23.5074 303.948 23.5039H370.551C371.794 23.5039 372.986 23.9977 373.865 24.8766C374.744 25.7555 375.238 26.9476 375.238 28.1905V70.8522C375.238 72.0988 374.743 73.2942 373.861 74.1757C372.98 75.0571 371.784 75.5523 370.538 75.5523H327.019L311.62 87.4563C310.992 87.9455 310.22 88.2138 309.424 88.2195ZM303.961 24.8429C303.076 24.8464 302.229 25.1984 301.602 25.8226C300.976 26.4467 300.62 27.2927 300.613 28.1772V70.8522C300.617 71.7425 300.972 72.5954 301.602 73.2249C302.231 73.8545 303.084 74.2097 303.974 74.2132H307.081V84.564C307.081 85.1783 307.325 85.7676 307.759 86.202C308.194 86.6364 308.783 86.8805 309.397 86.8805C309.88 86.8686 310.347 86.7097 310.736 86.4252L326.524 74.2132H370.498C371.388 74.2097 372.241 73.8545 372.87 73.2249C373.5 72.5954 373.855 71.7425 373.859 70.8522V28.1905C373.859 27.3027 373.506 26.4512 372.878 25.8234C372.25 25.1956 371.399 24.8429 370.511 24.8429H303.961Z" fill="#407BFF"/>
<path d="M333.701 18.1743H325.359V19.192H333.701V18.1743Z" fill="#407BFF"/>
<path d="M294.695 30.1986H293.664V25.1638C293.667 23.3052 294.408 21.524 295.724 20.211C297.039 18.898 298.822 18.1606 300.68 18.1606H319.28V19.1649H300.68C299.093 19.1649 297.57 19.7955 296.448 20.918C295.325 22.0405 294.695 23.563 294.695 25.1504V30.1986Z" fill="#407BFF"/>
<path d="M322.239 53.1902C324.679 53.1902 326.658 51.2118 326.658 48.7714C326.658 46.3309 324.679 44.3525 322.239 44.3525C319.798 44.3525 317.82 46.3309 317.82 48.7714C317.82 51.2118 319.798 53.1902 322.239 53.1902Z" fill="#407BFF"/>
<path d="M341.561 48.7714C341.564 49.6485 341.306 50.5068 340.821 51.2374C340.336 51.968 339.644 52.5382 338.835 52.8757C338.025 53.2132 337.133 53.3029 336.273 53.1334C335.412 52.9639 334.621 52.5429 334 51.9235C333.379 51.3042 332.955 50.5145 332.783 49.6544C332.611 48.7942 332.698 47.9024 333.033 47.0917C333.368 46.2811 333.936 45.5881 334.665 45.1004C335.395 44.6128 336.252 44.3525 337.129 44.3525C338.302 44.3525 339.428 44.8177 340.258 45.646C341.089 46.4743 341.558 47.5982 341.561 48.7714Z" fill="#407BFF"/>
<path d="M352.032 53.1902C354.472 53.1902 356.451 51.2118 356.451 48.7714C356.451 46.3309 354.472 44.3525 352.032 44.3525C349.591 44.3525 347.613 46.3309 347.613 48.7714C347.613 51.2118 349.591 53.1902 352.032 53.1902Z" fill="#407BFF"/>
<path d="M190.142 156.376L195.498 156.122L202.957 238.566H197.319C194.494 238.298 193.838 235.138 193.048 229.193L187.826 171.614C186.513 157.969 188.803 156.376 190.142 156.376Z" fill="#407BFF"/>
<path opacity="0.3" d="M190.142 156.376L195.498 156.122L202.957 238.566H197.319C194.494 238.298 193.838 235.138 193.048 229.193L187.826 171.614C186.513 157.969 188.803 156.376 190.142 156.376Z" fill="black"/>
<path d="M198.566 238.566H310.295C310.603 238.545 310.903 238.459 311.175 238.313C311.447 238.168 311.685 237.967 311.874 237.722C312.062 237.478 312.197 237.197 312.269 236.897C312.34 236.597 312.348 236.285 312.29 235.982L305.301 158.706C305.279 158.045 305.014 157.416 304.557 156.939C304.1 156.462 303.482 156.171 302.823 156.122H191.094C190.786 156.143 190.487 156.229 190.214 156.374C189.942 156.52 189.704 156.721 189.516 156.965C189.327 157.21 189.193 157.491 189.121 157.791C189.049 158.091 189.041 158.403 189.099 158.706L196.089 235.982C196.11 236.642 196.375 237.272 196.832 237.749C197.289 238.226 197.907 238.517 198.566 238.566Z" fill="#407BFF"/>
<path d="M202.851 228.805H304.323L298.699 164.478H197.227L202.851 228.805Z" fill="#407BFF"/>
<path d="M204.244 233.839H304.244C304.902 233.851 305.555 233.722 306.16 233.462C306.764 233.201 307.306 232.815 307.75 232.328C308.193 231.842 308.528 231.266 308.731 230.64C308.935 230.014 309.003 229.352 308.93 228.698L303.333 164.772C303.189 163.383 302.542 162.094 301.514 161.149C300.485 160.204 299.146 159.669 297.749 159.644H197.75C197.094 159.634 196.443 159.764 195.841 160.025C195.238 160.285 194.698 160.671 194.255 161.155C193.812 161.64 193.477 162.212 193.272 162.836C193.066 163.459 192.995 164.119 193.064 164.772L198.661 228.698C198.801 230.089 199.447 231.381 200.476 232.329C201.505 233.276 202.846 233.814 204.244 233.839Z" fill="#263238"/>
<path d="M202.851 228.805H304.323L298.699 164.478H197.227L202.851 228.805Z" fill="#407BFF"/>
<path opacity="0.4" d="M202.851 228.805H304.323L298.699 164.478H197.227L202.851 228.805Z" fill="white"/>
<path opacity="0.1" d="M232.042 159.67L212.224 233.813H218.893L238.496 159.67H232.042Z" fill="white"/>
<path opacity="0.1" d="M242.338 159.67L222.521 233.813H235.737L255.34 159.67H242.338Z" fill="white"/>
<path d="M211.848 183.666C211.948 184.311 211.906 184.969 211.724 185.596C211.541 186.222 211.224 186.801 210.793 187.291C210.363 187.782 209.83 188.172 209.233 188.434C208.636 188.696 207.988 188.823 207.336 188.808C205.921 188.771 204.565 188.235 203.509 187.293C202.452 186.352 201.763 185.067 201.564 183.666C201.462 183.02 201.503 182.36 201.684 181.732C201.866 181.104 202.183 180.523 202.613 180.031C203.044 179.539 203.577 179.148 204.176 178.885C204.774 178.623 205.423 178.495 206.077 178.511C207.494 178.548 208.851 179.086 209.908 180.03C210.965 180.974 211.652 182.262 211.848 183.666Z" fill="#407BFF"/>
<path opacity="0.3" d="M211.848 183.666C211.948 184.311 211.906 184.969 211.724 185.596C211.541 186.222 211.224 186.801 210.793 187.291C210.363 187.782 209.83 188.172 209.233 188.434C208.636 188.696 207.988 188.823 207.336 188.808C205.921 188.771 204.565 188.235 203.509 187.293C202.452 186.352 201.763 185.067 201.564 183.666C201.462 183.02 201.503 182.36 201.684 181.732C201.866 181.104 202.183 180.523 202.613 180.031C203.044 179.539 203.577 179.148 204.176 178.885C204.774 178.623 205.423 178.495 206.077 178.511C207.494 178.548 208.851 179.086 209.908 180.03C210.965 180.974 211.652 182.262 211.848 183.666Z" fill="black"/>
<path d="M207.336 188.808C208.377 188.833 209.396 188.508 210.228 187.884L209.746 186.277C209.661 185.983 209.486 185.724 209.246 185.534C209.006 185.345 208.713 185.235 208.407 185.219H207.791L207.711 184.55C208.043 184.351 208.307 184.057 208.467 183.705C208.627 183.354 208.676 182.962 208.608 182.581C208.556 182.02 208.307 181.496 207.905 181.101C207.503 180.707 206.974 180.467 206.412 180.425C206.153 180.437 205.9 180.505 205.67 180.625C205.441 180.744 205.24 180.912 205.082 181.118C204.923 181.323 204.812 181.56 204.755 181.813C204.698 182.066 204.697 182.328 204.752 182.581C204.795 182.994 204.94 183.39 205.174 183.734C205.408 184.077 205.723 184.357 206.091 184.55L206.171 185.219H205.555C205.266 185.212 204.986 185.319 204.776 185.517C204.565 185.715 204.441 185.988 204.43 186.277L204.337 187.884C205.231 188.464 206.27 188.784 207.336 188.808Z" fill="white"/>
<path d="M215.585 182.688H235.804C236.742 182.688 236.554 181.242 235.63 181.242H215.33C214.407 181.242 214.581 182.688 215.518 182.688H215.585Z" fill="white"/>
<path d="M215.933 186.09H242.58C243.196 186.09 243.075 185.125 242.46 185.125H215.813C215.197 185.125 215.304 186.09 215.933 186.09Z" fill="white"/>
<path d="M247.589 185.607C247.613 185.749 247.605 185.894 247.566 186.032C247.526 186.171 247.457 186.298 247.362 186.406C247.267 186.514 247.149 186.599 247.017 186.656C246.885 186.712 246.742 186.738 246.598 186.732C246.289 186.721 245.993 186.602 245.761 186.397C245.529 186.192 245.375 185.913 245.326 185.607C245.302 185.465 245.31 185.319 245.349 185.18C245.389 185.042 245.458 184.913 245.553 184.804C245.648 184.696 245.765 184.609 245.897 184.551C246.029 184.493 246.173 184.465 246.317 184.469C246.628 184.481 246.925 184.601 247.158 184.809C247.39 185.017 247.542 185.299 247.589 185.607Z" fill="#263238"/>
<path opacity="0.5" d="M247.589 185.607C247.613 185.749 247.605 185.894 247.566 186.032C247.526 186.171 247.457 186.298 247.362 186.406C247.267 186.514 247.149 186.599 247.017 186.656C246.885 186.712 246.742 186.738 246.598 186.732C246.289 186.721 245.993 186.602 245.761 186.397C245.529 186.192 245.375 185.913 245.326 185.607C245.302 185.465 245.31 185.319 245.349 185.18C245.389 185.042 245.458 184.913 245.553 184.804C245.648 184.696 245.765 184.609 245.897 184.551C246.029 184.493 246.173 184.465 246.317 184.469C246.628 184.481 246.925 184.601 247.158 184.809C247.39 185.017 247.542 185.299 247.589 185.607Z" fill="white"/>
<path d="M197.227 164.478L197.723 170.235H299.195L298.699 164.478H197.227Z" fill="#407BFF"/>
<path d="M201.886 167.035C201.901 167.184 201.885 167.334 201.838 167.476C201.79 167.618 201.714 167.748 201.613 167.858C201.511 167.968 201.388 168.056 201.25 168.115C201.113 168.174 200.965 168.203 200.815 168.2C200.502 168.184 200.205 168.058 199.975 167.845C199.745 167.633 199.597 167.346 199.556 167.035C199.541 166.888 199.557 166.739 199.604 166.599C199.65 166.459 199.726 166.33 199.826 166.221C199.926 166.112 200.048 166.026 200.184 165.968C200.32 165.909 200.466 165.881 200.614 165.883C200.927 165.896 201.226 166.018 201.459 166.229C201.691 166.439 201.843 166.725 201.886 167.035Z" fill="white"/>
<path d="M204.939 167.035C204.956 167.183 204.941 167.333 204.896 167.475C204.85 167.617 204.775 167.748 204.674 167.858C204.574 167.968 204.451 168.056 204.315 168.115C204.178 168.174 204.03 168.203 203.881 168.2C203.568 168.184 203.27 168.058 203.04 167.845C202.81 167.633 202.662 167.346 202.622 167.035C202.607 166.888 202.623 166.739 202.67 166.599C202.716 166.459 202.792 166.33 202.892 166.221C202.992 166.112 203.114 166.026 203.25 165.968C203.385 165.909 203.532 165.881 203.68 165.883C203.991 165.899 204.287 166.023 204.516 166.233C204.746 166.443 204.895 166.727 204.939 167.035Z" fill="white"/>
<path d="M208.005 167.035C208.02 167.183 208.004 167.332 207.958 167.473C207.911 167.614 207.836 167.743 207.736 167.853C207.636 167.963 207.514 168.051 207.378 168.111C207.243 168.17 207.096 168.201 206.947 168.2C206.62 168.203 206.304 168.086 206.057 167.871C205.81 167.657 205.651 167.359 205.608 167.035C205.593 166.888 205.609 166.739 205.656 166.599C205.702 166.459 205.778 166.33 205.878 166.221C205.978 166.112 206.1 166.026 206.236 165.968C206.372 165.909 206.518 165.881 206.666 165.883C206.991 165.88 207.306 165.995 207.552 166.207C207.799 166.419 207.96 166.713 208.005 167.035Z" fill="white"/>
<path d="M311.446 238.794H197.547C196.209 238.794 195.123 239.879 195.123 241.218V242.664C195.123 244.002 196.209 245.087 197.547 245.087H311.446C312.784 245.087 313.869 244.002 313.869 242.664V241.218C313.869 239.879 312.784 238.794 311.446 238.794Z" fill="#407BFF"/>
<path opacity="0.3" d="M311.446 238.794H197.547C196.209 238.794 195.123 239.879 195.123 241.218V242.664C195.123 244.002 196.209 245.087 197.547 245.087H311.446C312.784 245.087 313.869 244.002 313.869 242.664V241.218C313.869 239.879 312.784 238.794 311.446 238.794Z" fill="black"/>
<path d="M240.318 238.767H358.086V240.2C358.086 241.485 357.576 242.718 356.667 243.627C355.758 244.536 354.525 245.047 353.239 245.047H245.179C243.893 245.047 242.66 244.536 241.751 243.627C240.842 242.718 240.332 241.485 240.332 240.2V238.767H240.318Z" fill="#407BFF"/>
<path opacity="0.4" d="M240.318 238.767H358.086V240.2C358.086 241.485 357.576 242.718 356.667 243.627C355.758 244.536 354.525 245.047 353.239 245.047H245.179C243.893 245.047 242.66 244.536 241.751 243.627C240.842 242.718 240.332 241.485 240.332 240.2V238.767H240.318Z" fill="white"/>
<path opacity="0.3" d="M293.383 238.968C293.387 239.801 293.72 240.6 294.309 241.189C294.898 241.778 295.697 242.111 296.53 242.115H310.938C311.773 242.115 312.573 241.783 313.163 241.193C313.753 240.603 314.085 239.802 314.085 238.968H293.383Z" fill="black"/>
<path d="M304.324 228.952H202.932L202.383 222.686H303.775L304.324 228.952Z" fill="#407BFF"/>
<path d="M290.731 226.22H220.298L220.258 225.658H290.691L290.731 226.22Z" fill="white"/>
<path d="M292.727 226.247C292.727 226.515 292.58 226.729 292.178 226.729C291.973 226.731 291.772 226.671 291.603 226.555L291.71 226.341C291.836 226.439 291.992 226.491 292.152 226.488C292.352 226.488 292.46 226.408 292.446 226.261C292.433 226.113 292.339 226.033 292.031 226.033H291.67V225.229H292.54V225.457H291.911V225.805H292.058C292.513 225.805 292.701 225.993 292.727 226.247Z" fill="white"/>
<path d="M292.82 225.739C292.818 225.716 292.821 225.694 292.829 225.673C292.836 225.652 292.847 225.633 292.862 225.616C292.878 225.6 292.896 225.587 292.916 225.578C292.937 225.569 292.959 225.564 292.981 225.564C293.005 225.563 293.029 225.566 293.052 225.574C293.074 225.582 293.095 225.594 293.113 225.61C293.13 225.627 293.145 225.647 293.154 225.669C293.164 225.691 293.169 225.715 293.168 225.739C293.172 225.76 293.172 225.782 293.166 225.803C293.16 225.824 293.15 225.844 293.136 225.861C293.122 225.877 293.104 225.89 293.085 225.899C293.065 225.909 293.043 225.913 293.021 225.913C292.997 225.914 292.972 225.911 292.948 225.904C292.925 225.896 292.903 225.884 292.885 225.867C292.866 225.851 292.851 225.831 292.84 225.809C292.829 225.787 292.822 225.763 292.82 225.739ZM292.901 226.542C292.896 226.519 292.897 226.496 292.904 226.474C292.91 226.452 292.921 226.431 292.937 226.414C292.953 226.397 292.972 226.384 292.994 226.376C293.015 226.368 293.038 226.365 293.061 226.368C293.109 226.368 293.155 226.386 293.189 226.418C293.224 226.45 293.245 226.495 293.249 226.542C293.251 226.564 293.248 226.587 293.241 226.608C293.233 226.629 293.222 226.648 293.207 226.664C293.192 226.681 293.173 226.694 293.153 226.703C293.132 226.712 293.11 226.716 293.088 226.716C293.064 226.718 293.04 226.715 293.017 226.707C292.995 226.699 292.974 226.686 292.956 226.67C292.939 226.654 292.925 226.634 292.915 226.612C292.906 226.59 292.901 226.566 292.901 226.542Z" fill="white"/>
<path d="M293.37 225.966C293.37 225.484 293.571 225.203 293.919 225.203C294.267 225.203 294.562 225.484 294.616 225.966C294.669 226.448 294.415 226.729 294.053 226.729C293.863 226.715 293.685 226.628 293.557 226.486C293.43 226.343 293.363 226.157 293.37 225.966ZM294.334 225.966C294.334 225.604 294.147 225.444 293.946 225.444C293.745 225.444 293.611 225.604 293.651 225.966C293.692 226.327 293.839 226.488 294.04 226.488C294.241 226.488 294.361 226.327 294.334 225.966Z" fill="white"/>
<path d="M294.789 225.966C294.789 225.484 294.99 225.203 295.352 225.203C295.542 225.216 295.72 225.304 295.848 225.446C295.975 225.589 296.042 225.775 296.035 225.966C296.035 226.448 295.834 226.729 295.486 226.729C295.138 226.729 294.843 226.448 294.789 225.966ZM295.754 225.966C295.754 225.604 295.566 225.444 295.365 225.444C295.164 225.444 295.044 225.604 295.071 225.966C295.097 226.327 295.258 226.488 295.459 226.488C295.66 226.488 295.78 226.327 295.754 225.966Z" fill="white"/>
<path d="M206.078 226.475V226.703H204.98V226.529L205.516 225.966C205.561 225.929 205.598 225.882 205.624 225.829C205.649 225.775 205.663 225.717 205.663 225.658C205.663 225.524 205.556 225.444 205.368 225.444C205.304 225.441 205.239 225.454 205.181 225.482C205.122 225.51 205.072 225.552 205.034 225.605L204.833 225.444C204.895 225.362 204.977 225.298 205.07 225.255C205.164 225.213 205.266 225.195 205.368 225.203C205.69 225.203 205.917 225.364 205.931 225.631C205.938 225.72 205.923 225.809 205.888 225.89C205.853 225.972 205.799 226.044 205.73 226.1L205.368 226.475H206.078Z" fill="white"/>
<path d="M206.212 225.739C206.208 225.717 206.208 225.695 206.214 225.674C206.22 225.653 206.23 225.633 206.244 225.617C206.258 225.6 206.276 225.587 206.296 225.578C206.315 225.569 206.337 225.564 206.359 225.564C206.383 225.563 206.408 225.566 206.432 225.573C206.455 225.581 206.477 225.594 206.495 225.61C206.514 225.626 206.529 225.646 206.54 225.668C206.551 225.69 206.558 225.714 206.56 225.739C206.562 225.761 206.559 225.783 206.552 225.804C206.544 225.825 206.533 225.845 206.518 225.861C206.503 225.877 206.484 225.89 206.464 225.899C206.443 225.908 206.421 225.913 206.399 225.913C206.375 225.914 206.351 225.911 206.328 225.903C206.306 225.896 206.285 225.883 206.267 225.867C206.25 225.85 206.236 225.83 206.226 225.808C206.216 225.786 206.211 225.763 206.212 225.739ZM206.279 226.542C206.274 226.519 206.275 226.496 206.282 226.474C206.288 226.452 206.299 226.431 206.315 226.414C206.331 226.397 206.35 226.384 206.372 226.376C206.393 226.368 206.416 226.365 206.439 226.368C206.487 226.368 206.532 226.386 206.567 226.418C206.602 226.45 206.623 226.495 206.627 226.542C206.628 226.564 206.626 226.587 206.618 226.608C206.611 226.629 206.6 226.648 206.585 226.664C206.569 226.681 206.551 226.694 206.531 226.703C206.51 226.712 206.488 226.716 206.466 226.716C206.438 226.727 206.407 226.731 206.377 226.727C206.347 226.724 206.318 226.713 206.293 226.696C206.268 226.679 206.248 226.656 206.233 226.629C206.219 226.602 206.212 226.572 206.212 226.542H206.279Z" fill="white"/>
<path d="M207.818 226.247C207.818 226.515 207.671 226.729 207.269 226.729C207.064 226.731 206.863 226.671 206.693 226.555L206.8 226.341C206.926 226.439 207.082 226.491 207.242 226.488C207.443 226.488 207.55 226.408 207.537 226.261C207.523 226.113 207.43 226.033 207.122 226.033H206.76V225.229H207.63V225.457H206.988V225.805H207.135C207.55 225.805 207.791 225.993 207.818 226.247Z" fill="white"/>
<path d="M207.953 225.966C207.953 225.484 208.14 225.203 208.502 225.203C208.692 225.216 208.87 225.304 208.997 225.446C209.125 225.589 209.192 225.775 209.184 225.966C209.184 226.448 208.984 226.729 208.635 226.729C208.287 226.729 207.993 226.448 207.953 225.966ZM208.903 225.966C208.903 225.604 208.716 225.444 208.515 225.444C208.314 225.444 208.194 225.604 208.22 225.966C208.247 226.327 208.408 226.488 208.609 226.488C208.81 226.488 208.89 226.327 208.89 225.966H208.903Z" fill="white"/>
<path d="M302.328 228.176H297.869L297.468 223.703H301.94L302.328 228.176ZM298.539 227.426H301.525L301.284 224.44H298.298L298.539 227.426Z" fill="white"/>
<path d="M250.869 225.163H210.604L210.738 226.703H251.003L250.869 225.163Z" fill="#263238"/>
<path d="M252.342 225.886C252.353 226.068 252.326 226.251 252.264 226.423C252.201 226.595 252.105 226.752 251.979 226.885C251.854 227.018 251.702 227.124 251.534 227.196C251.366 227.268 251.186 227.305 251.003 227.305C250.618 227.294 250.25 227.145 249.967 226.884C249.684 226.623 249.505 226.268 249.463 225.886C249.452 225.703 249.478 225.52 249.541 225.349C249.603 225.177 249.7 225.019 249.825 224.886C249.951 224.753 250.102 224.648 250.27 224.575C250.438 224.503 250.619 224.466 250.802 224.466C251.188 224.474 251.557 224.623 251.841 224.884C252.124 225.146 252.303 225.502 252.342 225.886Z" fill="#263238"/>
<path d="M252.342 225.886C252.353 226.068 252.326 226.251 252.264 226.423C252.201 226.595 252.105 226.752 251.979 226.885C251.854 227.018 251.702 227.124 251.534 227.196C251.366 227.268 251.186 227.305 251.003 227.305C250.618 227.294 250.25 227.145 249.967 226.884C249.684 226.623 249.505 226.268 249.463 225.886C249.452 225.703 249.478 225.52 249.541 225.349C249.603 225.177 249.7 225.019 249.825 224.886C249.951 224.753 250.102 224.648 250.27 224.575C250.438 224.503 250.619 224.466 250.802 224.466C251.188 224.474 251.557 224.623 251.841 224.884C252.124 225.146 252.303 225.502 252.342 225.886Z" fill="white"/>
<path d="M291.053 126.087C294.67 126.718 298.077 128.23 300.972 130.488C303.868 132.746 306.164 135.681 307.657 139.036C313.147 150.792 317.526 167.865 321.637 169.659C325.748 171.454 343.744 153.738 343.744 153.738C343.744 153.738 340.075 142.022 345.565 140.187C351.055 138.353 349.957 130.158 355.086 131.885C360.214 133.613 363.12 140.924 362.772 144.954C362.424 148.985 352.89 158.13 352.89 158.13C352.89 158.13 335.683 188.741 318.075 185.942C300.467 183.144 291.013 142.102 291.013 142.102C291.013 142.102 286.112 125.458 291.053 126.087Z" fill="#EEC8C0"/>
<path opacity="0.1" d="M295.927 157.18C299.783 167.571 302.957 175.082 310.282 181.751C302.354 169.017 303.211 146.213 303.211 146.213L295.927 157.18Z" fill="black"/>
<path d="M230.863 129.716C237.143 127.916 243.512 126.446 249.945 125.311L250.159 125.485L250.494 125.806L253.319 127.975L261.005 132.595L267.312 133.586L273.418 132.1L277.328 126.663L278.051 123.53V123.436C284.906 123.714 291.656 125.224 297.976 127.895C299.087 128.411 300.038 129.22 300.727 130.234C301.415 131.247 301.816 132.429 301.886 133.653C302.392 140.882 303.286 148.078 304.564 155.211C307.108 170.235 299.315 203.859 296.289 215.977C295.957 217.304 295.235 218.501 294.216 219.413C293.196 220.325 291.927 220.91 290.571 221.092C273.318 223.454 255.831 223.567 238.549 221.427C236.918 221.214 235.419 220.419 234.326 219.189C233.234 217.959 232.622 216.376 232.604 214.732C232.39 195.49 227.69 152.507 225.909 137.067C225.731 135.454 226.131 133.829 227.038 132.483C227.945 131.137 229.301 130.157 230.863 129.716Z" fill="#407BFF"/>
<path d="M230.863 129.716C237.143 127.916 243.512 126.446 249.945 125.311L250.159 125.485L250.494 125.806L253.319 127.975L261.005 132.595L267.312 133.586L273.418 132.1L277.328 126.663L278.051 123.53V123.436C284.906 123.714 291.656 125.224 297.976 127.895C299.087 128.411 300.038 129.22 300.727 130.234C301.415 131.247 301.816 132.429 301.886 133.653C302.392 140.882 303.286 148.078 304.564 155.211C307.108 170.235 299.315 203.859 296.289 215.977C295.957 217.304 295.235 218.501 294.216 219.413C293.196 220.325 291.927 220.91 290.571 221.092C273.318 223.454 255.831 223.567 238.549 221.427C236.918 221.214 235.419 220.419 234.326 219.189C233.234 217.959 232.622 216.376 232.604 214.732C232.39 195.49 227.69 152.507 225.909 137.067C225.731 135.454 226.131 133.829 227.038 132.483C227.945 131.137 229.301 130.157 230.863 129.716Z" fill="#263238"/>
<path d="M250.507 75.4049C248.003 82.6892 243.812 90.6163 245.633 98.1015C247.454 105.587 255.528 112.536 262.84 114.96C271.316 117.785 281.184 120.838 287.464 114.465C290.571 111.318 288.803 104.971 285.911 101.61C284.44 99.9518 282.5 98.7797 280.348 98.2489C278.196 97.718 275.933 97.8534 273.86 98.6371C274.362 94.8056 274.116 90.9131 273.137 87.175C272.22 82.2773 269.398 77.9432 265.29 75.1237C261.112 72.4456 252.127 70.7316 250.507 75.4049Z" fill="#263238"/>
<path d="M253.185 124.762C258.153 119.54 256.158 96.1064 256.158 96.1064L270.7 105.975C270.7 105.975 271.557 120.477 275.025 123.275C275.842 123.932 277.047 123.369 278.011 123.436L277.127 127.132L274.449 131.711L270.727 134.389H265.223L260.255 132.983L254.618 128.966L250.012 125.257C251.083 125.11 252.462 125.512 253.185 124.762Z" fill="#EEC8C0"/>
<path opacity="0.1" d="M271.972 115.683C262.411 114.599 258.019 109.631 256.024 105.707L256.439 101.797L270.967 111.666L271.972 115.683Z" fill="black"/>
<path d="M250.467 86.7461C253.533 98.7974 254.578 103.98 261.929 109.068C273.003 116.741 287.156 110.313 287.759 97.5923C288.295 86.1168 283.179 68.2406 270.351 65.7366C267.516 65.1523 264.579 65.3027 261.818 66.1734C259.057 67.0442 256.565 68.6063 254.577 70.7115C252.59 72.8167 251.175 75.3949 250.464 78.2014C249.754 81.0078 249.774 83.9492 250.52 86.7461H250.467Z" fill="#EEC8C0"/>
<path d="M270.486 86.2511C270.687 87.242 271.356 87.9517 271.999 87.8312C272.642 87.7107 273.03 86.8001 272.856 85.8092C272.682 84.8183 271.972 84.1086 271.329 84.2158C270.687 84.3229 270.406 85.3004 270.486 86.2511Z" fill="#263238"/>
<path d="M281.774 84.1351C281.962 85.1528 282.645 85.8357 283.287 85.7286C283.93 85.6215 284.319 84.6841 284.131 83.6933C283.944 82.7024 283.261 81.9927 282.618 82.1266C281.975 82.2605 281.587 83.1443 281.774 84.1351Z" fill="#263238"/>
<path d="M282.336 82.2339L284.585 81.0957C284.585 81.0957 283.728 83.198 282.336 82.2339Z" fill="#263238"/>
<path d="M278.64 86.5991C279.967 88.6969 281.571 90.6066 283.407 92.2766C282.965 92.7323 282.43 93.0877 281.839 93.3188C281.247 93.5498 280.613 93.651 279.979 93.6157L278.64 86.5991Z" fill="#ED893E"/>
<path d="M265.597 84.8451C265.723 84.8434 265.845 84.8006 265.944 84.7232C266.043 84.6459 266.114 84.5381 266.146 84.4166C266.532 83.5297 267.098 82.7327 267.808 82.0758C268.518 81.4189 269.356 80.9165 270.271 80.6003C270.421 80.5485 270.545 80.4392 270.616 80.2961C270.686 80.1531 270.697 79.988 270.645 79.8371C270.623 79.7634 270.585 79.6951 270.536 79.6362C270.486 79.5772 270.425 79.5288 270.357 79.4938C270.288 79.4589 270.213 79.438 270.136 79.4326C270.059 79.4271 269.982 79.4372 269.909 79.4621C268.808 79.8347 267.8 80.4419 266.956 81.2419C266.113 82.0418 265.452 83.0153 265.021 84.0952C264.98 84.2443 264.999 84.4038 265.074 84.5391C265.149 84.6744 265.275 84.7747 265.423 84.8183C265.479 84.8392 265.538 84.8483 265.597 84.8451Z" fill="#263238"/>
<path d="M284.157 78.3238C284.264 78.3168 284.367 78.2839 284.458 78.2279C284.549 78.1719 284.625 78.0945 284.679 78.0024C284.751 77.8634 284.767 77.7019 284.722 77.5519C284.677 77.4019 284.575 77.2754 284.438 77.199C283.614 76.7102 282.681 76.4324 281.723 76.3904C280.766 76.3483 279.813 76.5433 278.948 76.958C278.816 77.0242 278.714 77.1401 278.667 77.2805C278.619 77.421 278.629 77.5746 278.694 77.7078C278.728 77.7777 278.775 77.8398 278.834 77.8903C278.893 77.9408 278.962 77.9785 279.036 78.0011C279.11 78.0238 279.188 78.0308 279.265 78.0218C279.343 78.0128 279.417 77.988 279.484 77.9489C280.168 77.6522 280.912 77.5207 281.657 77.5649C282.401 77.6091 283.125 77.8278 283.769 78.2033C283.885 78.2772 284.019 78.3188 284.157 78.3238Z" fill="#263238"/>
<path d="M271.102 84.4297L273.365 83.2915C273.365 83.2915 272.494 85.3135 271.102 84.4297Z" fill="#263238"/>
<path d="M288.911 63.0587C290.477 64.1645 291.68 65.7107 292.366 67.501C293.053 69.2913 293.192 71.2451 292.767 73.1148C292.312 74.7752 291.334 76.3419 291.254 78.0692C291.205 78.996 291.519 79.9054 292.129 80.605C292.739 81.3047 293.596 81.7399 294.521 81.8185C291.783 82.2879 288.982 82.247 286.259 81.698C283.581 80.9883 281.077 79.02 280.983 76.5294C281.04 75.6319 281.143 74.7381 281.291 73.8513C281.35 73.3863 281.286 72.914 281.105 72.4817C280.924 72.0493 280.633 71.672 280.26 71.3875C278.774 70.41 276.806 71.4678 275.011 71.6954C271.731 72.1373 268.49 69.0977 268.892 66.2188C269.294 63.3399 277.181 54.2746 288.911 63.0587Z" fill="#263238"/>
<path d="M276.752 58.9078C281.144 61.3314 292.914 73.4765 261.152 71.4813C261.152 71.4813 261.219 91.3393 251.243 94.0307L225.105 89.719C225.105 89.719 235.496 36.1174 276.752 58.9078Z" fill="#263238"/>
<path d="M228.561 77.6674C226.057 84.9384 221.866 92.8788 223.687 100.364C225.508 107.849 233.582 114.785 240.893 117.223C249.37 120.048 259.238 123.101 265.518 116.727C268.612 113.567 266.857 107.233 263.965 103.859C262.492 102.203 260.552 101.034 258.4 100.505C256.248 99.9768 253.986 100.114 251.914 100.9C252.416 97.0681 252.17 93.1756 251.191 89.4375C250.745 86.9988 249.822 84.6719 248.476 82.5902C247.129 80.5085 245.385 78.7128 243.344 77.3059C239.126 74.6947 230.181 72.9942 228.561 77.6674Z" fill="#263238"/>
<path d="M248.928 96.8292C250.106 98.8561 252.027 100.345 254.284 100.98C257.323 101.757 258.796 99.0252 257.899 96.1731C257.069 93.6155 254.511 90.1206 251.485 90.5491C250.964 90.6397 250.466 90.8322 250.02 91.1156C249.574 91.399 249.188 91.7678 248.884 92.2007C248.58 92.6336 248.365 93.1222 248.251 93.6384C248.137 94.1547 248.125 94.6884 248.218 95.209C248.337 95.7933 248.579 96.3456 248.928 96.8292Z" fill="#EEC8C0"/>
<path d="M281.024 97.0703C279.465 97.76 277.78 98.1163 276.076 98.1163C274.372 98.1163 272.687 97.76 271.128 97.0703C271.128 97.0703 270.727 103.163 277.957 102.667C278.721 102.667 281.024 102.266 281.024 102.266C280.668 100.552 280.668 98.7839 281.024 97.0703Z" fill="#263238"/>
<path d="M271.45 99.1726C271.225 98.495 271.116 97.7842 271.128 97.0703C273.728 98.1689 276.616 98.3852 279.35 97.6863V99.6815C279.35 99.6815 274.57 100.525 271.45 99.1726Z" fill="white"/>
<path d="M272.133 100.512C272.662 100.453 273.194 100.421 273.726 100.418C276.03 100.356 278.291 101.047 280.167 102.386C279.43 102.493 278.413 102.627 277.957 102.668C274.73 102.882 273.03 101.797 272.133 100.512Z" fill="#C13B37"/>
<path d="M280.796 123.436C280.796 123.436 277.395 122.284 276.029 123.436C276.029 123.436 276.284 132.26 269.16 133.371C262.036 134.483 251.096 124.828 251.096 124.828C249.47 124.465 247.766 124.733 246.329 125.578L274.329 156.095C285.563 144.284 280.796 123.436 280.796 123.436Z" fill="#407BFF"/>
<path d="M229.525 158.88C226.847 155.225 221.317 140.027 227.343 131.778C233.368 123.53 269.696 173.154 269.696 173.154C275.829 170.115 304.31 160.567 304.31 160.567C304.31 160.567 305.261 150.618 309.452 148.195C313.643 145.771 315.572 139.397 319.133 143.173C322.695 146.949 326.873 157.421 321.383 161.384C317.847 163.911 314.178 166.244 310.39 168.374C310.39 168.374 288.47 183.867 272.548 189.223C256.627 194.579 240.773 174.065 229.525 158.88Z" fill="#EEC8C0"/>
<path opacity="0.1" d="M229.525 158.88C226.847 155.225 221.317 140.027 227.343 131.778C233.368 123.53 269.696 173.154 269.696 173.154C275.829 170.115 304.31 160.567 304.31 160.567C304.31 160.567 305.261 150.618 309.452 148.195C313.643 145.771 315.572 139.397 319.133 143.173C322.695 146.949 326.873 157.421 321.383 161.384C317.847 163.911 314.178 166.244 310.39 168.374C310.39 168.374 288.47 183.867 272.548 189.223C256.627 194.579 240.773 174.065 229.525 158.88Z" fill="white"/>
<path opacity="0.1" d="M229.525 158.88C226.847 155.225 221.317 140.027 227.343 131.778C233.368 123.53 269.696 173.154 269.696 173.154C275.829 170.115 304.31 160.567 304.31 160.567C304.31 160.567 305.261 150.618 309.452 148.195C313.643 145.771 315.572 139.397 319.133 143.173C322.695 146.949 326.873 157.421 321.383 161.384C317.847 163.911 314.178 166.244 310.39 168.374C310.39 168.374 288.47 183.867 272.548 189.223C256.627 194.579 240.773 174.065 229.525 158.88Z" fill="white"/>
<path d="M298.056 224.131L296.342 216.003C296.342 216.003 251.82 220.623 232.819 216.392L230.341 224.158L298.056 224.131Z" fill="#263238"/>
<path d="M254.189 103.19C254.205 103.671 254.077 104.146 253.822 104.555C253.567 104.963 253.196 105.286 252.756 105.483C252.316 105.679 251.828 105.74 251.354 105.658C250.879 105.576 250.44 105.355 250.092 105.022C249.744 104.689 249.503 104.26 249.399 103.789C249.296 103.319 249.335 102.829 249.512 102.381C249.689 101.933 249.995 101.548 250.392 101.274C250.788 101.001 251.257 100.852 251.739 100.847C252.373 100.836 252.987 101.076 253.445 101.514C253.904 101.953 254.171 102.555 254.189 103.19Z" fill="white"/>
<path d="M404.682 123.985C403.314 126.882 401.567 129.583 399.487 132.02C401.08 133.667 404.039 133.051 404.039 133.051L404.682 123.985Z" fill="#A02724"/>
<path d="M438.319 139.143L429.414 145.838L417.256 154.877C417.897 156.268 418.274 157.766 418.367 159.296C418.756 162.67 419.144 165.174 411.605 167.142C410.806 167.319 410.075 167.722 409.501 168.304C408.926 168.886 408.531 169.622 408.365 170.423C408.043 172.418 409.222 174.842 416.131 176.127C422.827 177.229 429.7 176.164 435.748 173.088C438.707 171.655 438.734 169.887 437.542 166.901C433.967 158.305 435.909 147.525 438.319 139.143Z" fill="#FF8B7B"/>
<path d="M402.326 123.048C402.058 124.092 402.326 125.057 402.835 125.19C403.343 125.324 404.026 124.588 404.294 123.543C404.562 122.499 404.294 121.535 403.785 121.388C403.276 121.24 402.58 121.99 402.326 123.048Z" fill="#263238"/>
<path d="M410.226 121.468C410.11 121.467 409.995 121.436 409.894 121.377C409.793 121.319 409.709 121.234 409.651 121.133C409.099 120.191 408.319 119.403 407.383 118.842C406.447 118.28 405.385 117.963 404.294 117.92C404.117 117.92 403.947 117.849 403.821 117.723C403.695 117.598 403.625 117.428 403.625 117.25C403.625 117.073 403.695 116.902 403.821 116.777C403.947 116.651 404.117 116.581 404.294 116.581C405.622 116.629 406.916 117.009 408.057 117.688C409.199 118.366 410.152 119.321 410.829 120.464C410.913 120.621 410.933 120.805 410.886 120.976C410.839 121.148 410.727 121.296 410.575 121.388C410.467 121.443 410.347 121.471 410.226 121.468Z" fill="#263238"/>
<path d="M402.258 137.858C402.549 140.85 403.526 143.736 405.112 146.29C406.698 148.845 408.851 150.999 411.404 152.587C413.13 153.671 415.027 154.454 417.015 154.904C419.432 155.447 421.94 155.444 424.356 154.895C426.772 154.346 429.035 153.265 430.981 151.73C438.734 145.865 439.631 137.925 442.322 124.588C442.978 121.479 442.84 118.255 441.92 115.213C441 112.172 439.329 109.411 437.06 107.187C434.791 104.962 431.998 103.345 428.94 102.485C425.881 101.625 422.654 101.55 419.559 102.266C405.727 105.587 401.053 125.311 402.258 137.858Z" fill="#FF8B7B"/>
<path opacity="0.2" d="M411.404 152.547C413.13 153.63 415.027 154.414 417.015 154.863H417.256L416.412 152.185C416.412 152.185 415.261 154.1 411.404 152.547Z" fill="black"/>
<path d="M446.206 134.189C443.957 138.782 441.171 143.388 436.927 146.24C435.36 147.311 423.469 146.521 423.469 146.521C423.59 142.504 418.475 128.578 416.011 123.905C415.234 125.82 416.332 128.444 415.355 130.212C414.016 129.957 390.194 121.387 400.692 104.261C408.11 92.2099 428.009 91.1118 436.27 103.029C438.042 102.571 439.905 102.606 441.659 103.13C443.412 103.654 444.989 104.647 446.219 106.002C448.626 108.785 450.039 112.29 450.237 115.964C450.839 122.271 448.965 128.511 446.206 134.189Z" fill="#263238"/>
<path d="M424.165 127.333C423.92 130.393 422.551 133.255 420.322 135.367C417.457 138.045 413.868 135.206 413.426 131.35C413.025 127.908 414.698 122.874 418.193 121.669C421.688 120.463 424.473 123.61 424.165 127.333Z" fill="#FF8B7B"/>
<path d="M308.995 428.281L296.662 422.229L305.781 392.181L320.805 400.563L308.995 428.281Z" fill="#FF8B7B"/>
<path opacity="0.2" d="M324.046 392.315L308.232 383.196L301.965 404.848L316.24 411.57L324.046 392.315Z" fill="black"/>
<path d="M295.927 419.832L310.054 426.353C310.312 426.483 310.511 426.705 310.613 426.976C310.715 427.246 310.711 427.545 310.603 427.812L305.983 441.538C305.882 441.865 305.716 442.169 305.494 442.431C305.273 442.694 305.001 442.908 304.695 443.063C304.389 443.218 304.055 443.31 303.713 443.333C303.37 443.356 303.027 443.31 302.703 443.198C297.829 440.828 295.592 439.409 289.393 436.503C285.563 434.749 276.846 430.584 271.409 428.616C265.973 426.648 268.222 420.26 270.713 420.515C281.921 421.707 288.509 421.439 293.383 419.738C294.211 419.439 295.123 419.472 295.927 419.832Z" fill="#263238"/>
<path d="M288.655 420.77C289.784 421.211 290.955 421.534 292.15 421.734C292.209 421.747 292.271 421.742 292.326 421.718C292.382 421.694 292.428 421.652 292.458 421.6C292.502 421.557 292.533 421.503 292.547 421.444C292.561 421.385 292.558 421.323 292.539 421.265C292.257 420.81 289.686 416.846 287.892 416.779C287.688 416.768 287.485 416.811 287.303 416.905C287.122 417 286.969 417.141 286.861 417.315C286.651 417.557 286.51 417.852 286.453 418.168C286.397 418.484 286.427 418.809 286.54 419.109C287.015 419.905 287.769 420.497 288.655 420.77ZM291.601 420.984C289.151 420.395 287.49 419.645 287.156 418.841C287.097 418.647 287.091 418.44 287.138 418.243C287.185 418.045 287.284 417.864 287.423 417.717C287.476 417.628 287.55 417.554 287.64 417.503C287.729 417.451 287.829 417.423 287.932 417.422C288.87 417.449 290.57 419.417 291.601 420.984Z" fill="#407BFF"/>
<path d="M292.163 421.733H292.311C292.366 421.723 292.419 421.701 292.465 421.669C292.511 421.637 292.55 421.595 292.578 421.546C292.578 421.385 294.493 417.863 293.73 416.096C293.638 415.863 293.491 415.655 293.302 415.49C293.114 415.324 292.889 415.206 292.645 415.145C292.39 415.045 292.108 415.035 291.845 415.115C291.583 415.195 291.355 415.361 291.199 415.587C290.315 416.846 291.092 420.301 292.029 421.586C292.038 421.62 292.055 421.65 292.078 421.676C292.102 421.702 292.131 421.721 292.163 421.733ZM292.619 415.855C292.738 415.904 292.846 415.976 292.935 416.068C293.025 416.161 293.095 416.27 293.141 416.391C293.322 417.907 293.013 419.442 292.257 420.769C291.482 419.3 291.291 417.593 291.721 415.989C291.721 415.815 292.003 415.667 292.458 415.801L292.619 415.855Z" fill="#407BFF"/>
<path d="M402.942 272.966C402.942 272.966 330.259 260.46 321.113 300.216C314.057 328.054 310.642 339.382 301.657 401.112L320.845 405.437C320.845 405.437 351.777 342.208 353.585 315.32C375.277 318.989 424.634 329.273 435.146 310.915C440.412 301.579 443.929 291.359 445.523 280.759L402.942 272.966Z" fill="#407BFF"/>
<g opacity="0.3">
<path opacity="0.3" d="M402.942 272.966C402.942 272.966 330.259 260.46 321.113 300.216C314.057 328.054 310.642 339.382 301.657 401.112L320.845 405.437C320.845 405.437 351.777 342.208 353.585 315.32C375.277 318.989 424.634 329.273 435.146 310.915C440.412 301.579 443.929 291.359 445.523 280.759L402.942 272.966Z" fill="black"/>
</g>
<path d="M323.296 409.709L298.725 401.112L301.028 389.985L326.228 400.228L323.296 409.709Z" fill="#407BFF"/>
<path d="M258.125 423.836L245.163 416.645L258.045 391.752L274.02 398.247L258.125 423.836Z" fill="#FF8B7B"/>
<path opacity="0.2" d="M278.478 390.587L264.244 379.152L254.75 399.599L267.819 408.423L278.478 390.587Z" fill="black"/>
<path d="M246.49 413.498L259.465 422.095C259.683 422.26 259.835 422.499 259.891 422.767C259.948 423.035 259.906 423.315 259.773 423.555L253.078 436.423C252.929 436.732 252.719 437.008 252.46 437.234C252.201 437.46 251.9 437.632 251.573 437.738C251.247 437.844 250.902 437.883 250.56 437.853C250.218 437.823 249.885 437.723 249.583 437.561C245.124 434.481 243.142 432.74 237.438 428.951C233.929 426.634 225.949 421.198 220.874 418.413C215.799 415.627 218.999 409.682 221.423 410.311C232.323 413.19 238.83 413.94 243.945 412.99C244.827 412.816 245.742 412.999 246.49 413.498Z" fill="#263238"/>
<path d="M239.165 413.311C240.214 413.915 241.322 414.409 242.473 414.784C242.528 414.808 242.589 414.814 242.647 414.799C242.706 414.784 242.757 414.751 242.794 414.703C242.844 414.67 242.883 414.624 242.907 414.569C242.931 414.514 242.938 414.454 242.928 414.395C242.727 413.886 240.786 409.588 239.018 409.253C238.817 409.21 238.609 409.221 238.414 409.285C238.219 409.348 238.044 409.462 237.907 409.615C237.668 409.828 237.489 410.099 237.386 410.401C237.283 410.704 237.259 411.028 237.318 411.342C237.675 412.2 238.332 412.9 239.165 413.311ZM242.044 413.967C239.714 413.003 238.188 412.065 238.027 411.182C237.999 410.978 238.024 410.77 238.102 410.58C238.18 410.389 238.306 410.223 238.469 410.097C238.534 410.021 238.617 409.962 238.711 409.927C238.805 409.892 238.906 409.881 239.005 409.896C239.888 410.057 241.214 412.253 242.044 413.967Z" fill="#407BFF"/>
<path d="M242.486 414.797H242.62C242.676 414.8 242.732 414.79 242.784 414.766C242.835 414.743 242.88 414.708 242.915 414.663C242.981 414.516 245.365 411.315 244.883 409.454C244.828 409.209 244.716 408.98 244.555 408.787C244.395 408.593 244.19 408.441 243.959 408.343C243.721 408.204 243.444 408.15 243.172 408.189C242.899 408.227 242.648 408.357 242.459 408.557C241.401 409.668 241.629 413.19 242.365 414.609C242.369 414.648 242.382 414.685 242.403 414.718C242.424 414.751 242.452 414.778 242.486 414.797ZM243.825 409.053C243.937 409.119 244.034 409.209 244.11 409.315C244.186 409.42 244.239 409.541 244.267 409.668C244.218 411.193 243.673 412.66 242.714 413.846C242.173 412.279 242.25 410.565 242.928 409.053C242.995 408.892 243.263 408.785 243.691 408.972L243.825 409.053Z" fill="#407BFF"/>
<path d="M380.03 269.097C379.522 269.003 300.344 247.592 287.222 292.449C269.225 347.042 255.875 393.386 255.875 393.386L271.408 404.647C271.408 404.647 311.03 349.827 316.935 312.254C341.68 309.469 400.812 331.148 411.324 312.803C419.934 297.806 420.349 275.926 420.349 275.926L380.03 269.097Z" fill="#407BFF"/>
<path opacity="0.3" d="M380.03 269.097C379.522 269.003 300.344 247.592 287.222 292.449C269.225 347.042 255.875 393.386 255.875 393.386L271.408 404.647C271.408 404.647 311.03 349.827 316.935 312.254C341.68 309.469 400.812 331.148 411.324 312.803C419.934 297.806 420.349 275.926 420.349 275.926L380.03 269.097Z" fill="black"/>
<path d="M273.713 407.54L252.703 393.48L256.105 384.481L278.681 396.801L273.713 407.54Z" fill="#407BFF"/>
<path d="M453.665 177.493C452.326 182.849 450.705 188.138 448.951 193.428C447.197 198.717 445.189 203.952 442.832 209.309C440.438 214.818 437.471 220.06 433.981 224.948C431.93 227.816 429.471 230.369 426.683 232.527C424.969 233.85 423.075 234.923 421.059 235.714C419.903 236.154 418.705 236.477 417.484 236.678L416.506 236.839C415.998 236.839 415.435 236.919 414.94 236.919C414.098 236.907 413.259 236.813 412.436 236.638C411.216 236.387 410.026 236.005 408.887 235.5C407.964 235.118 407.069 234.67 406.209 234.161C404.786 233.277 403.417 232.306 402.112 231.255C399.835 229.394 391.346 216.004 385.307 206.63L392.498 200.632C400.291 207.688 408.204 214.946 416.132 221.146C418.167 222.592 409.584 216.794 411.498 218.026C412.357 218.564 413.252 219.043 414.177 219.458C414.94 219.807 415.69 219.981 415.516 219.847C415.351 219.793 415.18 219.766 415.007 219.766C414.815 219.753 414.623 219.753 414.431 219.766C414.528 219.73 414.622 219.685 414.712 219.633C415.157 219.372 415.574 219.067 415.957 218.722C417.307 217.465 418.498 216.049 419.506 214.504C422.032 210.519 424.166 206.299 425.88 201.904C427.835 197.244 429.428 192.53 430.968 187.589C432.508 182.648 433.941 177.721 435.24 172.659C436.538 167.598 455.057 172.11 453.665 177.493Z" fill="#407BFF"/>
<path opacity="0.6" d="M453.665 177.493C452.326 182.849 450.705 188.138 448.951 193.428C447.197 198.717 445.189 203.952 442.832 209.309C440.438 214.818 437.471 220.06 433.981 224.948C431.93 227.816 429.471 230.369 426.683 232.527C424.969 233.85 423.075 234.923 421.059 235.714C419.903 236.154 418.705 236.477 417.484 236.678L416.506 236.839C415.998 236.839 415.435 236.919 414.94 236.919C414.098 236.907 413.259 236.813 412.436 236.638C411.216 236.387 410.026 236.005 408.887 235.5C407.964 235.118 407.069 234.67 406.209 234.161C404.786 233.277 403.417 232.306 402.112 231.255C399.835 229.394 391.346 216.004 385.307 206.63L392.498 200.632C400.291 207.688 408.204 214.946 416.132 221.146C418.167 222.592 409.584 216.794 411.498 218.026C412.357 218.564 413.252 219.043 414.177 219.458C414.94 219.807 415.69 219.981 415.516 219.847C415.351 219.793 415.18 219.766 415.007 219.766C414.815 219.753 414.623 219.753 414.431 219.766C414.528 219.73 414.622 219.685 414.712 219.633C415.157 219.372 415.574 219.067 415.957 218.722C417.307 217.465 418.498 216.049 419.506 214.504C422.032 210.519 424.166 206.299 425.88 201.904C427.835 197.244 429.428 192.53 430.968 187.589C432.508 182.648 433.941 177.721 435.24 172.659C436.538 167.598 455.057 172.11 453.665 177.493Z" fill="white"/>
<path d="M393.033 201.435L386.164 186.853L373.108 194.311C373.108 194.311 381.558 207.849 386.311 206.51L393.033 201.435Z" fill="#FF8B7B"/>
<path d="M375.505 183.398L369.573 185.876C369.224 186.017 368.914 186.242 368.672 186.532C368.43 186.821 368.263 187.165 368.185 187.534C368.107 187.902 368.121 188.285 368.225 188.647C368.329 189.009 368.521 189.341 368.783 189.611L373.215 194.245L386.271 186.786L377.259 183.385C376.695 183.161 376.066 183.166 375.505 183.398Z" fill="#FF8B7B"/>
<path d="M326.162 228.269L312.102 226.555L307.429 241.285C307.429 241.285 323.497 241.686 326.175 237.348L326.162 228.269Z" fill="#FF8B7B"/>
<path d="M301.617 231.577L298.939 237.187C298.767 237.578 298.691 238.003 298.716 238.429C298.742 238.854 298.868 239.267 299.086 239.634C299.303 240.001 299.605 240.31 299.966 240.537C300.327 240.763 300.737 240.901 301.162 240.937L307.389 241.325L312.062 226.596L302.97 230.291C302.379 230.544 301.899 231 301.617 231.577Z" fill="#FF8B7B"/>
<path d="M458.137 176.716C457.508 173.449 452.647 169.472 449.353 168.923L447.171 168.548C442.762 167.858 438.318 167.411 433.86 167.209C424.941 166.709 416 166.709 407.08 167.209C402.942 167.597 398.885 168.267 395.658 168.896H395.537C393.704 169.291 392.056 170.289 390.856 171.731C389.657 173.173 388.976 174.975 388.922 176.85C388.614 186.96 387.838 207.501 386.017 227.734C384.611 243.548 381.491 258.96 380.085 269.672L445.59 280.733C450.009 268.306 451.536 257.072 455.62 233.987C458.017 220.101 460.748 190.16 458.137 176.716Z" fill="#407BFF"/>
<path opacity="0.6" d="M458.137 176.716C457.508 173.449 452.647 169.472 449.353 168.923L447.171 168.548C442.762 167.858 438.318 167.411 433.86 167.209C424.941 166.709 416 166.709 407.08 167.209C402.942 167.597 398.885 168.267 395.658 168.896H395.537C393.704 169.291 392.056 170.289 390.856 171.731C389.657 173.173 388.976 174.975 388.922 176.85C388.614 186.96 387.838 207.501 386.017 227.734C384.611 243.548 381.491 258.96 380.085 269.672L445.59 280.733C450.009 268.306 451.536 257.072 455.62 233.987C458.017 220.101 460.748 190.16 458.137 176.716Z" fill="white"/>
<path d="M395.322 170.476C396.586 171.028 397.728 171.825 398.682 172.82C399.637 173.816 400.384 174.991 400.882 176.277C401.38 177.563 401.619 178.934 401.584 180.313C401.549 181.692 401.241 183.05 400.679 184.309C395.322 196.36 386.351 215.361 382.494 222.029C381.035 224.386 379.562 226.743 377.915 229.099C377.098 230.291 376.174 231.456 375.237 232.675C374.701 233.277 374.273 233.84 373.643 234.482L372.746 235.42L372.237 235.942C370.807 237.267 369.102 238.259 367.243 238.848C366.261 239.169 365.259 239.424 364.243 239.611C362.592 239.876 360.922 240.015 359.249 240.026C356.357 240.026 336.485 241.807 326.335 238.258L325.8 227.318C335.923 228.122 353.585 222.645 355.861 222.404C356.766 222.287 357.661 222.104 358.539 221.855C358.828 221.771 359.107 221.654 359.369 221.507C359.463 221.507 359.369 221.4 358.954 221.681C358.805 221.773 358.666 221.881 358.539 222.003L358.686 221.815L359.102 221.32C359.383 221.025 359.704 220.543 360.012 220.155C360.615 219.324 361.231 218.427 361.847 217.477C363.065 215.575 364.243 213.459 365.408 211.33C367.725 207.059 369.867 202.533 371.956 197.94C373.429 194.7 377.794 184.844 381.504 176.02C382.039 174.743 382.824 173.584 383.811 172.612C384.798 171.641 385.968 170.875 387.254 170.359C388.54 169.843 389.915 169.588 391.3 169.608C392.685 169.628 394.052 169.923 395.322 170.476Z" fill="#407BFF"/>
<path opacity="0.2" d="M386.445 213.044C386.632 219.03 386.552 217.062 386.766 223.368C404.254 199.172 399.755 182.367 399.755 182.367L386.445 213.044Z" fill="black"/>
<path opacity="0.6" d="M395.322 170.476C396.586 171.028 397.728 171.825 398.682 172.82C399.637 173.816 400.384 174.991 400.882 176.277C401.38 177.563 401.619 178.934 401.584 180.313C401.549 181.692 401.241 183.05 400.679 184.309C395.322 196.36 386.351 215.361 382.494 222.029C381.035 224.386 379.562 226.743 377.915 229.099C377.098 230.291 376.174 231.456 375.237 232.675C374.701 233.277 374.273 233.84 373.643 234.482L372.746 235.42L372.237 235.942C370.807 237.267 369.102 238.259 367.243 238.848C366.261 239.169 365.259 239.424 364.243 239.611C362.592 239.876 360.922 240.015 359.249 240.026C356.357 240.026 336.485 241.807 326.335 238.258L325.8 227.318C335.923 228.122 353.585 222.645 355.861 222.404C356.766 222.287 357.661 222.104 358.539 221.855C358.828 221.771 359.107 221.654 359.369 221.507C359.463 221.507 359.369 221.4 358.954 221.681C358.805 221.773 358.666 221.881 358.539 222.003L358.686 221.815L359.102 221.32C359.383 221.025 359.704 220.543 360.012 220.155C360.615 219.324 361.231 218.427 361.847 217.477C363.065 215.575 364.243 213.459 365.408 211.33C367.725 207.059 369.867 202.533 371.956 197.94C373.429 194.7 377.794 184.844 381.504 176.02C382.039 174.743 382.824 173.584 383.811 172.612C384.798 171.641 385.968 170.875 387.254 170.359C388.54 169.843 389.915 169.588 391.3 169.608C392.685 169.628 394.052 169.923 395.322 170.476Z" fill="white"/>
<path d="M414.993 123.61C413.947 124.533 413.094 125.655 412.485 126.91C411.876 128.165 411.522 129.529 411.445 130.922C411.271 134.631 414.873 135.635 417.992 133.894C420.831 132.314 424.299 128.538 422.987 125.11C421.675 121.682 417.618 121.281 414.993 123.61Z" fill="#FAB27B"/>
<path d="M426.911 129.395C426.643 135.474 422.974 140.254 416.895 139.987C410.816 139.719 407.522 134.63 407.843 128.551C408.164 122.472 411.793 117.692 417.872 117.959C423.952 118.227 427.152 123.316 426.911 129.395Z" fill="#407BFF"/>
<path opacity="0.7" d="M426.911 129.395C426.643 135.474 422.974 140.254 416.895 139.987C410.816 139.719 407.522 134.63 407.843 128.551C408.164 122.472 411.793 117.692 417.872 117.959C423.952 118.227 427.152 123.316 426.911 129.395Z" fill="white"/>
<path d="M424.112 129.275C423.911 133.573 421.327 136.934 417.028 136.746C412.73 136.559 410.454 132.97 410.655 128.712C410.856 124.454 413.426 121.053 417.725 121.24C422.023 121.428 424.299 124.949 424.112 129.275Z" fill="#407BFF"/>
<path opacity="0.3" d="M424.112 129.275C423.911 133.573 421.327 136.934 417.028 136.746C412.73 136.559 410.454 132.97 410.655 128.712C410.856 124.454 413.426 121.053 417.725 121.24C422.023 121.428 424.299 124.949 424.112 129.275Z" fill="white"/>
<path d="M417.07 116.915C418.315 111.8 423.243 98.1687 433.459 96.2672C433.951 96.1834 434.456 96.2281 434.925 96.397C435.394 96.566 435.812 96.8534 436.137 97.2313L437.356 98.5704C437.642 98.9008 437.85 99.2909 437.965 99.7121C438.081 100.133 438.101 100.575 438.024 101.005C437.947 101.435 437.775 101.842 437.52 102.197C437.266 102.552 436.935 102.845 436.553 103.056C430.152 106.413 425.095 111.862 422.225 118.495C422.023 118.969 421.658 119.354 421.196 119.58C420.733 119.806 420.205 119.858 419.708 119.727L418.569 119.419C418.047 119.271 417.602 118.93 417.323 118.465C417.044 117.999 416.954 117.445 417.07 116.915Z" fill="#407BFF"/>
<path opacity="0.2" d="M417.07 116.915C418.315 111.8 423.243 98.1687 433.459 96.2672C433.951 96.1834 434.456 96.2281 434.925 96.397C435.394 96.566 435.812 96.8534 436.137 97.2313L437.356 98.5704C437.642 98.9008 437.85 99.2909 437.965 99.7121C438.081 100.133 438.101 100.575 438.024 101.005C437.947 101.435 437.775 101.842 437.52 102.197C437.266 102.552 436.935 102.845 436.553 103.056C430.152 106.413 425.095 111.862 422.225 118.495C422.023 118.969 421.658 119.354 421.196 119.58C420.733 119.806 420.205 119.858 419.708 119.727L418.569 119.419C418.047 119.271 417.602 118.93 417.323 118.465C417.044 117.999 416.954 117.445 417.07 116.915Z" fill="white"/>
<path d="M345.149 266.552H336.446V303.697H345.149V266.552Z" fill="#263238"/>
<path d="M345.149 266.552H336.446V303.697H345.149V266.552Z" fill="#263238"/>
<path d="M370.363 277.894C351.207 271.202 330.348 271.202 311.191 277.894C309.264 278.618 307.138 278.609 305.218 277.868C303.297 277.127 301.715 275.707 300.773 273.877C298.992 270.127 301.376 265.267 306.21 263.579C328.582 255.76 352.945 255.76 375.318 263.579C380.138 265.253 382.522 270.127 380.754 273.877C379.806 275.695 378.228 277.105 376.316 277.844C374.404 278.584 372.287 278.601 370.363 277.894Z" fill="#263238"/>
<path opacity="0.4" d="M370.363 277.894C351.207 271.202 330.348 271.202 311.191 277.894C309.264 278.618 307.138 278.609 305.218 277.868C303.297 277.127 301.715 275.707 300.773 273.877C298.992 270.127 301.376 265.267 306.21 263.579C328.582 255.76 352.945 255.76 375.318 263.579C380.138 265.253 382.522 270.127 380.754 273.877C379.806 275.695 378.228 277.105 376.316 277.844C374.404 278.584 372.287 278.601 370.363 277.894Z" fill="#263238"/>
<path d="M361.285 452.933C361.285 454.273 360.887 455.583 360.143 456.697C359.398 457.811 358.34 458.68 357.102 459.193C355.864 459.705 354.502 459.84 353.187 459.578C351.873 459.317 350.666 458.671 349.718 457.724C348.77 456.776 348.125 455.569 347.864 454.255C347.602 452.94 347.736 451.578 348.249 450.34C348.762 449.102 349.631 448.044 350.745 447.299C351.859 446.555 353.169 446.157 354.509 446.157C356.306 446.157 358.029 446.871 359.3 448.142C360.571 449.412 361.285 451.136 361.285 452.933Z" fill="#263238"/>
<path d="M460.776 452.933C460.776 454.274 461.173 455.584 461.918 456.699C462.663 457.813 463.722 458.682 464.961 459.194C466.2 459.707 467.563 459.84 468.878 459.577C470.193 459.315 471.4 458.668 472.347 457.719C473.294 456.77 473.938 455.562 474.198 454.247C474.458 452.932 474.322 451.569 473.807 450.331C473.292 449.093 472.422 448.036 471.306 447.293C470.19 446.55 468.878 446.155 467.538 446.158C466.646 446.149 465.762 446.318 464.936 446.655C464.111 446.993 463.361 447.492 462.731 448.123C462.101 448.754 461.604 449.505 461.268 450.331C460.932 451.157 460.765 452.041 460.776 452.933Z" fill="#263238"/>
<path d="M402.099 450.764C402.099 452.107 402.498 453.42 403.246 454.536C403.995 455.652 405.058 456.52 406.3 457.031C407.543 457.541 408.91 457.671 410.226 457.403C411.542 457.135 412.75 456.481 413.694 455.526C414.638 454.57 415.277 453.355 415.529 452.036C415.782 450.716 415.636 449.351 415.111 448.115C414.586 446.878 413.705 445.826 412.58 445.091C411.455 444.356 410.137 443.972 408.794 443.988C407.011 444.009 405.308 444.733 404.055 446.001C402.801 447.269 402.099 448.981 402.099 450.764Z" fill="#263238"/>
<path d="M482.306 443.828C482.157 444.599 481.739 445.292 481.125 445.782C480.512 446.273 479.744 446.53 478.959 446.506L408.325 445.542L342.163 447.041C341.341 447.058 340.543 446.766 339.925 446.224C339.307 445.682 338.914 444.928 338.823 444.111C338.733 443.294 338.951 442.472 339.435 441.808C339.919 441.144 340.634 440.684 341.44 440.52L377.594 433.504C381.343 432.804 385.148 432.45 388.962 432.446H427.794C431.604 432.449 435.405 432.803 439.149 433.504L479.749 440.011C480.59 440.186 481.329 440.684 481.807 441.397C482.285 442.111 482.465 442.983 482.306 443.828Z" fill="#263238"/>
<path d="M420.323 373.474H396.3V442.635H420.323V373.474Z" fill="#263238"/>
<path d="M416.881 329.661H399.755V373.823H416.881V329.661Z" fill="#263238"/>
<path opacity="0.2" d="M399.755 337.843L416.881 342.154V329.661H399.755V337.843Z" fill="black"/>
<path d="M401.429 298.234V329.46H310.241C308.261 329.465 306.315 328.944 304.601 327.95C302.888 326.957 301.469 325.527 300.489 323.807C299.509 322.086 299.003 320.136 299.022 318.156C299.042 316.175 299.586 314.236 300.6 312.535C303.175 308.182 306.84 304.574 311.233 302.066C315.625 299.559 320.595 298.238 325.653 298.234H401.429Z" fill="#407BFF"/>
<path opacity="0.2" d="M401.429 298.234V329.46H310.241C308.261 329.465 306.315 328.944 304.601 327.95C302.888 326.957 301.469 325.527 300.489 323.807C299.509 322.086 299.003 320.136 299.022 318.156C299.042 316.175 299.586 314.236 300.6 312.535C303.175 308.182 306.84 304.574 311.233 302.066C315.625 299.559 320.595 298.238 325.653 298.234H401.429Z" fill="white"/>
<path d="M419.787 182.595C419.56 183.599 419.412 184.62 419.345 185.648L409.316 328.925H395.484L405.5 185.648C405.493 185.536 405.493 185.424 405.5 185.313L419.787 182.595Z" fill="#407BFF"/>
<path opacity="0.2" d="M419.787 182.595C419.56 183.599 419.412 184.62 419.345 185.648L409.316 328.925H395.484L405.5 185.648C405.493 185.536 405.493 185.424 405.5 185.313L419.787 182.595Z" fill="white"/>
<path d="M483.391 329.487V329.648H481.061C481.841 329.649 482.619 329.595 483.391 329.487Z" fill="#263238"/>
<path d="M514.189 181.684L514.35 164.652C514.437 159.937 512.756 155.36 509.637 151.824L499.581 140.482L495.979 112.108C495.727 109.987 494.697 108.036 493.09 106.631C491.482 105.226 489.41 104.467 487.275 104.502H462.288C460.274 104.526 458.312 105.142 456.646 106.273C454.979 107.404 453.682 109 452.915 110.863L440.315 141.379L419.479 153.685C416.849 155.228 414.564 157.294 412.765 159.757C410.966 162.219 409.692 165.024 409.022 167.999L405.219 185.407H405.513L419.761 182.729C419.533 183.733 419.385 184.754 419.319 185.782L409.289 329.059H487.717C488.501 329.059 489.284 329.006 490.06 328.898C493.997 328.295 497.615 326.38 500.327 323.463C503.04 320.547 504.688 316.8 505.004 312.829L513.975 184.429C514.035 183.511 514.035 182.589 513.975 181.671L514.189 181.684ZM448.644 170.851L424.26 173.155L423.202 173.262L426.576 162.174L443.328 154.408L448.911 151.81L449.795 154.408L449.942 154.85L450.759 157.247L448.644 170.851ZM496.554 171.146L493.568 170.369C493.568 169.432 493.461 168.468 493.408 167.517C493.1 162.161 492.845 157.207 492.845 157.207L493.207 155.452L493.957 151.77L504.776 162.188V173.275L496.554 171.146Z" fill="#407BFF"/>
</svg>
