<svg width="80" height="80" viewBox="0 0 80 80" fill="none" xmlns="http://www.w3.org/2000/svg">
<path d="M40 80C62.0914 80 80 62.0914 80 40C80 17.9086 62.0914 0 40 0C17.9086 0 0 17.9086 0 40C0 62.0914 17.9086 80 40 80Z" fill="#6C27B3"/>
<path d="M58.5485 20.7692C53.7693 21.3742 48.7861 21.3531 43.7711 20.8756C36.7677 20.3368 26.5321 17.1045 22.761 23.5692C16.7029 33.9185 19.6908 47.1684 21.1026 58.8939L42.1552 79.942C62.5283 78.8603 78.8561 62.5346 79.9413 42.1623L58.5485 20.7692Z" fill="#501A96"/>
<path d="M49.2542 17.1045H30.7456C23.2237 17.1045 17.1044 23.2239 17.1044 30.7457V49.2543C17.1044 56.7759 23.2237 62.8957 30.7458 62.8957H49.2544C56.7759 62.8957 62.8958 56.7762 62.8958 49.2543V30.7457C62.8956 23.2239 56.7761 17.1045 49.2542 17.1045ZM58.2891 49.2545C58.2891 54.2442 54.2441 58.2892 49.2544 58.2892H30.7458C25.7561 58.2892 21.7111 54.2442 21.7111 49.2545V30.7459C21.7111 25.7562 25.7561 21.7111 30.7458 21.7111H49.2544C54.2441 21.7111 58.2891 25.7564 58.2891 30.7459V49.2545Z" fill="white"/>
<path d="M40.0001 28.1565C33.4697 28.1565 28.1566 33.4696 28.1566 39.9999C28.1566 46.5298 33.4697 51.8429 40.0001 51.8429C46.5304 51.8429 51.843 46.5302 51.843 39.9999C51.843 33.4696 46.5304 28.1565 40.0001 28.1565ZM40.0001 47.2363C36.0033 47.2363 32.7632 43.9968 32.7632 39.9999C32.7632 36.0031 36.0033 32.7631 40.0001 32.7631C43.9968 32.7631 47.2365 36.0029 47.2365 39.9999C47.2365 43.9967 43.9968 47.2363 40.0001 47.2363Z" fill="white"/>
<path d="M54.7036 28.2459C54.7036 29.8131 53.433 31.0839 51.8657 31.0839C50.2985 31.0839 49.0277 29.8131 49.0277 28.2459C49.0277 26.6786 50.2985 25.408 51.8657 25.408C53.4333 25.408 54.7036 26.6783 54.7036 28.2459Z" fill="#D1D1D1"/>
<path d="M49.2543 17.1045H39.9103V21.7111H49.2543C54.244 21.7111 58.289 25.7564 58.289 30.7459V49.2545C58.289 54.2442 54.244 58.2892 49.2543 58.2892H39.9103V62.8957H49.2543C56.7759 62.8957 62.8956 56.7762 62.8956 49.2543V30.7457C62.8956 23.2239 56.7761 17.1045 49.2543 17.1045Z" fill="#D1D1D1"/>
<path d="M40 28.1565C39.9698 28.1565 39.9404 28.1587 39.9103 28.1587V32.7652C39.9401 32.7649 39.9698 32.7631 40 32.7631C43.9967 32.7631 47.2364 36.0029 47.2364 39.9999C47.2364 43.9967 43.9968 47.2363 40 47.2363C39.9698 47.2363 39.9401 47.2345 39.9103 47.2342V51.8407C39.9404 51.841 39.9698 51.8429 40 51.8429C46.5303 51.8429 51.8429 46.5301 51.8429 39.9999C51.8429 33.4696 46.5303 28.1565 40 28.1565Z" fill="#D1D1D1"/>
</svg>
