<svg width="68" height="73" viewBox="0 0 68 73" fill="none" xmlns="http://www.w3.org/2000/svg">
<path fill-rule="evenodd" clip-rule="evenodd" d="M44.9104 36.1006C45.1978 36.0994 45.4822 36.0466 45.7473 35.9452C46.0124 35.8437 46.2529 35.6956 46.4553 35.5093C46.6577 35.323 46.8178 35.1021 46.9267 34.8593C47.0355 34.6165 47.0909 34.3565 47.0896 34.0942V29.8755C49.5602 29.3997 51.7762 28.1625 53.3653 26.3716C54.9543 24.5806 55.8197 22.3452 55.816 20.0407C55.8249 17.3904 54.6819 14.845 52.6375 12.9628C50.5931 11.0805 47.8143 10.0151 44.9104 10C42.0057 10.0139 39.2256 11.0789 37.1802 12.9613C35.1348 14.8436 33.9911 17.3897 34 20.0407C33.9954 22.3454 34.8604 24.5813 36.4496 26.3723C38.0389 28.1634 40.2553 29.4005 42.7264 29.8755V34.0942C42.7264 35.2025 43.7008 36.1006 44.9104 36.1006Z" fill="#FFCC00"/>
<path fill-rule="evenodd" clip-rule="evenodd" d="M31.0336 14.0171C19.1968 15.3664 10 24.6623 10 35.9165C10 48.095 20.7664 57.9999 34 57.9999C47.2336 57.9999 58 48.0906 58 35.9165C58.0001 33.4861 57.5623 31.0722 56.704 28.7715C55.6672 29.928 54.4288 30.9181 53.0464 31.7241C53.4016 33.0865 53.6368 34.484 53.6368 35.9165C53.6368 38.7859 52.888 41.4932 51.5872 43.9026C47.1712 46.0974 45.2656 44.8445 43.288 43.4821C41.896 42.5183 39.9904 41.2041 37.5664 42.0802C36.3838 42.5021 35.3085 43.1407 34.4069 43.9567C33.5054 44.7727 32.7968 45.7488 32.3248 46.8246C31.384 48.8879 31.1872 51.4112 31.6912 53.8513C27.4781 53.3874 23.5453 51.6835 20.488 48.9975C22.12 46.0054 21.976 42.9345 20.008 40.2622C19.4635 39.5456 18.8704 38.8609 18.232 38.212C17.9901 37.963 17.8136 37.6669 17.7159 37.3463C17.6181 37.0257 17.6017 36.689 17.6679 36.3617C17.734 36.0344 17.8811 35.7252 18.0977 35.4575C18.3144 35.1899 18.5951 34.9708 18.9184 34.8169C20.6656 34.0109 22.672 33.1303 23.9008 31.6672C26.752 28.2765 23.6464 23.1072 22.9984 22.1084C22.8208 21.8367 22.6288 21.5914 22.4416 21.3373C24.5872 19.8917 27.064 18.8447 29.7376 18.2883C29.92 16.777 30.3712 15.3445 31.0336 14.0171" fill="white"/>
</svg>
