<svg width="48" height="53" viewBox="0 0 48 53" fill="none" xmlns="http://www.w3.org/2000/svg">
<path fill-rule="evenodd" clip-rule="evenodd" d="M34.9104 26.1006C35.1978 26.0994 35.4822 26.0466 35.7473 25.9452C36.0124 25.8437 36.2529 25.6956 36.4553 25.5093C36.6577 25.323 36.8178 25.1021 36.9267 24.8593C37.0355 24.6165 37.0909 24.3565 37.0896 24.0942V19.8755C39.5602 19.3997 41.7762 18.1625 43.3653 16.3716C44.9543 14.5806 45.8197 12.3452 45.816 10.0407C45.8249 7.39041 44.6819 4.84504 42.6375 2.9628C40.5931 1.08055 37.8143 0.0150658 34.9104 0C32.0057 0.0139099 29.2256 1.07888 27.1802 2.96126C25.1348 4.84363 23.9911 7.38965 24 10.0407C23.9954 12.3454 24.8604 14.5813 26.4496 16.3723C28.0389 18.1634 30.2553 19.4005 32.7264 19.8755V24.0942C32.7264 25.2025 33.7008 26.1006 34.9104 26.1006Z" fill="#FFCC00"/>
<path fill-rule="evenodd" clip-rule="evenodd" d="M21.0336 4.01709C9.1968 5.36636 0 14.6623 0 25.9165C0 38.095 10.7664 47.9999 24 47.9999C37.2336 47.9999 48 38.0906 48 25.9165C48.0001 23.4861 47.5623 21.0722 46.704 18.7715C45.6672 19.928 44.4288 20.9181 43.0464 21.7241C43.4016 23.0865 43.6368 24.484 43.6368 25.9165C43.6368 28.7859 42.888 31.4932 41.5872 33.9026C37.1712 36.0974 35.2656 34.8445 33.288 33.4821C31.896 32.5183 29.9904 31.2041 27.5664 32.0802C26.3838 32.5021 25.3085 33.1407 24.4069 33.9567C23.5054 34.7727 22.7968 35.7488 22.3248 36.8246C21.384 38.8879 21.1872 41.4112 21.6912 43.8513C17.4781 43.3874 13.5453 41.6835 10.488 38.9975C12.12 36.0054 11.976 32.9345 10.008 30.2622C9.46351 29.5456 8.87035 28.8609 8.232 28.212C7.99013 27.963 7.81362 27.6669 7.71588 27.3463C7.61813 27.0257 7.60172 26.689 7.66788 26.3617C7.73405 26.0344 7.88105 25.7252 8.09773 25.4575C8.31441 25.1899 8.59507 24.9708 8.9184 24.8169C10.6656 24.0109 12.672 23.1303 13.9008 21.6672C16.752 18.2765 13.6464 13.1072 12.9984 12.1084C12.8208 11.8367 12.6288 11.5914 12.4416 11.3373C14.5872 9.89169 17.064 8.84469 19.7376 8.28833C19.92 6.77697 20.3712 5.34446 21.0336 4.01709Z" fill="white"/>
</svg>
