<svg width="90" height="76" viewBox="0 0 90 76" fill="none" xmlns="http://www.w3.org/2000/svg">
<path d="M45.2557 24.6457C44.8597 24.6694 44.8259 24.6999 44.6161 24.7066C44.2066 24.7099 43.8009 24.628 43.4247 24.4663C42.2199 24.0027 41.015 22.8147 40.9405 22.7436C40.1943 21.9842 39.5596 21.1227 39.0554 20.185C38.6657 19.4696 38.3494 18.7167 38.1111 17.9377C36.7065 16.5636 36.517 15.6396 36.6253 15.0372C36.7505 14.5038 36.9203 13.9819 37.133 13.477L37.089 13.5954C37.1499 13.3348 37.2142 13.0708 37.2785 12.8068L37.5865 11.954L37.7388 11.3854C37.7659 11.0469 37.793 10.7085 37.8234 10.37L37.908 10.0654C38.0611 8.97647 38.0816 7.87297 37.969 6.7791C37.9453 6.55572 37.9148 6.33911 37.8843 6.12589L35.2106 4.48104L45.3031 0L55.399 4.36258L52.1939 6.4305L52.1228 8.03812L52.3259 8.34611L52.3868 8.59317L52.6 8.93162L52.7794 9.18545C52.8606 9.36145 52.9385 9.5239 53.0163 9.71005C53.0163 9.93004 53.0163 10.1466 52.9994 10.3633C53.0945 10.9895 53.1442 11.6218 53.1483 12.2552C53.1483 12.5632 53.1483 12.8576 53.1246 13.1385C53.596 13.6022 53.869 14.2307 53.8861 14.8917C53.8861 15.132 53.8354 15.0677 53.6323 15.907C53.3548 17.0408 53.3209 17.6365 52.908 17.8159C52.8425 17.8442 52.7727 17.8614 52.7016 17.8666C52.2203 19.2912 51.4468 20.5996 50.4306 21.708C50.2444 21.9077 49.9568 22.1311 49.4626 22.6286C48.7857 23.3055 48.5691 23.6033 48.2578 23.8538C48.1675 23.925 48.0738 23.9916 47.9768 24.0534C47.7015 24.2288 47.4046 24.3676 47.0935 24.4663C46.8059 24.5516 46.5096 24.6038 46.2101 24.622C45.8446 24.6525 45.7566 24.6153 45.2557 24.6457Z" fill="#004AEF"/>
<path d="M52.2912 16.7404C51.9899 17.2311 51.665 17.3191 51.11 18.0942C50.714 18.656 50.7715 18.7068 50.3316 19.5461C49.893 20.3951 49.3101 21.1613 48.6089 21.8103C48.293 22.1041 47.9534 22.3713 47.5935 22.6091C47.3403 22.7962 47.0667 22.9541 46.7779 23.0795C46.3971 23.2467 45.995 23.3606 45.5831 23.418C45.5425 23.418 45.4308 23.418 45.2921 23.418C45.1715 23.4265 45.0505 23.4265 44.9299 23.418C44.7933 23.4058 44.6589 23.3751 44.5306 23.3266C44.222 23.2311 43.9192 23.1181 43.6235 22.9881C43.2877 22.8398 42.9611 22.6714 42.6454 22.4838C42.0938 22.1196 41.6104 21.6614 41.2172 21.1301C40.7347 20.547 40.3255 19.9071 39.9988 19.2246C39.7489 18.6903 39.5528 18.1325 39.4133 17.5594L38.5976 17.3767C38.2226 16.7031 38.005 15.9533 37.9613 15.1835C37.9337 15.021 37.9405 14.8545 37.9813 14.6947C38.0221 14.535 38.096 14.3856 38.1982 14.2562C38.3765 14.0906 38.6083 13.9945 38.8514 13.9854C38.8853 13.647 38.9225 13.2713 38.9597 12.9159C39.2892 12.2306 39.8489 11.6828 40.541 11.3679C41.2332 11.0531 42.0139 10.9913 42.747 11.1932L43.3122 11.3218C44.3703 11.592 45.4794 11.592 46.5376 11.3218C47.0363 11.2489 47.5396 11.2115 48.0437 11.2102C48.4318 11.1941 48.8206 11.2009 49.2079 11.2305C49.4764 11.2356 49.7429 11.2778 49.9999 11.3557C50.4399 11.531 50.8009 11.8607 51.0152 12.283C51.3507 12.6931 51.5641 13.1892 51.6312 13.7147C51.6493 13.8526 51.6561 13.9919 51.6515 14.131L52.4841 14.2223C52.7988 15.5321 52.5653 16.2903 52.2912 16.7404Z" fill="white"/>
<path d="M35.8652 5.00928V5.64558L35.6113 5.77081V6.53234L35.8855 6.51542L35.8652 10.34L35.6317 10.5228C35.6317 11.4163 35.608 12.3132 35.5944 13.2067L35.8652 13.1864C35.8652 13.5249 35.8923 13.8397 35.9024 14.168L36.3018 14.1307C36.3018 13.7144 36.3255 13.2981 36.339 12.8784H36.6098L36.5726 11.7751L36.3018 11.8089L36.3729 6.49849L36.6267 6.47819C36.6267 6.2548 36.6267 6.03142 36.6267 5.80127L36.0649 5.70989L35.9329 5.66927" fill="#407BFF"/>
<path d="M40.0562 37.0228L40.8076 38.0145C42.0668 37.0466 43.6074 36.516 45.1956 36.5032C46.7838 36.4903 48.3328 36.996 49.6075 37.9434L50.3081 37.0465C48.8271 35.9452 47.0316 35.3485 45.186 35.3443C43.3405 35.34 41.5423 35.9284 40.0562 37.0228Z" fill="#407BFF"/>
<path d="M41.3848 38.6203L42.0381 39.5138C42.9953 38.927 44.0949 38.6134 45.2178 38.6068C46.3406 38.6002 47.4438 38.901 48.4078 39.4766L48.99 38.644C47.8839 37.8456 46.5554 37.4139 45.1912 37.4097C43.8271 37.4054 42.4959 37.8288 41.3848 38.6203Z" fill="#407BFF"/>
<path d="M42.1026 48.8347L41.5239 49.7519C42.6585 50.4902 43.9788 50.8924 45.3323 50.9122C46.6858 50.9319 48.0173 50.5684 49.173 49.8636L48.5198 48.9193C47.5463 49.5036 46.4297 49.8063 45.2944 49.7937C44.1591 49.7812 43.0495 49.4539 42.0891 48.8483L42.1026 48.8347Z" fill="#407BFF"/>
<path d="M40.5632 50.4287L40.0318 51.6133C41.544 52.6947 43.3556 53.2781 45.2147 53.2824C47.0738 53.2866 48.8881 52.7115 50.4052 51.637L49.7012 50.4998C48.3664 51.4562 46.7627 51.9647 45.1206 51.9519C43.4786 51.9391 41.8829 51.4058 40.5632 50.4287Z" fill="#407BFF"/>
<path d="M43.8133 39.5988C41.5118 40.313 40.7334 42.5976 40.6928 42.7194C40.4263 43.5451 40.3869 44.4273 40.5787 45.2735C40.7704 46.1197 41.1862 46.8987 41.7826 47.5289C43.4478 49.2516 45.7189 48.947 45.9152 48.92C46.6348 48.8059 47.3194 48.5308 47.9178 48.1151C48.5162 47.6994 49.0129 47.1539 49.3709 46.5193C49.7289 45.8847 49.9389 45.1774 49.9851 44.4503C50.0314 43.7231 49.9128 42.9949 49.6382 42.32C48.721 40.1302 46.5278 39.5819 46.2536 39.5142C45.4466 39.3311 44.6058 39.3602 43.8133 39.5988Z" fill="#407BFF"/>
<path d="M45.1688 40.3834C47.2198 40.3462 48.7158 42.0757 48.9866 43.6732C49.0927 44.3349 49.0094 45.0132 48.7463 45.6295C48.4177 46.3483 47.8844 46.9543 47.2132 47.3715C46.5419 47.7887 45.7625 47.9986 44.9725 47.975C43.7811 47.9344 42.3562 47.3252 41.7097 46.0154C41.3557 45.2603 41.279 44.4047 41.4931 43.5988C41.8214 42.2043 43.1008 40.4206 45.1688 40.3834Z" fill="white"/>
<path d="M9.64746 10.5532L17.0425 7.44629L24.4884 10.78L22.17 12.2319C22.2409 12.9092 22.3944 13.5752 22.6269 14.2152C22.8853 14.8334 23.088 15.4733 23.2327 16.1275C23.297 16.4388 23.3343 16.6961 23.3546 16.8653C23.3546 17.1597 23.3884 17.4576 23.4087 17.752L23.226 19.7996C23.0734 20.4352 22.8615 21.055 22.5931 21.6509C21.8841 23.1464 20.7997 24.4326 19.4455 25.384C19.1085 25.6304 18.757 25.8564 18.3929 26.0609C18.1059 26.1175 17.8153 26.1537 17.5231 26.1692C16.9131 26.1915 16.3029 26.1311 15.7091 25.9898C15.5102 25.9391 15.3164 25.87 15.1303 25.7834C15.0038 25.7245 14.8816 25.6566 14.7648 25.5803C14.4124 25.3082 14.1071 24.9801 13.8611 24.6089C13.5227 24.2062 13.5024 24.2705 13.2079 23.9321C12.8871 23.5495 12.6164 23.1275 12.4024 22.6764L11.404 20.9842C11.2585 20.5645 11.1163 20.1482 10.9708 19.7319L10.7102 17.7723L11.3871 17.4339C11.3871 17.4136 11.2415 15.454 11.2415 15.454L11.7255 15.4032L11.9184 12.1846L9.64746 10.5532Z" fill="#407BFF"/>
<path d="M13.8044 15.8222C14.6539 15.4364 15.3917 16.3367 17.0941 16.1607C17.6796 16.0997 17.6897 15.9914 18.3497 15.9204C19.228 15.8236 20.1167 15.9053 20.9625 16.1607C21.4652 16.5862 21.8479 17.1357 22.0726 17.7547C22.2015 18.1172 22.2734 18.4973 22.2859 18.8818C22.2419 19.1119 22.1674 19.4673 22.0489 19.8971C21.7511 20.9734 21.3721 22.4118 20.2349 23.62C19.7272 24.1727 19.1256 24.631 18.458 24.9738L15.6895 24.9129C14.5853 23.8908 13.6203 22.7278 12.8195 21.454C12.5408 20.9275 12.2988 20.3825 12.0952 19.8227C11.7568 19.0002 11.6518 18.6076 11.8414 18.3166C11.9669 18.1498 12.1505 18.0362 12.3558 17.9984C12.5589 17.1895 12.9549 16.208 13.8044 15.8222Z" fill="white"/>
<path d="M27.0538 49.1827L4.57079 48.8916C3.43135 44.3294 2.28289 39.7649 1.1254 35.1981C0.994485 34.6967 0.965711 34.1742 1.04079 33.6615C1.15924 32.8459 1.13555 32.4059 1.71768 31.9693C2.29981 31.5327 19.5437 32.0031 28.455 32.0201" stroke="#407BFF" stroke-miterlimit="10"/>
<path d="M65.7068 10.8676L73.1053 7.74707L80.5748 10.9386L78.3343 12.4616L79.0349 14.6615C79.1632 15.2509 79.2436 15.8496 79.2752 16.4519C79.2766 16.7799 79.3256 17.106 79.4207 17.4199C79.5382 17.7176 79.682 18.0041 79.8506 18.2762C80.0029 18.6146 80.0536 19.19 79.5764 20.1275C79.518 20.2733 79.4513 20.4157 79.3767 20.5539C79.2676 20.7676 79.1455 20.9744 79.0112 21.1733C78.7235 21.5963 78.6355 21.7486 78.5035 21.9449C77.1971 23.8673 76.1039 25.4817 74.3508 26.0063C73.8036 26.1746 73.2285 26.2332 72.6586 26.1789C72.1276 26.0241 71.6207 25.7963 71.1525 25.502C69.9476 24.754 69.2335 23.6981 68.4449 22.5169C68.1707 22.1142 67.8797 21.6437 67.8797 21.6437C67.6022 21.1936 67.3822 20.8111 67.2299 20.5336C67.0771 20.2643 66.9425 19.985 66.8271 19.6976C66.8271 19.657 66.8271 19.6164 66.8271 19.6164C66.8271 19.5386 66.8271 19.4709 66.7831 18.8448C66.7391 18.2186 66.6985 17.9546 66.8542 17.7922C66.9186 17.7361 66.994 17.6941 67.0756 17.669C67.1573 17.644 67.2432 17.6363 67.328 17.6467L67.5446 16.4519C67.5818 16.2083 67.6157 15.968 67.6529 15.7243C67.7206 14.5668 67.7849 13.4059 67.8526 12.245L65.7068 10.8676Z" fill="#407BFF"/>
<path d="M69.7712 16.2151L70.641 16.161C72.9492 16.0391 77.0038 16.188 77.1967 16.3167C77.3897 16.4453 77.6672 17.0172 77.8736 17.4843C77.9278 17.6163 77.9718 17.7551 78.0192 17.8667C78.0665 17.9784 78.2899 18.1307 78.4253 18.2627C78.6765 18.736 78.7474 19.2844 78.625 19.806C78.5548 20.0506 78.4401 20.2801 78.2865 20.4829C77.8634 21.3666 77.3337 22.1952 76.7094 22.9502C76.4751 23.2345 76.2266 23.5067 75.9648 23.7659C75.2507 24.4698 74.7362 24.9741 73.9713 25.1806C73.4707 25.3066 72.946 25.3007 72.4483 25.1637C71.4366 24.5429 70.5409 23.7503 69.8017 22.8216C69.3665 22.2772 68.9899 21.6884 68.678 21.0651C68.4817 20.7638 68.2888 20.4592 68.0959 20.158C68.0959 19.5894 68.0587 19.0208 68.0417 18.4658L68.3497 17.7246C68.4597 17.3847 68.6437 17.0734 68.8883 16.813C69.1329 16.5526 69.4321 16.3495 69.7644 16.2185L69.7712 16.2151Z" fill="white"/>
<path d="M61.1396 31.6319C61.1212 30.6746 61.3547 29.7292 61.8165 28.8905C62.5321 27.6591 63.6827 26.7403 65.0419 26.3149L68.5245 26.122C68.8692 26.6302 69.3343 27.0453 69.8783 27.3302C70.3863 27.5615 70.9299 27.7046 71.4859 27.7533C72.1189 27.8472 72.7583 27.8914 73.3982 27.8853C73.5437 27.8853 73.7062 27.8853 73.9938 27.8853C74.6707 27.8853 74.6978 27.9293 74.9686 27.8853C75.3192 27.849 75.6618 27.7577 75.9839 27.6145C76.2207 27.5254 76.4475 27.412 76.6608 27.2761C77.0056 27.078 77.3026 26.8065 77.5306 26.4807C77.6172 26.3487 77.6898 26.2081 77.7472 26.061L81.4938 26.1524C82.9452 26.7695 84.1286 27.8845 84.8309 29.2966C85.2234 30.122 85.4324 31.0226 85.4435 31.9365" fill="#004AEF"/>
<path d="M61.5019 31.8135L88.0464 32.1012C88.3589 32.1532 88.6398 32.3227 88.8316 32.575C88.9669 32.7679 89.0245 33.0014 88.9906 33.5632C88.9523 34.1518 88.8385 34.7331 88.6522 35.2927C87.691 39.6248 86.7321 43.9558 85.7754 48.2857C85.685 48.549 85.5101 48.7751 85.2779 48.9287C84.993 49.0916 84.6607 49.1513 84.337 49.098C83.5518 49.0032 75.1684 48.9829 63.3262 48.9897" stroke="#407BFF" stroke-miterlimit="10"/>
<path d="M63.2157 49.5959L86.2809 49.6907C86.3842 49.7339 86.4742 49.8036 86.542 49.8927C86.6097 49.9819 86.6528 50.0873 86.6667 50.1984C86.6562 50.3807 86.5743 50.5514 86.4387 50.6737C86.3031 50.796 86.1248 50.8599 85.9424 50.8516L62.9991 50.9497" fill="#407BFF"/>
<path d="M16.4999 71.0268L18.0229 71.1351C18.0094 66.9045 17.997 62.6739 17.9857 58.4433L19.6779 67.8724L21.6341 67.9808L23.3264 58.1658C23.3602 62.4708 23.3963 66.7736 23.4347 71.0742L24.8494 71.1114C24.8562 66.3483 24.8528 61.5976 24.8392 56.8594L22.372 57.0049L20.7779 66.6168C20.1371 63.4106 19.4963 60.2066 18.8555 57.0049L16.4864 56.9711L16.4999 71.0268Z" fill="#004AEF"/>
<path d="M27.1967 61.2583L27.8736 62.1992C27.9855 61.892 28.1841 61.6239 28.4452 61.4271C28.7063 61.2304 29.0188 61.1135 29.3449 61.0906C29.6711 61.0677 29.9969 61.1397 30.2829 61.298C30.569 61.4563 30.803 61.6941 30.9568 61.9826V65.0659C30.7033 64.8251 30.3989 64.6445 30.0662 64.5373C29.7334 64.4301 29.3808 64.399 29.0345 64.4465C28.6623 64.524 28.3142 64.69 28.0197 64.9303C27.7252 65.1706 27.4928 65.4783 27.3422 65.8274C27.2064 66.7141 27.1701 67.6131 27.2339 68.5079C27.2767 69.0942 27.3615 69.6767 27.4878 70.2509C27.6508 70.6199 27.9245 70.9292 28.2711 71.1358C28.6176 71.3425 29.0198 71.4363 29.422 71.4043C29.8242 71.3724 30.2065 71.2162 30.516 70.9574C30.8256 70.6986 31.047 70.35 31.1498 69.9598L31.2953 71.4456L32.3479 71.4828C32.4088 68.2676 32.4686 65.0523 32.5272 61.8371C32.49 61.7186 31.9654 60.2667 30.4965 59.8775C29.8712 59.7302 29.2152 59.7845 28.6226 60.0325C28.0299 60.2805 27.5308 60.7096 27.1967 61.2583Z" fill="#004AEF"/>
<path d="M28.7939 66.2378C28.6891 66.5179 28.6275 66.8124 28.6111 67.111C28.4622 68.2449 28.5502 68.6882 28.6111 68.9218C28.6384 69.0372 28.6746 69.1504 28.7194 69.2602C28.8176 69.4802 29.0579 70.0759 29.5926 70.1673C29.7821 70.1962 29.9758 70.1745 30.1541 70.1043C30.3324 70.0342 30.489 69.9181 30.608 69.7679C30.7334 69.5381 30.83 69.2937 30.8957 69.0402C30.9905 68.6849 30.9972 68.3972 30.9702 67.4089C30.9702 67.1042 30.9498 66.7523 30.9329 66.3596C30.843 66.0972 30.6711 65.8706 30.4426 65.7133C30.214 65.5561 29.941 65.4765 29.6637 65.4864C29.4714 65.538 29.2933 65.6323 29.1427 65.7625C28.9921 65.8926 28.8728 66.0551 28.7939 66.2378Z" fill="white"/>
<path d="M35.5369 60.5106C35.0563 60.7576 34.7754 61.3567 34.7754 62.4296C34.7754 62.4702 34.2847 68.5893 34.921 69.8754L35.1376 70.3086C35.2323 70.4203 36.2071 71.5473 37.5067 71.3984C38.8605 71.2427 40.0349 69.7739 39.8995 67.9158L38.7759 67.8819C38.9891 69.2357 38.1362 70.224 37.3984 70.2511C36.867 70.2511 36.3052 69.7603 36.0209 69.053C35.9313 67.2277 35.98 65.3982 36.1664 63.5803C36.2341 62.9034 36.3221 62.2502 36.4203 61.6207C36.7187 61.4364 37.0704 61.3576 37.4189 61.3969C37.7674 61.4362 38.0927 61.5912 38.3427 61.8373C38.502 62.0249 38.6156 62.247 38.6743 62.4861C38.733 62.7252 38.7354 62.9746 38.6811 63.2148L39.8792 63.2892C39.9063 63.1741 40.2481 61.7459 39.3343 60.7509C38.4408 59.7863 36.8163 59.6272 35.5369 60.5106Z" fill="#004AEF"/>
<path d="M42.0284 56.2666V71.0974H43.5514C43.5514 69.369 43.5627 67.6407 43.5852 65.9123L46.3774 71.2429L47.7921 71.1718L45.0372 64.6432L47.5349 60.3652L45.9747 60.328L43.5819 64.3893L43.5108 56.3038L42.0284 56.2666Z" fill="#004AEF"/>
<path d="M49.3543 69.6494C49.0599 68.7898 48.9583 68.0181 48.9177 66.265C48.8737 64.2343 48.85 63.219 49.0632 62.5421C49.3238 61.6959 49.6995 60.5114 50.6946 60.0748C51.9671 59.5197 53.6627 60.1154 54.4682 61.5978C54.5393 61.9362 54.6104 62.251 54.6848 62.5759L54.6442 66.2751L50.5456 66.2041C50.5592 67.2194 50.5716 68.2347 50.5829 69.2501C50.8638 69.9879 51.5271 70.4177 52.0687 70.3365C52.7659 70.2316 53.4224 69.2636 53.0501 68.1975L54.6442 68.1264C54.695 69.6393 53.8049 70.9559 52.5425 71.3518C52.0937 71.4707 51.6243 71.4901 51.1672 71.4089C50.7101 71.3276 50.2762 71.1476 49.8958 70.8814C49.6798 70.4873 49.4986 70.0751 49.3543 69.6494Z" fill="#004AEF"/>
<path d="M50.4763 65.1145H53.184C53.1569 64.3428 53.1332 63.5677 53.1095 62.796C53.1332 61.8416 52.4326 61.141 51.8031 61.1275C51.1025 61.1105 50.3003 61.9397 50.4492 63.0127L50.4763 65.1145Z" fill="white"/>
<path d="M60.7776 68.559C60.848 68.7407 60.8784 68.9356 60.8667 69.1302C60.8549 69.3248 60.8012 69.5146 60.7093 69.6865C60.6174 69.8585 60.4895 70.0086 60.3342 70.1265C60.179 70.2444 60.0001 70.3274 59.8098 70.3698C59.6195 70.4122 59.4222 70.413 59.2316 70.3722C59.041 70.3313 58.8614 70.2497 58.7052 70.1331C58.549 70.0164 58.4198 69.8673 58.3266 69.6961C58.2333 69.5249 58.1781 69.3356 58.1647 69.1411V66.4572L62.1923 66.491V62.4297C62.0095 61.2756 61.2886 60.3144 60.341 60.0368C58.9872 59.6375 57.1968 60.6596 56.7534 62.5752C56.7873 65.0797 56.8234 67.582 56.8617 70.082C57.1012 70.5906 57.481 71.0201 57.9566 71.32C58.4321 71.6198 58.9835 71.7774 59.5456 71.7742C60.9772 71.7065 62.2532 70.3527 62.2532 68.6199L60.7776 68.559Z" fill="#004AEF"/>
<path d="M58.3469 65.3208L60.8481 65.3919C60.8481 64.3765 60.8718 63.3848 60.8853 62.383C60.8655 62.2015 60.8085 62.0261 60.7178 61.8677C60.6272 61.7092 60.5048 61.5712 60.3583 61.4623C60.2119 61.3533 60.0445 61.2757 59.8667 61.2344C59.6889 61.1931 59.5045 61.1889 59.325 61.2221C59.0195 61.3089 58.7559 61.5036 58.5829 61.7699C58.4099 62.0363 58.3392 62.3563 58.3841 62.6707L58.3469 65.3208Z" fill="white"/>
<path d="M64.6542 71.4596C64.6068 68.1361 64.5583 64.8125 64.5087 61.489L63.7472 61.5262V60.1115L64.8573 60.0878L64.7997 57.3193C65.06 56.8341 65.4596 56.438 65.9471 56.1821C66.6182 55.8548 67.3906 55.8026 68.0996 56.0366L68.1233 57.2313C67.9045 57.0512 67.6289 56.9547 67.3456 56.959C67.0623 56.9634 66.7897 57.0683 66.5766 57.255C66.4483 57.4021 66.3573 57.5779 66.3114 57.7676C66.2654 57.9573 66.2658 58.1553 66.3126 58.3448C66.3126 58.91 66.3126 59.4718 66.3126 60.037H67.619L67.6427 61.6108H66.3126C66.3397 64.8328 66.3679 68.056 66.3972 71.2802L64.5594 71.3175" fill="#004AEF"/>
<path d="M66.3496 11.4839V12.0728H66.0416L66.0754 12.5873H66.3394L66.3597 14.8651H65.94V17.874L66.5493 17.8943L66.5763 15.0208C66.5763 14.1949 66.5763 13.3691 66.5933 12.5433H66.8471V12.127C66.6237 12.066 66.5086 12.0525 66.485 12.0897C66.4816 12.0984 66.4816 12.1081 66.485 12.1168" fill="#4C96D7"/>
<path d="M9.98602 11.8452H10.5039V17.9375H9.98602V11.8452Z" fill="#407BFF"/>
<path d="M10.3077 11.1084C10.2806 11.3284 10.2535 11.5484 10.2231 11.7853L10.3077 11.1084Z" fill="#4C96D7"/>
<path d="M27.0544 49.6666L3.73539 49.4839C3.6735 49.6136 3.63804 49.7543 3.63107 49.8978C3.62409 50.0413 3.64575 50.1848 3.69478 50.3198C3.74838 50.488 3.85615 50.6336 4.00127 50.734C4.14638 50.8345 4.32066 50.884 4.4969 50.8749L27.3658 50.8275" fill="#407BFF"/>
<path d="M38.9479 24.67C39.3494 25.3392 39.8743 25.926 40.4946 26.3995C42.0989 27.6111 43.8554 27.6382 45.04 27.6551C46.7732 27.7485 48.4936 27.3104 49.9711 26.3995C50.6263 25.974 51.2128 25.4513 51.7108 24.8494C52.1507 24.7817 56.1952 24.2097 59.1566 27.1711C60.5801 28.6319 61.4378 30.5513 61.5765 32.5863L28.1176 32.7792C28.4322 30.6921 29.4156 28.7633 30.92 27.2828C34.1352 24.1759 38.3455 24.5989 38.9479 24.67Z" fill="#004AEF"/>
<path d="M4.67987 31.6446C4.76111 30.4375 5.18756 29.2792 5.90843 28.3075C6.70537 27.2419 7.8668 26.5069 9.17106 26.243C9.17106 26.243 9.80396 26.0873 12.1832 25.9892C12.6426 26.4854 13.1813 26.9018 13.7773 27.2211C14.6823 27.7 15.6912 27.9487 16.7151 27.9454C17.9658 28.0108 19.2083 27.7084 20.2891 27.0756C20.8257 26.7531 21.3097 26.3502 21.7241 25.8809C23.0034 26.0772 24.5163 26.1347 25.5654 26.463C25.9347 26.5689 26.2877 26.7249 26.6146 26.9267C27.2162 27.3224 27.7244 27.8444 28.1038 28.4564C28.9533 29.7324 29.3831 31.7394 29.4102 31.8646" fill="#004AEF"/>
<path d="M24.9489 32.768C26.1842 32.037 64.5472 32.697 64.9094 32.768C65.2715 32.8391 65.9078 33.2994 66.2869 34.2538C66.374 35.0804 66.3132 35.9158 66.1075 36.7211C65.9992 36.9749 62.2932 54.5336 62.0089 55.0345C61.8813 55.2622 61.6925 55.4498 61.464 55.576C61.2954 55.6572 61.1094 55.6956 60.9225 55.6877L29.5992 55.8434C28.9977 55.7159 28.4593 55.3833 28.0762 54.9025C27.6561 54.3546 27.4612 53.6669 27.5313 52.9801L23.7169 34.7987C23.745 34.3371 23.8945 33.8912 24.1502 33.5059C24.3665 33.2109 24.6377 32.9604 24.9489 32.768Z" stroke="#407BFF" stroke-miterlimit="10"/>
<path d="M72.3441 70.1361C72.1478 71.104 72.0699 71.8588 71.6672 73.331C71.6044 73.5657 71.5158 73.7927 71.4032 74.0079C71.2552 74.3648 71.0338 74.6865 70.7534 74.9522C70.3949 75.2494 69.9493 75.4216 69.4842 75.4429C68.2962 75.4734 67.5923 74.3701 67.5618 74.3159C67.5415 73.947 67.5246 73.5815 67.5077 73.2126L68.0695 73.1923L68.5399 73.2464L68.5772 73.8082H70.134C70.2999 73.6356 70.4725 73.4698 70.6248 73.2836C70.7084 72.9088 70.7571 72.5269 70.7703 72.1431C70.7769 71.7549 70.7531 71.3667 70.6992 70.9822C70.5672 70.1293 69.5519 65.8209 68.0695 59.959L69.0848 59.9759H69.7008C70.2694 62.8301 70.8335 65.6821 71.393 68.5319C71.8985 65.6866 72.4005 62.8403 72.8991 59.9928L74.368 60.0131C73.7001 63.3841 73.0255 66.7584 72.3441 70.1361Z" fill="#004AEF"/>
</svg>
