<svg width="138" height="143" viewBox="0 0 138 143" fill="none" xmlns="http://www.w3.org/2000/svg">
<path d="M67.9767 72.8501H12.6559V4.24905H67.9767V72.8501Z" fill="#E3E3E2"/>
<path d="M66.3089 70.8921H14.6813V6.21223H66.3089V70.8921Z" fill="#FCFDFD"/>
<path d="M14.6813 53.8232H25.068L26.4031 59.855H30.9096L34.7485 42.7018H47.5998V31.0071H56.9464V50.549H66.3089V70.8921H14.6813V53.8232Z" fill="#F8F8F9"/>
<path d="M41.3174 70.3585H39.6485V6.21231H41.3174V70.3585Z" fill="#E3E3E2"/>
<path d="M66.3089 39.2323H14.6813V37.546H66.3089V39.2323Z" fill="#E3E3E2"/>
<path d="M120.522 22.5374L123.842 30.9207L121.778 30.9114L120.124 25.7594L120.522 22.5374Z" fill="#E3E3E2"/>
<path d="M109.183 14.7912L108.042 30.8543L119.826 31.0974L121.151 14.7912H109.183Z" fill="#EEEEEE"/>
<path d="M110.362 16.0846L109.412 29.4549L118.172 29.8599L119.396 16.0054L110.362 16.0846Z" fill="#FCFDFD"/>
<path d="M112.284 17.9755L111.573 27.3738H116.406L117.258 17.9755H112.284Z" fill="#E3E3E2"/>
<path d="M91.684 30.9802V17.7728H101.484V30.97L91.684 30.9802Z" fill="#EEEEEE"/>
<path d="M97.2562 17.7726C97.2562 17.7726 99.6201 0.720043 98.9579 0.743601C98.2954 0.767159 96.6321 16.2912 96.6321 16.2912C96.6321 16.2912 96.5629 3.434 95.9392 3.50262C95.3154 3.57125 95.9392 17.1119 95.9392 17.1119C95.9392 17.1119 94.874 6.12301 94.298 6.38591C93.722 6.64846 94.5453 17.7726 94.5453 17.7726H97.2562Z" fill="#E3E3E2"/>
<path d="M95.4745 17.7726C95.4745 17.7726 96.2937 9.27329 96.5639 9.85439C96.8341 10.4355 96.5639 14.9142 96.5639 14.9142C96.5639 14.9142 98.8327 3.93076 99.4274 4.30427C100.022 4.67744 97.1043 16.2253 97.1043 16.2253C97.1043 16.2253 99.3194 9.63246 99.8055 10.3272C100.291 11.022 97.9681 17.2065 97.9681 17.2065C97.9681 17.2065 100.346 12.835 100.508 13.4212C100.67 14.0078 99.373 17.7726 99.373 17.7726H95.4745Z" fill="#EEEEEE"/>
<path d="M94.0779 17.8242C94.0779 17.8242 88.8375 7.67211 89.4858 7.98656C90.1341 8.301 93.4836 14.859 93.4836 14.859C93.4836 14.859 91.2667 8.52908 91.7538 8.33515C92.2409 8.14123 94.6723 15.4456 94.6723 15.4456L95.2178 17.8242H94.0779Z" fill="#EEEEEE"/>
<path d="M96.2208 17.795L96.4681 31.0024H91.8085L91.7186 17.7506L96.2208 17.795Z" fill="#E3E3E2"/>
<path d="M91.695 18.9386L96.208 19.0131L101.484 18.9386L101.65 17.6764H91.5667L91.695 18.9386Z" fill="#F8F8F9"/>
<path d="M132.257 32.8884H83.2504V30.7648H132.257V32.8884Z" fill="#E3E3E2"/>
<path d="M92.4375 107.29C92.0227 106.838 93.0007 104.186 97.6475 103.997C102.294 103.809 104.153 105.48 104.162 107.29C104.166 108.094 92.4375 107.29 92.4375 107.29Z" fill="#365462"/>
<path d="M90.1442 37.8864L84.9829 69.3916H132.122L137.8 37.5505L90.1442 37.8864Z" fill="#F8F8F9"/>
<path d="M89.6747 40.7533C89.6923 40.6423 137.261 40.5758 137.261 40.5758L137.8 37.5504L90.1441 37.8864L89.6747 40.7533Z" fill="#E3E3E2"/>
<path d="M92.134 39.3051C92.134 39.5434 91.9389 39.7363 91.6974 39.7363C91.4563 39.7363 91.2608 39.5434 91.2608 39.3051C91.2608 39.0671 91.4563 38.8742 91.6974 38.8742C91.9389 38.8742 92.134 39.0671 92.134 39.3051Z" fill="#1D2A30"/>
<path d="M94.2807 39.3051C94.2807 39.5434 94.0856 39.7363 93.8441 39.7363C93.603 39.7363 93.4075 39.5434 93.4075 39.3051C93.4075 39.0671 93.603 38.8742 93.8441 38.8742C94.0856 38.8742 94.2807 39.0671 94.2807 39.3051Z" fill="#1D2A30"/>
<path d="M96.4277 39.3051C96.4277 39.5434 96.2322 39.7363 95.9911 39.7363C95.7496 39.7363 95.5542 39.5434 95.5542 39.3051C95.5542 39.0671 95.7496 38.8742 95.9911 38.8742C96.2322 38.8742 96.4277 39.0671 96.4277 39.3051Z" fill="#1D2A30"/>
<path d="M101.755 54.9047L95.8534 61.6218C93.5403 60.0055 92.1859 57.5258 92.1859 54.9047C92.1859 50.2239 96.5058 46.3723 101.755 46.3723C107.004 46.3723 111.324 50.2239 111.324 54.9047H101.755Z" fill="#FFD05A"/>
<path d="M102.511 55.974C102.513 55.9774 102.478 56.0225 102.41 56.1058C102.333 56.1973 102.232 56.3175 102.104 56.4697C101.826 56.7941 101.432 57.2523 100.935 57.8317C99.9152 59.0044 98.4712 60.6654 96.7363 62.6621L96.7224 62.5511C97.9101 63.3688 99.4285 63.9799 101.115 64.164C102.796 64.3603 104.64 64.125 106.342 63.3862C107.978 62.6982 109.331 61.5565 110.276 60.2595C110.736 59.5999 111.091 58.9003 111.344 58.1936C111.59 57.4831 111.703 56.7654 111.753 56.0778L111.83 56.157C109.046 56.1112 106.725 56.0727 105.085 56.0457C104.279 56.0276 103.64 56.0133 103.189 56.0033C102.979 55.9965 102.813 55.9907 102.687 55.987C102.573 55.9818 102.513 55.9774 102.511 55.974C102.509 55.9702 102.566 55.9672 102.677 55.9651C102.8 55.9637 102.964 55.962 103.171 55.96C103.62 55.9603 104.255 55.9607 105.058 55.961C106.704 55.9716 109.036 55.9866 111.831 56.0047L111.913 56.0051L111.908 56.0839C111.861 56.7859 111.749 57.5196 111.5 58.2458C111.245 58.9686 110.886 59.6839 110.418 60.3578C109.457 61.6839 108.08 62.8481 106.414 63.5487C104.681 64.3015 102.805 64.5375 101.095 64.3336C99.38 64.1414 97.8378 63.5129 96.6349 62.6743L96.5657 62.6259L96.6211 62.5634C98.3851 60.5767 99.8529 58.9242 100.889 57.7569C101.397 57.1918 101.8 56.7449 102.084 56.4284C102.216 56.2847 102.321 56.1706 102.4 56.0846C102.472 56.0081 102.509 55.9702 102.511 55.974Z" fill="#1D2A30"/>
<path d="M106.359 49.8361C106.359 50.1287 106.119 50.3656 105.823 50.3656C105.526 50.3656 105.286 50.1287 105.286 49.8361C105.286 49.5435 105.526 49.3065 105.823 49.3065C106.119 49.3065 106.359 49.5435 106.359 49.8361Z" fill="#1D2A30"/>
<path d="M117.009 45.9617C117.009 45.974 116.83 45.9856 116.505 45.9962C116.147 46.0037 115.686 46.0132 115.133 46.0245C113.973 46.0406 112.372 46.0505 110.603 46.0505C110.31 46.0501 110.022 46.0501 109.748 46.0498L109.812 46.0242C108.7 47.117 107.711 48.0781 106.995 48.762C106.654 49.084 106.37 49.3513 106.147 49.5613C105.945 49.7463 105.831 49.844 105.823 49.8361C105.815 49.8283 105.914 49.7153 106.101 49.5162C106.314 49.2963 106.585 49.016 106.911 48.679C107.604 47.973 108.578 46.9969 109.686 45.8992L109.711 45.8736H109.748C110.022 45.8733 110.31 45.8729 110.603 45.8726C112.372 45.8726 113.973 45.8828 115.133 45.8989C115.686 45.9101 116.147 45.9197 116.505 45.9269C116.83 45.9378 117.009 45.9494 117.009 45.9617Z" fill="#1D2A30"/>
<path d="M129.159 52.6128C129.156 52.6101 129.165 52.5493 129.184 52.4343C129.204 52.31 129.233 52.142 129.269 51.9283C129.349 51.4776 129.464 50.8344 129.609 50.0174C129.91 48.3676 130.339 46.0183 130.858 43.1716L130.931 43.2569C127.173 43.2617 122.538 43.2672 117.532 43.2733C117.512 43.289 117.698 43.1364 117.619 43.2023L117.618 43.2047L117.617 43.2095L117.616 43.2197L117.612 43.2392L117.605 43.2791L117.59 43.3583L117.56 43.5161L117.501 43.8315C117.461 44.0415 117.422 44.2508 117.383 44.4591C117.304 44.8759 117.226 45.2894 117.149 45.6998C116.994 46.5199 116.842 47.3266 116.693 48.1163C116.395 49.6951 116.108 51.2065 115.839 52.6279L115.759 52.5326C119.706 52.5483 123.044 52.5613 125.408 52.5705C126.582 52.5801 127.514 52.5876 128.164 52.5927C128.477 52.5971 128.722 52.6002 128.9 52.6029C128.977 52.605 129.04 52.6067 129.091 52.6081C129.134 52.6098 129.157 52.6115 129.159 52.6128C129.16 52.6149 129.14 52.6166 129.1 52.6183C129.051 52.6193 128.991 52.621 128.916 52.6234C128.742 52.6258 128.502 52.6292 128.195 52.6337C127.549 52.6388 126.623 52.6463 125.456 52.6552C123.08 52.6647 119.725 52.678 115.759 52.6938L115.661 52.6941L115.678 52.5982C115.944 51.1761 116.226 49.664 116.52 48.0846C116.669 47.2945 116.819 46.4881 116.973 45.6673C117.05 45.2573 117.128 44.8435 117.206 44.4266C117.245 44.2184 117.284 44.0091 117.324 43.7994L117.383 43.484L117.412 43.3255L117.427 43.2463L117.435 43.2071L117.439 43.1873L117.44 43.1774L117.441 43.1722L117.442 43.1699C117.363 43.2337 117.55 43.0797 117.532 43.0958C122.538 43.1019 127.173 43.1077 130.931 43.1122L131.019 43.1125L131.003 43.1978C130.45 46.0555 129.994 48.4144 129.674 50.0703C129.513 50.8784 129.387 51.5145 129.299 51.9604C129.256 52.1676 129.223 52.3305 129.198 52.451C129.174 52.5609 129.161 52.6159 129.159 52.6128Z" fill="#1D2A30"/>
<path d="M107.199 60.4802C107.199 60.7728 106.959 61.0101 106.662 61.0101C106.366 61.0101 106.126 60.7728 106.126 60.4802C106.126 60.188 106.366 59.9507 106.662 59.9507C106.959 59.9507 107.199 60.188 107.199 60.4802Z" fill="#1D2A30"/>
<path d="M116.396 60.4802C116.396 60.5294 114.217 60.5693 111.529 60.5693C108.841 60.5693 106.662 60.5294 106.662 60.4802C106.662 60.4314 108.841 60.3915 111.529 60.3915C114.217 60.3915 116.396 60.4314 116.396 60.4802Z" fill="#1D2A30"/>
<path d="M129.159 64.6042C129.157 64.6019 129.165 64.5575 129.184 64.4742C129.205 64.3813 129.233 64.2604 129.269 64.1071C129.349 63.7773 129.462 63.3106 129.607 62.7162C129.908 61.5083 130.337 59.7831 130.865 57.6622L130.931 57.7451C127.275 57.7509 122.424 57.7588 117.114 57.7673C117.035 57.8271 117.219 57.6854 117.2 57.7007L117.2 57.7028L117.199 57.7062L117.197 57.7134L117.193 57.7277L117.186 57.7564L117.171 57.8138L117.142 57.9281L117.083 58.1562L116.967 58.611C116.89 58.9135 116.813 59.2136 116.736 59.5123C116.583 60.1091 116.432 60.6981 116.284 61.2775C115.986 62.4356 115.698 63.5557 115.423 64.6247L115.341 64.5209C119.363 64.5363 122.805 64.5493 125.255 64.5588C126.471 64.5687 127.441 64.5763 128.12 64.5821C128.446 64.5868 128.701 64.5906 128.888 64.593C128.969 64.5954 129.034 64.5974 129.087 64.5988C129.133 64.6005 129.157 64.6025 129.159 64.6042C129.16 64.6063 129.139 64.608 129.097 64.6101C129.045 64.6114 128.983 64.6131 128.905 64.6155C128.722 64.6182 128.471 64.622 128.152 64.6268C127.477 64.6322 126.513 64.6401 125.303 64.65C122.841 64.6592 119.383 64.6725 115.341 64.6879L115.232 64.6882L115.259 64.5838C115.531 63.5141 115.816 62.3936 116.112 61.2344C116.26 60.655 116.41 60.0661 116.562 59.469C116.638 59.1706 116.716 58.8698 116.792 58.5676L116.909 58.1128L116.967 57.8844L116.996 57.7701L117.011 57.7127L117.019 57.684L117.022 57.6697L117.024 57.6625L117.025 57.6591L117.025 57.6574C117.007 57.671 117.191 57.5294 117.114 57.5894C122.424 57.598 127.275 57.6058 130.931 57.6116H131.018L130.996 57.6946C130.437 59.823 129.982 61.5544 129.663 62.7664C129.506 63.3519 129.382 63.8115 129.295 64.1368C129.254 64.284 129.221 64.4004 129.196 64.4895C129.174 64.5681 129.16 64.607 129.159 64.6042Z" fill="#1D2A30"/>
<path d="M128.071 46.0831C128.071 46.1323 126.018 46.1722 123.487 46.1722C120.956 46.1722 118.903 46.1323 118.903 46.0831C118.903 46.0343 120.956 45.9944 123.487 45.9944C126.018 45.9944 128.071 46.0343 128.071 46.0831Z" fill="#1D2A30"/>
<path d="M127.963 47.565C127.963 47.6139 125.899 47.6538 123.353 47.6538C120.806 47.6538 118.743 47.6139 118.743 47.565C118.743 47.5159 120.806 47.4759 123.353 47.4759C125.899 47.4759 127.963 47.5159 127.963 47.565Z" fill="#1D2A30"/>
<path d="M127.695 48.9935C127.695 49.0423 125.703 49.0823 123.246 49.0823C120.788 49.0823 118.796 49.0423 118.796 48.9935C118.796 48.9443 120.788 48.9044 123.246 48.9044C125.703 48.9044 127.695 48.9443 127.695 48.9935Z" fill="#1D2A30"/>
<path d="M127.856 60.3155C127.856 60.3647 125.9 60.4043 123.487 60.4043C121.073 60.4043 119.118 60.3647 119.118 60.3155C119.118 60.2664 121.073 60.2268 123.487 60.2268C125.9 60.2268 127.856 60.2664 127.856 60.3155Z" fill="#1D2A30"/>
<path d="M127.32 61.9557C127.32 62.0048 125.652 62.0444 123.595 62.0444C121.536 62.0444 119.869 62.0048 119.869 61.9557C119.869 61.9065 121.536 61.8666 123.595 61.8666C125.652 61.8666 127.32 61.9065 127.32 61.9557Z" fill="#1D2A30"/>
<path d="M71.6399 96.2562C71.4718 97.2172 66.8561 107.297 69.8375 107.297C72.8189 107.297 84.8072 107.297 84.8072 107.297C84.8072 107.297 83.2611 105.86 87.9422 96.2562H71.6399Z" fill="#365462"/>
<path d="M61.9516 62.6174L55.8324 97.9137H107.45L113.782 61.3791L61.9516 62.6174Z" fill="#365462"/>
<path d="M63.7073 64.3385L58.5464 95.8436H105.685L111.364 64.0025L63.7073 64.3385Z" fill="#FCFDFD"/>
<path d="M113.782 61.3791L114.757 62.0257L108.186 98.8734H57.1931L55.8324 97.9137H107.45L113.782 61.3791Z" fill="#1D2A30"/>
<path d="M63.2378 67.2058C63.2562 67.0945 110.824 67.0279 110.824 67.0279L111.364 64.0026L63.7073 64.3386L63.2378 67.2058Z" fill="#EEEEEE"/>
<path d="M98.2564 93.0506C98.2546 93.0523 98.2577 93.023 98.2667 92.9639C98.2778 92.8956 98.2916 92.8082 98.3093 92.6986C98.3511 92.4518 98.41 92.1059 98.4854 91.6638C98.6449 90.7454 98.8742 89.4302 99.1593 87.7952C99.7478 84.4817 100.567 79.8729 101.496 74.641L101.509 74.5686H101.584C102.768 74.5682 104.006 74.5679 105.268 74.5676H105.296H105.404L105.385 74.672C103.945 82.3857 102.68 89.1612 101.952 93.0592L101.945 93.0991L101.904 93.0988C100.746 93.0868 99.8318 93.0776 99.1942 93.0708C98.8946 93.066 98.6604 93.0622 98.4906 93.0595C98.4183 93.0578 98.3605 93.0561 98.3127 93.0547C98.2737 93.0534 98.2546 93.052 98.2564 93.0506C98.2581 93.0493 98.2806 93.0479 98.3231 93.0465C98.3729 93.0452 98.4338 93.0435 98.5099 93.0418C98.6829 93.039 98.9209 93.0349 99.2261 93.0305C99.8557 93.0237 100.76 93.0144 101.904 93.0025L101.856 93.0421C102.566 89.1407 103.802 82.3601 105.208 74.6406L105.296 74.7451H105.268C104.006 74.7448 102.768 74.7444 101.584 74.7441L101.671 74.6717C100.714 79.8712 99.8702 84.4513 99.2641 87.744C98.9566 89.3852 98.7092 90.7047 98.5362 91.6266C98.4501 92.0759 98.383 92.4275 98.3345 92.6785C98.3121 92.7922 98.2937 92.8827 98.2795 92.9533C98.2664 93.0162 98.2584 93.0489 98.2564 93.0506Z" fill="#1D2A30"/>
<path d="M92.2659 93.0505C92.2614 93.0539 92.2745 92.9692 92.3036 92.8043C92.3364 92.6244 92.3807 92.381 92.4368 92.073C92.5599 91.4161 92.7343 90.4854 92.9515 89.3273C93.4065 86.9606 94.0389 83.6697 94.7619 79.9065L94.7754 79.8362H94.848C96.0301 79.8355 97.2659 79.8348 98.5334 79.8342H98.5608H98.6711L98.649 79.9403C97.5554 85.2911 96.5833 90.0463 95.9672 93.0611L95.9582 93.1055L95.9132 93.1048C94.7636 93.0918 93.8489 93.0809 93.2062 93.0737C92.9083 93.0679 92.6737 93.0638 92.5001 93.0607C92.3416 93.057 92.2617 93.0536 92.2659 93.0505C92.2697 93.0474 92.3575 93.044 92.5226 93.0403C92.6997 93.0372 92.9387 93.0331 93.2425 93.0273C93.8766 93.0201 94.7788 93.0092 95.9132 92.9962L95.8592 93.0399C96.4598 90.0221 97.4067 85.262 98.4722 79.9055L98.5608 80.012H98.5334C97.2659 80.0114 96.0301 80.0107 94.848 80.01L94.9345 79.9397C94.1835 83.67 93.5265 86.9323 93.0539 89.2788C92.8149 90.4421 92.6222 91.3775 92.4866 92.0375C92.4198 92.3523 92.3672 92.6012 92.3285 92.7845C92.3112 92.8631 92.2967 92.9272 92.2849 92.9805C92.2742 93.0252 92.2679 93.0488 92.2659 93.0505Z" fill="#1D2A30"/>
<path d="M86.275 93.0505C86.273 93.0522 86.2775 93.0156 86.2896 92.9419C86.3031 92.8599 86.3207 92.7507 86.3439 92.6121C86.3961 92.3099 86.4708 91.8801 86.566 91.3287C86.7663 90.1962 87.0545 88.568 87.4122 86.544C88.1463 82.4569 89.1672 76.7743 90.3216 70.3478L90.3348 70.2751H90.4095C91.5899 70.2747 92.8318 70.2744 94.0939 70.2744H94.1219H94.2302L94.2108 70.3792C92.4042 80.138 90.8111 88.6448 89.9663 93.0583L89.9594 93.0948L89.9227 93.0945C88.7448 93.0832 87.8304 93.0747 87.1998 93.0686C86.9012 93.0641 86.6701 93.061 86.5047 93.0587C86.3494 93.0556 86.275 93.0505 86.275 93.0505C86.275 93.0505 86.3619 93.0453 86.522 93.0423C86.6905 93.0399 86.9251 93.0365 87.2285 93.0324C87.8526 93.0262 88.7569 93.0177 89.9227 93.0064L89.8788 93.0426C90.67 88.6195 92.2271 80.1059 94.0333 70.3471L94.1219 70.4519H94.0939C92.8318 70.4516 91.5899 70.4516 90.4095 70.4512L90.4974 70.3789C89.3156 76.7726 88.2701 82.4262 87.5187 86.4921C87.1378 88.5222 86.8313 90.1552 86.6182 91.2908C86.5113 91.8497 86.4283 92.2853 86.3698 92.5916C86.3415 92.7343 86.3193 92.8466 86.3024 92.9313C86.2864 93.0081 86.2771 93.0488 86.275 93.0505Z" fill="#1D2A30"/>
<path d="M80.2842 93.0506C80.2801 93.0537 80.288 92.9953 80.306 92.8799C80.3271 92.7484 80.3551 92.5788 80.3897 92.3671C80.4707 91.8966 80.5831 91.2411 80.7236 90.4265C81.0239 88.7368 81.4414 86.3902 81.9237 83.678L81.9365 83.608L82.0091 83.6076C83.1625 83.6066 84.4069 83.6056 85.6942 83.6042H85.7215H85.8305L85.8101 83.7097C85.0936 87.3964 84.4481 90.7173 83.9925 93.0619L83.9828 93.1121L83.9319 93.1114C82.8021 93.097 81.888 93.0854 81.2359 93.0772C80.9388 93.0711 80.7014 93.066 80.5222 93.0626C80.3614 93.0581 80.2797 93.0544 80.2842 93.0506C80.2891 93.0468 80.3797 93.0431 80.5478 93.0387C80.7308 93.0349 80.973 93.0305 81.2768 93.024C81.9192 93.0158 82.819 93.0042 83.9319 92.9898L83.871 93.0393C84.3128 90.6921 84.9383 87.3677 85.633 83.6766L85.7215 83.7821H85.6942C84.4069 83.7811 83.1625 83.7797 82.0091 83.7787L82.0942 83.7087C81.5826 86.3892 81.1401 88.7088 80.8211 90.3787C80.6599 91.1991 80.5302 91.8587 80.4371 92.3329C80.3925 92.5508 80.3569 92.7256 80.3292 92.8615C80.3036 92.9823 80.2884 93.0475 80.2842 93.0506Z" fill="#1D2A30"/>
<path d="M74.2937 93.0507C74.2917 93.0524 74.2941 93.0281 74.3003 92.979C74.3093 92.9209 74.32 92.8482 74.3332 92.7584C74.3667 92.5498 74.4131 92.2616 74.4712 91.8953C74.5985 91.1247 74.7795 90.0264 75.0047 88.6607C75.4741 85.8819 76.1269 82.0177 76.87 77.6165L76.8825 77.5437H76.9576C78.1459 77.5434 79.3799 77.5431 80.6419 77.5427H80.67H80.7775L80.7589 77.6465C79.6169 84.0078 78.6077 89.6303 77.9926 93.0595L77.985 93.1029L77.9411 93.1022C76.7901 93.0896 75.8754 93.0793 75.2347 93.0725C74.9355 93.0674 74.7009 93.0633 74.5283 93.0602C74.3698 93.0568 74.2899 93.0537 74.2937 93.0507C74.2955 93.0493 74.3183 93.0476 74.3612 93.0462C74.412 93.0445 74.4736 93.0432 74.5494 93.0411C74.7248 93.038 74.9638 93.0339 75.2686 93.0288C75.9014 93.0216 76.8043 93.0117 77.9411 92.9991L77.8895 93.0418C78.4887 89.6095 79.4705 83.9826 80.5814 77.6158L80.67 77.7203H80.6419C79.3799 77.7196 78.1459 77.7192 76.9576 77.7185L77.0447 77.6458C76.2726 82.0153 75.5952 85.8512 75.1081 88.6098C74.8601 89.9813 74.6611 91.0844 74.5214 91.8581C74.4522 92.2319 74.3979 92.5252 74.3581 92.7383C74.3401 92.8322 74.3252 92.9076 74.3128 92.9687C74.302 93.021 74.2958 93.049 74.2937 93.0507Z" fill="#1D2A30"/>
<path d="M68.3029 93.0506C68.3008 93.0523 68.305 93.0192 68.315 92.9519C68.3271 92.8761 68.343 92.7768 68.3634 92.6508C68.4101 92.3739 68.4765 91.9816 68.5613 91.479C68.7405 90.4428 68.9979 88.9549 69.3176 87.1051C69.9756 83.3652 70.8909 78.1637 71.9277 72.2725L71.9406 72.1998H72.0156C73.1977 72.1994 74.438 72.1991 75.7 72.1987H75.728H75.836L75.8169 72.3032C74.2069 81.1514 72.7816 88.8883 71.9959 93.0588L71.989 93.0967L71.9502 93.0963C70.7799 93.0847 69.8652 93.0759 69.2325 93.0697C68.9335 93.0649 68.7014 93.0615 68.534 93.0591C68.462 93.0571 68.4053 93.0557 68.3586 93.0547C68.3198 93.0533 68.3012 93.052 68.3029 93.0506C68.3043 93.0492 68.3264 93.0479 68.3683 93.0465C68.417 93.0455 68.4769 93.0441 68.5523 93.0421C68.7222 93.0397 68.9585 93.0359 69.2622 93.0315C69.8884 93.0253 70.7927 93.0164 71.9502 93.0048L71.9049 93.0424C72.6387 88.8631 74.0297 81.1197 75.6395 72.2718L75.728 72.3766H75.7C74.438 72.3763 73.1977 72.3759 72.0156 72.3756L72.1031 72.3029C71.039 78.1616 70.0991 83.3341 69.4238 87.0536C69.0806 88.9095 68.8052 90.4019 68.6129 91.4415C68.517 91.9512 68.442 92.3493 68.389 92.6306C68.3634 92.7604 68.3434 92.8632 68.3278 92.9413C68.3133 93.0117 68.305 93.0489 68.3029 93.0506Z" fill="#1D2A30"/>
<path d="M65.6975 65.7574C65.6975 65.9953 65.5021 66.1882 65.2606 66.1882C65.0195 66.1882 64.824 65.9953 64.824 65.7574C64.824 65.5194 65.0195 65.3261 65.2606 65.3261C65.5021 65.3261 65.6975 65.5194 65.6975 65.7574Z" fill="#1D2A30"/>
<path d="M67.8442 65.7574C67.8442 65.9953 67.6487 66.1882 67.4076 66.1882C67.1661 66.1882 66.9706 65.9953 66.9706 65.7574C66.9706 65.5194 67.1661 65.3261 67.4076 65.3261C67.6487 65.3261 67.8442 65.5194 67.8442 65.7574Z" fill="#1D2A30"/>
<path d="M69.9908 65.7574C69.9908 65.9953 69.7953 66.1882 69.5542 66.1882C69.313 66.1882 69.1172 65.9953 69.1172 65.7574C69.1172 65.5194 69.313 65.3261 69.5542 65.3261C69.7953 65.3261 69.9908 65.5194 69.9908 65.7574Z" fill="#1D2A30"/>
<path d="M62.312 93.0504C62.3079 93.0538 62.3207 92.964 62.3487 92.7889C62.3805 92.5991 62.4234 92.341 62.4781 92.0132C62.5978 91.3181 62.7677 90.3314 62.9787 89.1036C63.4208 86.599 64.0356 83.1168 64.7372 79.1413L64.75 79.0696H64.824C66.012 79.069 67.2453 79.0683 68.5091 79.0676H68.5367H68.645L68.6253 79.1728C67.5553 84.8608 66.6063 89.9056 66.0127 93.06L66.0044 93.1044L65.9594 93.104C64.8088 93.0907 63.8944 93.0801 63.2523 93.0733C62.9541 93.0675 62.7196 93.0634 62.5466 93.0607C62.3882 93.0569 62.3082 93.0535 62.312 93.0504C62.3141 93.0491 62.337 93.0474 62.3799 93.0456C62.4314 93.0443 62.493 93.0426 62.5684 93.0402C62.7445 93.0371 62.9835 93.0334 63.2876 93.0276C63.9214 93.0207 64.8236 93.0101 65.9594 92.9972L65.9065 93.0409C66.4839 89.8838 67.4072 84.8338 68.4482 79.1407L68.5367 79.2458H68.5091C67.2453 79.2451 66.012 79.2445 64.824 79.2438L64.9108 79.1721C64.1809 83.1151 63.5412 86.5696 63.0814 89.0538C62.8479 90.2873 62.6601 91.2788 62.5279 91.977C62.4625 92.3116 62.4113 92.5755 62.3736 92.7688C62.3563 92.8521 62.3421 92.9207 62.3307 92.9767C62.3203 93.0235 62.3141 93.0487 62.312 93.0504Z" fill="#1D2A30"/>
<path d="M102.75 79.1569H83.003L84.1294 72.6136H104.017L102.75 79.1569Z" fill="#FFD05A"/>
<path d="M83.003 79.1568L82.6194 81.4396C82.6194 81.4396 85.2119 79.0664 85.1715 79.0664C85.1313 79.0664 83.0183 79.0664 83.0183 79.0664" fill="#FFD05A"/>
<path d="M101.036 74.8881C101.036 74.9376 97.7475 74.9772 93.6912 74.9772C89.6339 74.9772 86.3456 74.9376 86.3456 74.8881C86.3456 74.8392 89.6339 74.7993 93.6912 74.7993C97.7475 74.7993 101.036 74.8392 101.036 74.8881Z" fill="#FCFDFD"/>
<path d="M100.842 76.4672C100.842 76.5163 97.5534 76.5563 93.4975 76.5563C89.4398 76.5563 86.1515 76.5163 86.1515 76.4672C86.1515 76.4183 89.4398 76.3784 93.4975 76.3784C97.5534 76.3784 100.842 76.4183 100.842 76.4672Z" fill="#FCFDFD"/>
<path d="M133.139 141.953H76.8818V109.556H133.139V141.953Z" fill="#1D2A30"/>
<path d="M102.51 141.953H76.8818V109.556H102.51V141.953Z" fill="#365462"/>
<path d="M99.8993 120.561C99.8993 120.561 99.8951 120.503 99.8927 120.395C99.891 120.281 99.8885 120.125 99.8854 119.924C99.882 119.504 99.8764 118.9 99.8695 118.126C99.8612 116.567 99.8495 114.326 99.8346 111.561L99.8993 111.625C94.5747 111.631 87.2998 111.64 79.2841 111.65C79.2028 111.729 79.392 111.541 79.3726 111.562V111.564V111.569V111.578V111.596V111.633V111.707V111.855V112.151V112.739C79.3723 113.13 79.3723 113.52 79.3723 113.906C79.3719 114.68 79.3716 115.444 79.3716 116.197C79.3706 117.703 79.3695 119.163 79.3685 120.561L79.2827 120.476C85.2611 120.492 90.4022 120.506 94.0589 120.516C95.8838 120.526 97.3379 120.534 98.3449 120.54C98.84 120.544 99.2247 120.548 99.4949 120.55C99.6208 120.552 99.7197 120.554 99.7944 120.555C99.8623 120.557 99.8979 120.559 99.8993 120.561C99.901 120.562 99.8692 120.564 99.8048 120.566C99.7325 120.567 99.637 120.569 99.5156 120.571C99.2492 120.574 98.8708 120.577 98.3837 120.582C97.3808 120.587 95.9336 120.595 94.1167 120.605C90.4458 120.615 85.2842 120.629 79.2827 120.645H79.1972L79.1969 120.561C79.1959 119.163 79.1948 117.703 79.1938 116.197C79.1934 115.444 79.1931 114.68 79.1927 113.906C79.1927 113.52 79.1927 113.13 79.1927 112.739V112.151V111.855V111.707V111.633V111.596V111.578V111.569V111.564V111.562C79.1727 111.58 79.3636 111.393 79.2841 111.472C87.2998 111.482 94.5747 111.49 99.8993 111.497H99.9647L99.9643 111.561C99.9494 114.343 99.9377 116.597 99.9294 118.165C99.9225 118.933 99.9169 119.532 99.9131 119.949C99.9103 120.144 99.9079 120.297 99.9062 120.408C99.9038 120.511 99.9017 120.563 99.8993 120.561Z" fill="#1D2A30"/>
<path d="M90.468 116.061C90.4528 116.061 90.4483 115.984 90.4064 115.858C90.3652 115.734 90.2732 115.556 90.0829 115.423C89.8989 115.289 89.6031 115.218 89.3204 115.325C89.0406 115.424 88.8012 115.718 88.8043 116.061C88.8012 116.403 89.0406 116.698 89.3204 116.796C89.6031 116.904 89.8989 116.833 90.0829 116.699C90.2732 116.565 90.3652 116.387 90.4064 116.264C90.4483 116.138 90.4528 116.061 90.468 116.061C90.4773 116.06 90.4977 116.138 90.4745 116.281C90.4514 116.419 90.3697 116.63 90.1601 116.799C89.9584 116.967 89.6097 117.071 89.2641 116.95C88.9216 116.841 88.6199 116.483 88.6244 116.061C88.6202 115.639 88.9216 115.28 89.2641 115.171C89.6097 115.051 89.9584 115.154 90.1601 115.323C90.3697 115.491 90.4514 115.702 90.4745 115.841C90.4977 115.983 90.4773 116.061 90.468 116.061Z" fill="#1D2A30"/>
<path d="M99.8993 130.467C99.8993 130.467 99.8951 130.409 99.8927 130.302C99.891 130.188 99.8885 130.031 99.8854 129.831C99.882 129.41 99.8764 128.806 99.8695 128.033C99.8612 126.474 99.8495 124.233 99.8346 121.467L99.8993 121.531C94.5747 121.538 87.2998 121.546 79.2841 121.556C79.2028 121.636 79.392 121.448 79.3726 121.468V121.471V121.475V121.485V121.503V121.54V121.614V121.762V122.057V122.646C79.3723 123.037 79.3723 123.426 79.3723 123.813C79.3719 124.587 79.3716 125.351 79.3716 126.104C79.3706 127.609 79.3695 129.069 79.3685 130.467L79.2827 130.382C85.2611 130.399 90.4022 130.413 94.0589 130.423C95.8838 130.433 97.3379 130.44 98.3449 130.446C98.84 130.45 99.2247 130.454 99.4949 130.457C99.6208 130.459 99.7197 130.461 99.7944 130.462C99.8623 130.463 99.8979 130.465 99.8993 130.467C99.901 130.469 99.8692 130.471 99.8048 130.473C99.7325 130.474 99.637 130.476 99.5156 130.477C99.2492 130.48 98.8708 130.483 98.3837 130.488C97.3808 130.493 95.9336 130.502 94.1167 130.511C90.4458 130.521 85.2842 130.535 79.2827 130.552H79.1972L79.1969 130.467C79.1959 129.069 79.1948 127.609 79.1938 126.104C79.1934 125.351 79.1931 124.587 79.1927 123.813C79.1927 123.426 79.1927 123.037 79.1927 122.646V122.057V121.762V121.614V121.54V121.503V121.485V121.475V121.471V121.468C79.1727 121.487 79.3636 121.299 79.2841 121.379C87.2998 121.388 94.5747 121.397 99.8993 121.403H99.9647L99.9643 121.467C99.9494 124.249 99.9377 126.504 99.9294 128.072C99.9225 128.84 99.9169 129.439 99.9131 129.855C99.9103 130.051 99.9079 130.204 99.9062 130.315C99.9038 130.418 99.9017 130.469 99.8993 130.467Z" fill="#1D2A30"/>
<path d="M90.468 125.967C90.4528 125.968 90.4483 125.89 90.4064 125.764C90.3652 125.64 90.2732 125.463 90.0829 125.329C89.8989 125.195 89.6031 125.124 89.3204 125.231C89.0406 125.33 88.8012 125.625 88.8043 125.967C88.8012 126.31 89.0406 126.604 89.3204 126.703C89.6031 126.81 89.8989 126.739 90.0829 126.605C90.2732 126.471 90.3652 126.294 90.4064 126.17C90.4483 126.044 90.4528 125.967 90.468 125.967C90.4773 125.967 90.4977 126.045 90.4745 126.187C90.4514 126.326 90.3697 126.537 90.1601 126.705C89.9584 126.874 89.6097 126.977 89.2641 126.857C88.9216 126.748 88.6199 126.389 88.6244 125.967C88.6202 125.545 88.9216 125.186 89.2641 125.077C89.6097 124.957 89.9584 125.061 90.1601 125.229C90.3697 125.398 90.4514 125.609 90.4745 125.748C90.4977 125.89 90.4773 125.968 90.468 125.967Z" fill="#1D2A30"/>
<path d="M99.8993 140.373C99.8993 140.373 99.8951 140.315 99.8927 140.208C99.891 140.094 99.8885 139.937 99.8854 139.737C99.882 139.317 99.8764 138.713 99.8695 137.939C99.8612 136.38 99.8495 134.139 99.8346 131.373L99.8993 131.437C94.5747 131.444 87.2998 131.453 79.2841 131.462C79.2028 131.542 79.392 131.354 79.3726 131.374V131.377V131.381V131.39V131.409V131.446V131.52V131.668V131.964V132.552C79.3723 132.943 79.3723 133.332 79.3723 133.719C79.3719 134.493 79.3716 135.257 79.3716 136.01C79.3706 137.516 79.3695 138.975 79.3685 140.373L79.2827 140.289C85.2611 140.305 90.4022 140.319 94.0589 140.329C95.8838 140.339 97.3379 140.347 98.3449 140.352C98.84 140.357 99.2247 140.361 99.4949 140.363C99.6208 140.365 99.7197 140.367 99.7944 140.368C99.8623 140.37 99.8979 140.372 99.8993 140.373C99.901 140.375 99.8692 140.377 99.8048 140.378C99.7325 140.38 99.637 140.381 99.5156 140.384C99.2492 140.386 98.8708 140.39 98.3837 140.394C97.3808 140.4 95.9336 140.408 94.1167 140.418C90.4458 140.428 85.2842 140.442 79.2827 140.458L79.1972 140.458L79.1969 140.373C79.1959 138.975 79.1948 137.516 79.1938 136.01C79.1934 135.257 79.1931 134.493 79.1927 133.719C79.1927 133.332 79.1927 132.943 79.1927 132.552V131.964V131.668V131.52V131.446V131.409V131.39V131.381V131.377V131.374C79.1727 131.393 79.3636 131.205 79.2841 131.285C87.2998 131.294 94.5747 131.303 99.8993 131.309L99.9647 131.31L99.9643 131.373C99.9494 134.155 99.9377 136.41 99.9294 137.978C99.9225 138.745 99.9169 139.345 99.9131 139.761C99.9103 139.957 99.9079 140.11 99.9062 140.221C99.9038 140.324 99.9017 140.375 99.8993 140.373Z" fill="#1D2A30"/>
<path d="M90.468 135.873C90.4528 135.874 90.4483 135.797 90.4064 135.671C90.3652 135.547 90.2732 135.369 90.0829 135.236C89.8989 135.101 89.6031 135.031 89.3204 135.138C89.0406 135.237 88.8012 135.531 88.8043 135.873C88.8012 136.216 89.0406 136.511 89.3204 136.609C89.6031 136.716 89.8989 136.646 90.0829 136.511C90.2732 136.378 90.3652 136.2 90.4064 136.077C90.4483 135.95 90.4528 135.873 90.468 135.873C90.4773 135.873 90.4977 135.951 90.4745 136.093C90.4514 136.232 90.3697 136.443 90.1601 136.611C89.9584 136.78 89.6097 136.883 89.2641 136.764C88.9216 136.654 88.6199 136.295 88.6244 135.873C88.6202 135.452 88.9216 135.093 89.2641 134.984C89.6097 134.864 89.9584 134.967 90.1601 135.136C90.3697 135.304 90.4514 135.515 90.4745 135.654C90.4977 135.796 90.4773 135.874 90.468 135.873Z" fill="#1D2A30"/>
<path d="M1.8145 141.953H49.1374V109.556H1.8145V141.953Z" fill="#1D2A30"/>
<path d="M-3.8147e-06 110.375H135.182V107.297H-3.8147e-06V110.375Z" fill="#1D2A30"/>
<path d="M6.00602 141.953H1.8145V110.375H6.00602V141.953Z" fill="#365462"/>
<path d="M54.3722 58.5497C54.3566 58.5497 54.3521 58.4084 54.3144 58.1581C54.2712 57.912 54.1992 57.5436 53.9709 57.1608C53.8536 56.9775 53.6941 56.7791 53.4651 56.6825C53.2399 56.5763 52.9531 56.6258 52.7434 56.8174C52.3148 57.1994 52.1304 57.8812 52.1245 58.5494C52.1304 59.2179 52.3145 59.9001 52.7434 60.2818C52.9531 60.4733 53.2399 60.5228 53.4651 60.4166C53.6944 60.3203 53.8536 60.1216 53.9712 59.9383C54.1992 59.5552 54.2712 59.1872 54.3144 58.941C54.3521 58.6911 54.3566 58.5494 54.3722 58.5497C54.3815 58.5494 54.4009 58.6911 54.3839 58.9489C54.3608 59.2036 54.3092 59.5849 54.0812 60.0015C53.9619 60.2015 53.7986 60.4265 53.526 60.5515C53.3921 60.6133 53.2309 60.6423 53.071 60.6164C52.9109 60.5894 52.7614 60.5112 52.6362 60.4071C52.1384 59.97 51.9543 59.2534 51.9443 58.5494C51.9547 57.8454 52.1384 57.1291 52.6362 56.6924C52.7614 56.5883 52.9109 56.5098 53.0707 56.4828C53.2309 56.4568 53.3917 56.4862 53.526 56.5477C53.7986 56.6726 53.9619 56.8976 54.0812 57.0977C54.3092 57.5142 54.3608 57.8959 54.3839 58.1503C54.4009 58.4081 54.3815 58.5497 54.3722 58.5497Z" fill="#1D2A30"/>
<path d="M39.4357 51.8896L38.4127 72.3472L47.2874 73.1724L47.778 68.2074C47.778 68.2074 50.9081 68.9709 51.8592 66.1125C52.4663 64.2866 53.007 49.9862 53.007 49.9862L39.4357 51.8896Z" fill="#F9AD95"/>
<path d="M54.9205 52.0959C54.1639 53.8751 51.3064 55.3978 51.3064 55.3978L50.8324 59.9267C50.456 59.8673 49.5576 59.9158 49.5576 59.9158C49.7859 57.7905 47.0128 58.205 46.7305 59.6543C46.4593 61.048 48.0672 61.978 48.0672 61.978C46.9574 63.6588 46.5073 64.5455 44.9322 66.1204C43.2274 67.8251 42.311 67.9631 40.5511 67.9119L38.6121 67.8231C38.6121 67.8231 37.9219 66.1884 37.4154 62.3269C37.1722 60.4693 35.7026 58.0353 36.1209 55.0154C37.3095 46.4332 46.9311 47.9573 46.9311 47.9573C50.5435 45.1962 56.7001 47.9108 54.9205 52.0959Z" fill="#1D2A30"/>
<path d="M54.3722 58.5901C54.3739 58.6393 53.4821 58.7233 52.3809 58.7786C51.2794 58.8332 50.3834 58.838 50.3792 58.7892C50.3751 58.7403 51.2666 58.656 52.3709 58.601C53.4744 58.5457 54.3708 58.541 54.3722 58.5901Z" fill="#1D2A30"/>
<path d="M82.7415 82.6226L79.5061 84.599L78.3192 87.3359V84.9541C78.3192 84.9541 79.1982 83.9404 79.9171 83.1801C80.636 82.4198 80.1223 81.9128 79.9171 81.6594C79.7116 81.4061 76.6154 84.9541 76.6154 84.9541V86.9931C75.1752 85.2416 74.5058 85.8439 74.2837 86.1624C74.0623 86.4809 76.6154 88.8542 76.6154 88.8542V89.5804L63.9321 96.3118L60.5934 88.1153L53.7729 91.6449L57.8437 101.372C59.0394 104.229 62.5217 105.379 65.218 103.806L80.1444 95.1004L81.1397 93.466C81.4836 92.9013 81.6863 92.2642 81.7306 91.607L82.2277 84.2443C83.1521 83.6871 82.7415 82.6226 82.7415 82.6226Z" fill="#F9AD95"/>
<path d="M63.9944 96.3148C64.0415 96.3319 63.7986 97.0929 63.4523 98.0151C63.1064 98.9376 62.7877 99.671 62.7414 99.6539C62.6947 99.6368 62.9375 98.8758 63.2835 97.9533C63.6294 97.0314 63.9477 96.2977 63.9944 96.3148Z" fill="#F6865E"/>
<path d="M82.2277 84.2444C82.2371 84.2731 81.9911 84.3373 81.6382 84.5066C81.4639 84.593 81.2705 84.7224 81.0882 84.8992C80.9114 85.072 80.7837 85.3236 80.6665 85.5995C80.1932 86.7166 79.7725 87.6081 79.7265 87.5889C79.6805 87.5702 80.0265 86.6487 80.5008 85.5298C80.6198 85.2499 80.7619 84.974 80.973 84.7818C81.1764 84.5967 81.393 84.4694 81.5853 84.3926C81.9714 84.2444 82.2232 84.2266 82.2277 84.2444Z" fill="#F6865E"/>
<path d="M82.1963 85.4092C82.1935 85.4293 82.0326 85.4007 81.9244 85.5888C81.824 85.7786 81.6933 86.0811 81.5628 86.402C81.301 87.0514 81.1581 87.6049 81.1069 87.595C81.0598 87.5875 81.1263 87.0046 81.3954 86.3365C81.5327 86.0022 81.6735 85.7199 81.8209 85.5157C81.9008 85.4126 82.0153 85.3641 82.0904 85.3669C82.1679 85.3675 82.2008 85.3996 82.1963 85.4092Z" fill="#F6865E"/>
<path d="M51.7353 90.3971L53.1845 95.2425L62.3834 91.1325C62.0526 90.1185 60.5315 85.5987 57.6189 78.4279C55.9961 74.4323 52.3864 71.549 48.0838 70.8426C45.073 70.3486 41.7983 69.9628 39.2759 69.9901C34.1176 70.0464 29.6808 73.6378 28.6605 78.628C27.8817 82.4372 29.2454 84.9514 28.3668 93.2844L28.0867 114.235L52.6452 115.126L51.7353 90.3971Z" fill="#FFD05A"/>
<path d="M29.5074 93.077C29.5074 93.077 26.0955 93.275 24.7514 90.7239C24.7514 90.7239 28.4303 77.3048 29.713 75.7244L29.5074 93.077Z" fill="#FFD05A"/>
<path d="M58.0835 79.7942C58.0887 79.8044 57.9908 79.8607 57.7919 79.9495C57.5881 80.0229 57.2733 80.1148 56.8557 80.124C56.4395 80.1363 55.9334 80.0666 55.3654 79.9382C54.797 79.8116 54.1632 79.6235 53.4561 79.5077C53.1035 79.4439 52.7289 79.4678 52.3421 79.4483C51.9571 79.5002 51.5519 79.5193 51.1482 79.6433C50.3349 79.845 49.5001 80.2025 48.6657 80.6631C47.8261 81.1158 46.9723 81.6488 46.0624 82.1735C45.1522 82.6932 44.1794 83.2183 43.0834 83.5344C41.9937 83.854 40.8209 83.8929 39.7796 83.587C38.7362 83.2845 37.8509 82.7235 37.0788 82.1421C36.3069 81.5535 35.6348 80.9321 35.001 80.3647C34.3722 79.7928 33.761 79.296 33.1688 78.8884C31.9873 78.0652 30.8636 77.6767 30.0658 77.5842C29.2647 77.4991 28.8165 77.6115 28.8116 77.5719C28.8093 77.5599 28.9185 77.5323 29.1313 77.4903C29.3444 77.4513 29.6655 77.4257 30.0793 77.4462C30.9057 77.4978 32.0865 77.8655 33.3116 78.6805C33.9252 79.0826 34.559 79.5791 35.1999 80.1451C35.8444 80.7047 36.5197 81.3128 37.2801 81.8816C38.0402 82.4432 38.896 82.9731 39.8768 83.2517C40.8552 83.533 41.9421 83.4965 42.9827 83.193C44.0282 82.8919 44.982 82.3835 45.8856 81.8717C46.7896 81.3562 47.6514 80.8266 48.5083 80.3742C49.3593 79.9154 50.2256 79.5545 51.0773 79.3568C51.499 79.2349 51.927 79.2196 52.3307 79.1741C52.7379 79.1998 53.1326 79.1854 53.4983 79.2598C54.2286 79.3961 54.8561 79.6023 55.4135 79.7453C55.9694 79.8901 56.4555 79.9765 56.8557 79.9854C57.6632 80.0031 58.071 79.7535 58.0835 79.7942Z" fill="#1D2A30"/>
<path d="M51.9 96.5139C51.8647 96.5682 51.3828 96.0902 50.3733 95.9656C49.8755 95.899 49.2728 95.9233 48.6169 96.0612C47.9586 96.1933 47.248 96.4265 46.472 96.6194C44.9073 97.0233 43.4079 96.9127 42.3926 96.6744C41.3668 96.4354 40.7977 96.1104 40.8143 96.0772C40.8361 96.0206 41.4339 96.2589 42.4424 96.4275C43.4456 96.5965 44.8775 96.6631 46.3855 96.2739C47.1418 96.0868 47.8658 95.8594 48.5543 95.7392C49.2413 95.6133 49.8904 95.6133 50.4141 95.7177C50.9417 95.8161 51.3378 96.0168 51.5769 96.1903C51.8176 96.3651 51.9142 96.4992 51.9 96.5139Z" fill="#1D2A30"/>
<path d="M52.1535 109.022C52.1691 109.038 52.0622 109.178 51.8287 109.393C51.5931 109.603 51.2295 109.893 50.7151 110.152C50.2034 110.407 49.5312 110.64 48.7522 110.644C47.9738 110.654 47.1463 110.425 46.343 110.112C45.5369 109.803 44.7979 109.454 44.1026 109.258C43.4048 109.058 42.7471 108.995 42.2057 109.038C41.6626 109.084 41.245 109.243 40.98 109.394C40.7119 109.541 40.5843 109.661 40.5607 109.636C40.549 109.626 40.6438 109.471 40.9039 109.278C41.1592 109.082 41.5976 108.871 42.1763 108.789C42.7527 108.708 43.4536 108.75 44.1905 108.942C44.9332 109.134 45.6805 109.477 46.4737 109.781C47.2628 110.089 48.0367 110.308 48.7532 110.316C49.4683 110.33 50.1048 110.14 50.6058 109.925C51.6108 109.475 52.112 108.971 52.1535 109.022Z" fill="#1D2A30"/>
<path d="M28.1794 107.297H27.9235L25.5036 93.3114C26.45 93.5023 27.4043 93.5804 28.3625 93.5907L28.1794 107.297Z" fill="#B2B1B0"/>
<path d="M45.1 114.948L29.1888 114.61L29.1305 114.273L45.0952 114.852C45.0969 114.884 45.0986 114.916 45.1 114.948Z" fill="#161C1E"/>
<path d="M28.1611 108.67L27.9235 107.297H28.1795L28.1611 108.67Z" fill="#161C1E"/>
<path d="M45.0951 114.852L29.1305 114.273L28.161 108.67L28.1794 107.297L28.3625 93.5906C28.4368 93.5916 28.5113 93.592 28.5856 93.592C30.8121 93.592 33.0618 93.2451 35.3002 93.114C35.9907 93.0737 36.7076 93.0214 37.415 93.0214C38.7435 93.0214 40.038 93.2048 41.0641 93.9911C41.8719 94.6108 42.367 95.5039 42.7133 96.4688C42.6198 96.4561 42.5296 96.4421 42.4424 96.4274C41.5374 96.2762 40.9631 96.0686 40.8392 96.0686C40.8251 96.0686 40.8168 96.0713 40.8143 96.0771C40.7977 96.1103 41.3668 96.4353 42.3926 96.6743C42.5247 96.705 42.6652 96.734 42.8125 96.76C42.9533 97.1926 43.0682 97.6354 43.1716 98.0707C44.077 101.887 44.4932 105.437 44.7602 109.115C44.5696 109.049 44.3797 108.99 44.1905 108.941C43.6875 108.811 43.201 108.75 42.7596 108.75C42.5548 108.75 42.359 108.763 42.1763 108.789C41.5976 108.87 41.1592 109.082 40.9039 109.278C40.6438 109.471 40.549 109.626 40.5607 109.636C40.5628 109.639 40.5659 109.64 40.5694 109.64C40.6074 109.64 40.7355 109.528 40.98 109.394C41.245 109.243 41.6626 109.084 42.2057 109.038C42.313 109.03 42.4251 109.025 42.541 109.025C43.0094 109.025 43.5432 109.098 44.1026 109.258C44.3261 109.321 44.5537 109.399 44.7865 109.487C44.9083 111.23 44.9993 113.004 45.0951 114.852Z" fill="#FFD05A"/>
<path d="M42.8125 96.76C42.6652 96.7341 42.5247 96.705 42.3926 96.6743C41.3668 96.4353 40.7977 96.1103 40.8143 96.0772C40.8168 96.0714 40.8251 96.0686 40.8392 96.0686C40.9631 96.0686 41.5374 96.2762 42.4424 96.4275C42.5296 96.4421 42.6199 96.4561 42.7133 96.4688C42.7479 96.5654 42.7807 96.6624 42.8125 96.76Z" fill="#161C1E"/>
<path d="M40.5694 109.64C40.5659 109.64 40.5628 109.639 40.5607 109.636C40.549 109.626 40.6438 109.471 40.9039 109.278C41.1592 109.082 41.5976 108.87 42.1763 108.789C42.359 108.763 42.5548 108.75 42.7596 108.75C43.201 108.75 43.6874 108.811 44.1905 108.942C44.3797 108.99 44.5696 109.049 44.7602 109.115C44.7692 109.239 44.7779 109.363 44.7865 109.487C44.5537 109.399 44.3261 109.321 44.1026 109.258C43.5432 109.098 43.0094 109.025 42.541 109.025C42.4251 109.025 42.313 109.03 42.2057 109.038C41.6626 109.084 41.245 109.243 40.98 109.394C40.7354 109.528 40.6074 109.64 40.5694 109.64Z" fill="#161C1E"/>
<path d="M30.4022 92.2129H29.5176L29.6265 83.0219L29.713 82.4213L30.4022 92.2129Z" fill="#FFD05A"/>
<path d="M29.5175 92.2129H28.3032L29.6265 83.0219L29.5175 92.2129Z" fill="#FFD05A"/>
<path d="M34.1838 114.235L65.7671 115.339C70.8937 115.518 74.9327 119.713 74.8531 124.775L74.5739 142.467H62.9922L62.247 127.213L34.1838 126.484V114.235Z" fill="#1D2A30"/>
<path d="M44.7738 141.631H41.6675V130.409H44.7738V141.631Z" fill="#365462"/>
<path d="M15.6007 94.7528V121.794C15.6007 125.34 18.514 128.215 22.1074 128.215H40.3525V94.7528C40.3525 93.1724 39.0541 91.891 37.4527 91.891H18.5006C16.8991 91.891 15.6007 93.1724 15.6007 94.7528Z" fill="#365462"/>
<path d="M64.9095 130.408H20.4772C20.4772 127.78 22.6365 125.649 25.3001 125.649H60.0866C62.7501 125.649 64.9095 127.78 64.9095 130.408Z" fill="#365462"/>
<path d="M40.3525 125.018C40.3525 125.018 40.3964 125.306 40.2837 125.813C40.173 126.31 39.8491 127.048 39.0919 127.624C38.7168 127.904 38.2405 128.145 37.6883 128.237C37.4147 128.292 37.1199 128.293 36.8328 128.295C36.5419 128.297 36.2426 128.298 35.9361 128.3C34.7062 128.303 33.359 128.307 31.9438 128.311C29.1212 128.303 26.5672 128.297 24.6898 128.293C23.7794 128.282 23.0343 128.273 22.4914 128.267C22.2479 128.26 22.05 128.255 21.8938 128.251C21.7573 128.245 21.6856 128.239 21.6856 128.232C21.6856 128.227 21.7573 128.22 21.8938 128.215C22.05 128.21 22.2479 128.204 22.4914 128.197C23.0343 128.189 23.7794 128.179 24.6898 128.167C26.5672 128.158 29.1212 128.146 31.9435 128.133C33.3588 128.134 34.7062 128.135 35.9361 128.136C36.2426 128.137 36.5415 128.138 36.8328 128.139C37.1258 128.14 37.3988 128.142 37.6624 128.092C38.1907 128.011 38.6497 127.787 39.0154 127.523C39.7533 126.983 40.0872 126.278 40.2155 125.796C40.347 125.305 40.33 125.016 40.3525 125.018Z" fill="#1D2A30"/>
<path d="M45.9462 130.503C45.9462 130.552 44.726 130.592 43.2208 130.592C41.7152 130.592 40.495 130.552 40.495 130.503C40.495 130.454 41.7152 130.414 43.2208 130.414C44.726 130.414 45.9462 130.454 45.9462 130.503Z" fill="#1D2A30"/>
<path d="M59.4649 128.452C59.4524 128.453 59.4241 128.339 59.3805 128.12C59.3372 127.902 59.2791 127.578 59.2082 127.161C59.0663 126.327 58.8726 125.118 58.6405 123.624C58.517 122.88 58.4166 122.05 58.2485 121.187C58.2056 120.971 58.162 120.753 58.1177 120.53C58.0534 120.313 57.9877 120.092 57.9212 119.867C57.888 119.755 57.8548 119.643 57.8213 119.529C57.7773 119.419 57.7331 119.308 57.6884 119.196C57.5974 118.973 57.5137 118.744 57.4137 118.519C56.9944 117.624 56.4427 116.738 55.7587 115.906C55.0685 115.078 54.223 114.332 53.2724 113.694C52.3203 113.057 51.2966 112.568 50.2564 112.26C49.2199 111.951 48.1803 111.753 47.1809 111.74C45.1664 111.696 43.3342 111.708 41.8048 111.684C40.2729 111.668 39.033 111.649 38.1765 111.628C37.7482 111.617 37.4157 111.606 37.1902 111.594C36.9646 111.583 36.8463 111.571 36.8463 111.558C36.8463 111.546 36.9646 111.534 37.1902 111.523C37.4157 111.511 37.7482 111.5 38.1765 111.489C39.033 111.468 40.2729 111.449 41.8048 111.433C43.3387 111.425 45.156 111.386 47.1912 111.412C48.2198 111.417 49.2919 111.614 50.3619 111.928C51.435 112.24 52.4919 112.742 53.4734 113.399C54.4538 114.056 55.3235 114.828 56.031 115.684C56.7326 116.545 57.2944 117.461 57.7168 118.385C57.8178 118.618 57.9015 118.855 57.9929 119.084C58.0375 119.199 58.0814 119.314 58.1254 119.428C58.1586 119.545 58.1918 119.662 58.2246 119.777C58.29 120.008 58.3544 120.236 58.4177 120.46C58.4602 120.689 58.5018 120.914 58.5426 121.135C58.701 122.02 58.7844 122.838 58.8927 123.589C59.0923 125.087 59.2476 126.302 59.3469 127.142C59.3967 127.562 59.4324 127.888 59.4524 128.11C59.4725 128.332 59.4773 128.45 59.4649 128.452Z" fill="#365462"/>
<path d="M3.3914 95.7308C3.3914 95.7308 2.83369 97.2795 3.90599 98.3979H6.14778C6.14778 98.3979 5.93914 95.8977 3.3914 95.7308Z" fill="#F03658"/>
<path d="M6.14778 98.3979H3.90598C3.38031 97.8496 3.24639 97.1979 3.24639 96.6758C3.24639 96.1333 3.39139 95.7308 3.39139 95.7308C5.93914 95.8977 6.14778 98.3979 6.14778 98.3979Z" fill="#FFD05A"/>
<path d="M7.19387 92.5469C7.10157 92.438 5.19292 95.3865 6.26523 98.3982H8.36712C8.36712 98.3982 9.18959 94.8956 7.19387 92.5469Z" fill="#FFD05A"/>
<path d="M10.9214 95.7307C10.9214 95.7307 8.52144 95.8434 8.36711 98.3982H10.4688C10.4688 98.3982 11.3876 97.1227 10.9214 95.7307Z" fill="#FFD05A"/>
<path d="M3.73287 98.2804C3.73287 98.2804 1.30258 99.8349 1.84272 102.899C2.38273 105.964 5.66804 107.297 5.66804 107.297H9.31336C9.31336 107.297 13.0204 105.688 12.9304 102.357C12.8406 99.0257 10.6315 98.3303 10.6315 98.3303L3.73287 98.2804Z" fill="#365462"/>
<path d="M12.918 101.985C12.9007 101.995 12.8494 101.818 12.6165 101.615C12.3898 101.417 11.9493 101.217 11.3999 101.271C10.8457 101.321 10.2512 101.643 9.6196 102.035C9.29904 102.226 8.95551 102.43 8.56147 102.572C8.17093 102.72 7.71645 102.775 7.2763 102.699C6.38804 102.551 5.67818 102.08 5.01399 101.764C4.3552 101.436 3.69627 101.241 3.14842 101.321C2.59827 101.391 2.20449 101.656 2.01191 101.89C1.81097 102.125 1.78502 102.308 1.76448 102.299C1.7584 102.297 1.7661 102.255 1.78691 102.173C1.81313 102.094 1.8584 101.976 1.95664 101.847C2.14273 101.587 2.54962 101.287 3.13017 101.197C3.71612 101.095 4.41207 101.291 5.0864 101.616C5.76588 101.932 6.46899 102.386 7.30457 102.524C7.71874 102.594 8.12942 102.545 8.50145 102.409C8.87539 102.276 9.21283 102.081 9.53418 101.894C10.1682 101.512 10.797 101.183 11.3884 101.146C11.9799 101.105 12.4377 101.338 12.6641 101.564C12.7804 101.678 12.844 101.788 12.8803 101.863C12.9126 101.941 12.9233 101.983 12.918 101.985Z" fill="#1D2A30"/>
<path d="M12.968 102.788C12.9507 102.798 12.9005 102.623 12.6713 102.42C12.4481 102.222 12.0129 102.02 11.4683 102.074C10.9194 102.124 10.3315 102.446 9.70745 102.837C9.39056 103.028 9.05122 103.232 8.66109 103.375C8.27459 103.522 7.82323 103.578 7.38688 103.502C6.50606 103.353 5.80509 102.881 5.1482 102.566C4.49657 102.238 3.84373 102.043 3.30127 102.125C2.7564 102.195 2.36842 102.463 2.1795 102.695C1.98207 102.929 1.95666 103.11 1.93612 103.102C1.93004 103.101 1.93747 103.058 1.95787 102.977C1.98328 102.899 2.02761 102.781 2.12382 102.653C2.30599 102.394 2.70694 102.091 3.28262 102C3.86372 101.897 4.55427 102.093 5.22103 102.419C5.89348 102.734 6.58808 103.189 7.41553 103.326C7.82565 103.397 8.23242 103.348 8.60041 103.211C8.97027 103.078 9.3038 102.884 9.62134 102.697C10.248 102.315 10.87 101.986 11.4568 101.949C12.0438 101.908 12.4969 102.143 12.7194 102.369C12.8337 102.482 12.8959 102.592 12.9313 102.667C12.9629 102.744 12.9734 102.787 12.968 102.788Z" fill="#1D2A30"/>
<path d="M3.51381 102.767C3.49949 102.748 3.60964 102.684 3.73965 102.789C3.79963 102.836 3.85329 102.949 3.80977 103.061C3.77085 103.165 3.66381 103.259 3.51869 103.252C3.37531 103.239 3.28193 103.134 3.25449 103.029C3.22355 102.917 3.27787 102.813 3.33531 102.765C3.45991 102.662 3.56705 102.709 3.55854 102.729C3.5584 102.754 3.48112 102.769 3.43004 102.85C3.40504 102.889 3.39409 102.937 3.41369 102.982C3.43085 103.028 3.4833 103.073 3.531 103.075C3.57746 103.079 3.63503 103.041 3.65586 102.999C3.67869 102.958 3.67084 102.913 3.64627 102.875C3.59573 102.797 3.51803 102.792 3.51381 102.767Z" fill="#1D2A30"/>
<path d="M7.64189 101.47C7.62756 101.451 7.73768 101.387 7.86783 101.492C7.92768 101.538 7.98147 101.652 7.93781 101.763C7.89917 101.867 7.79189 101.961 7.64673 101.955C7.50337 101.942 7.40999 101.837 7.38266 101.731C7.35174 101.619 7.40591 101.515 7.46334 101.468C7.58809 101.365 7.69513 101.411 7.68676 101.432C7.68648 101.457 7.6093 101.472 7.5581 101.552C7.53308 101.592 7.52229 101.64 7.54173 101.684C7.55917 101.731 7.61134 101.775 7.65918 101.778C7.70564 101.782 7.76321 101.744 7.7839 101.701C7.80673 101.66 7.79905 101.616 7.77431 101.578C7.72391 101.499 7.64621 101.494 7.64189 101.47Z" fill="#1D2A30"/>
<path d="M11.6445 102.826C11.6303 102.807 11.7403 102.743 11.8704 102.848C11.9303 102.894 11.9842 103.008 11.9405 103.119C11.9018 103.223 11.7945 103.317 11.6495 103.311C11.5061 103.298 11.4127 103.193 11.3854 103.087C11.3545 102.975 11.4087 102.871 11.4661 102.824C11.5906 102.721 11.6979 102.767 11.6895 102.788C11.6892 102.813 11.612 102.828 11.5608 102.908C11.5358 102.948 11.5249 102.995 11.5443 103.04C11.5616 103.087 11.6141 103.132 11.6619 103.134C11.7081 103.138 11.766 103.1 11.7866 103.058C11.8095 103.017 11.8018 102.972 11.7769 102.934C11.7264 102.855 11.649 102.85 11.6445 102.826Z" fill="#1D2A30"/>
<path d="M116.95 95.1482L118.137 107.297H124.136L125.573 95.1482H116.95Z" fill="#365462"/>
<path d="M116.95 93.578C116.95 93.578 116.45 94.0713 116.388 95.1816H126.135C126.135 95.1816 126.323 94.1946 125.573 93.578H116.95Z" fill="#1D2A30"/>
<path d="M118.062 92.4654L117.732 93.6672L125.09 93.7218L124.604 92.4514L118.062 92.4654Z" fill="#1D2A30"/>
<path d="M116.827 98.1892C116.827 98.3019 117.541 104.303 117.541 104.303H124.875L125.573 98.1892H116.827Z" fill="#FFD05A"/>
</svg>
