<svg width="30" height="31" viewBox="0 0 30 31" fill="none" xmlns="http://www.w3.org/2000/svg">
<path d="M29.9999 28.1137C29.9999 29.4092 28.9091 30.5001 27.6136 30.5001C26.9318 30.5001 26.3182 30.2273 25.8408 29.7501L18.2045 21.4319C17.9318 21.1591 17.9318 20.7501 18.2045 20.4773L19.9773 18.7046C20.25 18.4318 20.6591 18.4318 20.9318 18.7046L29.2499 26.4092C29.7272 26.8183 29.9999 27.5001 29.9999 28.1137Z" fill="#FFCC00"/>
<path d="M18.4054 20.2554L19.7553 18.9055L17.7304 16.8807L16.3806 18.2306L18.4054 20.2554Z" fill="#B0C4D8"/>
<path d="M18.7501 19.2501L19.091 19.591L19.7728 18.9092L17.7273 16.8638L16.3636 18.2274L17.3864 19.2501C17.7955 18.841 18.341 18.841 18.7501 19.2501Z" fill="#99B4CD"/>
<path d="M10.2272 0.5C4.5682 0.5 0 5.0682 0 10.7272C0 16.3863 4.5682 20.9545 10.2272 20.9545C15.8863 20.9545 20.4545 16.3863 20.4545 10.7272C20.4545 5.0682 15.8864 0.5 10.2272 0.5ZM10.2272 18.9091C5.72725 18.9091 2.04545 15.2273 2.04545 10.7273C2.04545 6.22731 5.72725 2.54545 10.2272 2.54545C14.7272 2.54545 18.409 6.22725 18.409 10.7272C18.409 15.2272 14.7272 18.9091 10.2272 18.9091Z" fill="#C4D7E5"/>
<path d="M10.2273 18.909C14.746 18.909 18.4091 15.2459 18.4091 10.7272C18.4091 6.20852 14.746 2.54541 10.2273 2.54541C5.70862 2.54541 2.0455 6.20852 2.0455 10.7272C2.0455 15.2459 5.70862 18.909 10.2273 18.909Z" fill="#70B7E5"/>
<path d="M6.20459 11.6817C6.54549 9.09081 8.59094 7.04536 11.1818 6.70446H11.25C12.4091 6.56812 12.4773 4.93171 11.3864 4.72722C10.7046 4.59087 10.0227 4.59087 9.34094 4.65901C6.68183 5.06812 4.56818 7.18177 4.22728 9.77267C4.09093 10.4545 4.15908 11.2045 4.29548 11.8181C4.50004 12.9772 6.13638 12.8409 6.27273 11.6818C6.20459 11.7499 6.20459 11.6817 6.20459 11.6817Z" fill="#92C5EB"/>
<path d="M2.7273 11.409C2.7273 6.909 6.40909 3.22721 10.9091 3.22721C13.0227 3.22721 14.8636 4.04541 16.3636 5.27266C14.8636 3.56811 12.6818 2.54541 10.2273 2.54541C5.7273 2.54541 2.0455 6.22721 2.0455 10.7272C2.0455 13.1818 3.1364 15.3636 4.77275 16.8636C3.5455 15.3636 2.7273 13.5227 2.7273 11.409Z" fill="#4C9CD6"/>
<path d="M10.2272 20.9545C15.8863 20.9545 20.4545 16.3863 20.4545 10.7273C20.1136 10.7273 19.7727 11 19.7727 11.4091C19.6363 13.7273 18.6136 15.8409 17.0454 17.4091C15.4772 19.0454 13.2954 20.0682 10.9091 20.2727C10.5 20.2727 10.2272 20.6136 10.2272 20.9545Z" fill="#B0C9DB"/>
<path d="M10.2272 0.5C4.5682 0.5 0 5.0682 0 10.7272C0.340898 10.7272 0.681797 10.4545 0.681797 10.0455C0.818203 7.79545 1.77275 5.75 3.20455 4.25C4.8409 2.54545 7.0909 1.38635 9.54545 1.1818C9.95455 1.1818 10.2272 0.840898 10.2272 0.5Z" fill="#E2E7F0"/>
<path d="M29.1819 26.3409L28.7728 26C29.1137 26.4091 29.3182 26.9545 29.3182 27.5C29.3182 28.3863 28.2273 28.7272 27.6137 28.1136L20.4546 20.9545C20.0455 20.5454 19.4319 20.5454 19.0228 20.9545L18.341 21.6363L25.7728 29.6136C26.1819 30.0227 26.7274 30.3636 27.2728 30.4318C28.0228 30.5 28.7728 30.2272 29.2501 29.75C29.7273 29.2727 30.0001 28.5227 29.9319 27.7727C29.9319 27.2272 29.591 26.75 29.1819 26.3409Z" fill="#FFCC00"/>
<path d="M22.1592 21.6362C22.091 21.6362 21.9546 21.6362 21.8864 21.568L20.1819 19.8634C20.0455 19.7271 20.0455 19.5225 20.1819 19.3862C20.3182 19.2498 20.5227 19.2498 20.6591 19.3862L22.3637 21.0907C22.5 21.2271 22.5 21.4316 22.3637 21.568C22.3637 21.6362 22.2273 21.6362 22.1592 21.6362Z" fill="#FFCC00"/>
</svg>
