<svg width="140" height="152" viewBox="0 0 140 152" fill="none" xmlns="http://www.w3.org/2000/svg">
<path d="M85.7915 14.1534C85.7867 14.1534 85.7825 14.1534 85.7777 14.1534C85.4568 14.1402 85.1304 14.1312 84.8089 14.1258C84.6289 14.1228 84.4855 13.9742 84.4885 13.7937C84.4915 13.615 84.6367 13.4723 84.8142 13.4723C84.816 13.4723 84.8178 13.4723 84.8196 13.4723C85.1466 13.4777 85.4777 13.4873 85.8041 13.5005C85.984 13.5077 86.1238 13.6594 86.1167 13.8399C86.1095 14.0155 85.9648 14.1534 85.7915 14.1534ZM81.938 14.1822C81.7665 14.1822 81.6224 14.0479 81.6129 13.874C81.6033 13.6936 81.7408 13.5395 81.9201 13.5293C82.2464 13.5113 82.5776 13.4969 82.9045 13.4867C83.0844 13.4807 83.2345 13.6228 83.2405 13.8033C83.2458 13.9837 83.1048 14.1342 82.9249 14.1396C82.6027 14.1498 82.2769 14.1642 81.9566 14.1822C81.95 14.1822 81.944 14.1822 81.938 14.1822ZM88.6587 14.3741C88.6468 14.3741 88.6342 14.3735 88.6217 14.3717C88.3019 14.3357 87.9779 14.3027 87.6576 14.2745C87.4782 14.2583 87.3461 14.1001 87.3617 13.9202C87.3778 13.7403 87.5356 13.6072 87.7149 13.6234C88.0401 13.6522 88.37 13.6858 88.6952 13.7224C88.8739 13.7427 89.0024 13.9046 88.9821 14.0839C88.9636 14.2505 88.8225 14.3741 88.6587 14.3741ZM79.0744 14.4466C78.913 14.4466 78.7725 14.3261 78.7516 14.1612C78.7283 13.9819 78.8544 13.8183 79.0331 13.7955C79.3565 13.7535 79.6858 13.7151 80.0116 13.6816C80.1903 13.663 80.3505 13.7931 80.369 13.973C80.3876 14.1522 80.2579 14.3129 80.0785 14.3315C79.7582 14.3651 79.4348 14.4022 79.1162 14.4436C79.1019 14.4454 79.0881 14.4466 79.0744 14.4466ZM91.5033 14.8021C91.4829 14.8021 91.4626 14.8003 91.4423 14.7967C91.1261 14.7374 90.8051 14.681 90.4877 14.6295C90.3102 14.6001 90.1895 14.4322 90.2188 14.2541C90.2475 14.0761 90.4142 13.955 90.5923 13.9843C90.9145 14.0365 91.2409 14.0935 91.5624 14.154C91.7393 14.1876 91.8559 14.3585 91.823 14.5359C91.7931 14.6924 91.6569 14.8021 91.5033 14.8021ZM76.237 14.9178C76.0852 14.9178 75.9495 14.8111 75.9184 14.6564C75.882 14.4796 75.9962 14.3069 76.1725 14.2709C76.4929 14.2056 76.8186 14.1432 77.1402 14.0863C77.3171 14.0545 77.4863 14.1726 77.5179 14.3507C77.5496 14.5281 77.4313 14.6978 77.2543 14.7296C76.9381 14.7859 76.6178 14.8471 76.3022 14.9112C76.2807 14.916 76.2585 14.9178 76.237 14.9178ZM94.3083 15.4376C94.2808 15.4376 94.2527 15.434 94.2246 15.4268C93.9138 15.3441 93.5976 15.2644 93.285 15.19C93.1099 15.1481 93.0017 14.9718 93.0436 14.7961C93.0848 14.6205 93.2605 14.5119 93.4357 14.5539C93.7536 14.6301 94.0752 14.711 94.3914 14.7949C94.5653 14.8411 94.6687 15.0198 94.6227 15.1942C94.5845 15.3411 94.4524 15.4376 94.3083 15.4376ZM73.4421 15.5965C73.2993 15.5965 73.169 15.5024 73.1283 15.3579C73.0799 15.1846 73.1809 15.0042 73.3537 14.955C73.6687 14.8663 73.9884 14.7805 74.3058 14.6996C74.4804 14.6552 74.6573 14.7608 74.7015 14.9358C74.7457 15.1103 74.6405 15.2884 74.466 15.3327C74.1546 15.4125 73.8396 15.497 73.53 15.5845C73.5007 15.5923 73.4708 15.5965 73.4421 15.5965ZM97.0626 16.2788C97.0273 16.2788 96.9921 16.2728 96.9568 16.2608C96.6514 16.1553 96.3411 16.0522 96.0333 15.9545C95.8618 15.8999 95.7667 15.7158 95.8211 15.5438C95.8755 15.3717 96.059 15.277 96.2306 15.3315C96.5432 15.431 96.8588 15.5354 97.169 15.6427C97.3393 15.702 97.4296 15.8879 97.371 16.0582C97.3244 16.1937 97.1983 16.2788 97.0626 16.2788ZM70.7034 16.4785C70.5701 16.4785 70.4452 16.3957 70.3974 16.2632C70.3358 16.0935 70.4237 15.9059 70.5928 15.8447C70.9 15.7326 71.2132 15.6235 71.5235 15.5198C71.6938 15.4628 71.8785 15.5552 71.9353 15.726C71.9927 15.8975 71.9006 16.0822 71.7297 16.1397C71.4248 16.2416 71.1164 16.3496 70.8146 16.4593C70.7781 16.4725 70.7404 16.4785 70.7034 16.4785ZM99.7517 17.3214C99.7093 17.3214 99.6656 17.313 99.6238 17.295C99.3267 17.1673 99.0249 17.0414 98.726 16.9215C98.5587 16.8544 98.4774 16.6643 98.5443 16.497C98.6113 16.3292 98.8007 16.2476 98.9681 16.3148C99.2717 16.4371 99.579 16.5648 99.8808 16.6943C100.046 16.7656 100.122 16.9575 100.051 17.1236C99.9986 17.2477 99.8784 17.3214 99.7517 17.3214ZM68.0445 17.5564C67.9199 17.5564 67.801 17.4839 67.7469 17.3628C67.6735 17.1979 67.747 17.0049 67.9113 16.9311C68.2087 16.7974 68.5119 16.6661 68.8126 16.5402C68.9788 16.4707 69.1694 16.5492 69.2388 16.7159C69.3081 16.8825 69.2297 17.0738 69.0637 17.1434C68.768 17.2675 68.4697 17.3964 68.1772 17.5277C68.1341 17.5468 68.0889 17.5564 68.0445 17.5564ZM102.356 18.5583C102.306 18.5583 102.254 18.5469 102.207 18.5217C101.92 18.3724 101.629 18.2255 101.339 18.0834C101.177 18.0043 101.11 17.8089 101.189 17.6464C101.268 17.4845 101.463 17.4174 101.625 17.4965C101.919 17.6404 102.215 17.7903 102.507 17.9419C102.666 18.0247 102.728 18.2219 102.646 18.382C102.588 18.4941 102.474 18.5583 102.356 18.5583ZM65.469 18.8263C65.3528 18.8263 65.2405 18.7639 65.1817 18.6542C65.0965 18.4953 65.1559 18.2969 65.3143 18.2117C65.6017 18.0565 65.8948 17.903 66.1856 17.7555C66.3461 17.674 66.5421 17.7387 66.6234 17.8994C66.7046 18.0607 66.6403 18.2573 66.4798 18.3389C66.1938 18.4839 65.9055 18.6344 65.6229 18.7873C65.5738 18.8137 65.521 18.8263 65.469 18.8263ZM104.862 19.9822C104.804 19.9822 104.745 19.9666 104.692 19.9336C104.418 19.7646 104.138 19.5961 103.859 19.4336C103.704 19.3431 103.651 19.1428 103.741 18.987C103.832 18.8311 104.031 18.7783 104.187 18.8688C104.47 19.0343 104.755 19.2052 105.033 19.3773C105.187 19.472 105.235 19.6728 105.14 19.8269C105.079 19.927 104.972 19.9822 104.862 19.9822ZM62.9908 20.2814C62.8831 20.2814 62.7776 20.228 62.7156 20.1303C62.6191 19.9774 62.664 19.776 62.8158 19.6788C63.0913 19.5032 63.3728 19.3287 63.6522 19.1602C63.8063 19.0673 64.0065 19.1171 64.0993 19.2717C64.192 19.4264 64.1422 19.6273 63.988 19.7202C63.7131 19.8863 63.4363 20.0577 63.1653 20.2304C63.1111 20.2652 63.0506 20.2814 62.9908 20.2814ZM107.258 21.5848C107.191 21.5848 107.125 21.5644 107.067 21.523C106.806 21.3336 106.539 21.1453 106.273 20.9637C106.125 20.8617 106.087 20.6585 106.188 20.5092C106.29 20.3605 106.493 20.3221 106.642 20.4241C106.911 20.6093 107.182 20.8006 107.448 20.9924C107.594 21.098 107.627 21.3024 107.522 21.4487C107.459 21.5374 107.359 21.5848 107.258 21.5848ZM60.6233 21.9139C60.5237 21.9139 60.4253 21.8684 60.3614 21.782C60.2542 21.6369 60.2844 21.4325 60.4288 21.3252C60.6909 21.1297 60.9591 20.9355 61.226 20.7466C61.3731 20.6429 61.5763 20.6777 61.6799 20.8258C61.7836 20.9732 61.7484 21.1771 61.6013 21.2808C61.3388 21.4667 61.0749 21.6579 60.8172 21.8498C60.7589 21.893 60.6907 21.9139 60.6233 21.9139ZM109.53 23.3558C109.456 23.3558 109.382 23.3313 109.321 23.2797C109.074 23.0729 108.821 22.866 108.57 22.6646C108.429 22.5525 108.406 22.3468 108.518 22.2059C108.63 22.0644 108.835 22.041 108.976 22.1537C109.231 22.3582 109.488 22.5686 109.739 22.7791C109.877 22.8948 109.895 23.101 109.78 23.2389C109.715 23.3163 109.623 23.3558 109.53 23.3558ZM58.3786 23.7156C58.2871 23.7156 58.196 23.6766 58.1316 23.6017C58.0142 23.465 58.0296 23.2587 58.1659 23.1406C58.413 22.9278 58.6666 22.7137 58.9196 22.5057C59.0588 22.3912 59.264 22.4122 59.3781 22.5513C59.4921 22.6909 59.4717 22.8972 59.3325 23.0111C59.0836 23.2161 58.8341 23.426 58.5911 23.6358C58.5296 23.6892 58.4539 23.7156 58.3786 23.7156ZM111.668 25.287C111.586 25.287 111.504 25.2564 111.441 25.1952C111.21 24.971 110.973 24.7468 110.737 24.5274C110.604 24.405 110.596 24.1988 110.718 24.0657C110.84 23.9332 111.046 23.9248 111.178 24.0471C111.418 24.2695 111.66 24.498 111.894 24.7258C112.023 24.8511 112.026 25.0579 111.901 25.188C111.837 25.254 111.753 25.287 111.668 25.287ZM56.2688 25.6749C56.1851 25.6749 56.1015 25.6431 56.0379 25.579C55.911 25.4513 55.9114 25.2444 56.0389 25.1167C56.2703 24.8859 56.5079 24.6545 56.7453 24.4284C56.8759 24.3043 57.0821 24.3097 57.2058 24.441C57.3296 24.5717 57.3241 24.7786 57.1936 24.9027C56.96 25.1251 56.7262 25.3529 56.4986 25.5801C56.4351 25.6437 56.3519 25.6749 56.2688 25.6749ZM113.66 27.3674C113.57 27.3674 113.481 27.3308 113.417 27.2583C113.203 27.0185 112.983 26.7774 112.763 26.5418C112.64 26.4105 112.646 26.2037 112.777 26.0802C112.909 25.9567 113.115 25.9633 113.238 26.0946C113.462 26.3344 113.686 26.579 113.903 26.823C114.023 26.9579 114.011 27.1642 113.877 27.2847C113.815 27.3404 113.737 27.3674 113.66 27.3674ZM54.3049 27.7835C54.2291 27.7835 54.153 27.7571 54.0914 27.7037C53.9556 27.585 53.9411 27.3788 54.0591 27.2427C54.2735 26.9951 54.4939 26.7469 54.7144 26.5047C54.8356 26.371 55.0417 26.362 55.1746 26.4831C55.3075 26.6054 55.3169 26.8116 55.1956 26.9447C54.9788 27.1833 54.7619 27.4274 54.5509 27.6714C54.4865 27.7457 54.396 27.7835 54.3049 27.7835ZM115.496 29.5857C115.399 29.5857 115.302 29.5419 115.238 29.4586C115.042 29.2038 114.84 28.9478 114.638 28.6966C114.524 28.5569 114.546 28.3507 114.686 28.2373C114.825 28.1234 115.03 28.145 115.143 28.2853C115.35 28.5401 115.555 28.8003 115.754 29.0593C115.864 29.2026 115.837 29.4077 115.695 29.518C115.635 29.5635 115.565 29.5857 115.496 29.5857ZM52.4975 30.03C52.4295 30.03 52.361 30.0084 52.3025 29.9646C52.1585 29.8567 52.1291 29.6517 52.237 29.5072C52.4332 29.2446 52.6353 28.9808 52.8377 28.723C52.9489 28.5815 53.1538 28.5569 53.2951 28.669C53.4364 28.7805 53.4607 28.9862 53.3494 29.1277C53.1503 29.3807 52.9516 29.6403 52.7585 29.8993C52.6945 29.9844 52.5966 30.03 52.4975 30.03ZM117.167 31.9305C117.062 31.9305 116.958 31.879 116.895 31.7842C116.718 31.5157 116.536 31.2459 116.351 30.9815C116.249 30.8334 116.285 30.6295 116.432 30.5264C116.58 30.4233 116.783 30.4592 116.886 30.6073C117.073 30.8765 117.259 31.1511 117.439 31.4233C117.538 31.5744 117.497 31.7771 117.347 31.8766C117.291 31.9132 117.229 31.9305 117.167 31.9305ZM50.8565 32.4024C50.7963 32.4024 50.7354 32.3856 50.681 32.3508C50.5295 32.2537 50.4855 32.051 50.5826 31.8994C50.7592 31.623 50.9417 31.3454 51.1251 31.0732C51.226 30.9239 51.4285 30.8843 51.5775 30.9856C51.7266 31.087 51.7656 31.2896 51.6648 31.4395C51.4843 31.7069 51.3048 31.9803 51.1311 32.2519C51.0689 32.3496 50.9638 32.4024 50.8565 32.4024ZM118.663 34.3893C118.549 34.3893 118.439 34.3293 118.379 34.2226C118.222 33.942 118.059 33.6596 117.895 33.3832C117.803 33.2279 117.854 33.0271 118.009 32.9348C118.164 32.843 118.363 32.894 118.455 33.0487C118.622 33.3299 118.788 33.6171 118.947 33.9024C119.035 34.0601 118.98 34.2592 118.823 34.3473C118.772 34.3761 118.717 34.3893 118.663 34.3893ZM49.3914 34.8899C49.3389 34.8899 49.2857 34.8767 49.2363 34.8503C49.0782 34.764 49.0196 34.5655 49.1054 34.4073C49.2615 34.1183 49.4235 33.8275 49.5869 33.5427C49.6766 33.3862 49.8759 33.3329 50.0317 33.4228C50.1877 33.5127 50.2414 33.7124 50.1516 33.8689C49.991 34.1488 49.8316 34.4348 49.678 34.719C49.619 34.8281 49.507 34.8899 49.3914 34.8899ZM119.977 36.9493C119.855 36.9493 119.737 36.8798 119.682 36.7617C119.545 36.4697 119.403 36.1765 119.261 35.8893C119.18 35.7281 119.245 35.5314 119.406 35.4511C119.567 35.3701 119.763 35.4355 119.843 35.5974C119.989 35.8887 120.133 36.1873 120.271 36.4841C120.348 36.6472 120.278 36.842 120.115 36.9188C120.07 36.9397 120.023 36.9493 119.977 36.9493ZM48.1106 37.4787C48.0658 37.4787 48.0203 37.4691 47.9767 37.4494C47.8128 37.3756 47.7398 37.1819 47.8139 37.0171C47.9489 36.7173 48.0893 36.4151 48.2315 36.1196C48.3095 35.9571 48.5043 35.8887 48.6664 35.9673C48.8284 36.0452 48.8965 36.2407 48.8184 36.4031C48.6786 36.6939 48.5404 36.9913 48.4077 37.2863C48.3533 37.4068 48.2347 37.4787 48.1106 37.4787ZM121.101 39.6005C120.97 39.6005 120.846 39.5208 120.797 39.3907C120.682 39.0897 120.562 38.7857 120.439 38.4872C120.37 38.3205 120.45 38.1292 120.616 38.0603C120.782 37.9919 120.973 38.0717 121.042 38.2384C121.166 38.5417 121.289 38.8505 121.405 39.1569C121.47 39.3253 121.385 39.5142 121.217 39.5789C121.179 39.5933 121.14 39.6005 121.101 39.6005ZM47.0218 40.1563C46.9846 40.1563 46.9468 40.1497 46.9099 40.1359C46.7409 40.0742 46.6541 39.8865 46.7159 39.7168C46.8283 39.4087 46.9464 39.0969 47.0669 38.7905C47.1329 38.6227 47.3222 38.5399 47.4894 38.6065C47.6568 38.6724 47.739 38.8625 47.673 39.0303C47.5545 39.3319 47.4383 39.6383 47.3277 39.9417C47.2794 40.0742 47.1546 40.1563 47.0218 40.1563ZM122.03 42.3302C121.89 42.3302 121.761 42.2391 121.718 42.0976C121.626 41.7901 121.528 41.4777 121.428 41.1707C121.372 40.9993 121.465 40.8146 121.636 40.7582C121.806 40.7019 121.99 40.7954 122.046 40.9669C122.149 41.2792 122.248 41.5964 122.342 41.9094C122.394 42.0826 122.297 42.2643 122.124 42.3165C122.093 42.326 122.061 42.3302 122.03 42.3302ZM46.1323 42.9046C46.1028 42.9046 46.0728 42.9004 46.043 42.892C45.87 42.8429 45.7696 42.6618 45.8188 42.4885C45.9083 42.1726 46.003 41.8542 46.1002 41.5412C46.1538 41.3692 46.3368 41.2732 46.5082 41.3266C46.68 41.38 46.7758 41.5634 46.7223 41.7355C46.6266 42.0437 46.5336 42.3566 46.4455 42.6672C46.4047 42.8111 46.2742 42.9046 46.1323 42.9046ZM122.758 45.1217C122.608 45.1217 122.474 45.018 122.44 44.8657C122.37 44.5504 122.295 44.232 122.217 43.9196C122.174 43.7446 122.281 43.5671 122.455 43.5239C122.629 43.4802 122.806 43.5869 122.85 43.762C122.929 44.0791 123.005 44.4029 123.076 44.7236C123.115 44.8999 123.005 45.0744 122.829 45.1139C122.805 45.1193 122.781 45.1217 122.758 45.1217ZM45.4473 45.7063C45.4255 45.7063 45.4033 45.7045 45.381 45.6997C45.2048 45.6631 45.0915 45.4898 45.128 45.3136C45.1944 44.991 45.2656 44.6667 45.3395 44.3483C45.3804 44.1726 45.5556 44.0635 45.7307 44.1043C45.9059 44.1451 46.0149 44.3207 45.974 44.4964C45.9014 44.8094 45.8314 45.1289 45.766 45.4461C45.7342 45.6002 45.5986 45.7063 45.4473 45.7063ZM123.28 47.9582C123.121 47.9582 122.981 47.8413 122.958 47.6794C122.911 47.3604 122.859 47.0373 122.805 46.7195C122.774 46.5415 122.893 46.3724 123.07 46.3418C123.248 46.3112 123.416 46.4305 123.447 46.608C123.502 46.9318 123.555 47.2597 123.602 47.5841C123.629 47.7627 123.505 47.9288 123.327 47.9546C123.311 47.957 123.296 47.9582 123.28 47.9582ZM44.9681 48.5511C44.954 48.5511 44.9396 48.5499 44.9252 48.5481C44.7469 48.5247 44.6213 48.3605 44.6448 48.1812C44.6874 47.8569 44.7347 47.5277 44.7854 47.2034C44.8134 47.0253 44.9804 46.9036 45.1578 46.9312C45.3355 46.9593 45.457 47.1266 45.4292 47.3047C45.3792 47.6236 45.3327 47.9474 45.2907 48.2669C45.2692 48.4312 45.1292 48.5511 44.9681 48.5511ZM123.595 50.8258C123.425 50.8258 123.283 50.6945 123.27 50.523C123.246 50.2005 123.219 49.8749 123.187 49.5548C123.17 49.3749 123.3 49.2148 123.479 49.1974C123.659 49.18 123.818 49.3108 123.835 49.4906C123.867 49.8162 123.896 50.1471 123.92 50.4751C123.933 50.6549 123.798 50.8114 123.619 50.8246C123.611 50.8252 123.603 50.8258 123.595 50.8258ZM44.6962 51.423C44.6897 51.423 44.6833 51.4224 44.6768 51.4224C44.4972 51.4116 44.3601 51.2569 44.3706 51.077C44.3898 50.7491 44.4132 50.4175 44.4403 50.0914C44.4552 49.9115 44.6126 49.7778 44.792 49.7928C44.9713 49.8078 45.1045 49.9655 45.0897 50.1453C45.063 50.4667 45.0399 50.7928 45.0211 51.1148C45.0109 51.2887 44.8674 51.423 44.6962 51.423ZM44.6305 54.3068C44.4526 54.3068 44.3072 54.1635 44.3049 53.9842C44.3026 53.8073 44.3015 53.6287 44.3015 53.453C44.3015 53.3001 44.3023 53.1484 44.304 52.9962C44.3059 52.8169 44.4514 52.673 44.6297 52.673C44.6309 52.673 44.6321 52.673 44.6333 52.673C44.8133 52.6748 44.9574 52.8229 44.9555 53.0033C44.9539 53.1532 44.953 53.3031 44.953 53.453C44.953 53.6257 44.9541 53.8013 44.9564 53.9758C44.9587 54.1563 44.8147 54.3044 44.6349 54.3068C44.6334 54.3068 44.6319 54.3068 44.6305 54.3068ZM123.691 54.7594C123.688 54.7594 123.686 54.7594 123.683 54.7594C123.503 54.7552 123.361 54.6053 123.366 54.4249C123.373 54.1023 123.377 53.775 123.377 53.453C123.377 53.441 123.378 53.429 123.379 53.4176C123.378 53.4062 123.377 53.3943 123.377 53.3823C123.376 53.0591 123.372 52.7318 123.364 52.4104C123.359 52.2299 123.501 52.0801 123.681 52.0753C123.861 52.0699 124.011 52.2132 124.015 52.3936C124.024 52.7204 124.028 53.0525 124.028 53.3811C124.028 53.3937 124.028 53.4056 124.027 53.417C124.028 53.429 124.028 53.441 124.028 53.453C124.028 53.7804 124.025 54.1131 124.017 54.4405C124.012 54.6185 123.868 54.7594 123.691 54.7594ZM44.7709 57.1888C44.6034 57.1888 44.4611 57.0599 44.4466 56.8896C44.419 56.564 44.3949 56.2325 44.3751 55.904C44.3642 55.7241 44.501 55.5688 44.6806 55.558C44.8614 55.5472 45.0146 55.6845 45.0255 55.8644C45.045 56.1875 45.0687 56.5137 45.0958 56.8338C45.1111 57.0137 44.9781 57.172 44.7989 57.187C44.7895 57.1882 44.7802 57.1888 44.7709 57.1888ZM123.519 57.639C123.508 57.639 123.498 57.6384 123.487 57.6372C123.308 57.6199 123.177 57.4604 123.194 57.2811C123.225 56.9597 123.252 56.6336 123.275 56.3122C123.288 56.1324 123.444 55.9975 123.623 56.0095C123.803 56.0227 123.938 56.1791 123.925 56.359C123.902 56.6858 123.874 57.0173 123.843 57.3435C123.826 57.5125 123.684 57.639 123.519 57.639ZM45.1185 60.0522C44.9611 60.0522 44.8227 59.9371 44.7972 59.7764C44.746 59.4533 44.698 59.1247 44.6546 58.7986C44.6307 58.6199 44.756 58.4556 44.9343 58.4316C45.1131 58.4077 45.2766 58.5336 45.3004 58.7122C45.3431 59.0324 45.3903 59.3561 45.4406 59.6739C45.4688 59.852 45.3477 60.0198 45.17 60.048C45.1527 60.0504 45.1355 60.0522 45.1185 60.0522ZM123.138 60.4983C123.12 60.4983 123.101 60.4971 123.083 60.4941C122.906 60.4635 122.786 60.2944 122.817 60.1164C122.871 59.7998 122.922 59.4766 122.968 59.1565C122.994 58.9778 123.159 58.8543 123.337 58.8801C123.515 58.9059 123.639 59.0719 123.612 59.2506C123.566 59.5762 123.514 59.9041 123.459 60.2267C123.432 60.3862 123.294 60.4983 123.138 60.4983ZM45.6734 62.8827C45.5256 62.8827 45.3918 62.7813 45.3565 62.6302C45.2818 62.3113 45.21 61.9863 45.1432 61.6656C45.1065 61.4893 45.2194 61.316 45.3955 61.2789C45.5714 61.2423 45.7442 61.3556 45.781 61.5325C45.8467 61.8478 45.9173 62.1668 45.9908 62.481C46.032 62.6566 45.9233 62.8329 45.7482 62.8737C45.7231 62.8797 45.6981 62.8827 45.6734 62.8827ZM122.551 63.3227C122.525 63.3227 122.499 63.3197 122.473 63.3131C122.298 63.2694 122.191 63.0925 122.235 62.9174C122.312 62.6045 122.386 62.2861 122.455 61.9707C122.494 61.7945 122.668 61.6836 122.844 61.7225C123.02 61.7615 123.13 61.9354 123.091 62.1116C123.021 62.4324 122.945 62.7562 122.867 63.0739C122.83 63.2232 122.697 63.3227 122.551 63.3227ZM46.4333 65.6651C46.2948 65.6651 46.1662 65.5758 46.1226 65.4361C46.0248 65.1232 45.9295 64.8048 45.8394 64.4894C45.7898 64.3162 45.8898 64.1351 46.0627 64.0853C46.2357 64.0356 46.4161 64.1357 46.4657 64.3096C46.5544 64.6195 46.6481 64.9331 46.7443 65.2407C46.7981 65.4127 46.7026 65.5962 46.5309 65.6502C46.4985 65.6604 46.4656 65.6651 46.4333 65.6651ZM121.759 66.0962C121.725 66.0962 121.691 66.0908 121.658 66.08C121.487 66.0237 121.394 65.8396 121.449 65.6675C121.549 65.3618 121.647 65.05 121.739 64.74C121.79 64.5674 121.972 64.4691 122.144 64.5206C122.317 64.5722 122.415 64.7544 122.363 64.9271C122.269 65.2425 122.17 65.5596 122.069 65.8708C122.024 66.0087 121.896 66.0962 121.759 66.0962ZM47.3944 68.3841C47.2647 68.3841 47.1421 68.3061 47.0915 68.1778C46.9711 67.8733 46.8529 67.5627 46.7399 67.2545C46.6778 67.0849 46.7643 66.8972 46.9332 66.8349C47.1021 66.7725 47.2892 66.8594 47.3513 67.0291C47.4625 67.3319 47.5788 67.6377 47.6972 67.9368C47.7635 68.1047 47.6816 68.2948 47.5143 68.3613C47.475 68.3769 47.4344 68.3841 47.3944 68.3841ZM120.764 68.811C120.723 68.811 120.681 68.8032 120.641 68.7864C120.474 68.718 120.394 68.5268 120.463 68.3601C120.585 68.0609 120.705 67.7558 120.821 67.4536C120.885 67.2851 121.073 67.2006 121.241 67.2647C121.409 67.3289 121.493 67.5177 121.429 67.6862C121.312 67.9938 121.19 68.3037 121.066 68.6077C121.014 68.7342 120.892 68.811 120.764 68.811ZM48.5482 71.0191C48.4271 71.0191 48.3109 70.9507 48.2547 70.8344C48.1127 70.5395 47.9725 70.2397 47.8381 69.9423C47.7639 69.7774 47.8365 69.5844 48.0004 69.5094C48.1642 69.4351 48.3574 69.5076 48.4316 69.6725C48.5638 69.9651 48.7016 70.2601 48.8413 70.5496C48.9196 70.7121 48.8517 70.9076 48.6898 70.9861C48.644 71.0083 48.5958 71.0191 48.5482 71.0191ZM119.574 71.4436C119.525 71.4436 119.476 71.4328 119.429 71.4094C119.268 71.329 119.203 71.1324 119.283 70.9711C119.426 70.6821 119.568 70.3872 119.705 70.094C119.781 69.9303 119.975 69.8596 120.138 69.9363C120.301 70.0125 120.372 70.2073 120.295 70.3704C120.156 70.669 120.012 70.9693 119.866 71.2625C119.809 71.3776 119.694 71.4436 119.574 71.4436ZM49.891 73.5642C49.7784 73.5642 49.6688 73.5054 49.6085 73.4005C49.4455 73.1169 49.2838 72.8273 49.128 72.5401C49.042 72.3819 49.1004 72.1834 49.2584 72.0971C49.4164 72.0107 49.6142 72.0695 49.7003 72.2278C49.8536 72.5108 50.0126 72.7949 50.1729 73.0737C50.2628 73.2302 50.2093 73.4299 50.0534 73.5204C50.0022 73.5498 49.9463 73.5642 49.891 73.5642ZM118.196 73.9808C118.14 73.9808 118.082 73.9665 118.03 73.9353C117.876 73.8429 117.824 73.6427 117.916 73.4874C118.081 73.2092 118.244 72.925 118.401 72.6439C118.489 72.4862 118.687 72.4304 118.844 72.5185C119.001 72.6067 119.057 72.8057 118.969 72.9634C118.81 73.2494 118.644 73.5378 118.477 73.8208C118.416 73.9239 118.307 73.9808 118.196 73.9808ZM51.4154 76.0061C51.311 76.0061 51.2085 75.9557 51.1455 75.8622C50.9627 75.5918 50.7805 75.3148 50.6036 75.039C50.5063 74.8874 50.5502 74.6853 50.7015 74.5876C50.8529 74.4899 51.0545 74.5342 51.1517 74.6859C51.3257 74.9575 51.505 75.2297 51.6847 75.4959C51.7857 75.6452 51.7468 75.8484 51.5979 75.9497C51.5419 75.9875 51.4783 76.0061 51.4154 76.0061ZM116.638 76.4096C116.574 76.4096 116.509 76.3904 116.452 76.3508C116.305 76.2477 116.268 76.0445 116.371 75.8964C116.555 75.6314 116.738 75.3604 116.916 75.0906C117.015 74.9401 117.217 74.8987 117.367 74.9983C117.517 75.0972 117.558 75.3004 117.459 75.4509C117.279 75.7249 117.093 76.0007 116.906 76.2693C116.843 76.361 116.741 76.4096 116.638 76.4096ZM53.1129 78.3317C53.0166 78.3317 52.9213 78.2886 52.857 78.207C52.6547 77.9498 52.4528 77.6866 52.2568 77.4246C52.1488 77.2807 52.178 77.0757 52.3219 76.9672C52.4658 76.8593 52.67 76.8886 52.778 77.0325C52.9708 77.2903 53.1694 77.5493 53.3684 77.8023C53.4799 77.9438 53.4557 78.1495 53.3145 78.261C53.2548 78.3084 53.1836 78.3317 53.1129 78.3317ZM114.91 78.7178C114.837 78.7178 114.765 78.6939 114.705 78.6447C114.565 78.5314 114.543 78.3257 114.656 78.1854C114.859 77.9342 115.061 77.6776 115.257 77.4222C115.367 77.2789 115.571 77.252 115.714 77.3623C115.857 77.4726 115.883 77.6776 115.773 77.8203C115.574 78.0805 115.369 78.3413 115.163 78.5967C115.099 78.6765 115.004 78.7178 114.91 78.7178ZM54.9744 80.5291C54.8861 80.5291 54.7981 80.4931 54.7338 80.4224C54.5137 80.1807 54.2932 79.9331 54.0786 79.6855C53.9605 79.5494 53.9748 79.3432 54.1105 79.2245C54.2463 79.1063 54.4521 79.1207 54.5701 79.2568C54.7813 79.5003 54.9982 79.7443 55.2148 79.9817C55.3362 80.1148 55.3269 80.3216 55.1941 80.4433C55.1316 80.5009 55.0529 80.5291 54.9744 80.5291ZM113.019 80.8936C112.94 80.8936 112.86 80.8642 112.797 80.8049C112.665 80.682 112.659 80.4751 112.782 80.3432C113.002 80.1076 113.222 79.866 113.436 79.6256C113.555 79.4913 113.762 79.4793 113.896 79.5992C114.03 79.7197 114.042 79.9259 113.922 80.0608C113.705 80.3048 113.481 80.5501 113.257 80.7899C113.193 80.8588 113.106 80.8936 113.019 80.8936ZM56.9902 82.5867C56.9098 82.5867 56.8292 82.5567 56.7662 82.4968C56.5291 82.272 56.2912 82.0405 56.0592 81.8091C55.9317 81.682 55.931 81.4752 56.0579 81.3469C56.1848 81.2191 56.391 81.2186 56.5186 81.3457C56.7468 81.5735 56.9809 81.8007 57.2141 82.0225C57.3448 82.1466 57.3505 82.3535 57.2268 82.4842C57.1627 82.5525 57.0765 82.5867 56.9902 82.5867ZM110.979 82.9255C110.891 82.9255 110.803 82.8901 110.739 82.8205C110.617 82.688 110.625 82.4812 110.757 82.3589C110.994 82.1401 111.23 81.9152 111.461 81.691C111.59 81.5651 111.796 81.5687 111.922 81.6982C112.047 81.8277 112.044 82.0345 111.915 82.1598C111.68 82.3883 111.439 82.6161 111.199 82.8391C111.136 82.8973 111.057 82.9255 110.979 82.9255ZM59.1496 84.4933C59.0771 84.4933 59.0041 84.4693 58.9435 84.4195C58.6899 84.2115 58.4358 83.9974 58.1884 83.784C58.052 83.6665 58.0365 83.4602 58.1538 83.3236C58.2711 83.1863 58.4767 83.1707 58.6132 83.2888C58.8566 83.4986 59.1065 83.7091 59.356 83.9135C59.4953 84.028 59.5159 84.2337 59.402 84.3734C59.3376 84.4525 59.244 84.4933 59.1496 84.4933ZM108.797 84.8038C108.701 84.8038 108.606 84.7619 108.542 84.6809C108.43 84.5394 108.453 84.3344 108.594 84.2217C108.845 84.0202 109.098 83.8134 109.343 83.6065C109.481 83.4908 109.687 83.5088 109.802 83.6473C109.918 83.7858 109.9 83.9914 109.762 84.1078C109.512 84.3176 109.256 84.528 109 84.7325C108.94 84.7804 108.868 84.8038 108.797 84.8038ZM61.4419 86.2391C61.3771 86.2391 61.3117 86.2194 61.2547 86.1792C60.9873 85.9903 60.7183 85.7955 60.4554 85.6006C60.3108 85.4927 60.2804 85.2883 60.3876 85.1432C60.4947 84.9981 60.6987 84.9675 60.8433 85.0754C61.1019 85.2673 61.3665 85.4591 61.6296 85.645C61.7768 85.7487 61.8121 85.9526 61.7086 86.1C61.6452 86.1906 61.5444 86.2391 61.4419 86.2391ZM106.487 86.5185C106.383 86.5185 106.281 86.4688 106.218 86.3764C106.116 86.2272 106.154 86.0239 106.303 85.922C106.567 85.7403 106.833 85.5521 107.094 85.3632C107.24 85.2577 107.444 85.2907 107.549 85.4369C107.654 85.5832 107.621 85.7877 107.475 85.8932C107.211 86.0851 106.94 86.2763 106.671 86.461C106.615 86.4999 106.551 86.5185 106.487 86.5185ZM63.8556 87.8135C63.7985 87.8135 63.7407 87.7986 63.6883 87.7668C63.4071 87.5977 63.1246 87.4232 62.8486 87.2476C62.6966 87.151 62.6515 86.949 62.7479 86.7967C62.8443 86.6444 63.0455 86.5989 63.1975 86.6954C63.469 86.8681 63.7468 87.0401 64.0235 87.2068C64.1777 87.2997 64.2278 87.5 64.1352 87.6553C64.0741 87.7572 63.9662 87.8135 63.8556 87.8135ZM104.06 88.0594C103.948 88.0594 103.839 88.0012 103.779 87.8975C103.688 87.7416 103.74 87.5414 103.896 87.4502C104.174 87.2883 104.452 87.1199 104.725 86.9514C104.878 86.8567 105.079 86.904 105.174 87.0581C105.268 87.2116 105.22 87.4125 105.067 87.5078C104.79 87.6793 104.507 87.8501 104.224 88.015C104.172 88.045 104.116 88.0594 104.06 88.0594ZM66.3782 89.2087C66.3288 89.2087 66.2788 89.1973 66.2317 89.1733C65.9392 89.0252 65.6445 88.8717 65.3559 88.7165C65.1973 88.6313 65.1377 88.4335 65.2227 88.274C65.3077 88.1151 65.5051 88.0552 65.6637 88.1403C65.9476 88.2932 66.2374 88.4443 66.5252 88.59C66.6858 88.6715 66.7503 88.8681 66.6693 89.0288C66.612 89.1427 66.4972 89.2087 66.3782 89.2087ZM101.53 89.4191C101.409 89.4191 101.294 89.352 101.237 89.2363C101.158 89.0738 101.224 88.8783 101.386 88.7986C101.675 88.6571 101.965 88.5102 102.249 88.3615C102.409 88.2788 102.605 88.3405 102.688 88.5006C102.771 88.6607 102.709 88.858 102.55 88.9413C102.262 89.0924 101.966 89.2417 101.673 89.3856C101.627 89.4083 101.578 89.4191 101.53 89.4191ZM68.9971 90.4156C68.9554 90.4156 68.9131 90.4072 68.8722 90.3904C68.5699 90.2645 68.2646 90.1326 67.9648 89.9983C67.8005 89.9251 67.7265 89.7321 67.7998 89.5672C67.8729 89.4023 68.0654 89.328 68.2299 89.4017C68.5247 89.533 68.825 89.6631 69.1223 89.7866C69.2884 89.8562 69.3671 90.0475 69.298 90.2141C69.246 90.3394 69.1248 90.4156 68.9971 90.4156ZM98.9089 90.5894C98.7798 90.5894 98.6573 90.5121 98.6065 90.3844C98.5395 90.2171 98.6202 90.0271 98.787 89.9593C99.0841 89.84 99.3841 89.7147 99.6782 89.587C99.8438 89.5157 100.035 89.5918 100.107 89.7579C100.178 89.9233 100.102 90.1158 99.9364 90.1871C99.6369 90.3166 99.3321 90.4444 99.0303 90.5661C98.9902 90.5816 98.949 90.5894 98.9089 90.5894ZM71.6986 91.427C71.6651 91.427 71.6304 91.4216 71.5964 91.4102C71.2844 91.3065 70.97 91.1974 70.6616 91.0865C70.4924 91.0253 70.4045 90.8377 70.4655 90.668C70.5265 90.4983 70.7136 90.4102 70.8827 90.4713C71.1857 90.5804 71.4948 90.6878 71.8014 90.7903C71.9723 90.8466 72.0644 91.0319 72.0082 91.2034C71.9628 91.3401 71.8355 91.427 71.6986 91.427ZM96.2025 91.5673C96.0644 91.5673 95.9365 91.4786 95.8923 91.3395C95.8379 91.1674 95.9323 90.9839 96.1039 90.9288C96.4093 90.8311 96.7183 90.7279 97.0232 90.6218C97.1929 90.5631 97.3788 90.653 97.4374 90.8233C97.4965 90.9941 97.4063 91.18 97.2365 91.2393C96.9269 91.3473 96.6125 91.4522 96.3017 91.5517C96.2688 91.5619 96.2354 91.5673 96.2025 91.5673ZM74.46 92.2352C74.4337 92.2352 74.4068 92.2316 74.3799 92.225C74.0637 92.1447 73.7434 92.0595 73.4278 91.9714C73.2544 91.9228 73.1534 91.7424 73.2018 91.5685C73.2503 91.3946 73.4296 91.2933 73.6029 91.3419C73.9131 91.4288 74.2281 91.5127 74.5395 91.5913C74.7141 91.6356 74.8198 91.8131 74.7756 91.9882C74.7386 92.1363 74.6059 92.2352 74.46 92.2352ZM93.4327 92.3431C93.285 92.3431 93.1518 92.2424 93.1159 92.0925C93.074 91.9174 93.1816 91.7406 93.3568 91.6986C93.6694 91.6231 93.9856 91.5427 94.2958 91.46C94.4697 91.4132 94.6478 91.5169 94.6944 91.6914C94.7411 91.8659 94.6377 92.0451 94.4637 92.0913C94.1481 92.1758 93.8266 92.2574 93.5086 92.3341C93.4829 92.3401 93.4578 92.3431 93.4327 92.3431ZM77.2729 92.8383C77.2537 92.8383 77.2352 92.8365 77.2161 92.8329C76.8933 92.776 76.5676 92.7148 76.2478 92.6501C76.0715 92.6141 75.9573 92.442 75.9926 92.2652C76.0284 92.0883 76.2006 91.9738 76.3763 92.0092C76.6913 92.0727 77.0117 92.1333 77.3291 92.1896C77.506 92.2208 77.6243 92.3899 77.5932 92.5679C77.5652 92.7262 77.4277 92.8383 77.2729 92.8383ZM90.6133 92.9139C90.4567 92.9139 90.318 92.8 90.2923 92.6399C90.263 92.4618 90.3831 92.2939 90.5607 92.2646C90.8786 92.2124 91.1996 92.1555 91.5146 92.0955C91.6915 92.0613 91.8625 92.1782 91.896 92.3557C91.9294 92.5326 91.8129 92.704 91.6365 92.7376C91.3162 92.7982 90.9898 92.8563 90.6665 92.9097C90.6485 92.9127 90.6306 92.9139 90.6133 92.9139ZM80.1216 93.2334C80.1102 93.2334 80.0995 93.2328 80.0881 93.2322C79.7629 93.1987 79.4336 93.1609 79.1096 93.1201C78.9309 93.0973 78.8048 92.9337 78.8269 92.755C78.8496 92.5757 79.0128 92.4486 79.1915 92.4714C79.5101 92.5122 79.8341 92.5494 80.1539 92.5817C80.3332 92.6003 80.4635 92.7604 80.4449 92.9397C80.4282 93.1081 80.2865 93.2334 80.1216 93.2334ZM87.7604 93.2766C87.5936 93.2766 87.4514 93.1495 87.4358 92.9792C87.4197 92.8 87.5518 92.6411 87.7311 92.6249C88.0515 92.5955 88.376 92.5625 88.6952 92.5254C88.8739 92.505 89.0353 92.6333 89.0562 92.8126C89.0765 92.9918 88.9486 93.1543 88.7699 93.1747C88.4453 93.2119 88.1154 93.246 87.7896 93.2754C87.7795 93.2766 87.7699 93.2766 87.7604 93.2766ZM82.9912 93.4217C82.9876 93.4217 82.9846 93.4217 82.9816 93.4211C82.6541 93.4115 82.323 93.3977 81.9972 93.3803C81.8173 93.3707 81.6798 93.2166 81.6894 93.0368C81.6989 92.8563 81.8532 92.7184 82.0319 92.728C82.3522 92.7448 82.678 92.7586 83.0002 92.7682C83.1801 92.7736 83.3217 92.9241 83.3164 93.1039C83.3116 93.2814 83.1663 93.4217 82.9912 93.4217ZM84.8901 93.4319C84.7132 93.4319 84.568 93.2898 84.565 93.1111C84.5614 92.9307 84.7048 92.782 84.8848 92.7784C85.2063 92.773 85.5315 92.7628 85.8513 92.7496C86.0306 92.7424 86.183 92.8815 86.1908 93.062C86.1985 93.2424 86.0587 93.3947 85.8788 93.4025C85.5542 93.4163 85.2237 93.4259 84.8961 93.4319C84.8943 93.4319 84.8925 93.4319 84.8901 93.4319Z" fill="#2E77E6"/>
<path d="M101.499 21.7788H87.3V3.99989H101.499V21.7788Z" fill="#296ACC"/>
<path d="M103.341 23.615H89.1417V5.83607H103.341V23.615Z" fill="white"/>
<path d="M103.341 23.615H89.1417V5.83607H103.341V23.615Z" stroke="#5896FA" stroke-width="10.5553" stroke-miterlimit="10"/>
<path d="M105.68 25.417H91.4798V7.63807H105.68V25.417Z" fill="white"/>
<path d="M105.68 25.417H91.4798V7.63808H105.68V25.417Z" stroke="#5896FA" stroke-width="10.5553" stroke-miterlimit="10"/>
<path d="M107.382 27.2529H93.1816V9.47401H107.382V27.2529Z" fill="#5896FA"/>
<path d="M105.172 13.5496H97.827V12.393H105.172V13.5496Z" fill="#005CEA"/>
<path d="M105.172 16.2661H95.6549V15.1096H105.172V16.2661Z" fill="#005CEA"/>
<path d="M105.172 18.9829H95.6549V17.8264H105.172V18.9829Z" fill="#005CEA"/>
<path d="M105.172 21.6992H95.6549V20.5427H105.172V21.6992Z" fill="#005CEA"/>
<path d="M105.172 24.4155H95.6549V23.2596H105.172V24.4155Z" fill="#005CEA"/>
<path d="M61.1634 23.3515C61.1634 26.1298 58.918 28.3823 56.1481 28.3823C53.3782 28.3823 51.1328 26.1298 51.1328 23.3515C51.1328 20.5733 53.3782 18.3208 56.1481 18.3208C58.918 18.3208 61.1634 20.5733 61.1634 23.3515Z" fill="#AAE0FF"/>
<path d="M53.5602 27.6591C51.1861 26.2231 50.4233 23.1331 51.855 20.7517C53.2845 18.3739 56.3647 17.6089 58.7388 19.0454C61.1093 20.4789 61.872 23.5683 60.4426 25.9461C59.0109 28.3275 55.9307 29.0932 53.5602 27.6591ZM64.061 28.1351C64.7113 27.0529 65.1178 25.8844 65.29 24.7045L65.6636 24.7597L66.4014 24.8682L66.4109 24.8694C66.6099 23.5192 66.5422 22.154 66.217 20.85L65.1196 21.1222C64.8251 19.9423 64.3064 18.8182 63.567 17.8271L64.4767 17.149C63.6984 16.089 62.6994 15.1627 61.5068 14.4409L60.9208 15.4157C59.8386 14.761 58.677 14.3557 57.5009 14.1831L57.6648 13.0583C56.3191 12.8587 54.956 12.9306 53.6578 13.2532L53.9296 14.3539C52.7531 14.6489 51.6323 15.1693 50.6442 15.911L49.968 14.9985C48.9115 15.7791 47.9878 16.7815 47.2686 17.9776L48.2403 18.5651C47.5878 19.6509 47.1834 20.8158 47.0112 21.9958L46.2183 21.8788L45.8941 21.8339L45.8904 21.8315C45.6913 23.1811 45.7626 24.5486 46.0842 25.8508L47.1817 25.578C47.4761 26.7579 47.9985 27.8845 48.7378 28.8755L47.8282 29.5536C48.6064 30.6136 49.6018 31.5381 50.7944 32.2594L51.3805 31.2845C52.4627 31.9392 53.628 32.3469 54.8041 32.5196L54.6753 33.3937L54.6401 33.6443C55.9858 33.844 57.3453 33.7702 58.6433 33.4477L58.3716 32.3469C59.5481 32.0513 60.6713 31.5273 61.6629 30.7881L62.339 31.7006C63.392 30.9176 64.3135 29.9187 65.0327 28.7226L64.061 28.1351Z" fill="#005CEA"/>
<path d="M42.6926 32.3694C41.4753 33.177 39.8381 32.843 39.0326 31.6218C38.2283 30.4029 38.5617 28.7607 39.779 27.9525C40.9944 27.1461 42.6315 27.4801 43.4358 28.6996C44.2413 29.9202 43.9081 31.5624 42.6926 32.3694ZM45.2911 27.4681C44.9252 26.9129 44.4628 26.4555 43.9424 26.1065L44.0529 25.9405L44.2711 25.6131L44.2737 25.6089C43.6787 25.209 43.0162 24.9326 42.3243 24.7929L42.2056 25.3781C41.5796 25.2522 40.9293 25.2456 40.2925 25.3745L40.1764 24.7869C39.498 24.9188 38.8331 25.1862 38.2216 25.5921L38.5513 26.0915C37.9964 26.4597 37.5417 26.9225 37.194 27.4447L36.698 27.112C36.2992 27.7091 36.0252 28.3752 35.8847 29.0677L36.4681 29.1864C36.3422 29.8147 36.3356 30.4664 36.464 31.1055L35.8786 31.2218C36.0099 31.9023 36.2763 32.5696 36.6809 33.183L37.1793 32.852C37.5464 33.4084 38.0075 33.8646 38.5279 34.2136L38.2932 34.5655L38.1985 34.71L38.1966 34.7112C38.7915 35.1111 39.456 35.3857 40.146 35.5266L40.2647 34.9414C40.8907 35.0679 41.5428 35.0733 42.1797 34.9444L42.2957 35.532C42.9741 35.4001 43.6372 35.1339 44.2487 34.728L43.919 34.2286C44.4739 33.8598 44.9305 33.3964 45.2782 32.8742L45.6633 33.1332L45.7742 33.2063C46.1729 32.6098 46.4451 31.9449 46.5855 31.2524L46.0022 31.1331C46.128 30.5054 46.1334 29.8513 46.0069 29.211L46.5923 29.0947C46.4591 28.416 46.1939 27.7505 45.7893 27.1372L45.2911 27.4681Z" fill="#5896FA"/>
<path d="M127.315 37.6909H115.123C114.866 37.6909 114.658 37.4823 114.658 37.2245V30.2853C114.658 30.0281 114.866 29.8195 115.123 29.8195H127.315C127.572 29.8195 127.78 30.0281 127.78 30.2853V37.2245C127.78 37.4823 127.572 37.6909 127.315 37.6909Z" fill="#005CEA"/>
<path d="M127.78 32.6646H114.658V31.306H127.78V32.6646Z" fill="#5896FA"/>
<path d="M117.664 36.1805H115.735C115.612 36.1805 115.513 36.28 115.513 36.403C115.513 36.5259 115.612 36.626 115.735 36.626H117.664C117.786 36.626 117.886 36.5259 117.886 36.403C117.886 36.28 117.786 36.1805 117.664 36.1805Z" fill="#D1F5FF"/>
<path d="M120.631 36.1805H118.702C118.579 36.1805 118.479 36.28 118.479 36.403C118.479 36.5259 118.579 36.626 118.702 36.626H120.631C120.753 36.626 120.853 36.5259 120.853 36.403C120.853 36.28 120.753 36.1805 120.631 36.1805Z" fill="#D1F5FF"/>
<path d="M123.598 36.1805H121.669C121.546 36.1805 121.446 36.28 121.446 36.403C121.446 36.5259 121.546 36.626 121.669 36.626H123.598C123.721 36.626 123.82 36.5259 123.82 36.403C123.82 36.28 123.721 36.1805 123.598 36.1805Z" fill="#D1F5FF"/>
<path d="M126.565 36.1805H124.636C124.513 36.1805 124.413 36.28 124.413 36.403C124.413 36.5259 124.513 36.626 124.636 36.626H126.565C126.688 36.626 126.787 36.5259 126.787 36.403C126.787 36.28 126.688 36.1805 126.565 36.1805Z" fill="#D1F5FF"/>
<path d="M115.646 30.2189C115.51 30.2189 115.4 30.3286 115.4 30.4647V30.5511C115.4 30.6866 115.51 30.7969 115.646 30.7969C115.781 30.7969 115.891 30.6866 115.891 30.5511V30.4647C115.891 30.3286 115.781 30.2189 115.646 30.2189Z" fill="#D1F5FF"/>
<path d="M116.174 30.5079C116.174 30.6674 116.303 30.7969 116.462 30.7969H117.483C117.642 30.7969 117.771 30.6674 117.771 30.5079C117.771 30.3484 117.642 30.2189 117.483 30.2189H116.462C116.303 30.2189 116.174 30.3484 116.174 30.5079Z" fill="#D1F5FF"/>
<path d="M116.04 33.3943H117.359C117.57 33.3943 117.742 33.5663 117.742 33.7786V34.9189C117.742 35.1312 117.57 35.3032 117.359 35.3032H116.04C115.828 35.3032 115.657 35.1312 115.657 34.9189V33.7786C115.657 33.5663 115.828 33.3943 116.04 33.3943Z" fill="#5896FA"/>
<path d="M121.544 59.0943V58.1686C121.544 57.7477 121.204 57.4071 120.785 57.4071H112.705C112.286 57.4071 111.946 57.7477 111.946 58.1686V74.5374H132.847V59.0943H121.544Z" fill="#1251B3"/>
<path d="M133.716 59.6566H113.221L111.946 74.5374H132.745L133.716 59.6566Z" fill="white"/>
<path d="M132.847 74.5374H111.946L114.164 59.8419C114.228 59.412 114.596 59.0943 115.03 59.0943H134.158C134.695 59.0943 135.105 59.5733 135.025 60.1051L132.847 74.5374Z" fill="#5896FA"/>
<path d="M139.824 59.6563C139.824 62.3099 137.68 64.4604 135.035 64.4604C132.39 64.4604 130.246 62.3099 130.246 59.6563C130.246 57.0033 132.39 54.8527 135.035 54.8527C137.68 54.8527 139.824 57.0033 139.824 59.6563Z" fill="#005CEA"/>
<path d="M135.035 55.0283C132.491 55.0283 130.422 57.1045 130.422 59.6562C130.422 62.2078 132.491 64.2846 135.035 64.2846C137.58 64.2846 139.649 62.2078 139.649 59.6562C139.649 57.1045 137.58 55.0283 135.035 55.0283ZM135.035 64.636C132.298 64.636 130.07 62.4021 130.07 59.6562C130.07 56.9108 132.298 54.6769 135.035 54.6769C137.773 54.6769 140 56.9108 140 59.6562C140 62.4021 137.773 64.636 135.035 64.636Z" fill="white"/>
<path d="M135.268 60.5936V61.5576C135.268 61.6859 135.164 61.7927 135.036 61.7927C134.906 61.7927 134.802 61.6859 134.802 61.5576V60.5918C134.604 60.5024 134.466 60.3022 134.466 60.0714C134.466 59.756 134.721 59.5012 135.036 59.5012C135.351 59.5012 135.605 59.756 135.605 60.0714C135.605 60.3046 135.468 60.5042 135.268 60.5936ZM132.73 58.7877V62.189C132.73 62.5679 137.34 62.5679 137.34 62.189V58.7877H132.73Z" fill="white"/>
<path d="M136.937 58.5449H136.47V58.3159C136.47 57.5227 135.827 56.877 135.035 56.877C134.244 56.877 133.601 57.5227 133.601 58.3159V58.5449H133.134V58.3159C133.134 57.2643 133.987 56.4087 135.035 56.4087C136.084 56.4087 136.937 57.2643 136.937 58.3159V58.5449Z" fill="white"/>
<path d="M46.3735 53.7623C46.3679 53.7563 46.3618 53.7503 46.3563 53.7443C44.01 56.2654 40.2663 58.3314 36.2602 59.2115C36.2589 59.4795 36.2524 60.9664 36.2218 67.8204C36.1811 76.9623 44.8553 81.4301 46.202 82.116C42.2458 66.0518 45.345 56.3355 46.3735 53.7623Z" fill="#2E77E6"/>
<path d="M46.3735 53.7623C45.3451 56.3355 42.2458 66.0518 46.202 82.116C47.5068 81.5134 56.2905 77.0528 56.3312 67.9103C56.3618 61.0569 56.3684 59.5701 56.3696 59.3015C52.3811 58.3878 48.6981 56.296 46.3735 53.7623Z" fill="#2E77E6"/>
<path d="M46.3735 53.7623C46.3679 53.7563 46.3617 53.7503 46.3561 53.7443C44.0099 56.2654 40.2663 58.3314 36.2601 59.2115C36.2589 59.4795 36.2523 60.9664 36.2218 67.8204C36.1811 76.9623 44.8553 81.4301 46.202 82.116C47.5068 81.5134 56.2904 77.0528 56.3312 67.9103C56.3617 61.0569 56.3683 59.5701 56.3696 59.3015C52.3809 58.3878 48.698 56.296 46.3735 53.7623V53.7623Z" stroke="white" stroke-width="15.8128" stroke-miterlimit="10"/>
<path d="M38.1915 60.7968L38.1599 67.8421C38.1457 71.0904 39.4363 74.033 41.9957 76.5882C43.599 78.189 45.2746 79.2106 46.219 79.7179C47.1103 79.2508 48.8316 78.2328 50.4695 76.6272C53.0518 74.0935 54.3683 71.1623 54.3825 67.9152L54.414 60.8688C51.2909 59.9934 48.4373 58.4808 46.3222 56.5784C44.1911 58.4592 41.3251 59.9473 38.1915 60.7968ZM46.3426 80.4199L46.0607 80.4037C45.1188 79.9127 43.2764 78.8263 41.5173 77.0721C38.8237 74.3825 37.4659 71.2769 37.4813 67.8397L37.5153 60.2698L37.7687 60.2039C41.0099 59.3657 43.9667 57.8261 46.0948 55.8679L46.334 55.6473L46.5639 55.8781L46.3426 56.1359L46.5738 55.8865C48.6839 57.8566 51.6203 59.4167 54.8424 60.2812L55.0951 60.3477L55.0611 67.9176C55.0457 71.3548 53.6606 74.4485 50.9441 77.1128C49.2271 78.797 47.4223 79.8569 46.499 80.3396L46.3426 80.4199Z" fill="#4D94FF"/>
<path d="M46.7576 69.7661V71.4671C46.7576 71.6937 46.5739 71.8819 46.348 71.8819C46.1184 71.8819 45.9347 71.6937 45.9347 71.4671V69.7626C45.5863 69.6049 45.3414 69.2517 45.3414 68.8453C45.3414 68.2883 45.793 67.8392 46.348 67.8392C46.903 67.8392 47.3509 68.2883 47.3509 68.8453C47.3509 69.2559 47.1097 69.6091 46.7576 69.7661ZM42.2793 66.5796V72.5804C42.2793 73.2489 50.413 73.2489 50.413 72.5804V66.5796H42.2793Z" fill="white"/>
<path d="M49.701 66.1519H48.8777V65.7478C48.8777 64.3478 47.7421 63.2087 46.3465 63.2087C44.9507 63.2087 43.8151 64.3478 43.8151 65.7478V66.1519H42.9917V65.7478C42.9917 63.8922 44.4967 62.3825 46.3465 62.3825C48.1961 62.3825 49.701 63.8922 49.701 65.7478V66.1519Z" fill="white"/>
<path d="M96.6471 46.1018C96.6901 45.7846 96.72 45.4627 96.72 45.1335C96.72 41.1735 93.5192 37.963 89.5713 37.963C86.6096 37.963 84.0687 39.77 82.9839 42.3445C82.1017 41.5561 80.9421 41.0734 79.6672 41.0734C76.9081 41.0734 74.6715 43.3163 74.6715 46.0838H73.7396C71.087 46.0838 68.9166 48.2608 68.9166 50.9216C68.9166 53.5823 71.087 55.7593 73.7396 55.7593H96.2914C98.9441 55.7593 101.114 53.5823 101.114 50.9216C101.114 48.3813 99.1347 46.2871 96.6471 46.1018Z" fill="white"/>
<path d="M84.966 55.2023L82.449 52.3749L79.9326 55.2023H81.2709V58.2876H83.6277V55.2023H84.966Z" fill="#66B8FF"/>
<path d="M84.5829 55.9543L87.0998 58.7817L89.6162 55.9543H88.2779V52.869H85.9211V55.9543H84.5829Z" fill="#66B8FF"/>
<path d="M135.047 39.4043C135.047 39.9205 134.629 40.3384 134.115 40.3384C133.601 40.3384 133.184 39.9205 133.184 39.4043C133.184 38.8887 133.601 38.4702 134.115 38.4702C134.629 38.4702 135.047 38.8887 135.047 39.4043Z" fill="white"/>
<path d="M56.838 40.692C56.838 41.2082 56.4211 41.6267 55.9067 41.6267C55.3923 41.6267 54.9754 41.2082 54.9754 40.692C54.9754 40.1764 55.3923 39.7579 55.9067 39.7579C56.4211 39.7579 56.838 40.1764 56.838 40.692Z" fill="white"/>
<path d="M49.861 90.3479C49.861 90.8641 49.444 91.282 48.9296 91.282C48.4153 91.282 47.9983 90.8641 47.9983 90.3479C47.9983 89.8323 48.4153 89.4138 48.9296 89.4138C49.444 89.4138 49.861 89.8323 49.861 90.3479Z" fill="white"/>
<path d="M111.503 50.7227C111.333 50.7227 111.195 50.5842 111.195 50.4133V47.1008C111.195 46.9299 111.333 46.7914 111.503 46.7914C111.674 46.7914 111.812 46.9299 111.812 47.1008V50.4133C111.812 50.5842 111.674 50.7227 111.503 50.7227Z" fill="white"/>
<path d="M109.543 48.7565C109.543 48.5857 109.681 48.4472 109.852 48.4472H113.154C113.325 48.4472 113.463 48.5857 113.463 48.7565C113.463 48.9274 113.325 49.0659 113.154 49.0659H109.852C109.681 49.0659 109.543 48.9274 109.543 48.7565Z" fill="white"/>
<path d="M113.517 90.6792C113.347 90.6792 113.209 90.5407 113.209 90.3698V87.0573C113.209 86.8859 113.347 86.7474 113.517 86.7474C113.687 86.7474 113.826 86.8859 113.826 87.0573V90.3698C113.826 90.5407 113.687 90.6792 113.517 90.6792Z" fill="white"/>
<path d="M111.558 88.7136C111.558 88.5427 111.696 88.4042 111.866 88.4042H115.168C115.339 88.4042 115.477 88.5427 115.477 88.7136C115.477 88.8845 115.339 89.0229 115.168 89.0229H111.866C111.696 89.0229 111.558 88.8845 111.558 88.7136Z" fill="white"/>
<path d="M28.6855 58.8577C28.4855 58.8577 28.3233 58.6952 28.3233 58.4943V54.6045C28.3233 54.4042 28.4855 54.2412 28.6855 54.2412C28.8856 54.2412 29.0478 54.4042 29.0478 54.6045V58.4943C29.0478 58.6952 28.8856 58.8577 28.6855 58.8577Z" fill="white"/>
<path d="M26.3844 56.5498C26.3844 56.3495 26.5466 56.1864 26.7466 56.1864H30.6245C30.8245 56.1864 30.9867 56.3495 30.9867 56.5498C30.9867 56.7506 30.8245 56.9131 30.6245 56.9131H26.7466C26.5466 56.9131 26.3844 56.7506 26.3844 56.5498Z" fill="white"/>
<path d="M68.6383 9.47607C68.4655 9.47607 68.3255 9.33578 68.3255 9.16251V5.80326C68.3255 5.62999 68.4655 5.4891 68.6383 5.4891C68.8111 5.4891 68.9511 5.62999 68.9511 5.80326V9.16251C68.9511 9.33578 68.8111 9.47607 68.6383 9.47607Z" fill="#2E76E6"/>
<path d="M66.651 7.48247C66.651 7.3092 66.791 7.1689 66.9638 7.1689H70.3131C70.4858 7.1689 70.6257 7.3092 70.6257 7.48247C70.6257 7.65574 70.4858 7.79663 70.3131 7.79663H66.9638C66.791 7.79663 66.651 7.65574 66.651 7.48247Z" fill="#2E76E6"/>
<path d="M77.5902 8.18799C77.4198 8.18799 77.2818 8.0495 77.2818 7.87863V4.56614C77.2818 4.39527 77.4198 4.25677 77.5902 4.25677C77.7605 4.25677 77.8992 4.39527 77.8992 4.56614V7.87863C77.8992 8.0495 77.7605 8.18799 77.5902 8.18799Z" fill="#AAE0FF"/>
<path d="M75.6309 6.22213C75.6309 6.05126 75.769 5.91276 75.9393 5.91276H79.2417C79.4121 5.91276 79.5501 6.05126 79.5501 6.22213C79.5501 6.393 79.4121 6.53149 79.2417 6.53149H75.9393C75.769 6.53149 75.6309 6.393 75.6309 6.22213Z" fill="#AAE0FF"/>
<path d="M121.219 19.2519C121.219 20.2382 120.422 21.0374 119.439 21.0374C118.456 21.0374 117.659 20.2382 117.659 19.2519C117.659 18.2657 118.456 17.4659 119.439 17.4659C120.422 17.4659 121.219 18.2657 121.219 19.2519Z" fill="#AAE0FF"/>
<path d="M74.4707 25.9152C74.4707 26.9015 73.6734 27.7007 72.6902 27.7007C71.7069 27.7007 70.9102 26.9015 70.9102 25.9152C70.9102 24.929 71.7069 24.1298 72.6902 24.1298C73.6734 24.1298 74.4707 24.929 74.4707 25.9152Z" fill="#AAE0FF"/>
<path d="M50.8024 85.4872C50.8024 86.4734 50.0053 87.2732 49.0221 87.2732C48.039 87.2732 47.2419 86.4734 47.2419 85.4872C47.2419 84.5009 48.039 83.7017 49.0221 83.7017C50.0053 83.7017 50.8024 84.5009 50.8024 85.4872Z" fill="#AAE0FF"/>
<path d="M69.5535 93.4038L58.3475 108.183C56.9573 113.939 60.1042 119.117 66.0304 120.48L92.086 108.5L69.5535 93.4038Z" fill="#FFA04D"/>
<path d="M61.0389 102.617L0.681751 134.027C-3.41803 135.993 11.6695 156.805 27.2997 150.157L66.8348 120.062C74.6005 117.466 68.8044 100.021 61.0389 102.617Z" fill="#FFA04D"/>
<path d="M70.6967 96.0704C70.6967 96.0704 103.144 71.5058 106.011 76.286C109.295 81.7604 75.026 102.899 75.026 102.899L70.6967 96.0704Z" fill="#FFA04D"/>
<path d="M72.2843 121.85L95.6555 121.709C97.114 121.7 98.2933 120.452 98.2909 118.924L98.203 68.2414C98.2006 66.7677 97.0393 65.5704 95.6095 65.5656L72.692 65.496C71.2503 65.4912 70.0716 66.6873 70.0596 68.1676L69.6442 119.085C69.6317 120.62 70.8139 121.859 72.2843 121.85Z" fill="white"/>
<path d="M71.9615 121.482C72.0584 121.494 72.1576 121.5 72.2568 121.499L95.6209 121.333C96.8743 121.324 97.8981 120.231 97.8964 118.896L97.8157 68.2698C97.8133 66.9826 96.8055 65.9328 95.576 65.9274L72.6603 65.8338C72.6244 65.8338 72.5885 65.8344 72.5527 65.8362C71.9759 65.8614 71.4373 66.1078 71.0345 66.5305C70.6226 66.9622 70.3937 67.5342 70.3889 68.1421L69.9789 119.111C69.9693 120.318 70.8187 121.338 71.9615 121.482Z" fill="#33201B"/>
<path d="M71.1964 68.5113L70.8026 119.302L97.1229 119.154L97.056 68.5113H71.1964Z" fill="white"/>
<path d="M89.1248 99.2097H92.5772V95.7467H89.1248V99.2097Z" stroke="#007880" stroke-width="6.58144" stroke-miterlimit="10"/>
<path d="M84.5739 99.2097H88.0269V95.7467H84.5739V99.2097Z" stroke="#007880" stroke-width="6.58144" stroke-miterlimit="10"/>
<path d="M80.0235 99.2097H83.4765V95.7467H80.0235V99.2097Z" stroke="#007880" stroke-width="6.58144" stroke-miterlimit="10"/>
<path d="M75.4731 99.2097H78.9255V95.7467H75.4731V99.2097Z" stroke="#007880" stroke-width="6.58144" stroke-miterlimit="10"/>
<path d="M90.1721 97.5476C90.1721 97.9439 90.4925 98.2646 90.8876 98.2646C91.2821 98.2646 91.6024 97.9439 91.6024 97.5476C91.6024 97.1513 91.2821 96.8305 90.8876 96.8305C90.4925 96.8305 90.1721 97.1513 90.1721 97.5476Z" fill="#4D4D4D"/>
<path d="M85.6121 97.5476C85.6121 97.9439 85.9325 98.2646 86.327 98.2646C86.7221 98.2646 87.0424 97.9439 87.0424 97.5476C87.0424 97.1513 86.7221 96.8305 86.327 96.8305C85.9325 96.8305 85.6121 97.1513 85.6121 97.5476Z" fill="#4D4D4D"/>
<path d="M81.0521 97.5476C81.0521 97.9439 81.3719 98.2646 81.767 98.2646C82.162 98.2646 82.4818 97.9439 82.4818 97.5476C82.4818 97.1513 82.162 96.8305 81.767 96.8305C81.3719 96.8305 81.0521 97.1513 81.0521 97.5476Z" fill="#4D4D4D"/>
<path d="M76.4103 97.5476C76.4103 97.9439 76.7307 98.2646 77.1258 98.2646C77.5203 98.2646 77.8407 97.9439 77.8407 97.5476C77.8407 97.1513 77.5203 96.8305 77.1258 96.8305C76.7307 96.8305 76.4103 97.1513 76.4103 97.5476Z" fill="#4D4D4D"/>
<path d="M82.5721 80.5804V79.8867C82.5721 79.572 82.3175 79.3166 82.0037 79.3166H75.9518C75.638 79.3166 75.3834 79.572 75.3834 79.8867V92.1462H91.0375V80.5804H82.5721Z" fill="white"/>
<path d="M82.6223 80.5804V79.8867C82.6223 79.572 82.3677 79.3166 82.0539 79.3166H76.002C75.6882 79.3166 75.4336 79.572 75.4336 79.8867V92.1462H91.0878V80.5804H82.6223Z" fill="#BFE1FF"/>
<path d="M82.7634 80.5765V79.8828C82.7634 79.5681 82.5094 79.3127 82.195 79.3127H76.1431C75.8293 79.3127 75.5747 79.5681 75.5747 79.8828V92.1423H91.2288V80.5765H82.7634Z" fill="#1A5280"/>
<path d="M75.9579 81.06V92.1462H90.459V81.0055L75.9579 81.06Z" fill="white"/>
<path d="M76.6297 81.06V92.1462H91.2552V81.0055L76.6297 81.06Z" fill="#1480CC"/>
<path d="M91.835 80.5804H77.4145C77.118 80.5804 76.9005 80.7801 76.858 81.0565V92.1462H92.5964V81.3376C92.6 80.9395 92.2396 80.5804 91.835 80.5804Z" fill="#BFE1FF"/>
<path d="M89.9049 85.6479L79.2614 85.6772L79.2386 77.5642L89.8821 77.5342L89.9049 85.6479Z" fill="#CCE7FF"/>
<path d="M89.6258 85.2592L79.5274 85.2874L79.5065 77.8284L89.6049 77.8002L89.6258 85.2592Z" fill="#3397FF"/>
<path d="M80.3785 84.6855L86.8679 84.6676L83.3199 81.2532L80.3785 84.6855Z" fill="#E3EEFF"/>
<path d="M83.3295 84.6772L88.7824 84.6623L85.8231 81.8402L83.3295 84.6772Z" fill="#E3EEFF"/>
<path d="M86.098 80.4913C86.0992 80.908 85.7639 81.2461 85.3485 81.2473C84.9337 81.2485 84.5966 80.9122 84.5954 80.4955C84.5942 80.0794 84.9295 79.7407 85.3443 79.7395C85.7597 79.7383 86.0968 80.0752 86.098 80.4913Z" fill="#E3EEFF"/>
<path d="M91.5594 84.2767L81.6923 84.3079L81.669 75.7008L91.5355 75.6696L91.5594 84.2767Z" fill="#CCE7FF"/>
<path d="M91.2725 83.8636L81.9655 83.8936L81.944 75.9814L91.251 75.9508L91.2725 83.8636Z" fill="#198AFF"/>
<path d="M86.5631 77.0738H82.856V77.3999H86.5631V77.0738Z" fill="#CCE5FF"/>
<path d="M90.3974 78.2825H82.856V77.9557H90.3974V78.2825Z" fill="#CCE5FF"/>
<path d="M90.3974 79.1802H82.856V78.854H90.3974V79.1802Z" fill="#CCE5FF"/>
<path d="M90.3974 80.1365H82.856V79.8097H90.3974V80.1365Z" fill="#CCE5FF"/>
<path d="M92.6669 81.3399V92.1479H77.0289V81.0552C77.0732 80.7806 77.2901 80.5815 77.583 80.5815H91.9078C92.3113 80.5815 92.6699 80.9383 92.6669 81.3399Z" fill="#66B8FF"/>
<path d="M77.0092 91.9982H75.4318V92.1462H77.0092V91.9982Z" fill="#BFE1FF"/>
<path d="M86.8506 85.4896C86.8506 86.7942 85.7962 87.8518 84.4956 87.8518C83.1949 87.8518 82.1406 86.7942 82.1406 85.4896C82.1406 84.185 83.1949 83.1274 84.4956 83.1274C85.7962 83.1274 86.8506 84.185 86.8506 85.4896Z" fill="white"/>
<path d="M84.4986 85.4045C84.7054 85.4045 84.8955 85.3038 85.0174 85.1497C85.107 85.0382 85.1602 84.8949 85.1602 84.736C85.1602 84.3697 84.8638 84.067 84.4986 84.067C84.1286 84.067 83.8321 84.3697 83.8321 84.736C83.8321 84.8949 83.8847 85.0382 83.975 85.1497C84.0963 85.3038 84.287 85.4045 84.4986 85.4045Z" fill="#275880"/>
<path d="M85.6701 86.5965C85.6701 87.0186 83.3205 87.0186 83.3205 86.5965L83.3217 86.1043C83.4143 85.4322 85.4794 85.404 85.6707 86.1043L85.6701 86.5965Z" fill="#275880"/>
<path d="M88.3628 89.5059H80.629V89.0748H88.3628V89.5059Z" fill="white"/>
<path d="M87.4555 90.4011H81.5357V89.9701H87.4555V90.4011Z" fill="white"/>
<path d="M87.2057 105.695H92.5456V102.476H87.2057V105.695Z" fill="#AAE0FF"/>
<path d="M81.1526 105.695H86.4926V102.476H81.1526V105.695Z" fill="#AAE0FF"/>
<path d="M75.0995 105.695H80.4389V102.476H75.0995V105.695Z" fill="#AAE0FF"/>
<path d="M87.2057 109.482H92.5456V106.264H87.2057V109.482Z" fill="#AAE0FF"/>
<path d="M81.1526 109.482H86.4926V106.264H81.1526V109.482Z" fill="#AAE0FF"/>
<path d="M75.0995 109.482H80.4389V106.264H75.0995V109.482Z" fill="#AAE0FF"/>
<path d="M87.2057 113.226H92.5456V110.009H87.2057V113.226Z" fill="#AAE0FF"/>
<path d="M81.1526 113.226H86.4926V110.009H81.1526V113.226Z" fill="#AAE0FF"/>
<path d="M81.1526 117.013H86.4926V113.795H81.1526V117.013Z" fill="#AAE0FF"/>
<path d="M75.0995 113.226H80.4389V110.009H75.0995V113.226Z" fill="#AAE0FF"/>
<path d="M98.2909 86.4086C98.2909 86.4086 105.214 89.1809 100.832 94.7639C96.4499 100.347 94.19 94.7639 96.7524 90.2463C97.6985 88.5772 98.2909 86.4086 98.2909 86.4086Z" fill="#FFA04D"/>
<path d="M98.2909 92.7017C98.2909 92.7017 105.214 95.4746 100.832 101.058C96.4499 106.64 94.19 101.058 96.7524 96.5394C97.6985 94.8709 98.2909 92.7017 98.2909 92.7017Z" fill="#FFA04D"/>
<path d="M98.4421 103.771C98.4421 103.771 103.844 105.934 100.425 110.29C97.0064 114.645 95.2431 110.29 97.2419 106.765C97.9806 105.463 98.4421 103.771 98.4421 103.771Z" fill="#FFA04D"/>
<path d="M58.9277 107.423C62.6597 98.2858 70.8025 81.0279 70.8025 81.0279C70.8025 81.0279 72.9537 80.2551 73.6889 84.2948C74.4241 88.3339 70.9101 96.2353 70.9101 96.2353C70.9101 96.2353 75.6195 115.613 65.5249 117.106C58.5121 118.144 56.6372 111.226 58.9277 107.423Z" fill="#FFA04D"/>
<path d="M96.8779 129.633C96.8779 129.633 82.1597 106.336 84.2966 103.474C86.4328 100.611 103.589 126.703 103.589 126.703L96.8779 129.633Z" fill="#FFA04D"/>
<path d="M91.3281 133.58C92.71 135.764 106.87 145.497 106.87 145.497C118.37 139.569 98.4953 128.826 98.4953 128.826C98.4953 128.826 102.712 120.481 98.4301 119.668C95.3053 119.072 93.4344 121.353 92.6532 122.626C92.5456 122.8 92.459 122.955 92.392 123.082C92.279 123.297 92.2235 123.43 92.2235 123.43C92.2235 123.43 89.9456 131.394 91.3281 133.58Z" fill="#FFA04D"/>
<path d="M95.3817 130.758L96.8629 129.607L106.991 145.653L120.776 137.054C120.776 137.054 116.562 118.361 114.381 116.003C112.201 113.644 109.321 112.508 109.321 112.508C106.705 111.434 105.783 112.715 104.613 112.54C101.944 112.143 100.741 114.533 99.9758 114.359C99.1025 114.16 97.9776 114.381 97.026 114.847C96.6148 115.047 96.2371 115.293 95.9257 115.571L95.9227 115.574C95.6029 115.857 95.353 116.175 95.2114 116.509L91.0363 117.992L92.3621 121.888L92.2252 121.924L92.5677 122.491L95.3817 130.758Z" fill="#FFA04D"/>
<path d="M94.6878 129.608C95.9125 133.154 98.5676 132.432 97.5831 130.349L92.6126 122.693C92.5056 122.866 92.4589 122.955 92.392 123.082C93.8606 125.361 94.6878 129.608 94.6878 129.608Z" fill="#CC6004"/>
<path d="M107.707 146.137C123.852 158.826 133.194 147.559 132.276 143.58L119.333 133.699L103.863 143.407L107.707 146.137Z" fill="#FFA04D"/>
</svg>
