<svg width="80" height="80" viewBox="0 0 80 80" fill="none" xmlns="http://www.w3.org/2000/svg">
<path d="M40 80C62.0914 80 80 62.0914 80 40C80 17.9086 62.0914 0 40 0C17.9086 0 0 17.9086 0 40C0 62.0914 17.9086 80 40 80Z" fill="#55ACEE"/>
<path d="M64.5014 28.747C62.7873 29.5071 60.9434 30.0212 59.0096 30.2508C60.984 29.0679 62.4992 27.1962 63.2144 24.9622C61.3669 26.0581 59.3198 26.8532 57.1429 27.2817C55.3988 25.4243 52.9138 24.2634 50.1622 24.2634C44.8829 24.2634 40.6011 28.5452 40.6011 33.8246C40.6011 34.574 40.6859 35.3034 40.8499 36.0036C32.9039 35.605 25.8583 31.7988 21.1423 26.0125C20.3194 27.4243 19.8474 29.0679 19.8474 30.8198C19.8474 34.1361 21.5366 37.0639 24.1007 38.778C22.5341 38.7288 21.0589 38.2989 19.7704 37.5808C19.7697 37.6215 19.7697 37.6621 19.7697 37.7021C19.7697 42.3347 23.0668 46.1986 27.4398 47.0764C26.6384 47.296 25.792 47.4122 24.9214 47.4122C24.3039 47.4122 23.7057 47.353 23.1224 47.2418C24.3388 51.0394 27.8691 53.8039 32.0539 53.8816C28.7811 56.4464 24.659 57.9744 20.1783 57.9744C19.4082 57.9744 18.6452 57.9295 17.8987 57.8404C22.1277 60.5542 27.1546 62.1364 32.5537 62.1364C50.1401 62.1364 59.7576 47.5676 59.7576 34.9319C59.7576 34.5176 59.7483 34.1048 59.7298 33.6955C61.5993 32.3479 63.2201 30.6644 64.5014 28.747Z" fill="#F1F2F2"/>
</svg>
